<svg width="1055" height="449" viewBox="0 0 1055 449" fill="none" xmlns="http://www.w3.org/2000/svg">
<path d="M177.476 6C205.777 6 230.492 11.5043 251.778 22.334C273.21 33.2377 290.298 47.9267 303.171 66.3965L303.194 66.4297C314.983 83.1028 322.516 101.5 325.806 121.689H246.828C242.618 107.361 234.773 95.7539 223.235 87.1494C210.525 77.6702 195.156 73.0732 177.476 73.0732C147.304 73.0734 123.955 86.1908 108.062 111.95L107.312 113.187L107.305 113.198C91.9051 139.07 84.4951 173.755 84.4951 216.72V222.72H97.082L98.7578 219.468C105.029 207.294 113.303 196.906 123.599 188.256C134.147 179.558 146.197 172.874 159.798 168.216C173.394 163.56 187.769 161.219 202.955 161.219C227.951 161.219 249.898 167.032 268.977 178.517L268.988 178.523L268.999 178.529C288.353 190.067 303.514 205.957 314.531 226.312L314.547 226.341L314.563 226.37C325.72 246.452 331.38 269.634 331.38 296.086C331.38 324.586 324.692 349.758 311.445 371.773L311.441 371.78L311.438 371.786C298.353 393.655 280.139 410.869 256.656 423.458C233.258 435.808 205.85 442.083 174.255 442.083C152.679 442.083 131.783 438.489 111.539 431.3C91.5449 424.199 73.6613 412.702 57.8623 396.715C42.6984 381.37 30.3332 361.041 20.9043 335.507L20.001 333.02C10.7294 306.317 6.00001 273.363 6 233.999C6 197.745 10.0494 165.522 18.0625 137.271C26.2881 108.959 37.8957 85.1575 52.79 65.7383C67.8701 46.1362 85.8903 31.3328 106.865 21.2197C127.834 11.1098 151.334 6.00006 177.476 6ZM524.11 6C560.217 6 590.622 14.633 615.628 31.6143L615.646 31.626C640.898 48.6481 660.313 73.2282 673.788 105.682L673.793 105.696L673.799 105.71C687.467 138.172 694.415 177.653 694.415 224.334C694.415 271.024 687.562 310.516 674.08 342.986C660.61 375.234 641.201 399.718 615.946 416.744C590.943 433.537 560.433 442.083 524.11 442.083C488.012 442.083 457.505 433.551 432.3 416.761C407.229 399.735 387.807 375.242 374.136 342.976C360.657 310.507 353.807 271.018 353.807 224.334C353.807 177.852 360.753 138.468 374.422 106.003L374.427 105.991C388.105 73.3164 407.533 48.6332 432.594 31.6143L432.593 31.6133C457.804 14.6242 488.215 6.00006 524.11 6ZM174.255 215.991C159.143 215.991 145.345 219.785 133.018 227.437C120.825 234.809 111.143 244.827 104.019 257.398L104.01 257.413L104.002 257.428C97.0258 269.9 93.5743 283.708 93.5742 298.722C93.5742 313.736 97.0259 327.625 103.981 340.271C110.913 352.875 120.42 362.924 132.457 370.315L132.477 370.327L132.496 370.34C144.815 377.774 158.59 381.452 173.669 381.452C188.892 381.452 202.665 377.895 214.814 370.648L214.848 370.628L214.881 370.608C226.918 363.217 236.425 353.168 243.356 340.564L243.355 340.563C250.517 327.898 254.057 313.808 254.057 298.429C254.057 283.055 250.619 269.046 243.629 256.549C236.703 244.166 227.213 234.335 215.214 227.153C203.228 219.662 189.509 215.991 174.255 215.991ZM524.11 69.8516C495.251 69.8517 473.082 84.3182 457.935 111.916C442.985 138.958 435.815 176.631 435.815 224.334C435.815 256.132 438.972 283.464 445.414 306.214L445.421 306.237L445.428 306.262C452.067 328.995 461.882 346.857 475.201 359.331L475.238 359.366C488.707 371.766 505.117 377.938 524.11 377.938C543.28 377.938 559.716 371.777 573.018 359.334L573.021 359.331C586.355 346.843 596.073 328.961 602.515 306.214L602.514 306.213C609.153 283.455 612.405 256.122 612.405 224.334C612.405 193.333 609.351 166.605 603.114 144.263L602.501 142.114C596.071 119.43 586.38 101.588 573.092 89.1123C559.802 76.251 543.341 69.8516 524.11 69.8516Z" fill="black" stroke="black" stroke-width="12"/>
<path d="M797.337 99.6704C797.763 100.127 798.288 100.691 798.905 101.352C800.717 103.293 803.312 106.066 806.444 109.401C812.708 116.069 821.124 124.984 829.729 133.964C838.33 142.939 847.142 152.001 854.19 158.956C857.709 162.428 860.825 165.41 863.271 167.603C864.489 168.695 865.587 169.634 866.514 170.352C867.254 170.925 868.407 171.786 869.575 172.175C870.698 172.55 871.832 172.807 872.943 172.98L868.444 177.479C867.594 175.188 866.141 172.812 863.714 170.79C862.611 169.87 861.209 169.392 860.213 169.107C859.068 168.779 857.723 168.513 856.271 168.288C853.358 167.836 849.643 167.496 845.483 167.236C837.143 166.715 826.65 166.496 816.414 166.434C806.163 166.372 796.106 166.465 788.617 166.575C784.872 166.629 781.765 166.687 779.594 166.732C778.999 166.744 778.474 166.756 778.025 166.766L710.929 99.6704H797.337Z" fill="black" stroke="black" stroke-width="8.57674"/>
<path d="M955.797 348.564C955.371 348.107 954.845 347.543 954.229 346.883C952.417 344.942 949.822 342.168 946.689 338.834C940.426 332.165 932.01 323.25 923.404 314.27C914.804 305.296 905.991 296.233 898.943 289.279C895.424 285.807 892.309 282.824 889.863 280.632C888.645 279.539 887.546 278.6 886.62 277.883C885.88 277.309 884.727 276.449 883.559 276.059C882.436 275.685 881.302 275.428 880.19 275.255L884.689 270.756C885.54 273.047 886.993 275.422 889.42 277.445C890.523 278.364 891.924 278.842 892.921 279.128C894.065 279.455 895.411 279.722 896.862 279.947C899.776 280.399 903.491 280.739 907.65 280.999C915.991 281.52 926.484 281.738 936.72 281.801C946.971 281.863 957.028 281.769 964.517 281.66C968.262 281.605 971.369 281.548 973.54 281.503C974.135 281.49 974.66 281.478 975.108 281.469L1042.21 348.564H955.797Z" fill="black" stroke="black" stroke-width="8.57674"/>
<path d="M1043.76 99.6704L795.85 348.368H710.272L956.252 99.6704H1043.76Z" fill="black" stroke="black" stroke-width="8.57674"/>
</svg>
