<svg width="800" height="400" viewBox="0 0 800 400" fill="none" xmlns="http://www.w3.org/2000/svg">
<g clip-path="url(#clip0_61_551)">
<path d="M496.194 267.636C449.76 301.861 382.457 320.121 324.51 320.121C243.26 320.121 170.114 290.07 114.776 240.088C110.428 236.158 114.323 230.802 119.541 233.862C179.261 268.609 253.103 289.513 329.38 289.513C380.822 289.513 437.412 278.87 489.446 256.784C497.307 253.445 503.88 261.931 496.194 267.636Z" fill="#FF9900"/>
<path d="M515.498 245.549C509.585 237.967 476.264 241.967 461.308 243.741C456.751 244.297 456.055 240.332 460.16 237.48C486.698 218.802 530.245 224.193 535.323 230.454C540.401 236.749 534.002 280.401 509.063 301.235C505.237 304.435 501.585 302.731 503.289 298.487C508.889 284.505 521.445 253.166 515.498 245.549Z" fill="#FF9900"/>
<path d="M462.351 105.622V87.4655C462.351 84.7177 464.438 82.8743 466.942 82.8743H548.228C550.836 82.8743 552.923 84.7525 552.923 87.4655V103.013C552.888 105.622 550.697 109.03 546.801 114.421L504.681 174.559C520.332 174.177 536.854 176.507 551.045 184.507C554.245 186.316 555.114 188.959 555.358 191.568V210.941C555.358 213.585 552.436 216.68 549.375 215.08C524.367 201.967 491.15 200.541 463.499 215.219C460.682 216.75 457.725 213.689 457.725 211.046V192.646C457.725 189.689 457.76 184.646 460.716 180.159L509.515 110.178H467.047C464.438 110.178 462.351 108.335 462.351 105.622Z" fill="#221F1F"/>
<path d="M165.836 218.906H141.106C138.741 218.732 136.863 216.958 136.689 214.697V87.7784C136.689 85.2393 138.811 83.2219 141.454 83.2219H164.514C166.914 83.3262 168.827 85.1697 169.001 87.4653V104.056H169.454C175.471 88.0218 186.775 80.5437 202.009 80.5437C217.487 80.5437 227.157 88.0218 234.113 104.056C240.095 88.0218 253.695 80.5437 268.269 80.5437C278.634 80.5437 289.973 84.8219 296.894 94.4217C304.72 105.1 303.12 120.612 303.12 134.212L303.086 214.315C303.086 216.854 300.964 218.906 298.32 218.906H273.625C271.156 218.732 269.173 216.75 269.173 214.315V147.047C269.173 141.69 269.66 128.334 268.478 123.256C266.634 114.734 261.104 112.334 253.939 112.334C247.956 112.334 241.695 116.334 239.156 122.734C236.617 129.134 236.861 139.847 236.861 147.047V214.315C236.861 216.854 234.739 218.906 232.096 218.906H207.401C204.896 218.732 202.948 216.75 202.948 214.315L202.914 147.047C202.914 132.89 205.244 112.056 187.679 112.056C169.906 112.056 170.601 132.369 170.601 147.047V214.315C170.601 216.854 168.48 218.906 165.836 218.906Z" fill="#221F1F"/>
<path d="M622.905 80.5437C659.6 80.5437 679.46 112.056 679.46 152.125C679.46 190.837 657.513 221.549 622.905 221.549C586.871 221.549 567.254 190.037 567.254 150.768C567.254 111.256 587.114 80.5437 622.905 80.5437ZM623.114 106.456C604.888 106.456 603.74 131.29 603.74 146.768C603.74 162.281 603.497 195.393 622.905 195.393C642.07 195.393 642.974 168.681 642.974 152.403C642.974 141.69 642.522 128.891 639.287 118.734C636.505 109.9 630.974 106.456 623.114 106.456Z" fill="#221F1F"/>
<path d="M727.041 218.906H702.416C699.946 218.732 697.963 216.75 697.963 214.315L697.929 87.3609C698.137 85.0306 700.189 83.2219 702.694 83.2219H725.615C727.772 83.3262 729.545 84.7871 730.032 86.7697V106.178H730.485C737.406 88.8218 747.11 80.5437 764.188 80.5437C775.284 80.5437 786.101 84.5436 793.057 95.4999C799.527 105.656 799.527 122.734 799.527 135.012V214.906C799.248 217.132 797.196 218.906 794.761 218.906H769.962C767.701 218.732 765.823 217.063 765.579 214.906V145.968C765.579 132.09 767.179 111.778 750.102 111.778C744.084 111.778 738.554 115.813 735.806 121.934C732.328 129.691 731.876 137.412 731.876 145.968V214.315C731.841 216.854 729.685 218.906 727.041 218.906Z" fill="#221F1F"/>
<path d="M397.553 158.282V152.925C379.675 152.925 360.788 156.751 360.788 177.829C360.788 188.507 366.318 195.742 375.814 195.742C382.77 195.742 388.996 191.463 392.927 184.507C397.796 175.951 397.553 167.916 397.553 158.282ZM422.491 218.559C420.856 220.019 418.491 220.124 416.648 219.15C408.439 212.333 406.978 209.167 402.457 202.663C388.892 216.506 379.292 220.645 361.692 220.645C340.893 220.645 324.685 207.811 324.685 182.107C324.685 162.038 335.571 148.369 351.049 141.691C364.475 135.778 383.222 134.734 397.553 133.099V129.9C397.553 124.021 398.005 117.065 394.561 111.987C391.535 107.43 385.762 105.552 380.683 105.552C371.258 105.552 362.84 110.387 360.788 120.404C360.371 122.63 358.736 124.821 356.51 124.926L332.51 122.352C330.493 121.9 328.267 120.265 328.824 117.169C334.354 88.0917 360.614 79.3267 384.127 79.3267C396.161 79.3267 411.883 82.5266 421.378 91.6394C433.413 102.874 432.265 117.865 432.265 134.178V172.716C432.265 184.298 437.065 189.377 441.586 195.637C443.186 197.863 443.534 200.542 441.517 202.211C436.474 206.42 427.5 214.246 422.561 218.628L422.491 218.559Z" fill="#221F1F"/>
<path d="M73.351 158.282V152.925C55.473 152.925 36.5865 156.751 36.5865 177.829C36.5865 188.507 42.1168 195.742 51.6123 195.742C58.5686 195.742 64.7946 191.463 68.725 184.507C73.5944 175.951 73.351 167.916 73.351 158.282ZM98.2896 218.559C96.6548 220.019 94.2896 220.124 92.4462 219.15C84.2377 212.333 82.7768 209.167 78.2552 202.663C64.6902 216.506 55.0905 220.645 37.4908 220.645C16.6912 220.645 0.48291 207.811 0.48291 182.107C0.48291 162.038 11.3696 148.369 26.8476 141.691C40.2734 135.778 59.0208 134.734 73.351 133.099V129.9C73.351 124.021 73.8031 117.065 70.3597 111.987C67.3337 107.43 61.5599 105.552 56.4817 105.552C47.0559 105.552 38.6386 110.387 36.5865 120.404C36.1691 122.63 34.5344 124.821 32.3083 124.926L8.30883 122.352C6.29148 121.9 4.06544 120.265 4.62195 117.169C10.1523 88.0917 36.4126 79.3267 59.9251 79.3267C71.9597 79.3267 87.6811 82.5266 97.1765 91.6394C109.211 102.874 108.063 117.865 108.063 134.178V172.716C108.063 184.298 112.863 189.377 117.385 195.637C118.985 197.863 119.333 200.542 117.315 202.211C112.272 206.42 103.298 214.246 98.3591 218.628L98.2896 218.559Z" fill="#221F1F"/>
</g>
<defs>
<clipPath id="clip0_61_551">
<rect width="800" height="241.459" fill="white" transform="translate(0 79)"/>
</clipPath>
</defs>
</svg>
