<svg width="497" height="150" viewBox="0 0 497 150" fill="none" xmlns="http://www.w3.org/2000/svg">
<g clip-path="url(#clip0_48_91)">
<path d="M308.258 117.185C279.412 138.446 237.602 149.79 201.604 149.79C151.13 149.79 105.689 131.121 71.3123 100.072C68.6114 97.6299 71.0314 94.3024 74.2725 96.2039C111.372 117.79 157.244 130.776 204.629 130.776C236.586 130.776 271.741 124.164 304.066 110.443C308.949 108.369 313.033 113.641 308.258 117.185Z" fill="#FF9900"/>
<path d="M320.25 103.464C316.577 98.7537 295.877 101.239 286.586 102.341C283.755 102.686 283.323 100.223 285.873 98.4512C302.359 86.8481 329.411 90.1972 332.566 94.0865C335.721 97.9974 331.745 125.115 316.253 138.057C313.876 140.045 311.607 138.986 312.666 136.35C316.145 127.664 323.945 108.196 320.25 103.464Z" fill="#FF9900"/>
<path d="M287.234 16.5379V5.2589C287.234 3.55192 288.531 2.40674 290.086 2.40674H340.583C342.203 2.40674 343.5 3.57353 343.5 5.2589V14.9174C343.478 16.5379 342.117 18.6554 339.697 22.0045L313.53 59.3636C323.253 59.1259 333.517 60.5736 342.333 65.5432C344.321 66.6668 344.861 68.309 345.012 69.9295V81.9648C345.012 83.6069 343.197 85.53 341.296 84.536C325.76 76.3901 305.125 75.5042 287.947 84.6225C286.197 85.5732 284.36 83.6718 284.36 82.0296V70.5993C284.36 68.7627 284.382 65.6297 286.219 62.8423L316.534 19.3685H290.151C288.531 19.3685 287.234 18.2233 287.234 16.5379Z" fill="#221F1F"/>
<path d="M103.032 86.9129H87.6694C86.2001 86.8049 85.0333 85.7029 84.9253 84.2984V5.45344C84.9253 3.8761 86.2433 2.62287 87.8855 2.62287H102.211C103.702 2.68765 104.89 3.83288 104.998 5.25896V15.5656H105.279C109.017 5.60467 116.04 0.959106 125.504 0.959106C135.119 0.959106 141.126 5.60467 145.447 15.5656C149.164 5.60467 157.612 0.959106 166.666 0.959106C173.105 0.959106 180.149 3.6168 184.448 9.58041C189.31 16.2139 188.316 25.8507 188.316 34.2992L188.295 84.0607C188.295 85.6381 186.977 86.9129 185.334 86.9129H169.993C168.459 86.8049 167.227 85.5733 167.227 84.0607V42.2722C167.227 38.9447 167.53 30.6475 166.795 27.4929C165.65 22.1991 162.215 20.7082 157.763 20.7082C154.047 20.7082 150.158 23.193 148.58 27.1688C147.003 31.1445 147.154 37.7995 147.154 42.2722V84.0607C147.154 85.6381 145.836 86.9129 144.194 86.9129H128.853C127.297 86.8049 126.087 85.5733 126.087 84.0607L126.066 42.2722C126.066 33.4781 127.513 20.5353 116.602 20.5353C105.56 20.5353 105.992 33.154 105.992 42.2722V84.0607C105.992 85.6381 104.674 86.9129 103.032 86.9129Z" fill="#221F1F"/>
<path d="M386.974 0.959106C409.769 0.959106 422.107 20.5353 422.107 45.4269C422.107 69.4758 408.473 88.555 386.974 88.555C364.588 88.555 352.402 68.9789 352.402 44.5842C352.402 20.0383 364.74 0.959106 386.974 0.959106ZM387.103 17.0565C375.781 17.0565 375.068 32.4841 375.068 42.0994C375.068 51.7362 374.917 72.3064 386.974 72.3064C398.879 72.3064 399.441 55.712 399.441 45.5998C399.441 38.9447 399.16 30.9932 397.151 24.6839C395.422 19.1957 391.986 17.0565 387.103 17.0565Z" fill="#221F1F"/>
<path d="M451.665 86.9129H436.367C434.833 86.8049 433.602 85.5733 433.602 84.0607L433.58 5.19413C433.71 3.74644 434.985 2.62287 436.54 2.62287H450.779C452.119 2.68765 453.221 3.5952 453.524 4.82682V16.8837H453.804C458.104 6.10164 464.133 0.959106 474.742 0.959106C481.635 0.959106 488.355 3.44395 492.676 10.2502C496.695 16.5596 496.695 27.1688 496.695 34.7961V84.4281C496.522 85.8109 495.247 86.9129 493.735 86.9129H478.329C476.924 86.8049 475.757 85.7677 475.606 84.4281V41.6024C475.606 32.9811 476.6 20.3624 465.991 20.3624C462.253 20.3624 458.817 22.8689 457.11 26.6718C454.95 31.4902 454.669 36.287 454.669 41.6024V84.0607C454.647 85.6381 453.308 86.9129 451.665 86.9129Z" fill="#221F1F"/>
<path d="M246.98 49.2514V45.9239C235.874 45.9239 224.141 48.3007 224.141 61.3947C224.141 68.0282 227.576 72.5225 233.475 72.5225C237.797 72.5225 241.664 69.8648 244.106 65.5433C247.131 60.2279 246.98 55.2366 246.98 49.2514ZM262.472 86.6969C261.457 87.6044 259.987 87.6692 258.842 87.0642C253.743 82.8292 252.835 80.8629 250.026 76.8223C241.599 85.422 235.636 87.9933 224.703 87.9933C211.781 87.9933 201.712 80.0202 201.712 64.0524C201.712 51.585 208.475 43.0934 218.091 38.9448C226.431 35.2715 238.077 34.6233 246.98 33.6078V31.6199C246.98 27.9682 247.261 23.6468 245.121 20.4921C243.242 17.6616 239.655 16.4948 236.5 16.4948C230.645 16.4948 225.416 19.4982 224.141 25.7211C223.881 27.104 222.866 28.4652 221.483 28.53L206.574 26.9311C205.321 26.6502 203.938 25.6347 204.284 23.7116C207.719 5.64793 224.033 0.202881 238.639 0.202881C246.115 0.202881 255.882 2.19075 261.781 7.85186C269.257 14.831 268.544 24.1438 268.544 34.2776V58.2185C268.544 65.4137 271.526 68.5683 274.334 72.4577C275.328 73.8405 275.544 75.5043 274.291 76.5414C271.158 79.1559 265.584 84.0176 262.515 86.7401L262.472 86.6969Z" fill="#221F1F"/>
<path d="M45.5783 49.2514V45.9239C34.4721 45.9239 22.7394 48.3007 22.7394 61.3947C22.7394 68.0282 26.1749 72.5225 32.0737 72.5225C36.3952 72.5225 40.2629 69.8648 42.7045 65.5433C45.7295 60.2279 45.5783 55.2366 45.5783 49.2514ZM61.0707 86.6969C60.0552 87.6044 58.5859 87.6692 57.4407 87.0642C52.3414 82.8292 51.4339 80.8629 48.6249 76.8223C40.1981 85.422 34.2345 87.9933 23.3012 87.9933C10.38 87.9933 0.311035 80.0202 0.311035 64.0524C0.311035 51.585 7.07411 43.0934 16.6894 38.9448C25.0298 35.2715 36.6761 34.6233 45.5783 33.6078V31.6199C45.5783 27.9682 45.8592 23.6468 43.7201 20.4921C41.8402 17.6616 38.2534 16.4948 35.0988 16.4948C29.2432 16.4948 24.0142 19.4982 22.7394 25.7211C22.4801 27.104 21.4646 28.4652 20.0817 28.53L5.17268 26.9311C3.91945 26.6502 2.53658 25.6347 2.8823 23.7116C6.31786 5.64793 22.6314 0.202881 37.2379 0.202881C44.714 0.202881 54.4805 2.19075 60.3793 7.85186C67.8554 14.831 67.1424 24.1438 67.1424 34.2776V58.2185C67.1424 65.4137 70.1242 68.5683 72.9331 72.4577C73.9271 73.8405 74.1431 75.5043 72.8899 76.5414C69.7569 79.1559 64.1822 84.0176 61.1139 86.7401L61.0707 86.6969Z" fill="#221F1F"/>
</g>
<defs>
<clipPath id="clip0_48_91">
<rect width="496.978" height="150" fill="white" transform="translate(0.0112305)"/>
</clipPath>
</defs>
</svg>
