<svg width="800" height="400" viewBox="0 0 800 400" fill="none" xmlns="http://www.w3.org/2000/svg">
<g clip-path="url(#clip0_61_903)">
<path d="M488.409 163.335C487.06 164.383 463.228 177.811 463.228 207.669C463.228 242.205 493.552 254.423 494.46 254.726C494.32 255.47 489.643 271.458 478.472 287.749C468.512 302.085 458.109 316.397 442.284 316.397C426.458 316.397 422.386 307.204 404.117 307.204C386.313 307.204 379.983 316.7 365.508 316.7C351.033 316.7 340.932 303.435 329.32 287.144C315.868 268.014 305 238.295 305 210.089C305 164.848 334.416 140.854 363.367 140.854C378.75 140.854 391.573 150.954 401.231 150.954C410.424 150.954 424.759 140.249 442.26 140.249C448.893 140.249 472.724 140.854 488.409 163.335ZM433.952 121.096C441.19 112.509 446.31 100.593 446.31 88.6777C446.31 87.0254 446.17 85.3498 445.867 84C434.092 84.4422 420.082 91.8428 411.634 101.64C405.001 109.181 398.811 121.096 398.811 133.174C398.811 134.99 399.113 136.805 399.253 137.387C399.998 137.526 401.208 137.689 402.418 137.689C412.984 137.689 426.272 130.614 433.952 121.096Z" fill="black"/>
</g>
<defs>
<clipPath id="clip0_61_903">
<rect width="190.814" height="232.7" fill="white" transform="translate(305 84)"/>
</clipPath>
</defs>
</svg>
