<svg width="123" height="150" viewBox="0 0 123 150" fill="none" xmlns="http://www.w3.org/2000/svg">
<path d="M118.227 51.1401C117.357 51.8152 101.995 60.471 101.995 79.718C101.995 101.98 121.542 109.856 122.127 110.051C122.037 110.531 119.022 120.837 111.821 131.338C105.401 140.579 98.6949 149.805 88.4939 149.805C78.2928 149.805 75.6676 143.879 63.8914 143.879C52.4152 143.879 48.3348 150 39.0039 150C29.673 150 23.1623 141.449 15.6766 130.948C7.0057 118.617 0 99.4599 0 81.2781C0 52.1152 18.9619 36.6487 37.6238 36.6487C47.5398 36.6487 55.8056 43.1593 62.0312 43.1593C67.9568 43.1593 77.1977 36.2586 88.4788 36.2586C92.7543 36.2586 108.116 36.6487 118.227 51.1401ZM83.1233 23.9124C87.7888 18.3768 91.0891 10.6961 91.0891 3.0153C91.0891 1.9502 90.9991 0.870087 90.8041 0C83.2133 0.285028 74.1824 5.05551 68.7369 11.3711C64.4614 16.2316 60.471 23.9124 60.471 31.6982C60.471 32.8683 60.6661 34.0384 60.7561 34.4134C61.2361 34.5034 62.0162 34.6085 62.7963 34.6085C69.607 34.6085 78.1728 30.048 83.1233 23.9124Z" fill="black"/>
</svg>
