<svg xmlns="http://www.w3.org/2000/svg" fill="none" height="150" width="722" xmlns:v="https://vecta.io/nano"><style><![CDATA[.B{fill:#211e1e}.C{fill:#fff}.D{fill:#fddc02}.E{fill:#ee2e4f}.F{stroke:#211e1e}.G{stroke-width:.333}]]></style><mask id="A" height="150" maskUnits="userSpaceOnUse" width="129" x="0" y="0"><path d="M0 0h128.069v150H0z" class="C"/></mask><mask id="B" height="148" maskUnits="userSpaceOnUse" width="129" x="0" y="2"><path d="M0 2.457h128.069V150H0z" class="C"/></mask><mask id="C" height="55" maskUnits="userSpaceOnUse" width="55" x="0" y="2"><path d="M0 2.457h54.297v54.358H0z" class="C"/></mask><mask id="D" height="67" maskUnits="userSpaceOnUse" width="55" x="0" y="76"><path d="M0 76.228h54.297v66.006H0z" class="C"/></mask><mask id="E" height="57" maskUnits="userSpaceOnUse" width="36" x="446" y="0"><path d="M446.451 0h34.945v56.815h-34.945z" class="C"/></mask><mask id="F" height="71" maskUnits="userSpaceOnUse" width="55" x="667" y="72"><path d="M667.766 72.346h53.948v69.888h-53.948z" class="C"/></mask><mask id="G" height="57" maskUnits="userSpaceOnUse" width="52" x="508" y="0"><path d="M508.575 0h50.475v56.815h-50.475z" class="C"/></mask><mask id="H" height="57" maskUnits="userSpaceOnUse" width="59" x="621" y="0"><path d="M621.173 0h58.241v56.815h-58.241z" class="C"/></mask><mask id="I" height="55" maskUnits="userSpaceOnUse" width="39" x="683" y="2"><path d="M683.297 2.457h38.417v54.358h-38.417z" class="C"/></mask><g mask="url(#A)" class="B"><path d="M29.636 2.366h68.585l3.139-.03h6.977c3.336 0 8.827-.167 16.577-.485l2.897-.122c-.425 6.006-.5 8.372-.516 11.557l-.045 9.221-.03 8.736v48.792c0 30.728-6.962 41.163-40.102 57.527l-20.126 10.102-1.653.894-1.699.88-1.684-.88-1.699-.894c-6.962-3.641-14.029-6.856-19.52-9.556C10.374 123.215.652 112.644.652 80.035V31.243l-.091-8.736-.03-9.221C.501 7.72.44 5.915 0 1.729l2.897.122 16.623.485h6.931z"/></g><g mask="url(#B)" class="C"><path d="M63.641 146.451l13.058-6.4.334-.122-.091-.288V79.58l-.121-.364.409.076h47.245l.409.121-.121-.516V53.433l.121-.41-.409.121H77.23l-.409.076.121-.41V5.035l.091-.41-.364.121H50.795l-.41-.121.121.41v47.776l.091.409-.379-.076H3.337l-.41-.121.122.41V79.14l-.122.273.41-.121h46.881l.379-.076-.091.485v59.818l-.121.485.318.091z"/></g><g mask="url(#C)" class="E"><path d="M3.55 4.747l-.622-.121.122.455v47.821l-.122.364.577-.121h46.683l.395.121-.076-.409V4.959l.076-.334-.395.122z"/></g><path d="M77.442 4.746l-.577-.121.076.455v47.821l-.077.363.532-.121h47.048l.44.121-.121-.408V4.958l.121-.333-.44.121z" class="E"/><g mask="url(#D)" class="E"><path d="M50.385 79.307H3.216l-.288-.121.122.318v2.852c0 26.253 8.766 39.024 35.748 52.068l8.524 4.125 2.973 1.38.243.288-.03-.409V79.55l.091-.364z"/></g><path d="M77.183 79.306l-.319-.121.077.273v60.181l-.077.455.319-.363 2.7-1.23c36.628-17.244 44.878-27.513 44.878-55.905v-3.018l.121-.409-.409.121z" class="E"/><path d="M10.723 55.509l.288.319.318.363.379.38c.061.077.183.182.319.319l-.198.166-.408.364-.335.364-.121.136v.38c0 3.306.865 5.551 2.7 7.037l.319.273-.319.212-.379-.033-.774-.088-.682-.121-.409-.077-.409 2.943h-.578l-.409-2.943-.409.077-.653.121-.803.088-.38.033c-.166 0-.303-.066-.303-.121 0-.077.061-.167.182-.258l.606-.47c.516-.394.85-.865 1.442-2.078.256-.546.408-1.016.408-1.349 0-.865.136-1.547.288-1.547l.077-1.517.044-.561-.167-.136-.334-.363-.409-.365-.152-.167.319-.318c.561-.561.624-.623.942-1.063zm15.47 0c.319.44.363.501.94 1.062.061.077.182.182.319.319l-.167.166-.409.364-.319.364-.197.136.077.561.075 1.517c.121 2.154 1.321 4.656 2.579 5.338.212.121.349.229.349.274 0 .052-.021.103-.058.139s-.087.058-.14.058l-.53-.011-.773-.088-.698-.121-.395-.077-.409 2.942h-.53l-.409-2.942-.409.077-.698.121-.774.088-.363.033-.062.011c-.166 0-.273-.066-.273-.136 0-.077.061-.182.167-.258l.606-.47c.546-.409.682-.622 1.442-2.078.287-.577.439-1.031.439-1.35 0-.864.121-1.546.242-1.546l.091-1.517.031-.561c-.034-.05-.075-.096-.121-.136l-.363-.364-.41-.364-.151-.167.319-.319.363-.379.334-.364.287-.321zm-7.721 9.055l.288.334.288.364a2.09 2.09 0 0 0 .363.364l.364.319-.197.166-.363.38-.38.319-.121.166v.38c0 3.397.819 5.505 2.7 7.037l.319.273-.319.228-.363-.044-.789-.077-.682-.136-.411-.077-.409 2.943H18.2l-.425-2.943-.41.077-.682.136-.774.077-.379.044H15.5c-.167 0-.288-.066-.288-.136s.077-.152.198-.257l.621-.47c1.304-1.001 2.199-3.731 2.199-6.673v-.379l-.121-.167-.363-.319-.38-.379-.198-.167c.623-.531.927-.852 1.305-1.382zm15.516 0c.379.531.682.85 1.304 1.38l-.212.167-.363.38-.364.319-.121.166-.017.379c0 2.214.653 4.883 1.396 5.748l.819.924c.06.077.212.198.44.365l.379.273-.334.228-.363-.044-.774-.077-.698-.136-.41-.077-.409 2.942H33.7l-.409-2.942-.409.077-.698.136-.774.077-.363.044h-.046c-.152 0-.288-.066-.288-.136 0-.077.077-.167.183-.257l.591-.47c1.289-1.016 2.245-3.746 2.245-6.674v-.379l-.121-.167-.364-.318-.364-.38-.212-.167.38-.318a3.98 3.98 0 0 0 .363-.363l.288-.365zm7.75-9.055c.318.44.363.501.925 1.062l.334.319-.166.166-.409.364-.319.364-.166.136.044.561.077 1.517c.121 2.109 1.349 4.686 2.578 5.338.212.121.335.229.335.274 0 .11-.06.197-.152.197l-.516-.011-.819-.088a3.93 3.93 0 0 1-.698-.121l-.363-.077-.395 2.942h-.576l-.411-2.942-.424.11-.682.088-.774.088-.364.033-.06.011c-.152 0-.273-.066-.273-.136s.076-.167.182-.258l.606-.47c.532-.425.713-.682 1.426-2.078.288-.577.44-1.047.44-1.35 0-.865.121-1.546.242-1.546l.091-1.517.031-.561-.121-.136-.364-.364-.363-.364c-.032-.033-.107-.088-.214-.167l.335-.319a5.07 5.07 0 0 0 .363-.379c.12-.113.231-.235.334-.364l.288-.321zm44.013-.076l.288.364.288.319.363.408.364.334-.197.152-.363.379-.38.319-.121.166v.349c0 3.291 1.107 6.158 2.7 7.037.242.136.348.242.348.349l-.015.066-.334.077h-.363c-.485 0-1.335-.152-1.882-.318l-.408 2.928h-.577l-.394-2.928c-.577.182-1.411.319-1.881.319h-.363c-.243 0-.35-.044-.35-.138 0-.121.106-.228.349-.349 1.563-.819 2.685-3.761 2.685-7.037v-.349l-.121-.167-.364-.318-.364-.379-.212-.152.363-.334c.062-.044.183-.182.38-.409l.273-.318zm15.548 0l.286.364.334.319.363.408.32.334-.197.152-.364.379-.379.319-.121.166v.349c0 3.247 1.122 6.173 2.699 7.037.243.136.349.242.349.349l-.015.066-.335.077h-.363c-.485 0-1.335-.152-1.882-.318l-.408 2.928h-.577l-.394-2.928a6.93 6.93 0 0 1-2.047.319c-.44 0-.532-.033-.532-.168 0-.11.091-.197.363-.318.335-.152.926-.758 1.275-1.304.638-1.031 1.017-1.926 1.017-2.456 0-.88.136-1.593.287-1.593l.077-1.501.044-.53-.166-.167c-.516-.517-.561-.561-.941-.85l.364-.334.38-.409.319-.319zm-7.752 9.055c.102.101.198.207.288.319l.334.379c.045.044.152.182.335.379.076.077.211.152.348.304l-.197.167-.363.409-.38.319-.121.166.045.531.076 1.517c.121 2.23 1.289 4.641 2.579 5.338.242.138.349.244.349.365l-.031.044-.319.077h-.363a7.17 7.17 0 0 1-1.882-.319l-.408 2.928h-.577l-.409-2.928c-.546.198-1.35.335-2.047.335-.411 0-.517-.044-.517-.198 0-.11.107-.196.365-.303.318-.136.94-.774 1.273-1.304.667-1.092 1.062-2.003 1.062-2.442 0-.879.106-1.593.242-1.593l.077-1.517.044-.531-.166-.167-.335-.318-.409-.409-.151-.167.318-.318c.577-.561.623-.622.941-1.062zm15.668 0a3.64 3.64 0 0 1 .287.319l.335.379.363.364c.113.1.219.207.319.319-.06.077-.121.135-.152.166l-.409.409-.38.319c-.015.033-.06.077-.121.166l.045.531.076 1.517c.121 2.23 1.289 4.641 2.579 5.338.242.138.349.244.349.365l-.031.044-.319.077h-.363c-.487 0-1.335-.136-1.882-.319l-.409 2.928h-.532l-.455-2.928c-.546.198-1.35.335-2.033.335-.424 0-.53-.044-.53-.198 0-.11.106-.196.363-.303.319-.136.941-.774 1.275-1.304.652-1.092 1.062-2.003 1.062-2.442 0-.879.105-1.593.242-1.593l.077-1.517.044-.531-.166-.167-.334-.318-.409-.409-.151-.167.319-.318c.576-.561.623-.622.941-1.062zm7.75-9.055l.288.364.333.319.365.408.319.334-.198.152-.363.379-.38.319-.106.166v.349c0 3.247 1.107 6.173 2.686 7.037.242.136.347.242.347.349l-.015.066-.333.077h-.364c-.486 0-1.335-.152-1.882-.318l-.409 2.928h-.576l-.395-2.928c-.662.208-1.352.316-2.047.319-.44 0-.53-.033-.53-.168 0-.11.091-.197.363-.318.334-.152.925-.758 1.274-1.304.637-1.031 1.016-1.926 1.016-2.456 0-.88.137-1.593.288-1.593l.076-1.501.045-.53-.167-.167-.318-.319-.409-.377-.168-.152.32-.334.378-.409.319-.319zM56.587 97.582c.318.425.363.501.94 1.062l.319.318-.152.167-.425.364-.319.364-.166.166.044.531.077 1.516c.076 1.32.637 3.049 1.304 4.035.455.652.955 1.167 1.273 1.304.273.121.364.197.364.334s-.091.152-.577.152a6.98 6.98 0 0 1-2.002-.32l-.394 2.928h-.576l-.41-2.928c-.546.169-1.395.32-1.88.32h-.365c-.242 0-.334-.044-.334-.137 0-.121.091-.228.334-.349.394-.212.955-.773 1.259-1.304.727-1.2 1.061-2.003 1.061-2.443.015-.894.121-1.592.259-1.592l.076-1.516.044-.531-.121-.166-.376-.364-.363-.364-.198-.167c.098-.114.205-.22.319-.318l.363-.379c.12-.113.231-.235.334-.364.09-.112.186-.219.288-.319zm14.56 0c.319.425.379.501.94 1.062l.334.318-.166.167-.409.364-.335.364-.151.166.031.531.091 1.516c.076 1.32.622 3.049 1.304 4.035.44.652.94 1.167 1.259 1.304.273.121.379.197.379.334s-.106.152-.577.152a6.98 6.98 0 0 1-2.002-.32l-.409 2.928h-.576l-.41-2.928c-.546.169-1.394.32-1.865.32h-.379c-.228 0-.333-.044-.333-.137 0-.121.106-.228.333-.349.409-.212.955-.773 1.273-1.304.713-1.2 1.062-2.003 1.062-2.443 0-.894.106-1.592.242-1.592l.077-1.516.044-.531-.121-.166-.728-.729-.213-.167.334-.318a5.01 5.01 0 0 0 .363-.379l.319-.364c.077-.077.167-.183.288-.319zm-7.417 13.21l.182.441.38.257.379.41.319.318-.167.167-.409.363-.319.335c-.044.033-.09.088-.165.167l.044.516.077 1.517c.121 2.214 1.365 4.792 2.578 5.338.273.136.363.212.363.333l-.044.077-.288.121-.364-.033-.819-.088c-.231-.018-.459-.058-.682-.121l-.38-.077-.44 2.943h-.53l-.409-2.943-.409.077-.698.121-.774.088-.363.033-.045.011c-.183 0-.288-.077-.288-.197s.091-.212.334-.349c.394-.212.955-.773 1.259-1.288.727-1.214 1.061-2.003 1.061-2.458 0-.879.121-1.591.243-1.591l.091-1.518.045-.516-.136-.168-.363-.333-.364-.363-.212-.169.333-.318.363-.409.335-.334zm-7.234 13.468l.288.364.334.334.363.41.274.379-.152.11-.363.364-.365.319-.121.167.031.531.091 1.516c.121 2.229 1.275 4.64 2.564 5.338.242.137.348.242.348.364l-.015.045-.334.077h-.363c-.335 0-.911-.077-1.882-.273l-.409 2.896h-.561l-.41-2.896c-.864.198-1.517.288-2.047.288-.425 0-.516-.044-.516-.197 0-.11.091-.182.349-.304.335-.136.941-.774 1.275-1.304.667-1.092 1.062-1.987 1.062-2.441 0-.881.106-1.593.242-1.593l.076-1.516.045-.531c-.076-.066-.121-.121-.167-.167l-.318-.319-.409-.364-.167-.167.335-.319.363-.408.319-.334zm14.651 0l.242.364.334.334.304.455.394.273-.166.167-.409.363-.335.319c-.031.044-.076.111-.151.168l.031.53.091 1.517c.076 1.334.622 3.049 1.304 4.034.44.651.94 1.167 1.259 1.304.273.121.379.212.379.333 0 .137-.106.168-.546.168-.531 0-1.168-.088-2.033-.289l-.409 2.897h-.576l-.409-2.897c-.956.198-1.547.273-1.866.273h-.381c-.228 0-.333-.033-.333-.136 0-.11.106-.228.333-.349.409-.197.955-.774 1.275-1.304.712-1.198 1.061-1.987 1.061-2.442 0-.88.106-1.592.242-1.592l.077-1.517.044-.53-.121-.168-.363-.319-.363-.363-.214-.167.334-.319.364-.409.319-.333zM63.73 84.281l.242.363.319.319.38.409.318.333-.167.152-.409.379-.319.318-.165.167.044.531.077 1.501c.121 2.214 1.394 4.854 2.578 5.353.257.11.349.198.349.304 0 .152-.091.182-.516.182-.531 0-1.183-.088-2.047-.273l-.44 2.928h-.53l-.409-2.928-1.881.273h-.363c-.243 0-.349-.044-.349-.136 0-.121.106-.228.348-.349.395-.212.956-.774 1.259-1.304.729-1.198 1.062-1.987 1.062-2.457 0-.88.121-1.593.242-1.593l.091-1.502.045-.531-.136-.167-.363-.318-.364-.38-.212-.152.333-.333.364-.409.334-.318zM56.375 9.812l.287.318.335.379.363.363.319.319-.152.167-.409.363c-.045.033-.152.153-.363.365-.032.033-.077.077-.122.136l.031.561.091 1.472c.076 1.425.713 3.396 1.304 4.079l.803.94.456.364.349.273-.349.212-.363-.033-.775-.088-.698-.121-.41-.077-.44 2.807-.5.137-.409-2.943-.395.077-.697.121-.789.088-.425.044c-.152 0-.258-.066-.258-.136 0-.077.06-.167.166-.258.031-.033.243-.182.608-.47.53-.394.682-.622 1.425-2.077.304-.577.455-1.031.455-1.35 0-.879.106-1.593.242-1.593l.077-1.472.044-.561-.165-.136-.319-.363-.41-.365-.167-.167a3.05 3.05 0 0 0 .319-.318c.576-.561.622-.616.94-1.057zm14.772 0c.319.44.379.501.94 1.062l.334.318-.166.167-.409.363-.335.365-.151.136.031.561.091 1.472c.121 2.153 1.334 4.733 2.563 5.384.211.121.348.212.348.273 0 .11-.076.197-.166.197l-.501-.011-.819-.088c-.236-.017-.47-.057-.698-.121l-.363-.077-.41 2.942h-.576l-.41-2.942-.44-.044-.651.242-.774.088-.379.033-.045.011c-.152 0-.273-.066-.273-.135 0-.077.061-.167.182-.258l.592-.47c.546-.425.728-.682 1.425-2.078.304-.577.454-1.047.454-1.35 0-.879.106-1.593.243-1.593l.076-1.47.045-.561-.121-.136-.363-.364-.365-.364-.213-.167.335-.319.363-.363.319-.379c.076-.066.165-.186.287-.324zm-7.508 12.77l.288.318.334.379.364.394.319.334-.198.167-.363.364-.363.318-.122.167.031.531.044 1.396c.122 2.229 1.321 4.762 2.61 5.459.242.138.349.242.349.365l-.031.044-.319.088h-.363c-.485 0-1.335-.152-1.881-.334l-.409 2.942h-.561l-.409-2.942a6.66 6.66 0 0 1-2.047.334c-.44 0-.532-.033-.532-.167 0-.121.091-.212.364-.334.334-.136.925-.743 1.275-1.304.636-1.031 1.016-1.926 1.016-2.443 0-.878.121-1.591.288-1.591l.076-1.517.044-.53a1 1 0 0 1-.165-.167l-.319-.318-.41-.364-.167-.167.319-.334.379-.394.319-.379a3.38 3.38 0 0 0 .242-.314zm-7.295 12.724l.273.335.288.363a4.52 4.52 0 0 0 .363.365l.38.333-.212.152-.363.38-.486.484v.38c0 2.154.638 4.854 1.35 5.611l.895 1.062c0 .011.152.136.455.38l.319.258-.319.228-.379-.044-.774-.077-.698-.121-.409-.088-.409 2.943h-.561l-.409-2.943-.41.088-.698.121-.774.077-.363.044h-.062c-.151 0-.273-.066-.273-.136s.077-.167.183-.258l.606-.47c1.35-1.076 2.245-3.7 2.245-6.673v-.38l-.136-.121-.364-.363-.363-.381c-.032-.011-.107-.077-.214-.152l.38-.333c.129-.113.25-.234.363-.363l.288-.365zm14.727 0a4.17 4.17 0 0 0 .288.335l.318.363c.061.044.182.183.363.365l.335.333a2.43 2.43 0 0 0-.198.152l-.864.864.045.577.077 1.501c.121 2.26 1.001 4.065 2.578 5.353l.319.258-.319.228-.379-.044-.774-.077-.682-.121-.409-.088-.41 2.943h-.576l-.456-3.064c-.728.167-.758.304-1.016.334l-.819.077-.363.044h-.046c-.136 0-.242-.066-.242-.136 0-.077.061-.167.166-.258l.622-.47c.516-.41.682-.622 1.426-2.078.287-.561.44-1.031.44-1.349 0-.85.121-1.547.242-1.547l.091-1.501.044-.577-.165-.121-.335-.363-.409-.38-.152-.152.319-.333c.561-.561.621-.626.94-1.066zM40.51 28.74l.167.605.319 1.321c.515 2.32.955 2.942 2.077 2.942.653 0 1.183-.364 1.35-.91l.242-.819c.061-.182.198-.304.395-.304.44 0 .652.47.667 1.486.015.304.106.971.288 2.003.105.59.161 1.189.166 1.788 0 .517-.044.727-.242 1.275.136.803.242 1.881.242 2.503 0 1.002-.182 1.941-.5 2.427a4.86 4.86 0 0 1 .211 1.546c-.004.453-.044.904-.121 1.35l-.212 1.41c0 .198.031.379.091.546.077.243.121.409.121.501 0 .11-.059.198-.121.198l-.819-.319-.895-.501c-.288-.152-.501-.304-.94-.726-.789.712-1.031.818-3.109 1.379-.409.121-.713.242-.895.379-.259.182-.44.288-.546.288-.349 0-.516-.577-.516-1.728 0-.88.091-1.669.258-2.276-.622-.242-1.137-.363-1.47-.363-.061 0-.259.033-.622.077l-.152.011c-.121 0-.212-.183-.212-.395 0-.152.106-.546.242-.879l.41-.986c.151-.349.484-.758.985-1.182.395-.349.774-.561 1.062-.606l1.456-.288c.88-.167 1.396-.638 1.396-1.244 0-.577-.38-.986-1.259-1.29l-1.76-.605c-.551-.214-1.084-.473-1.593-.775-.971-.577-1.137-.653-1.365-.653-.349 0-.561.258-.561.713 0 .729.47 1.244 1.153 1.244.141-.003.28-.033.409-.088.197-.077.334-.121.41-.121.197 0 .288.11.288.319l-.015.166-.077.698c-.059.591-.455 1.321-1.304 2.458l-.363.484c-.335 1.305-1.154 2.504-2.199 3.216a4.36 4.36 0 0 0-.456.334c-.122.186-.233.378-.334.577-.077.152-.349.485-.803.971a7.09 7.09 0 0 1-1.032.94c-.454.349-.727.591-.803.743l-.41.682a.38.38 0 0 1-.333.212c-.364 0-.698-.38-.895-1.031-.152-.47-.288-.605-.592-.605-.166 0-.394.044-.712.121l-.577.088H24.63c-.727 0-1.759.181-2.245.393-.182.088-.318.136-.408.136-.106 0-.167-.044-.273-.258-.065-.093-.097-.205-.091-.318 0-.743.531-2.153 1.228-3.26.44-.713.591-.88 1.107-1.321-.167-.682-.622-1.213-1.154-1.379l-.682-.198c-.106-.033-.166-.11-.166-.211 0-.198.333-.501.94-.819.789-.409 1.593-.653 2.23-.653.682 0 1.335.273 2.093.865 1.107.864 1.41 1.016 1.94 1.016.881 0 1.699-.789 1.699-1.623 0-.561-.288-1.167-1.078-2.168-1.137-1.471-1.47-2.23-1.47-3.322 0-.667.212-1.517.455-1.896l.409-.622c.085-.114.133-.252.137-.394 0-.273-.319-.455-.743-.455-.637 0-1.881.455-2.866 1.062-.485.288-.82.653-.82.865 0 .121.061.242.167.319l.454.287c.027.019.05.043.066.072s.025.062.025.095c0 .066-.076.182-.166.319l-.819 1.061c-.518.645-1.092 1.244-1.714 1.789l-.411.41c0 .011-.121.212-.333.606-.288.546-1.061 1.35-1.79 1.836-.204.136-.396.288-.577.455-.061.077-.166.258-.318.577l-.53.85c-.409.591-.729 1.016-.986 1.258l-1.138 1.154c-.363.349-.667 1.031-1.137 2.532-.304.895-.561 1.425-.713 1.425-.06 0-.182-.088-.319-.242-.803-.925-1.5-1.47-1.864-1.47-.091 0-.242.066-.456.197a2.91 2.91 0 0 1-1.106.409l-1.502.288c-1.137.212-1.593.47-2.245 1.228-.151.182-.287.288-.348.288-.136 0-.228-.212-.228-.485l.045-.38.198-1.107c.227-1.168.5-2.047.818-2.639l.698-1.273c.122-.202.19-.431.198-.667 0-.94-.972-1.791-2.154-1.896-.304-.033-.425-.11-.425-.273 0-.212.333-.605.788-.955.819-.622 1.882-1.062 2.564-1.062.424 0 1.061.167 1.849.485l.895.364c.284.136.595.208.91.212.941 0 1.865-.865 3.004-2.821.515-.88.727-1.517.727-2.093 0-1.031-.484-1.653-1.289-1.653-.606 0-1.289.288-1.76.774-.424.41-.636.85-.636 1.259l.015.455v.11c0 .379-.121.591-.349.591-.38 0-.941-.546-2.548-2.487-1.2-1.456-1.456-2.078-1.502-3.519-1.394-1.76-1.728-2.518-1.728-3.762l.059-.85c-.971-1.152-1.244-1.774-1.244-2.836 0-.379.061-.605.304-1.076-.485-.712-.653-1.031-.789-1.593l-.197-.85c-.121-.542-.342-1.056-.652-1.517-.38-.53-.409-.591-.409-.774 0-.484.319-.667 1.759-1.016a6.48 6.48 0 0 1-.091-.91c0-.242.031-.47.121-.971l.288-1.517c.121-.605.182-1.046.182-1.304 0-.288-.044-.484-.303-1.304-.136-.47-.258-.774-.363-.94-.139-.197-.244-.455-.244-.546 0-.152.091-.242.273-.242.409 0 1.47.652 2.578 1.563 2.351 1.94 2.822 2.714 3.14 5.065l.121.819c1.123.834 1.714 1.82 1.714 2.881 0 .85-.303 1.836-.819 2.624l-.803 1.259c-.242.38-.363.85-.363 1.35 0 .774.211 1.486.757 2.457.637 1.092 1.168 1.547 1.836 1.547 1.061 0 2.016-1.882 2.016-4.004v-.288l-.015-.729c0-.41.031-.834.091-1.351l.121-1.183.046-.971.015-.653c0-.228-.137-.455-.425-.774l-.895-.986c-1.304-1.41-2.017-2.745-2.017-3.746 0-1.244.895-2.168 2.078-2.168.242 0 .454.044.865.152v-.273c0-1.79.379-3.125.864-3.125l.198.066.742.653.895.577.242.242c0-.515.032-.561.532-1.137l.577-.789.409-.606.197-.364c.106-.212.212-.304.334-.304s.212.152.363.591c.092.273.153.349.851.971a4.62 4.62 0 0 1 .5.53c.061.11.167.394.319.819l.121.333c.304-.394.454-.53.819-.743l.607-.364c.229-.136.396-.214.457-.214s.137.088.197.242l.334.623c.44.758.577 1.123.577 1.47v.895c1.334.425 1.835 1.123 1.835 2.548 0 1.047-.546 2.245-1.593 3.489-.698.834-.788 1-.788 1.593 0 3.018 2.108 4.762 5.808 4.807l2.731.044c1.759.033 2.807.198 4.444.729 1.94.638 2.502.788 3.063.788a.96.96 0 0 0 .532-.167c.151-.11.242-.242.242-.363 0-.578-1.001-1.032-4.292-1.957-6.719-1.912-9.585-4.626-9.585-9.085 0-3.443 2.866-6.112 6.567-6.112 1.199 0 3.033.318 4.094.698l1.669.622a2.54 2.54 0 0 0 .865.167c.577 0 .864-.47.88-1.442.014-.514.135-.682.469-.682.471 0 1.2.593 1.865 1.502.668.94 1.107 1.987 1.107 2.684 0 .926-.44 1.577-1.441 2.139-.91 1.396-2.032 2.033-3.548 2.033-1.183 0-2.852-.667-5.627-2.245-.971-.546-1.456-.726-1.971-.726-.713 0-1.183.424-1.183 1.061 0 .577.455.971 1.638 1.38 1.774.622 2.199.864 2.897 1.593 2.078.364 2.988.727 4.292 1.714 3.579 1.138 5.794 3.579 5.794 6.386 0 2.714-1.835 4.671-4.398 4.671-.606 0-.986-.048-1.926-.247zm76.137 0l.167.605.319 1.321c.515 2.32.955 2.942 2.078 2.942.651 0 1.183-.364 1.349-.91l.242-.819c.024-.086.076-.161.148-.213a.39.39 0 0 1 .248-.075c.44 0 .683.485.713 1.471.015.38.091 1.046.242 2.002a12.67 12.67 0 0 1 .167 1.895c0 .409-.061.653-.242 1.168l.075.485c.136.803.167 1.123.167 1.501 0 1.745-.076 2.261-.485 2.943.167.667.212.986.212 1.471 0 .304-.045.743-.136 1.425l-.168 1.228.045.727c.106.273.152.44.152.501 0 .11-.06.198-.152.198l-.818-.319-.895-.501c-.289-.152-.501-.304-.94-.726-.789.697-.895.757-1.836 1.015-1.349.38-1.85.546-2.123.743-.258.182-.455.288-.561.288-.32 0-.546-.622-.546-1.517 0-1.304.076-1.987.288-2.487-.789-.273-1.198-.363-1.486-.363-.107 0-.167 0-.592.077l-.181.011c-.122 0-.199-.153-.199-.395 0-.394.289-1.197.668-1.865.516-.91 1.35-1.669 2.002-1.79l1.471-.288c.865-.167 1.38-.637 1.38-1.244 0-.577-.379-.971-1.258-1.289l-1.715-.606c-.568-.208-1.116-.467-1.637-.774a19.3 19.3 0 0 0-.895-.531.87.87 0 0 0-.44-.121c-.379 0-.591.258-.591.682 0 .698.53 1.273 1.183 1.273a.98.98 0 0 0 .409-.088c.198-.077.319-.121.38-.121.181 0 .318.182.318.44 0 .727-.455 1.972-.94 2.579l-.485.622-.365.485c-.136 1.047-1.167 2.548-2.199 3.215-.258.166-.409.273-.455.334-.116.19-.227.382-.334.577-.076.152-.349.485-.803.971-.312.346-.658.661-1.032.94-.455.349-.728.591-.818.743l-.395.682c-.092.152-.197.212-.32.212-.363 0-.696-.38-.909-1.031-.152-.47-.273-.605-.591-.605-.152 0-.395.044-.713.121l-.577.088h-1.425c-.774 0-1.805.181-2.289.393-.183.088-.319.136-.41.136-.213 0-.319-.212-.319-.622 0-1.288.986-3.26 2.29-4.535-.197-.743-.591-1.244-1.107-1.38l-.728-.197c-.091-.044-.136-.121-.136-.197 0-.258.304-.516.94-.834 1.168-.546 1.502-.653 2.154-.653.743 0 1.365.258 2.139.865 1.107.864 1.411 1.016 1.941 1.016.865 0 1.699-.789 1.699-1.623 0-.577-.303-1.197-1.077-2.168-1.077-1.396-1.472-2.289-1.472-3.474 0-.788.168-1.213.865-2.366.106-.182.168-.334.168-.425 0-.228-.365-.425-.774-.425-.44 0-.986.152-1.714.485-1.229.561-1.972 1.092-1.972 1.411 0 .121.091.258.212.349l.41.288c.025.02.046.045.059.074s.02.061.018.093a.57.57 0 0 1-.168.319 26.98 26.98 0 0 0-.804 1.061c-.577.759-1.123 1.32-1.713 1.789-.228.167-.349.304-.409.41l-.334.606c-.273.515-1.077 1.365-1.744 1.836-.202.138-.395.29-.577.455-.091.088-.213.288-.363.577-.425.743-1.078 1.667-1.517 2.108l-1.107 1.152c-.304.333-.744 1.275-1.183 2.534-.335.986-.546 1.425-.698 1.425-.061 0-.183-.088-.319-.242-.788-.91-1.501-1.471-1.849-1.471-.092 0-.243.077-.471.198a3.11 3.11 0 0 1-1.107.408l-1.456.288c-1.228.243-1.728.501-2.289 1.228-.138.182-.259.288-.335.288-.136 0-.242-.212-.242-.501l.044-.363c0-.033.077-.41.198-1.108.212-1.152.515-2.123.819-2.638l.728-1.275c.136-.228.212-.456.212-.653 0-.94-.88-1.714-2.199-1.911-.273-.044-.409-.152-.409-.304 0-.182.319-.546.819-.926.864-.653 1.82-1.062 2.487-1.062.454 0 1.062.167 1.865.484l.91.365c.28.134.585.206.895.212.955 0 1.881-.865 3.018-2.821.516-.88.729-1.517.729-2.093 0-1.031-.471-1.653-1.275-1.653-.637 0-1.244.273-1.744.774-.44.455-.667.895-.667 1.304l.015.41.015.212c0 .334-.106.485-.349.485-.319 0-.667-.304-1.38-1.137-.288-.364-.667-.803-1.137-1.35-1.244-1.456-1.502-2.032-1.547-3.519-1.396-1.759-1.729-2.745-1.729-3.761l.044-.85c-.985-1.183-1.182-1.654-1.182-2.822 0-.53.031-.667.242-1.092-.484-.713-.636-1.031-.773-1.593l-.198-.85a4.46 4.46 0 0 0-.651-1.517c-.363-.53-.409-.605-.409-.758 0-.425.409-.698 1.425-.955l.335-.077a6.48 6.48 0 0 1-.091-.91c0-.242.031-.47.121-.971l.288-1.517c.106-.592.166-1.031.166-1.334 0-.349-.044-.638-.242-1.274-.136-.409-.273-.725-.409-.94-.152-.228-.242-.409-.242-.53 0-.136.135-.258.318-.258.106 0 .273.066.409.136a16.07 16.07 0 0 1 3.958 3.14c.924 1.031 1.214 1.88 1.426 4.171 1.258.924 1.728 1.773 1.728 3.093 0 .789-.257 1.547-.833 2.411l-.803 1.259a2.75 2.75 0 0 0-.38 1.395c0 .727.228 1.425.788 2.412.608 1.076 1.153 1.547 1.805 1.547 1.062 0 2.033-1.85 2.033-3.883v-1.501l.106-.986.091-1.183.076-.971.031-.546c0-.409-.077-.53-1.335-1.866-1.38-1.486-2.032-2.745-2.032-3.898 0-1.092.94-2.017 2.078-2.017.227 0 .44.044.849.152v-.484l.045-.851.242-1.062c.198-.85.29-1.002.577-1.002l.198.066.743.653.895.577.242.242c.061-.515.106-.605.531-1.137a11.27 11.27 0 0 0 .576-.789l.409-.606.242-.364c.153-.242.229-.318.335-.318s.182.152.319.606c.044.182.182.364.363.53l.531.44c.425.364.713.91.896 1.684.318-.409.484-.561.819-.743l.652-.364c.242-.136.38-.212.425-.212s.121.088.181.242c.093.217.205.425.335.623.53.85.575.955.575 1.531l-.015.35v.484c1.335.364 1.851 1.076 1.851 2.534 0 1.107-.5 2.245-1.563 3.503-.697.834-.818 1.107-.818 1.729 0 2.881 2.183 4.626 5.839 4.671l2.699.044c1.76.033 2.822.212 4.444.729 1.897.622 2.503.788 3.08.788.409 0 .758-.228.758-.515 0-.591-.986-1.046-4.278-1.971-6.733-1.912-9.6-4.626-9.6-9.069 0-3.459 2.882-6.113 6.598-6.113 1.183 0 3.017.304 4.05.682l1.683.622a2.54 2.54 0 0 0 .864.167c.576 0 .803-.349.88-1.442.044-.47.197-.682.5-.682.425 0 1.259.667 1.865 1.502.622.864 1.062 2.002 1.062 2.745 0 .864-.454 1.532-1.425 2.078-.91 1.396-2.033 2.032-3.549 2.032-1.168 0-3.139-.789-5.627-2.244-.986-.561-1.411-.727-1.956-.727-.729 0-1.214.409-1.214 1.062 0 .591.44.955 1.653 1.38 1.941.698 2.351.926 2.898 1.593 2.076.363 2.987.726 4.292 1.714 3.716 1.199 5.792 3.503 5.792 6.446 0 2.684-1.819 4.61-4.351 4.61-.668 0-1.016-.044-1.972-.242zm-75.363 77.031c.363.911.485 1.351.531 1.927l.077 1.714c.075 1.714.636 2.564 1.714 2.564.394 0 .727-.111.909-.289l.44-.44.182-.066c.288 0 .44.197.44.53l-.045.667c-.031.304.015.925.167 1.88.076.546.121 1.107.121 1.639 0 .879-.061 1.213-.38 1.987.288.803.456 1.713.456 2.472 0 .88-.152 1.485-.485 1.986.152.698.197.986.197 1.38a8.13 8.13 0 0 1-.167 1.548c-.136.849-.197 1.516-.152 1.957v.11c0 .257-.076.394-.242.394-.152 0-.334-.121-.501-.334-.242-.319-.41-.44-.591-.44-.288 0-.38.152-.789 1.38-.136.38-.455.88-.985 1.517-.395.484-.653.879-.729 1.166l-.242.867c-.045.11-.152.197-.242.197l-.062.011c-.667 0-1.442-1.442-2.23-4.172-.227-.773-.515-1.107-.925-1.107a.83.83 0 0 0-.418.13c-.125.08-.227.192-.295.325l-.242.576c-.045.088-.121.168-.212.168-.319 0-.819-.606-1.138-1.35-.242-.622-.394-1.304-.394-1.882 0-1.273.94-2.228 3.792-3.836 1.228-.698 1.714-1.578 1.714-3.184 0-1.26-.379-1.988-1.471-2.822-.864-.638-1.365-.895-1.819-.895-.395 0-.682.257-.682.592 0 .379.212.622.743.803.637.213.91.441.91.729 0 .257-.273.803-.698 1.471-.47.714-.668.911-1.321 1.351-.182 1.123-.712 1.835-1.956 2.653-.242.698-.379.956-.819 1.502l-.85 1.107c-.273.349-.561.971-.605 1.259-.093.622-.153.743-.396.743-.318 0-.985-.577-1.652-1.425-.395-.518-.485-.743-.532-1.351-.424.334-.561.38-1.38.486-.5.077-.879.167-1.107.288-.622.333-.833.425-.94.425-.167 0-.228-.088-.242-.379l-.045-.91c0-1.228.484-2.669 1.228-3.624-.713-.622-1.426-1.002-2.003-1.062-.242-.033-.303-.066-.303-.152 0-.152.167-.47.394-.743.304-.394.547-.667.729-.819a4 4 0 0 1 2.366-.865c.531 0 1.304.197 2.32.577.363.136.698.212.986.212.44 0 .698-.288.698-.803 0-.743-.364-1.912-1.183-3.778-.561-1.258-.819-2.107-.819-2.684 0-1.425.667-2.882 1.501-3.306-.38-.197-.561-.242-.91-.242-.394 0-.727.11-1.244.409-.607.349-.94.652-.94.864 0 .077.121.212.333.349.319.228.363.304.363.606 0 1.002-.833 2.367-2.001 3.231-.259 1.441-.91 2.29-2.2 2.897-.182.79-.287 1.002-.895 1.88-1.076 1.503-1.334 1.973-1.517 2.821-.106.44-.197.622-.334.622-.182 0-.53-.273-.94-.713-.232-.245-.45-.504-.653-.774-.166-.273-.258-.53-.44-1.304-.287.088-.379.11-.576.11l-.606-.033h-.41c-.895 0-1.851.198-2.321.501-.182.11-.303.152-.363.152-.259 0-.471-.546-.471-1.229 0-1.471.409-2.684 1.365-4.019-.348-.304-.47-.41-.773-.743-.097-.112-.209-.209-.334-.288l-.456-.243c-.152-.077-.242-.181-.242-.273 0-.212.591-.773 1.304-1.243.788-.501 1.41-.729 1.987-.729.667 0 1.016.167 1.85.895.577.501.971.743 1.259.743.198 0 .409-.137.577-.363a1.1 1.1 0 0 0 .212-.623c0-.774-.926-2.092-1.957-2.775-.774-.501-1.623-.774-2.442-.774-1.137 0-2.108.562-2.548 1.471l-.44.94c-.106.212-.242.333-.394.333-.258 0-.394-.121-1.32-1.197l-1.061-1.214c-.333-.38-.546-.743-.653-1.062-.091-.304-.166-.485-.212-.531-.031-.066-.166-.167-.409-.333-.819-.577-1.41-1.728-1.744-3.382-.045-.176-.085-.353-.121-.531-1.002-1.228-1.607-2.745-1.607-4.049 0-.182.015-.258.091-.561-.577-.591-.653-.728-1.093-2.289-.333-1.108-.546-1.594-.94-2.124-.106-.136-.168-.242-.168-.319 0-.211.335-.393.941-.484.561-.088.591-.11.819-.11l.803.066-.044-1.123c0-.653.044-1.076.211-1.865.077-.379.121-.667.121-.85 0-.066-.031-.304-.076-.698a5.02 5.02 0 0 0-.121-.605c-.05-.111-.08-.23-.09-.351 0-.136.091-.197.242-.197.121 0 .288.066.532.182.713.349 1.304.698 1.759 1.047 1.411 1.107 2.518 2.807 2.518 3.852l-.031.319-.076.605c0 .167.106.409.288.653l.44.622c.409.546.667 1.168.667 1.593 0 .379-.091.546-.743 1.502-.501.713-.698 1.244-.698 1.835 0 .729.287 1.653.819 2.579.484.85 1.031 1.305 1.577 1.305.91 0 1.304-.804 1.441-2.973a33.71 33.71 0 0 1 .334-3.109l.031-.561c0-.242-.076-.394-.41-.789l-1.213-1.426c-1.168-1.365-1.532-2.062-1.532-3.033 0-1.123.743-1.911 1.819-1.911l.485.044v-.318c0-.257.061-.622.198-1.107.258-.879.576-1.547.758-1.547.044 0 .182.066.394.198.061.044.303.151.727.287.228.077.395.167.819.409.198-.698.335-1.031.653-1.425.53-.682 1.123-1.228 1.335-1.228.121 0 .363.182.667.484l.774.82c.121.136.273.409.454.774l.152.379c.162-.105.329-.201.501-.288.319-.198.531-.319.651-.364l.759-.379c.227-.136.363-.212.424-.212.137 0 .212.257.516 1.607.212.927.242 1.123.287 1.791 1.305.182 1.926.924 1.926 2.335 0 1.32-.652 2.624-2.047 4.11-.379.409-.47.606-.47.986 0 3.61 1.259 4.748 5.778 5.217 2.776.29 3.595.471 6.932 1.473 1.759.53 2.76.743 3.412.743.774 0 1.2-.273 1.2-.774 0-.76-.547-1.002-3.793-1.684-7.553-1.593-10.525-4.171-10.525-9.16 0-3.549 2.654-6.218 6.203-6.218 1.563 0 2.972.47 5.187 1.743 2.047 1.2 2.472 1.395 2.942 1.395.546 0 .758-.349.758-1.228 0-.577.182-.85.53-.85.334 0 .819.334 1.275.85.667.803.94 1.213.94 2.32 0 1.472-.788 2.442-2.335 2.867-.152.182-.288.318-.363.409-.835.94-1.578 1.259-2.912 1.259a6.69 6.69 0 0 1-3.61-1.183l-1.957-1.38c-.85-.606-1.471-.864-2.062-.864-.834 0-1.335.501-1.335 1.334 0 .819.546 1.486 1.426 1.775l1.835.561c.653.212.971.333 1.76.743a4.81 4.81 0 0 1 .909-.088c1.205.011 2.39.308 3.458.865.349.165.592.288.729.318l1.031.288c2.306.652 4.201 3.246 4.201 5.778 0 2.882-1.866 4.671-4.898 4.671zm70.995-.606c.713.94 1.714 1.547 2.533 1.547.369-.017.735-.073 1.093-.167.179-.041.362-.067.545-.077.197 0 .289.077.289.258 0 .136-.106.484-.213.758-.109.238-.19.487-.242.743l-.167.85-.411.742-.575.531-.152.152v.561c0 .986-.304 1.563-1.107 2.092l-.289.213-.076.319c-.181.757-.319 1.244-.409 1.425-.106.228-.363.606-.774 1.153-.499.638-.819 1.167-1.031 1.668-.166.41-.288.516-.561.516-.394 0-.788-.485-.864-1.091-.092.121-.152.212-.198.242l-.485.333-.789.531c-.333.227-.561.394-.651.485l-.441.455c-.062.069-.148.113-.242.121-.198 0-.41-.349-.623-1.032l-.409-1.335c-.106-.363-.151-.803-.151-1.319 0-.683.044-.911.273-1.456-.82.088-1.032.136-1.456.288-.118.041-.24.067-.364.077-.137 0-.213-.088-.213-.242 0-.088.077-.38.168-.605l.53-1.396c.409-1.076 1.728-2.047 2.791-2.047.258 0 .591.077 1.046.211.258.088.471.137.607.137.485 0 .849-.349.849-.79 0-.212-.137-.454-.319-.53-.075-.033-.561-.182-1.471-.455-.682-.197-1.031-.454-1.789-1.333-.562-.653-.789-.835-.986-.835-.151 0-.243.11-.243.289l.031.546.016.242c0 1.137-.334 2.213-1.153 3.715l-1.138 2.078c-.546.986-.773 1.728-.773 2.488 0 .818.348 1.546.818 1.667l.608.167c.08.02.154.062.211.121.077.088.121.168.121.242s-.075.213-.211.365c-.061.088-.319.409-.729.94-.712.925-1.152 1.259-2.002 1.516-.5 1.2-1.304 1.897-2.729 2.367l-.167.288c-.484.85-1.563 1.623-2.26 1.623h-.152c-.091.759-.622 1.531-1.425 2.093-.561.378-.865.606-.941.682a1.92 1.92 0 0 0-.197.364c-.182.41-.363.577-.591.577-.425 0-.789-.409-1.046-1.183l-.365.243c-.47.334-.728.501-.773.531-.198.088-.668.227-1.442.409-.985.243-1.849.667-2.077 1.016l-.364.622-.167.066c-.197 0-.425-.273-.531-.637-.212-.85-.363-1.728-.363-2.29 0-1.456.484-2.397 1.956-3.867v-.349c0-2.261 1.714-3.792 4.246-3.792l.411.011 1.38.088h.136c.758 0 1.441-.288 2.199-.91 1.002-.803 1.289-1.321 1.289-2.23 0-.288-.091-.622-.394-1.637-.198-.683-.304-1.306-.304-1.926 0-1.684 1.244-3.778 2.912-4.931.44-.303.758-.697.758-.925 0-.088-.045-.167-.106-.167-.106 0-.304.11-.531.318-.198.182-.516.379-.971.605l-.653.32-.743.288c-.228.088-.334.212-.334.363 0 .088.031.229.091.38a.78.78 0 0 1 .076.304c0 .088-.061.242-.198.47l-.561.94c-.576.924-.97 1.304-1.683 1.622-.455 1.35-1.123 2.033-2.078 2.169-.774 1.548-1.456 2.093-2.821 2.245-.182.59-.515 1.091-1.228 1.88-.273.319-.456.531-.516.653-.318.577-.349.606-.5.606-.183 0-.622-.273-.941-.605a3.01 3.01 0 0 1-.363-.502l-.364-.652c-.121-.197-.242-.303-.395-.303l-.257.011-.895.136c-.561.077-1.365.531-1.638.94l-.485.729c-.02.035-.048.065-.083.087s-.075.033-.115.034c-.363 0-.591-.804-.591-2.139 0-1.166.183-1.957.577-2.517l1.152-1.578c.152-.228.242-.455.242-.622-.007-.196-.082-.383-.211-.53-.228-.289-.47-.455-.653-.485l-.849-.121c-.152-.033-.212-.066-.212-.137.014-.101.056-.195.121-.273.284-.361.634-.665 1.031-.895 1.002-.622 1.669-.864 2.351-.864s1.442.242 2.138.698l1.183.774c.167.109.362.167.561.167.546 0 .955-.318 1.349-1.062.38-.713.546-1.288.546-1.896 0-1.532-1.107-2.639-2.624-2.639-.712 0-1.425.289-2.123.819-.212.167-.349.319-.409.455l-.319.727c-.075.182-.197.288-.303.288-.198 0-.667-.592-1.046-1.349-.214-.394-.396-.895-.578-1.471-.242-.789-.349-1.396-.349-2.033l.061-1.107c-.546-.864-.728-1.502-.728-2.517 0-.38.045-.667.288-1.442-.349-.561-.456-.985-.456-1.819l.045-.501.121-.577.077-.485c-.395-.516-.501-.865-.896-2.655-.211-1.016-.348-1.456-.531-1.714-.076-.121-.121-.197-.121-.242 0-.242.577-.455 1.213-.455l.577.044c-.136-.38-.167-.516-.167-.819.009-.554.112-1.103.304-1.622.213-.622.258-.803.258-1.002 0-.484-.076-.985-.182-1.244l-.334-.818c-.061-.182-.106-.319-.106-.425 0-.077.061-.11.213-.11.803 0 2.32.865 3.533 2.002 1.183 1.123 1.578 2.032 1.578 3.716l-.077.895c1.123.971 1.608 1.774 1.608 2.654 0 .638-.211 1.062-.819 1.668-1.107 1.092-1.365 1.653-1.365 3.064 0 2.168.653 3.337 1.85 3.337 1.047 0 1.865-1.138 2.003-2.822l.121-1.546a14.52 14.52 0 0 1 .197-1.472c.062-.351.102-.706.121-1.062 0-.546-.349-1.244-1.426-2.487-1.152-1.335-1.531-2.063-1.531-3.109 0-1.244.864-2.168 2.047-2.168.288 0 .44.044.789.228.015-.713.044-.85.454-1.836.319-.789.653-1.349.803-1.349.061 0 .152.066.242.167.171.16.354.307.547.44l.394.288a2.97 2.97 0 0 1 .38.379c.242-.926.515-1.35 1.259-2.093.576-.561.788-.728.895-.728.091 0 .197.077.287.197l.501.653.682.774c.273.304.364.561.485 1.275l.409-.243.653-.379a5.06 5.06 0 0 0 .501-.319c.106-.077.197-.121.258-.121s.136.11.182.29l.242.94.532 1.046c.167.319.212.561.212 1.063v.257l.273-.011c.804 0 1.486.955 1.486 2.047 0 1.456-1.152 3.337-2.653 4.322-.152.501-.182.698-.182 1.092 0 3.247.864 3.929 5.854 4.672 1.244.182 2.351.41 3.337.683.166.044 1.244.394 3.23 1.062 1.092.379 1.835.53 2.411.53.607 0 .941-.167.941-.485 0-.561-.819-1.062-3.322-2.047l-3.548-1.381c-3.61-1.41-5.308-3.61-5.308-6.856 0-3.775 2.836-6.612 6.612-6.612 1.425 0 2.821.288 4.823 1.031 2.579.926 2.7.971 2.988.971.501 0 .774-.334.849-1.062.06-.605.227-.85.561-.85.501 0 1.047.455 1.442 1.214.333.667.53 1.441.53 2.123 0 1.349-.713 2.23-2.003 2.487-.864 1.137-1.956 1.684-3.291 1.684-1.622 0-2.425-.319-5.201-2.047-.986-.623-1.411-.775-2.139-.775-.97 0-1.699.606-1.699 1.426 0 .743.608 1.228 1.957 1.591.819.212.924.273 1.349.698.335-.077.471-.11.683-.11 1.32 0 2.958.713 4.338 1.896 2.517.789 4.747 3.489 4.747 5.764 0 2.517-2.168 4.777-4.611 4.777-.652 0-1.971-.213-3.155-.501" class="B"/><g class="D"><path d="M44.545 46.606c-.106-.484-.152-.743-.152-.986l.031-.318.121-.652.045-.516c0-.577-.091-.986-.287-1.228l-.485-.651a2.98 2.98 0 0 1-.41-.789.9.9 0 0 1-.076-.334c0-.198.106-.304.288-.304.106 0 .152.011.516.242.166.088.303.138.409.138.242 0 .379-.394.379-1.092 0-.789-.076-1.228-.258-1.411l-.606-.698-.53-.455c-.136-.11-.212-.242-.212-.349 0-.182.136-.304.334-.304.182 0 .561.088.895.212l.197.044c.167 0 .228-.11.228-.349l-.015-.152-.121-.865-.243-.895c-.076-.288-.121-.333-.304-.333l-.106.011-1.016.198-.167.011c-1.334 0-2.745-1.123-3.184-2.549l-.82-2.639c-.242-.819-.849-1.607-1.956-2.502-.334-.258-.606-.425-.803-.44l-.744-.088c-.136 0-.227-.088-.227-.198 0-.166.166-.242.515-.242l1.349.121c.485.044 1.229.242 2.2.578 1.213.409 2.047.591 2.73.591 2.047 0 3.261-1.107 3.261-2.943 0-1.273-.653-2.7-1.669-3.61-.577-.516-1.138-.91-1.349-.91-.106 0-.198.11-.198.228l.045.517v.044c0 .211-.121.363-.287.363-.198 0-.44-.273-.698-.819-.774-1.607-2.003-2.562-3.261-2.562-.212 0-.38.088-.38.228 0 .077.077.288.212.591l.319.729c.091.197.136.318.136.379 0 .044-.077.088-.167.088-.197 0-.484-.167-.698-.379l-.605-.667-.532-.819c-.425-.652-.774-.94-1.684-1.426l-.971-.53a1.04 1.04 0 0 0-.515-.166c-.136 0-.212.077-.212.228 0 .121.061.273.152.44.303.455.424.698.424.803 0 .137-.091.258-.211.258-.319 0-.971-.653-1.563-1.517-.47-.713-.727-1.517-.727-2.289 0-1.761 1.273-3.049 3.018-3.049.88 0 2.017.363 3.064 1.016l1.911 1.182c.667.409 1.653.729 2.23.729.258 0 .803-.088 1.197-.197a1.79 1.79 0 0 0 .501-.212c.106-.066.182-.152.182-.228s-.044-.152-.106-.167l-.242-.088-.895-.167c-.242-.033-.606-.167-1.107-.409l-2.033-1.016c-.682-.44-1.123-.698-1.349-.774-.334-.11-.546-.258-.546-.379s.06-.182.182-.182a.84.84 0 0 1 .44.152c.591.38 1.123.577 1.517.577l1.744.607c.879.304 2.139.577 2.714.577.358-.001.701-.143.954-.396a1.35 1.35 0 0 0 .396-.954c0-.485-.288-1.199-.713-1.79-.09-.136-.197-.212-.273-.212-.166 0-.258.121-.258.333l.044.318.062.484c0 .532-.363.956-.819.956a2.05 2.05 0 0 1-.638-.136l-2.652-.85c-2.217-.713-3.248-.94-4.355-.94-3.184 0-5.597 2.184-5.597 5.051 0 3.246 2.275 5.338 7.918 7.264 5.536 1.912 6.324 2.382 6.324 3.808 0 .818-.834 1.546-1.759 1.546a6.37 6.37 0 0 1-.986-.077l-2.76-.653c-1.684-.409-3.201-.577-5.08-.577-4.005 0-6.234.698-8.145 2.563-.486.47-.638.546-1.2.546l-.272-.011-.561-.033-.091-.011c-.47 0-.819.228-1.138.743l-.698 1.107c-.055.073-.126.133-.207.175a.6.6 0 0 1-.263.067c-.363 0-.591-.287-1.001-1.273a3.3 3.3 0 0 0-.848-1.213l-.82-.743c-.136-.121-.212-.228-.212-.319 0-.077.061-.211.167-.363.394-.577.531-.834.576-1.076.106-.53.121-.561.349-.561.242 0 .319.242.349 1.183 0 .273.106.637.319 1.107l.454.971c.045.137.198.212.363.212.426 0 .956-1.001 1.108-2.047.106-.881.197-1.138.379-1.138.077 0 .152.033.182.077.045.066.167.304.364.743a1.77 1.77 0 0 0 .53.605c.242.183.411.274.501.29h.045c.334 0 .44-.212.516-.986l.044-.41-.09-.561-.045-.394c0-.273.091-.425.242-.425.091 0 .198.066.304.167l.409.409c.273.258.546.394.803.394.335 0 .546-.137.546-.349 0-.198-.076-.394-.379-.955l-.273-.53c-.334-.606-.591-.85-.895-.85l-.425.044-.484.197a.88.88 0 0 1-.319.088c-.077 0-.137-.077-.137-.167 0-.364.242-.94.698-1.653.334-.517.546-1.623.652-3.216.137-2.123.425-3.503.729-3.503.197 0 .273.167.273.622l-.015.561-.015.394c0 .38.076.682.182.682.349 0 .758-.516 1.092-1.365.137-.349.212-.637.212-.834l-.044-.182-.82-1.517-.819-.243c-.137-.044-.242-.11-.273-.182v-1.002l-.09-.485-.167-.409-.197-.44c-.895.485-1.32.789-1.622 1.213-.334.425-.516.592-.668.592-.106 0-.197-.088-.197-.212 0-.11.045-.318.121-.667l.032-.228c0-.879-.532-1.743-1.411-2.289l-.258.318-.288.409-.485.577c-.152.182-.288.455-.409.819a1.8 1.8 0 0 0-.077.455v.212c0 .349-.03.425-.182.425l-.106-.044-.287-.394-.44-.501-.698-.44-.363-.288-.167.363c-.121.289-.198.502-.198.654l-.044.653-.045.698v.121c0 .349-.077.501-.288.501-.076 0-.288-.088-.485-.212a1.16 1.16 0 0 0-.591-.167c-.638 0-1.032.44-1.032 1.123 0 .818.228 1.592.653 2.137l.516.698c.151.182.424.349.44.242l.09-.85-.121-.698-.015-.318c0-.258.091-.425.242-.425.228 0 .364.258.516.94l.319 1.517.334 1.912a7.36 7.36 0 0 0 .484 1.638c.319.774.561 1.244.698 1.425.44.577.501.667.501.789 0 .11-.076.198-.166.198-.136-.013-.267-.06-.38-.138a1.83 1.83 0 0 0-.484-.152l-.319-.044c-.653 0-.789.561-.789 3.276 0 1.669.349 3.928.774 5.004l.864 2.169a2.69 2.69 0 0 1 .198 1.016c0 2.973-3.943 7.644-8.282 9.798-1.607.803-2.123 1.563-2.244 3.337l-.045.531c.667-.334.94-.44 1.396-.561 1.213-.319 1.456-.47 1.638-1.062l.152-.531c.076-.198.166-.273 1.107-.774.319-.182.546-.364.652-.53.212-.349.38-.531.485-.531s.152.044.152.136l-.031.152-.409 1.152-.044.288c0 .865.484 1.563 1.349 2.017.151-.94.258-1.275.546-1.714l.728-1.138c.273-.425.395-.94.395-1.745-.001-.427-.036-.852-.106-1.273l-.031-.333c0-.198.106-.319.287-.319.137 0 .259.044.273.121l.167.775c.031.167.197.288.394.288.395 0 .895-.517 1.442-1.425a2.19 2.19 0 0 0 .303-1.076l-.061-.561-.121-.606-.015-.121c0-.273.152-.455.363-.455.091 0 .167.033.183.077l.242.94c.077.318.304.53.532.53.273 0 .743-.47 1.016-1.016.242-.485.363-1.031.363-1.669 0-.88.093-1.123.411-1.123.106 0 .197.044.212.088l.151.53c.061.197.183.334.304.334.167 0 .622-.501.924-1.016a.69.69 0 0 0 .121-.38c0-.182-.105-.349-.363-.561-.425-.364-.454-.409-.454-.94 0-.516.091-.789.454-1.425.198-.349.38-.682.531-.986.516-1.002.698-1.259.895-1.259.152 0 .288.167.288.349 0 .11-.031.228-.076.334-.121.242-.166.394-.166.484 0 .168.137.305.303.305.183 0 .425-.088.713-.242.106-.077.485-.228 1.137-.455l1.35-.485c.228-.088.501-.121.819-.121.242 0 .501.011.729.077.484.11.803.167.94.167a.7.7 0 0 0 .698-.682c0-.273-.273-.803-.653-1.244-.137-.152-.212-.288-.212-.364l.045-.167c.061-.088.137-.167.228-.167.273 0 .91.698 1.486 1.593 3.52 5.536 4.778 6.885 7.144 7.599 2.396.726 3.033 1.289 3.033 2.714 0 .774-.41 1.684-1.273 2.912-1.775 2.487-2.215 3.489-2.215 5.127v.304a4.12 4.12 0 0 0 .455-.212c.334-.167.546-.258.653-.273l1.016-.212c.304-.066.577-.455.577-.834v-.11l-.121-.895-.017-.121c0-.318.167-.682.38-.85.027-.029.06-.052.096-.067s.076-.022.116-.021c.121 0 .258.11.319.242l.652 1.396c.273.561.577.839 1.425 1.217zM11.648 17.031c-.287 0-.44.258-.47.819l-.091.774c-.091.727-.091.803-.091.986 0 .577.167 1.016.409 1.016.259 0 .668-.501.865-1.062a2.89 2.89 0 0 0 .182-.955c-.007-.316-.069-.629-.182-.924-.136-.41-.38-.653-.622-.653zm-3.746-6.369l.015.363c0 .502-.121 1.107-.547 2.67-.069.237-.11.482-.121.729 0 .273.106.577.333.94.136.212.259.349.364.394l.485.258.091.577c-.031.212.015.516.121.895a4.7 4.7 0 0 1 .167 1.213c0 .349-.031.485-.106.485-.152 0-.425-.425-.682-1.046-.394-.987-.743-1.35-1.289-1.35-.456 0-.744.066-1.274.318l.242.334c.031.044.152.288.364.698l.577 1.092.698 1.304a1.7 1.7 0 0 0 .561.577l.652.363c.198.11.333.274.333.381 0 .182-.136.318-.349.318h-.015l-.53-.077-.303-.044c-.152 0-.228.152-.228.454 0 1.107.88 2.381 2.396 3.503.198.136.333.333.333.44 0 .137-.136.258-.303.258-.091 0-.333-.077-.516-.167-.086-.055-.186-.086-.288-.088-.197 0-.333.167-.333.425 0 .288.242.864.743 1.82.335.637.834 1.107 1.396 1.349l1.836.774a.26.26 0 0 1 .121.095.25.25 0 0 1 .045.147.28.28 0 0 1-.072.195c-.048.053-.114.087-.186.093l-.363.044-.319.044-.53-.044h-.091c-.242 0-.349.044-.349.182 0 .198.227.713.605 1.321.426.742.805 1.151 1.048 1.151.091 0 .197-.077.258-.212l.44-.94c.076-.152.44-.44 1.061-.803.395-.242.774-.394 1.138-.454l.743-.121c.197-.033.288-.167.288-.394v-.087l-.121-.774-.093-.865-.076-.774-.091-.895c0-.228-.061-.334-.197-.334-.091 0-.258.137-.363.288-.638.986-1.093 1.305-1.775 1.305-2.168 0-3.821-3.822-3.821-8.888 0-.44.031-1 .091-1.669l.121-2.108c0-2.199-.456-3.747-1.396-4.671l-.577-.578zm5.262 29.833c-.561-.088-.834-.152-1.183-.288l-.773-.319c-.653-.287-1.138-.408-1.563-.408-.605 0-1.107.197-1.698.682l.363.288.82.577.773.605a1.04 1.04 0 0 0 .682.242c.789 0 1.487-.362 2.579-1.379zm15.713 7.431c.228-.515.334-.652.819-1.062 1.138-.986 1.669-1.714 1.669-2.289v-.896c0-.531.091-.698.363-.698.121 0 .212.044.259.121l.197.485c.045.121.182.198.349.198.152 0 .379-.198.591-.486l.409-.561c.198-.288.288-.53.288-.803a1.3 1.3 0 0 0-.091-.47l-.273-.653a1.66 1.66 0 0 1-.166-.637c0-.258.121-.425.363-.425.121 0 .228.044.288.136l.319.394a.44.44 0 0 0 .143.109c.055.026.114.041.175.043.136 0 .319-.152.425-.349l.319-.653c.09-.167.135-.288.135-.363 0-.138-.136-.259-.379-.365l-.532-.258c-.698-.318-1.228-1.441-1.228-2.608a1.09 1.09 0 0 1 .091-.44l.288-.698a1.84 1.84 0 0 0 .121-.651c0-.425-.136-.85-.409-1.275l-.531-.85c-.242-.653-.364-.819-.561-.819l-.212.044-.288.167-.454.243-.532.653-.561.273c-.348.182-.667.91-.667 1.502 0 1.062.121 1.365 1.517 3.776.546.926.834 1.728.834 2.32 0 1.684-1.501 2.867-4.505 3.595l-1.88.44c-1.38.334-2.2 1.29-2.487 2.897.576-.288.803-.334 1.805-.334l.605.011h.093c.546 0 .622-.044.971-.531.394-.561.803-.91 1.349-1.137l.653-.288.531-.288.152-.044c.152 0 .227.066.227.167 0 .167-.151.425-.379.698-.47.516-.653.955-.653 1.577 0 .394.091.626.44 1.081z"/><path d="M23.735 41.587c.466.301.881.675 1.228 1.107.395.53.44.577.834.577.2-.008.398-.037.592-.088l.363-.077c.668-.121.91-.228.91-.394 0-.088-.076-.228-.212-.334l-.455-.41-.44-.409c-.287-.273-.864-.455-1.349-.455s-.774.086-1.471.482zm13.226 2.215l.242-.044.364-.044.363.044.183.011c.91 0 1.79-.774 1.79-1.577 0-.288-.273-.44-.727-.44-1.093 0-1.79.641-2.214 2.05zm83.72 2.805c-.091-.363-.121-.546-.121-.743l.045-.561.137-1.577c0-.304-.092-.546-.303-.819l-.486-.652c-.319-.44-.455-.758-.455-1.123 0-.228.06-.318.228-.318l.181.044c.031.011.137.077.363.212.168.088.304.136.411.136.242 0 .363-.38.363-1.152 0-1.062-.196-1.563-.818-2.047l-.561-.456a.43.43 0 0 1-.167-.334c0-.197.121-.318.304-.318.105 0 .273.033.47.088l.454.121.167.033c.137 0 .213-.11.213-.349l-.016-.136-.121-.865c-.121-.879-.273-1.228-.531-1.228l-.076.011-1.061.198-.183.011c-1.273 0-2.775-1.2-3.17-2.549l-.773-2.639c-.227-.803-.925-1.669-1.956-2.502-.349-.258-.637-.409-.865-.44l-.728-.088c-.136 0-.228-.088-.228-.198 0-.166.152-.242.456-.242 1.031 0 2.139.213 3.61.699 1.334.425 2.077.591 2.73.591 2.031 0 3.26-1.062 3.26-2.822 0-.895-.318-2.002-.773-2.714-.395-.606-1.062-1.244-1.912-1.79-.136-.088-.242-.136-.333-.136-.106 0-.197.11-.197.212l.031.531.015.044c0 .197-.121.363-.273.363-.228 0-.455-.256-.713-.818-.759-1.593-1.971-2.548-3.215-2.548-.273 0-.425.088-.425.258 0 .121.076.318.213.546.121.197.257.44.363.726.061.153.106.274.106.35s-.077.121-.198.121c-.181 0-.484-.167-.682-.379l-.605-.667-.532-.819c-.409-.622-.865-1.016-1.638-1.426l-1.017-.53c-.212-.11-.394-.167-.53-.167-.121 0-.182.077-.182.198s.061.287.182.469c.212.319.38.667.38.803s-.092.258-.213.258c-.288 0-.789-.515-1.516-1.517-.517-.713-.774-1.486-.774-2.289 0-1.715 1.319-3.049 3.018-3.049.88 0 1.972.363 3.064 1.015l1.956 1.183c.697.425 1.653.728 2.229.728.334 0 .425-.011 1.153-.197.212-.066.395-.121.531-.212.044-.02.081-.053.108-.093a.26.26 0 0 0 .044-.135c0-.167-.091-.242-.349-.258-.91-.066-2.806-.803-4.05-1.593l-1.334-.774c-.349-.121-.561-.288-.561-.44 0-.044.06-.088.166-.088l.242.044 1.775.653 1.714.606c.85.304 2.154.577 2.746.577.773 0 1.304-.53 1.304-1.304 0-.394-.091-.834-.258-1.137-.242-.485-.576-.91-.698-.91-.166 0-.258.167-.258.44l.016.212.06.53c0 .546-.302.91-.773.91a2.04 2.04 0 0 1-.667-.136l-2.655-.85c-2.305-.743-3.2-.94-4.322-.94-3.215 0-5.626 2.168-5.626 5.05 0 3.247 2.228 5.294 7.946 7.265 5.567 1.926 6.295 2.382 6.295 3.838 0 .85-.789 1.517-1.775 1.517a6.17 6.17 0 0 1-.971-.077c-.227-.066-1.152-.273-2.76-.653-1.714-.425-3.154-.577-5.08-.577-4.051 0-5.992.605-8.115 2.563-.484.455-.682.546-1.228.546l-.273-.011-.637-.044c-.501 0-.864.242-1.152.743l-.653 1.107a.54.54 0 0 1-.47.242c-.425 0-.653-.288-1.046-1.274-.213-.516-.486-.94-.82-1.213l-.85-.744c-.136-.11-.211-.212-.211-.304 0-.077.076-.212.211-.379a6.41 6.41 0 0 0 .364-.577c.121-.228.198-.394.198-.501l.044-.364c.031-.121.152-.198.288-.198.273 0 .319.183.334 1.184 0 .258.106.637.319 1.107l.454.971c.045.137.198.212.363.212.426 0 .956-1.001 1.108-2.047.106-.866.197-1.138.379-1.138.167 0 .242.088.592.819.12.232.284.438.484.605s.38.274.501.29h.031c.349 0 .456-.212.532-.986l.044-.41-.075-.561-.061-.394c0-.273.091-.425.242-.425.091 0 .198.066.304.167l.409.409c.273.258.546.409.819.409.349 0 .561-.167.561-.409 0-.212-.045-.304-.409-.91-.031-.044-.121-.228-.289-.53-.349-.682-.516-.85-.834-.85l-.425.044-.53.197a.96.96 0 0 1-.319.088c-.076 0-.136-.077-.136-.167 0-.364.243-.94.698-1.653.288-.44.516-1.547.698-3.216l.198-1.911c.135-1.183.257-1.593.499-1.593.092 0 .152.033.152.077l.137.622v.485c0 .591.06 1.076.136 1.076.168 0 .425-.197.667-.546a2.6 2.6 0 0 0 .41-.819c.136-.425.212-.789.212-1.062 0-.94-.394-1.349-1.684-1.714-.121-.033-.211-.077-.242-.121l-.044-.364v-.697l-.077-.485-.166-.409-.198-.44-.318.197c-.835.515-1.046.682-1.319 1.016-.363.47-.5.591-.652.591-.106 0-.198-.077-.198-.182l.167-.698v-.11c0-.895-.501-1.76-1.395-2.411l-.288.318-.288.409-.485.577a1.9 1.9 0 0 0-.456 1.197l.015.136v.136c0 .334-.044.44-.197.44l-.091-.044-.334-.394-.409-.501-.729-.44-.363-.288c-.395.85-.409.94-.409 2.047v.335c0 .363-.121.591-.319.591-.106 0-.273-.066-.5-.198a1.18 1.18 0 0 0-.608-.166c-.591 0-1.031.501-1.031 1.197 0 .743.167 1.259.668 2.063.318.531.728.971.924.971.031 0 .077-.38.121-.879l-.121-.698-.031-.318c0-.258.106-.425.257-.425.228 0 .364.258.516.94l.319 1.517.334 1.912a8.29 8.29 0 0 0 .484 1.638c.319.774.561 1.244.698 1.425.456.577.501.667.501.788 0 .11-.076.198-.182.198a.82.82 0 0 1-.363-.138c-.154-.073-.318-.124-.487-.152l-.303-.044c-.668 0-.803.546-.803 3.247 0 1.698.348 3.942.773 5.035l.864 2.168a2.69 2.69 0 0 1 .198 1.016c0 2.988-4.035 7.751-8.282 9.798-1.653.789-2.138 1.623-2.289 3.867.712-.334 1.002-.44 1.441-.561 1.197-.349 1.456-.516 1.622-1.062l.167-.53c.076-.228.228-.349 1.061-.774.319-.167.532-.349.653-.53.212-.349.38-.531.485-.531.121 0 .182.077.182.212l-.015.077-.455 1.153-.045.288c0 .85.485 1.562 1.349 2.016l.136-.484c.136-.623.273-1.032.395-1.229l.788-1.137c.273-.409.335-.682.335-1.744l-.061-1.275-.015-.334c0-.212.091-.318.287-.318.136 0 .259.044.259.121l.121.774c.031.167.197.288.409.288.394 0 .895-.501 1.425-1.425.212-.364.304-.653.304-.986a9.47 9.47 0 0 0-.136-1.259l-.016-.242c0-.198.121-.335.319-.335.09 0 .182.033.196.077l.273.94c.106.319.319.53.546.53.622 0 1.275-1.273 1.335-2.654.045-.85.152-1.153.409-1.153.106 0 .183.033.213.088l.152.531c.061.198.182.334.288.334s.319-.182.576-.484a5.49 5.49 0 0 0 .364-.532c.075-.135.117-.286.121-.44 0-.197-.044-.258-.363-.501-.304-.228-.456-.516-.456-.864 0-.591.259-1.228.986-2.487.667-1.137.758-1.273.91-1.273.166 0 .273.152.273.349-.002.12-.028.239-.077.349-.121.242-.165.409-.165.501 0 .152.135.288.318.288.197 0 .44-.088.743-.242.166-.11.546-.258 1.092-.455l1.395-.485c.269-.092.551-.138.835-.137a3.16 3.16 0 0 1 .712.088c.471.11.789.167.941.167.086.001.171-.016.25-.049s.151-.081.212-.141.109-.133.141-.212a.63.63 0 0 0 .048-.25c0-.152-.105-.47-.242-.698-.212-.349-.333-.53-.38-.577-.166-.182-.242-.288-.242-.364l.044-.167c.047-.088.138-.167.229-.167.318 0 .956.667 1.531 1.593 3.201 5.232 4.748 6.885 7.099 7.599 2.441.743 3.018 1.258 3.018 2.714 0 .774-.409 1.714-1.259 2.912-1.638 2.26-2.215 3.595-2.215 5.096v.334c.199-.088.349-.152.456-.212.334-.167.546-.258.652-.273l1.017-.212c.318-.066.575-.44.575-.85v-.088l-.091-.895v-.136c0-.515.242-.925.546-.925.121 0 .258.11.319.242l.651 1.394c.273.561.577.834 1.427 1.214M87.223 18.624l-.044.653v.394c0 .667.106.955.349.955.273 0 .698-.516.88-1.062.121-.349.211-.834.211-1.107 0-.197-.045-.38-.212-.774-.182-.44-.363-.651-.591-.651-.349 0-.517.454-.593 1.593z"/><path d="M84.039 10.662l.015.363c0 .365-.121 1.063-.288 1.729l-.257.94a3.85 3.85 0 0 0-.076.729c0 .577.273 1.123.698 1.335l.44.257.09.577c-.015.212.015.517.121.895a4.9 4.9 0 0 1 .167 1.228c0 .334-.031.47-.106.47-.152 0-.425-.425-.667-1.046-.409-.987-.758-1.351-1.304-1.351-.456 0-.743.066-1.275.318.425.561.682 1.016 1.183 2.123.653 1.456.895 1.744 1.912 2.245.227.121.379.256.379.379 0 .198-.152.319-.363.319a4 4 0 0 1-.577-.077l-.304-.033c-.152 0-.228.135-.228.454 0 1.092.924 2.397 2.442 3.489.212.152.334.304.334.409 0 .077-.044.137-.136.197-.027.029-.06.052-.097.067s-.076.022-.116.021c-.076 0-.273-.077-.47-.167a.65.65 0 0 0-.304-.088c-.197 0-.318.182-.318.47 0 .38.273 1.031.743 1.774.44.698.91 1.168 1.35 1.35l1.835.774c.091.044.167.137.167.242 0 .136-.106.258-.259.288l-.318.044-.363.044-.501-.044h-.077c-.257 0-.348.044-.348.182 0 .197.182.605.591 1.32.455.789.774 1.152 1.016 1.152.091 0 .183-.077.259-.212l.44-.94c.059-.121.424-.394 1.061-.803a2.63 2.63 0 0 1 1.137-.454c.986-.121 1.078-.182 1.078-.577 0-.152-.045-.425-.136-.803l-.121-.865-.077-.774-.09-.895c0-.228-.061-.334-.198-.334-.091 0-.227.121-.318.288-.484.789-1.199 1.304-1.759 1.304-2.29 0-3.838-3.624-3.838-8.963l.031-1.593.136-1.926.015-.682c0-1.638-.577-3.337-1.41-4.171l-.561-.577zm5.263 29.833c-.85-.152-.986-.182-1.957-.606-.667-.304-1.092-.425-1.532-.425-.636 0-1.137.212-1.728.698l.363.288.819.577.774.605c.198.168.44.242.698.242.789 0 1.472-.362 2.563-1.379zm15.712 7.431c.228-.515.335-.651.819-1.062 1.138-.986 1.668-1.714 1.668-2.289v-.896c0-.531.092-.698.365-.698.121 0 .228.044.257.121l.198.485c.044.121.182.182.348.182.289 0 .501-.212 1.002-1.031.212-.349.302-.577.302-.803a1.38 1.38 0 0 0-.105-.47l-.287-.653c-.092-.212-.168-.484-.168-.637 0-.258.137-.425.379-.425.105 0 .228.044.288.136l.319.394c.076.088.092.152.213.152.151 0 .424-.152.53-.349l.319-.653a.81.81 0 0 0 .122-.38c0-.121-.122-.273-.32-.349l-.576-.258c-.667-.288-1.229-1.425-1.229-2.532 0-.11.045-.288.121-.517l.259-.697c.077-.219.118-.45.121-.682 0-.394-.136-.774-.409-1.244l-.501-.85c-.228-.606-.363-.803-.577-.803-.136 0-.273.044-.515.197l-.409.242-.577.653-.561.273c-.349.182-.667.925-.667 1.532 0 .879.181 1.365 1.516 3.745.562 1.002.835 1.745.835 2.321 0 1.653-1.7 3.033-4.46 3.595-3.306.667-4.034 1.213-4.413 3.336.577-.288.803-.334 1.805-.334l.606.011h.091c.546 0 .622-.044.971-.531.395-.561.789-.91 1.335-1.137l.667-.288.516-.288.166-.044c.152 0 .228.066.228.167 0 .152-.121.379-.394.698-.379.47-.606.971-.606 1.335a1.96 1.96 0 0 0 .408 1.324zm-5.141-6.34a5.16 5.16 0 0 1 1.228 1.107c.394.53.44.577.834.577.152 0 .364-.033.591-.088l.365-.077c.698-.136.91-.228.91-.425 0-.11-.061-.212-.167-.304l-.501-.41-.44-.409c-.272-.258-.848-.456-1.288-.456-.516 0-.926.136-1.532.484zm13.225 2.215l.242-.044.41-.044.334.044.212.011c.41 0 .622-.044.804-.182.242-.182.501-.501.773-.926.106-.182.168-.349.168-.47 0-.273-.259-.44-.713-.44-1.123 0-1.805.625-2.23 2.05zm-72.512 86.207l.242-.484.577-.608c.485-.53.744-1.258.744-2.123a4.51 4.51 0 0 0-.212-1.304c-.106-.334-.167-.606-.167-.729 0-.257.198-.501.394-.501.077 0 .198.077.304.199l.606.696c.38.425.516.517.986.607l.044-.562.032-.667c0-.986-.349-2.078-.895-2.76-.319-.425-.47-.667-.47-.819s.106-.288.227-.288c.031 0 .091.033.167.088.394.288.591.409.698.409.197 0 .379-.484.379-1.031 0-.774-.333-1.668-.834-2.289l-.484-.608c-.056-.063-.089-.143-.092-.228 0-.181.152-.303.364-.303.152 0 .242.044.501.212.121.077.228.121.303.121.319 0 .44-.454.44-1.668l-.016-.501-.044-.727c-.046-.865-.122-1.016-.486-1.016h-.319c-1.987 0-2.926-1.274-3.427-4.656-.379-2.458-1.289-4.201-2.41-4.581-.668-.212-.911-.363-.911-.546 0-.11.183-.227.395-.227.136 0 .484.088.758.212 1.638.653 3.002.986 4.201.986 1.957 0 3.489-1.441 3.489-3.275 0-1.396-.668-2.807-1.851-3.959-.334-.318-.682-.516-1.031-.606l-.06-.011-.212.077.077.591.165.409.046.167c0 .088-.091.152-.198.152a.41.41 0 0 1-.303-.152l-.727-1.107c-.577-.865-1.865-1.607-2.807-1.607-.333 0-.546.151-.546.393 0 .121.106.319.258.47.198.242.364.531.364.653l-.044.167c-.046.088-.107.152-.167.167h-.045c-.198 0-.288-.088-1.169-1.092-.727-.834-2.213-1.638-3.018-1.638a.41.41 0 0 0-.288.121c-.06.044-.091.11-.091.152 0 .121.106.288.288.455.258.242.456.515.456.622 0 .088-.106.167-.228.167-.242 0-.759-.349-1.729-1.107-1.532-1.199-2.214-2.32-2.214-3.64 0-1.577 1.137-2.821 2.579-2.821.834 0 1.956.409 2.73.986l2.003 1.517a5.33 5.33 0 0 0 3.199 1.062 1.66 1.66 0 0 0 .712-.167c.183-.088.288-.198.288-.273 0-.066-.152-.121-.363-.182-.729-.166-1.305-.425-1.715-.728l-2.047-1.547-1.593-1.107c-1.076-.561-1.289-.698-1.289-.819 0-.066.106-.121.242-.121.106 0 .228.033.349.088l1.062.44c.349.152.925.485 1.728 1.016 2.169 1.472 3.292 1.942 4.566 1.942 1.228 0 2.123-.879 2.123-2.047-.003-.242-.06-.481-.167-.698l-.212-.409c-.06-.152-.197-.258-.242-.212l-.121.167-.121.864c0 .033-.046.121-.121.288a1.54 1.54 0 0 1-.289.394c-.212.228-.41.288-.743.288-.637 0-1.349-.333-3.261-1.547-1.926-1.228-3.669-1.881-5.05-1.881-.697-.002-1.387.133-2.031.398a5.29 5.29 0 0 0-3.278 4.896c0 4.094 2.503 5.93 10.329 7.644 2.972.653 4.277 1.517 4.277 2.836 0 1.213-.971 1.971-2.518 1.971-.47 0-.834-.011-1.107-.077-.258-.044-1.667-.44-4.201-1.137-1.759-.485-3.716-.774-5.445-.774-3.078 0-5.141.925-6.552 2.882-.167.243-.334.379-.44.379-.076 0-.197-.066-.334-.167l-.576-.454c-.395-.304-1.032-.546-1.456-.546a1.28 1.28 0 0 0-.865.349c-.212.181-.363.288-.425.288-.227 0-.636-.516-.971-1.183-.454-.956-.697-1.911-.697-2.776 0-.409.137-.698.318-.698.137 0 .242.11.304.333l.318 1.183c.182.653.561 1.183.834 1.183.137 0 .349-.182.607-.501.14-.166.248-.356.319-.561.258-.758.318-.864.515-.864.242 0 .363.152.531.895.031.136.077.349.259.698.135.264.297.513.484.742.138.137.288.213.425.213.364 0 .698-.607.698-1.259l-.015-.182-.044-.758c0-.288.044-.38.211-.38.091 0 .167.044.288.198a2.14 2.14 0 0 0 .682.576c.258.121.455.198.591.198.121 0 .259-.077.395-.198.106-.11.166-.228.166-.334s-.137-.303-.576-.728c-.228-.242-.516-.803-.819-1.638-.106-.319-.259-.531-.38-.531-.031 0-.121.033-.273.088l-.53.197-.364.167-.137.033c-.182 0-.319-.121-.319-.288 0-.152.38-.591.82-.971a1.47 1.47 0 0 0 .387-.495 1.46 1.46 0 0 0 .144-.612c.031-.682.152-1.214.288-1.214l.121-1.425a13.68 13.68 0 0 1 .622-2.821c.045-.152.106-.242.152-.242.121 0 .212.304.212.637v.212l-.031.409c0 .531.091.788.242.788.183 0 .38-.258.561-.713l.363-.926c.1-.246.157-.508.167-.774 0-.789-.484-1.365-1.137-1.365l-.288.044a1.13 1.13 0 0 1-.288.088c-.227 0-.409-.242-.409-.517l.045-.59-.044-.819-.167-.85-.045-.409-.364.197-.44.38-.652.53-.532.44a.51.51 0 0 1-.303.121c-.319 0-.363-.077-.363-.713l.014-.167c0-.501-.228-.91-1.062-1.896-.044-.044-.121-.136-.211-.242l-.152.288-.456.728-.455 1.152-.076.729c-.031.212-.106.379-.198.379-.075 0-.211-.11-.379-.288-.622-.713-.819-.85-1.743-1.183l-.091.288-.242.85-.046.774v.591c0 .212-.076.349-.212.349h-.031c-.015 0-.091-.077-.242-.212-.091-.077-.273-.121-.485-.121-.774 0-1.259.409-1.259 1.062 0 .485.182.85.925 2.003.335.514.713.909.88.909.091 0 .182-.273.182-.591l-.076-.484a2.04 2.04 0 0 1-.121-.623c0-.228.076-.349.197-.349.363 0 .743 1.062.895 2.534l.167 1.501a5.19 5.19 0 0 0 .484 1.638c.38.759.744 1.275 1.079 1.502.379.273.621.546.621.698 0 .136-.106.242-.212.242a13.02 13.02 0 0 1-.834-.287l-.334-.044c-.819 0-1.092.47-1.092 1.865 0 1.698 1.137 4.14 2.41 5.156l1.882 1.517c.955.758 1.669 2.032 1.669 2.942 0 1.183-1.305 2.366-3.549 3.17l-1.35.5c-1.046.38-1.455 1.047-1.88 3.019.546-.167.774-.212 1.137-.212h.183l.605.011c.547 0 .941-.319.941-.789v-.364c0-.111.152-.258.364-.365l.577-.288.44-.364a.33.33 0 0 1 .227-.088c.137 0 .228.11.228.242 0 .11-.031.242-.077.379-.151.364-.227.85-.227 1.395 0 1.001.166 1.547.667 2.276.025-.18.066-.358.121-.531.091-.212.319-.576.698-1.107.622-.865 1.078-1.912 1.078-2.473l-.015-.181-.121-.94a.62.62 0 0 1 .197-.441.47.47 0 0 1 .287-.121c.167 0 .273.11.41.41.091.228.212.364.288.364.152 0 .425-.38.607-.819.136-.318.212-.622.212-.865a1.47 1.47 0 0 0-.121-.516c-.091-.213-.137-.363-.137-.47s.031-.152.167-.273c.076-.044.137-.077.212-.077a.52.52 0 0 1 .242.077l.363.243a.63.63 0 0 0 .319.137c.167 0 .409-.182.577-.455.363-.546.576-1.001.576-1.166 0-.111-.061-.183-.287-.35-.819-.562-1.35-1.441-1.35-2.169a1.94 1.94 0 0 1 .121-.606l.41-1.092.334-.865.121-.044c.137 0 .212.121.212.318a1.5 1.5 0 0 1-.091.47 2.39 2.39 0 0 0-.167.774c0 .288.152.44.425.44.235-.005.467-.056.682-.152 1.228-.53 2.214-.819 2.791-.819.561 0 .91.121 1.486.531.152.11.288.167.38.167.076 0 .166-.066.242-.167a.47.47 0 0 0 .077-.213c0-.136-.092-.333-.243-.515-.212-.273-.288-.425-.288-.592 0-.121.076-.198.228-.198.636 0 1.638 2.017 2.593 5.233.743 2.533.955 2.776 3.382 4.156 2.047 1.153 2.821 2.305 2.821 4.172 0 1.834-.501 4.17-1.563 7.248-.332.986-.469 1.639-.469 2.185 0 .425.076.85.394 1.941.152.531.242.835.288.94a4.98 4.98 0 0 0 .319.609zm-9.465-5.702c.242-.562.319-.698.774-1.396.667-1.001.895-1.517.895-2.002v-.653c0-.605.121-.894.363-.894a.24.24 0 0 1 .214.121l.212.333a.31.31 0 0 0 .12.124c.051.029.108.045.167.043.121 0 .335-.167.456-.348.288-.441.47-1.016.47-1.457l-.045-.44-.031-.47c0-.242.106-.349.334-.349.152 0 .228.066.363.365.093.198.198.333.305.333s.242-.11.348-.257l.319-.485.242-.365.06-.197c0-.121-.076-.228-.303-.38-.76-.546-1.078-1.38-1.138-2.897-.044-1.152-.106-1.895-.212-2.245-.015-.077-.258-.666-.727-1.759a9.64 9.64 0 0 1-.485-1.456c-.106-.379-.228-.5-.516-.5-1.107 0-1.942.955-1.942 2.199 0 .743.304 1.896.865 3.321.789 1.973.986 2.686.986 3.382 0 1.503-.592 2.154-2.67 2.897-2.335.834-3.427 2.033-3.821 4.202l.394-.167a4.35 4.35 0 0 1 .577-.198l.651-.166c.561-.137 1.016-.455 1.107-.774l.167-.577a.39.39 0 0 1 .084-.175.38.38 0 0 1 .158-.113l.363-.152.365-.167.091.167-.167.516c-.061.182-.091.501-.091.956 0 .894.182 1.428.698 2.08zM9.206 86.556a2.28 2.28 0 0 1 .091.455c0 .136-.061.484-.167 1.062l-.076.834a6.67 6.67 0 0 0 .363 2.138c.214.591.259.774.259.94l-.015.167c-.031.167-.106.288-.152.288-.076 0-.227-.088-.425-.258-.455-.409-.97-.606-1.501-.606-.234.01-.467.036-.698.077l.212.455.606 1.517.85 1.304.91.605c.076.066.167.138.242.244.077.121.121.212.121.273 0 .077-.075.136-.165.136l-.82.044c-.121 0-.212.077-.212.167 0 .136.106.546.333 1.213l.409 1.183.698.653.729.531c.228.152.349.333.349.47 0 .11-.06.212-.136.228l-.409.044c-.136.011-.212.121-.212.319 0 .303.288.864.819 1.591.637.864 1.076 1.138 1.805 1.138h.605c.289 0 .471.152.471.379 0 .197-.121.304-.394.363-.561.121-.729.229-.729.487 0 .11.077.273.212.454l.319.441c.273.379.576.621.773.621.106 0 .364-.11.592-.379.363-.41.788-.76 1.32-.895 1.425-.349 1.714-.501 1.714-.834 0-.11-.045-.273-.152-.47-.454-.804-.622-1.335-.622-2.003 0-.5-.121-.849-.319-.849-.075 0-.196.121-.334.318-.334.516-.895.865-1.425.865-1.41 0-3.109-2.199-3.959-5.142a8.1 8.1 0 0 1-.303-2.199 11.6 11.6 0 0 1 .303-2.503l.456-1.987.044-.561c0-1.016-.923-2.304-2.379-3.32z"/><path d="M12.148 92.228c-.304.577-.577 1.851-.577 2.655 0 .485.167.85.364.85.06 0 .152-.077.212-.197l.455-.819.288-.501c.167-.242.288-.47.288-.605 0-.471-.455-1.079-1.031-1.382zm4.489 18.397c.091.11.167.168.212.213l.319.319c.803.833.909.909 1.303.909.349 0 1.093-.197 1.518-.409.166-.089.273-.197.273-.289 0-.044-.137-.212-.395-.454l-.454-.41c-.334-.304-.85-.591-1.078-.591-.47 0-.955.211-1.698.712zm9.464 7.386c.44.182.591.258.819.41l.653.409c.121.066.349.088.651.088a1.3 1.3 0 0 0 .485-.088l.865-.318.819-.288c.212-.077.363-.197.363-.318 0-.066-.182-.152-.454-.213a4.5 4.5 0 0 1-.607-.212c-1.001-.394-1.152-.455-1.501-.455-.399.005-.793.095-1.154.266s-.682.415-.939.719zm10.328 8.205c.273-.652.456-.758 1.38-.818 1.047-.066 2.047-1.927 2.047-3.2 0-.121-.044-.228-.09-.228-.061 0-.152.044-.273.121l-.622.379-1.183.53c-.789.349-1.471 1.396-1.471 2.23 0 .273.045.516.212.986zm74.379-9.751l.167-.44.167-.577c.031-.11.181-.349.44-.698.408-.546.621-1.229.621-2.033-.005-.271-.078-.537-.213-.773-.076-.168-.121-.304-.121-.394 0-.044.031-.121.077-.182.06-.077.121-.121.165-.121l.032-.011c.106 0 .289.121.425.288.166.213.318.334.41.334.181 0 .378-.304.484-.774a2.38 2.38 0 0 0 .077-.409c0-.197-.152-.713-.364-1.138-.077-.168-.121-.304-.121-.425 0-.137.105-.258.226-.258s.319.121.547.349c.106.11.227.168.303.168.258 0 .44-.258.637-.895l.168-.637c0-.122-.061-.197-.152-.197l-.137.011-.485.044c-.743 0-1.79-.517-2.291-1.107l-1.138-1.381-1.015-1.349-.94-.605c-.168-.111-.259-.243-.259-.35 0-.152.167-.243.395-.243.213 0 .879.228 2.108.743 1.168.501 3.018.91 4.125.91 1.957 0 3.565-1.577 3.565-3.488 0-1.061-.47-2.032-1.624-3.382-.212-.243-.575-.485-.743-.485-.136 0-.227.088-.227.228 0 .121.045.273.121.47a1.15 1.15 0 0 1 .077.38c0 .182-.061.288-.198.288-.258 0-.516-.425-.743-1.153-.258-.91-.788-1.456-2.032-2.092-.47-.228-1.092-.454-1.29-.454-.091 0-.136.077-.136.182a.92.92 0 0 0 .167.484c.167.274.288.547.319.775v.044c0 .152-.077.242-.228.242-.258 0-.319-.066-.91-.986-.304-.47-1.138-1.092-1.836-1.38a1.88 1.88 0 0 0-.696-.167h-.031c-.137 0-.259.066-.259.152 0 .044.061.167.183.38l.06.228c0 .121-.077.228-.182.228-.258 0-1.016-.622-1.607-1.305-.653-.758-1.062-1.698-1.062-2.457 0-1.547 1.485-2.942 3.154-2.942.425 0 .774.077 1.047.212l1.425.726 1.668 1.108c.971.637 2.291 1.107 3.094 1.107.289 0 .516-.044 1.275-.257.409-.11.652-.258.652-.409l-.015-.033-.137-.088-.91-.077c-.485-.044-1.623-.561-2.518-1.138l-1.88-1.228-1.668-.698c-.137-.044-.213-.136-.213-.213s.092-.152.182-.152c.015 0 .167.033.47.077l1.563.455c.378.11 1.001.394 1.865.864 1.714.895 2.806 1.304 3.625 1.304.941 0 1.637-.653 1.637-1.532a5.11 5.11 0 0 0-.166-1.167 1.52 1.52 0 0 0-.242-.532c-.062-.11-.152-.167-.198-.167-.121 0-.182.136-.182.334l.016.288.015.228c0 .76-.288 1.016-1.123 1.016-.682 0-1.592-.257-3.67-1.092-1.942-.758-3.154-1.062-4.368-1.062-3.063 0-5.763 2.518-5.763 5.369 0 2.473 1.638 4.353 4.99 5.734l3.472 1.441c2.867 1.167 3.914 2.016 3.914 3.123 0 .94-.85 1.532-2.199 1.532-.592 0-1.321-.167-2.655-.591-3.245-1.031-5.353-1.456-7.204-1.456-3.033 0-5.187.819-6.916 2.639-.227.243-.348.32-.561.32-.135 0-.272-.044-.576-.229-.319-.182-.653-.304-.895-.304-.304 0-.758.258-.986.546l-.409.53c-.121.152-.242.242-.349.242-.303 0-.819-.5-1.152-1.107-.196-.322-.335-.676-.409-1.045a7.05 7.05 0 0 1-.091-1.123l.044-.759.122-.819.121-.698c.031-.088.121-.152.198-.152.211 0 .303.182.303.638v.257l-.015.182c0 1.153.454 2.214.971 2.214.394 0 .743-.698 1.046-2.123.046-.273.167-.44.304-.44.167 0 .259.198.38.819a3.45 3.45 0 0 0 .622 1.304c.152.212.319.319.455.319.333 0 .561-.502.729-1.67.061-.454.197-.743.349-.743.076 0 .136.044.166.088.045.033.136.182.288.455a1.05 1.05 0 0 0 .455.394c.198.121.364.167.471.167.143-.006.278-.065.379-.167.181-.152.288-.273.288-.333 0-.067-.091-.182-.242-.349-.259-.289-.471-.667-.729-1.35l-.363-.94c-.077-.152-.138-.242-.213-.288l-.121-.033-.242.033-.865.242-.258.044c-.121 0-.198-.077-.198-.197 0-.11.152-.304.335-.455 1.031-.819 1.653-2.199 1.881-4.201.136-1.214.287-1.684.819-2.411.106-.152.197-.242.257-.242.152 0 .243.121.243.363a1.65 1.65 0 0 1-.136.578 1.34 1.34 0 0 0-.091.501l.015.152.076.242.455-.167.484-.561c.289-.349.532-1.107.532-1.668 0-.394-.092-.667-.334-.94-.257-.318-.425-.44-.606-.44l-.289.033-.288.011c-.258 0-.394-.077-.394-.242l.076-.304.044-.454-.256-1.016-.198-.501-.121-.394-.287.197-.608.364a2.37 2.37 0 0 0-.5.455c-.577.698-.608.728-.85.728-.136 0-.228-.044-.228-.152L96.93 87c.091-.38.136-.667.136-.85 0-.713-.515-1.79-1.152-2.382-.85.819-1.304 1.715-1.304 2.579v.485c0 .198-.061.288-.183.288h-.014c-.106-.011-.213-.088-.288-.213l-.484-.653c-.046-.044-.259-.212-.654-.531l-.334-.273-.166.319c-.409.803-.546 1.288-.577 1.956-.015.546-.061.713-.182.713-.061 0-.152-.044-.259-.088-.622-.349-.682-.379-.94-.379-.743 0-1.244.531-1.244 1.304 0 .288.167.758.515 1.349.364.667.926 1.275 1.169 1.275.076 0 .091-.044.091-.243v-.089l-.045-.698-.077-.531v-.066c0-.167.062-.228.183-.228.363 0 .682 1.076.955 3.23.242 1.896.774 3.201 1.593 3.959.213.197.334.349.334.44 0 .077-.076.136-.166.136-.121 0-.304-.077-.532-.212a.87.87 0 0 0-.44-.121c-.408 0-.864.47-.954.986l-.364 2.32-.288 3.261c-.045.622.031 1.456.258 2.456.183.881.273 1.517.273 1.927 0 2.443-1.517 4.383-4.034 5.126l-2.608.774c-1.639.485-2.427 1.563-2.655 3.549.425-.333.546-.379 1.183-.485l.774-.121c.334-.066.561-.121.698-.213.076-.044.227-.198.454-.44l.682-.773c.273-.304.501-.47.653-.47.091 0 .166.121.166.242 0 .152-.091.379-.288.667-.19.321-.29.688-.287 1.062 0 .516.136.849.652 1.592l.167-.485c.076-.137.273-.425.622-.85.561-.743.971-1.502.971-1.851.016-.622.061-.834.227-.834.136 0 .167.033.228.394a.54.54 0 0 0 .121.242c.091.11.183.167.242.167s.167-.066.335-.167a2.73 2.73 0 0 0 .653-.577c.172-.217.306-.463.394-.726.136-.366.213-.623.213-.775v-.53c0-.137.061-.258.136-.258.091 0 .303.228.425.455.106.167.152.212.273.212h.015a.62.62 0 0 0 .379-.165c.485-.487.803-1.079.803-1.532l-.03-.76-.167-.605-.015-.066c0-.121.106-.228.197-.228.198 0 .394.258.667.85.136.288.259.425.38.425.197 0 .349-.152.727-.698l.364-.531a.65.65 0 0 0 .121-.409.65.65 0 0 0-.121-.409l-.319-.486c-.059-.088-.09-.228-.09-.409 0-.562.212-1.183.622-1.926l.531-1.017c.061-.168.136-.242.228-.242.076 0 .136.088.136.196l-.045.454v.653c.061.152.166.212.349.212.145-.004.289-.034.424-.088l1.031-.363a6.92 6.92 0 0 0 .926-.456c1.607-.879 2.093-1.062 2.881-1.062.486 0 1.078.182 1.942.577.183.077.319.121.425.121s.242-.077.349-.197c.072-.091.114-.202.121-.318 0-.152-.061-.318-.167-.501-.121-.228-.242-.515-.242-.605 0-.121.075-.183.181-.183.091 0 .242.11.319.213l.925 1.638c.773 1.35 1.759 2.29 2.623 2.488l1.79.409c.547.121.698.334.698 1.031 0 1.274-.606 2.381-1.638 3.049l-1.471.94c-.531.333-.971 1.273-.971 2.062 0 .501.121 1.396.288 2.094l.273-.289.698-.409.606-.606.335-.895.318-.819c.167-.394.349-.653.485-.653s.213.228.213.622v.258c0 .591.076.849.53 1.728m-24.117 12.379c.5-.454.576-.485 1.971-.773 1.107-.228 1.623-.727 1.865-1.836.182-.803.288-.955 1.016-1.38.242-.136.425-.273.532-.409.091-.11.166-.168.212-.168.076 0 .136.077.136.182 0 .136-.091.364-.259.667-.121.198-.166.44-.166.789 0 .652.136 1.092.484 1.623.259-.545.395-.697 1.032-1.138.803-.576 1.107-1.228 1.259-2.699.061-.622.182-.94.348-.94.077 0 .136.044.183.121l.288.622c.031.077.136.136.257.136.106 0 .334-.121.515-.304l.577-.53c.228-.228.394-.789.484-1.714.032-.333.153-.561.29-.561.076 0 .166.077.197.197l.242.819c.061.181.183.318.288.318.061 0 .167-.066.334-.198a3.58 3.58 0 0 0 .561-.621 1.31 1.31 0 0 0 .288-.819v-.682a.77.77 0 0 1 .167-.455c.076-.11.136-.167.182-.167.091 0 .182.088.228.212l.152.455c.076.182.226.318.394.318.212 0 .424-.182.758-.653a2.27 2.27 0 0 1 .242-.319c.183-.227.288-.408.288-.529 0-.044-.06-.152-.166-.289-.592-.773-.895-1.713-.895-2.775 0-1.35.516-2.503 2.077-4.612.941-1.273 1.472-2.456 1.472-3.275 0-.228-.106-.349-.319-.349-.151 0-.303.044-.5.152-.152.077-.258.121-.304.121-.076 0-.181-.066-.273-.167l-.287-.319-.198-.333c-.036-.057-.084-.105-.143-.14s-.123-.054-.191-.057c-.03 0-.136.033-.319.077l-.363.044c-.425.011-.591.167-.591.577l.015.243.016.182c0 .348-.319.91-.743 1.289l-.774.683c-.955.865-1.699 2.229-1.699 3.123 0 .394.121 1.016.349 1.776.364 1.228.501 1.805.501 2.199 0 1.955-3.004 4.534-8.538 7.355-2.806 1.426-3.519 2.275-3.519 4.201zM84.01 86.024v1.016a2.38 2.38 0 0 1-.091.667c-.121.561-.152.76-.152.91 0 .789.106 1.168.561 1.987.258.44.425.971.425 1.365 0 .168-.077.259-.183.259-.076 0-.136-.044-.197-.121l-.333-.455c-.258-.349-.501-.44-1.168-.44l-.698.044c.273.698.363.955.484 1.425.335 1.335.38 1.425 1.108 2.078s.788.743.788.971c0 .182-.121.334-.287.334l-.259-.044-.166-.011c-.228 0-.425.409-.425.864 0 .257.106.682.258 1.031.106.243.198.409.288.485l.409.409c.109.114.169.267.167.425 0 .198-.121.364-.259.364-.076 0-.197-.044-.363-.136a.71.71 0 0 0-.288-.077c-.182 0-.273.11-.273.334l.076.607.242 1.062c.061.227.212.5.456.773a1.89 1.89 0 0 0 .606.486l.819.364c.077.066.121.182.121.334s-.121.288-.273.288c-.044 0-.182-.033-.424-.088l-.41-.033c-.409 0-.44.011-.44.333a2.31 2.31 0 0 0 .077.639l.166.65c.167.698.395 1.062.638 1.062.059 0 .165-.066.303-.167.591-.44 1.774-.85 2.517-.85.774 0 1.639.088 1.972.198.182.066.319.11.379.11.106 0 .136-.11.152-.471l.077-.726.165-1.275.122-.939v-.531c-.109.099-.22.195-.334.288-.698.653-1.123.864-1.85.864-1.865 0-2.943-2.108-2.943-5.794 0-1.517.212-3.654.637-6.127.091-.516.136-.879.136-1.123 0-1.349-.865-2.66-2.335-3.617z"/><path d="M86.784 95.171l.364-.364.363-.334a1.92 1.92 0 0 0 .547-1.259 1.44 1.44 0 0 0-.136-.577c-.136-.304-.409-.577-.577-.577-.136 0-.273.334-.319.864l-.09.606-.121.622-.031.606zm-3.594 16.683c.409.152.501.228.941.729.561.667.88.819 1.622.819a1.68 1.68 0 0 0 .577-.077l.531-.165.409-.121c.198-.066.319-.138.319-.214s-.319-.349-.803-.682a8.35 8.35 0 0 0-.986-.577c-.349-.167-.653-.242-.941-.242-.561 0-1.123.167-1.668.53zm5.551 11.953c.713-.305.971-.44 1.79-.896l1.183-.653c.758-.394 1.107-.682 1.107-.894 0-.258-.455-.425-1.244-.425-1.593 0-2.881 1.076-2.881 2.411zm16.562-10.36c.577-.121.774-.273 1.062-.288l.728.044c.091-.033.257-.137.485-.318l.577-.425c.819-.546.864-.592.864-.759 0-.227-.334-.348-1.016-.348-1.289 0-2.078.607-2.7 2.094z"/></g><path d="M21.657 15.121l-.196-.579-.061-.334c0-.334.167-.516.622-.682.803-.304 1.062-.44 1.396-.743l.44-.409.044-.011c.121 0 .213.136.213.319 0 .515-.561 1.47-1.138 2.441-.425.726-.622 1.183-.789 1.183-.197 0-.409-.319-.454-.698zm-2.411-1.64l.698.365c.182.11.288.242.288.394l-.045.258c-.106.349-.015.726-.031.879-.031.726-.577.713-.803.713-.137 0-.061-.077-.395-.44l-.895-1.031c-.273-.319-.515-1.031-.605-1.836v-.11c0-.213.059-.304.242-.304.106 0 .303.088.454.212zm2.458 4.248l.652-.41.38.088c.455 0 .561.121.561.622 0 .729-.456 1.031-1.274 3.079-.363.91-.425 1.425-.971 1.425-.591 0-1.046-.484-1.517-1.638l-.53-1.304c-.38-.91-.53-1.471-.53-1.805 0-.319.242-.517.605-.517.198 0 .396.066.578.168l.5.288.471.044.211-.011zm76.228-2.487l-.334-.699-.061-.334c0-.349.151-.501.667-.682.515-.197 1.076-.501 1.349-.743l.44-.409.045-.011c.121 0 .198.136.198.304 0 .531-.471 1.351-1.047 2.335-.424.713-.698 1.305-.864 1.305-.212 0-.409-.319-.456-.698zm-2.548-1.761l.698.365a.55.55 0 0 1 .303.484l-.015.168-.212.743-.121.803c-.015.11-.106.167-.212.167h-.031a1.93 1.93 0 0 1-.88-.561l-.621-1.031c-.091-.11-.334-.485-.531-1.138a4.19 4.19 0 0 1-.167-.698l-.015-.11c0-.213.076-.304.257-.304.106 0 .304.088.456.212zm2.487 4.248l.622-.41.227-.044c.456 0 .971.44.971.91 0 .409-.531.638-.758 1.214l-.44 1.835c-.332.88-.757 1.304-1.288 1.304-.623 0-1.078-.484-1.532-1.638l-.532-1.304c-.333-.789-.515-1.38-.515-1.699 0-.394.228-.622.591-.622a1.2 1.2 0 0 1 .577.167l.484.288.486.044.213-.011zM18.23 89.74l-.198-.605-.044-.183c0-.066.076-.121.166-.121s.319.121.485.257c.183.136.288.136.577.198 1.107.287 1.335.5 1.335 1.03l-.031.682-.167.622c-.076.257-.137.349-.258.349-.091 0-.803-.501-.881-.637l-.408-.577zm4.944 1.017l-.546.94-.197.228H22.4c-.228 0-.44-.485-.454-1.002l-.077-.819c.062-.334.259-.485.759-.561.425-.077.698-.167.834-.257l.652-.44.061-.011c.106 0 .183.077.183.197v.066l-.288.698zm-1.061 2.776l.651-.319c.091-.058.196-.088.304-.088.319 0 .546.229.546.668 0 .47-.363 1.092-.85 1.987-.546.971-.955 1.638-1.365 1.638-.591 0-1.425-.924-2.23-2.487-.182-.363-.303-.803-.303-1.137 0-.517.212-.789.652-.789a.93.93 0 0 1 .471.121l.363.242c.251.185.547.298.857.328s.622-.028.903-.162zm70.859-4.93l.576.364c.261.169.535.316.82.44.636.273.849.364.849.606a1.47 1.47 0 0 1-.076.455c-.063.187-.104.38-.121.577-.061.561-.394.698-.622.698-.257 0-.561-.425-1.016-1.228-.198-.364-.485-1.092-.653-1.623l-.015-.167c0-.088.061-.152.167-.152zm5.521 1.425l-.941.94c-.334.44-.334.819-.409.895a.45.45 0 0 1-.288.121h-.061a.41.41 0 0 1-.424-.409l-.045-.698-.045-.682v-.044a.42.42 0 0 1 .363-.455l.865-.242.895-.454.394-.152c.106 0 .182.11.182.228a.74.74 0 0 1-.076.257zm-4.125 2.776l.605.44a1.11 1.11 0 0 0 .547.136c.257 0 .622-.088.971-.258l.531-.242a1 1 0 0 1 .319-.077c.318 0 .576.334.576.774 0 .591-.425 1.228-1.061 2.124l-.44.939c-.363.501-.606.698-.895.698-.485 0-.713-.288-1.442-1.728-.515-1.032-.726-1.654-.726-2.154 0-.44.211-.743.545-.743.121 0 .288-.031.471.09z" class="B"/><path d="M20.809 18.912h-.532c-.043-.001-.085.01-.123.031s-.068.052-.09.09l-.076.198.198.985.166.85c.091.47.258.667.606.667.409 0 .653-.288.698-.789l.091-.895.077-.924c-.005-.099-.048-.192-.121-.259-.027-.029-.06-.052-.097-.067s-.077-.022-.116-.02l-.031.011zm76.121 0h-.484c-.041.001-.08.013-.115.034s-.063.051-.083.087c-.048.061-.088.128-.121.198l.198.985.165.85c.092.47.167.667.517.667.393 0 .742-.288.788-.789l.076-.895.091-.924c-.005-.099-.048-.192-.121-.259-.027-.029-.06-.052-.097-.067s-.076-.022-.116-.021l-.045.011zM21.172 94.519l-.454-.088h-.061c-.258 0-.394.151-.394.44 0 .408.319 1.182.743 1.774a.38.38 0 0 0 .303.167c.273 0 .456-.501.592-1.321l.121-.605.015-.121c0-.243-.076-.334-.288-.334h-.091zm73.726.53l.044.774c.016.349.304.698.592.698.38 0 .637-.561.789-1.426l.091-.577c0-.304-.106-.38-.485-.38l-.212.011h-.288l-.182-.011c-.258 0-.349.198-.349.713z" class="D"/><path d="M48.958 55.509h4.322c.485-1.031 1.153-1.486 2.185-1.486 1.016 0 1.669.44 2.26 1.486h3.533c.426-.94 1.275-1.486 2.322-1.486.955 0 1.895.622 2.213 1.486h3.276c.501-.955 1.273-1.486 2.168-1.486.91 0 1.653.409 2.2 1.228l.166.258h4.565v21.143h-3.989v8.114h-4.702v-8.114H57.633v8.114h-4.686v-8.19h-3.989z" class="B"/><path d="M50.656 75.029h25.951V57.238H50.656z" class="E"/><use href="#K" class="D"/><use href="#K" class="F G"/><use href="#L" class="D"/><use href="#L" class="F G"/><use href="#M" class="D"/><use href="#M" class="F G"/><use href="#N" class="D"/><use href="#N" class="F G"/><path d="M57.224 67.233c1.669 2.093 3.792 3.126 6.401 3.126 2.41 0 4.08-.866 6.02-3.126-1.94-2.002-3.761-2.836-6.141-2.836-2.518 0-4.778 1.031-6.28 2.836z" class="D"/><path d="M58.467 67.233c1.715-1.334 3.17-1.895 4.975-1.895 1.82 0 3.17.531 4.93 1.942-1.532 1.517-2.881 2.092-4.959 2.092-1.85 0-3.519-.726-4.945-2.138z" class="B"/><path d="M60.561 66.823c1.031.653 1.85.91 2.807.91a5.04 5.04 0 0 0 2.987-.91c-.955-.455-1.957-.698-2.942-.698-1.031 0-1.987.228-2.852.698z" class="D"/><path d="M50.293 59.058h26.679v-.909H50.293z" stroke-width=".112" class="B F"/><path d="M54.387 56.996v2.548c0 .605.471 1.062 1.093 1.062.727 0 1.123-.379 1.123-1.062v-2.518c0-.971-.38-1.563-1.017-1.563a1.31 1.31 0 0 0-.501.121l-.288.168c-.102.094-.184.208-.242.334-.106.228-.167.379-.167.455zm8.023 2.092v.455c0 .606.47 1.062 1.092 1.062.729 0 1.138-.379 1.138-1.062v-2.517c0-.955-.409-1.563-1.031-1.563-.729 0-1.199.591-1.199 1.532zm7.781-2.092v2.548c0 .605.47 1.062 1.092 1.062.712 0 1.123-.379 1.123-1.062v-2.518c0-.971-.395-1.563-1.017-1.563a1.31 1.31 0 0 0-.501.121c-.136.077-.242.121-.287.168-.106.094-.194.207-.259.334-.091.228-.151.379-.151.455zm-16.38 24.646h2.427v-3.126h-2.427zm0 1.684h2.427v-.987h-2.427zm16.547-1.684h2.427v-3.126h-2.427zm0 1.684h2.427v-.987h-2.427z" class="D"/><path d="M203.659 2.638v1.866h-1.229c-1.82 0-4.869 0-4.869 5.687v23.311c0 14.273-6.203 21.204-18.973 21.204-14.423 0-21.143-5.764-21.143-18.094V10.191c0-5.687-3.078-5.687-5.793-5.687h-.577V2.638h21.568v1.866h-.577c-2.669 0-6.006 0-6.006 5.687v25.238c0 10.874 4.534 16.168 13.879 16.168 9.099 0 13.891-5.703 13.891-16.472V10.191c0-5.687-3.139-5.687-5.429-5.687h-1.153V2.638zm23.296 49.095v1.865h-18.2v-1.865h.728c5.96 0 6.734-4.55 6.734-9.677V11.45c0-4.898-2.821-6.946-6.81-6.946h-.652v-1.85h14.317L254.043 40.6V11.738c0-6.522-4.566-7.234-6.522-7.234h-1.29v-1.85h18.383v1.849h-.789c-3.231 0-6.658.759-6.658 9.678v39.66l-2.715.011-35.126-42.496.015 30.667c0 5.126.743 9.707 6.901 9.707zm97.583-8.949l11.208-31.303c2.003-5.338.713-6.978-3.913-6.978h-.94V2.639h14.499v1.866h-.319c-1.577 0-3.427.47-4.807 3.973l-16.972 45.303h-3.231L301.621 8.903c-1.456-3.731-3.185-4.398-6.28-4.398h-.423V2.638h21.051v1.866h-1.365c-3.595 0-4.292 2.26-3.276 5.004zM409.562 5.05l-.015 22.552h4.369c7.931 0 11.435-3.533 11.435-11.815 0-6.718-4.338-11.072-10.859-11.072-1.532 0-3.61.121-4.93.335zm7.826-2.411c11.285 0 16.881 4.156 16.881 12.71 0 7.25-5.657 10.92-10.116 12.724l-.334.121 12.498 19.035c2.003 3.078 3.625 4.277 7.083 4.459v1.912h-13.059L415.189 29.68h-5.641v15.849c0 5.749 2.563 6.204 6.172 6.204h1.001v1.865h-22.144v-1.865h1.002c2.487 0 5.369-1.123 5.369-4.277V10.418c0-5.915-3.489-5.915-5.369-5.915h-1.002V2.638z" class="B"/><g mask="url(#E)" class="B"><path d="M470.324 43.923c0-6.203-5.323-8.645-10.283-11.239-5.824-3.018-12.513-6.158-12.513-15.562 0-9.1 6.932-14.985 16.836-14.985 4.049 0 8.63.819 10.647 1.213l.698 9.919-1.911.273c-.88-5.218-3.595-9.221-9.449-9.221-5.521 0-9.601 3.382-9.601 9.479 0 5.748 5.308 8.099 10.253 10.601 6.051 3.034 12.983 6.188 12.983 15.683 0 10.511-9.359 15.212-18.019 15.212-3.443 0-8.22-.698-12.072-2.867l-1.214-11.042 1.851-.318c1.41 7.325 6.066 11.557 12.194 11.557 5.869 0 9.6-3.58 9.6-8.706z"/></g><path d="M506.66 2.638v1.866h-.712c-2.913 0-5.582.546-5.582 4.505v38.22c0 3.959 2.669 4.505 5.58 4.505h.714v1.865h-21.278v-1.865h.727c2.897 0 5.581-.546 5.581-4.505V9.009c0-3.959-2.684-4.505-5.581-4.505h-.727V2.638zm-214.701 0v1.866h-.727c-2.897 0-5.581.546-5.581 4.505v38.22c0 3.959 2.684 4.505 5.58 4.505h.728v1.865H270.68v-1.865h.713c2.913 0 5.597-.546 5.597-4.505V9.009c0-3.959-2.684-4.505-5.597-4.505h-.713V2.638z" class="B"/><g mask="url(#F)" class="B"><path d="M716.027 76.213l.182 13.529-2.169.561c-.485-5.915-1.82-10.738-11.269-10.738h-12.709v24.995h10.905c5.354 0 6.81-2.988 7.416-8.16h2.169v20.9l-2.169.03c-.334-4.989-1.517-8.872-7.371-8.872h-10.95v21.946c0 6.385 5.49 6.385 11.314 6.385 10.435 0 15.288-.667 18.2-11.223a126.84 126.84 0 0 0 2.139.47l-2.928 14.091h-47.426v-2.336h.91c3.625 0 6.992-.683 6.992-5.643V84.206c0-4.96-3.367-5.657-6.992-5.657h-.91v-2.336z"/></g><path d="M447.707 79.231l-.015 28.286h5.46c9.949 0 14.332-4.429 14.332-14.817 0-8.433-5.43-13.879-13.604-13.879-1.911 0-4.368.11-6.173.41zm9.813-3.019c14.15 0 21.158 5.217 21.158 15.926 0 9.1-7.083 13.695-12.679 15.97l-.41.168 15.667 23.857c2.518 3.868 4.565 5.369 8.873 5.612v2.381h-16.35L454.76 110.11h-7.068v19.899c0 7.22 3.2 7.781 7.719 7.781h1.275v2.335H428.9v-2.336h1.274c3.094 0 6.734-1.41 6.734-5.368V85.964c0-7.4-4.383-7.4-6.734-7.4H428.9v-2.351zm63.2-.014v2.351h-.91c-3.64 0-7.008.682-7.008 5.642v47.942c0 4.959 3.368 5.642 7.008 5.642h.91v2.335h-26.694v-2.335h.895c3.641 0 7.007-.683 7.007-5.642V84.19c0-4.959-3.368-5.642-7.007-5.642h-.895v-2.351z" class="B"/><g mask="url(#G)" class="B"><path d="M517.736 2.639h33.701c1.699 0 3.883-.425 4.216-2.639h1.638l-1.289 13.286h-1.82c-.106-3.064-.561-7.538-5.475-7.538h-10.283v39.343c0 6.127 2.942 6.643 6.233 6.643h1.077V53.6h-23.221v-1.866h1.077c3.868 0 6.234-.318 6.234-6.492V5.748H519.42c-5.294 0-5.809 2.335-6.825 7.477h-1.836L511.927.106h1.502c.682 2.124 2.517 2.548 4.307 2.533z"/></g><path d="M609.4 2.638v1.895c-2.927.167-4.702 2.168-6.021 4.035l-12.938 19.944v16.273c0 6.477 2.351 6.947 6.234 6.947h1.076v1.865h-23.219v-1.865h1.076c4.035 0 6.234-1.016 6.234-6.355V29.726L567.798 9.645c-2.139-3.093-3.761-5.141-7.159-5.141h-.44V2.638h21.051v1.866h-.652c-4.034 0-4.323 2.154-2.608 4.595l10.889 16.866 9.616-15.228c2.214-3.321 2.851-6.233-2.608-6.233h-.835V2.638z" class="B"/><g mask="url(#H)" class="B"><path d="M634.323 25.905c0 12.589 5.551 26.133 17.76 26.133 11.163 0 16.608-7.75 16.608-23.69 0-11.709-6.249-24.146-17.836-24.146-15.349 0-16.532 16.608-16.532 21.704zm-9.464 2.578c0-15.106 11.481-26.936 26.148-26.936 15.985 0 27.133 10.344 27.133 25.162 0 16.213-11.254 27.998-26.785 27.998-15.348 0-26.496-11.027-26.496-26.224z"/></g><g mask="url(#I)" class="B"><path d="M683.95 53.585v-1.85h.728c2.912 0 5.581-.546 5.581-4.505V9.009c0-3.958-2.669-4.505-5.581-4.505h-.728v-1.85h35.611l.121 10.768c-.288.091-1.304.334-1.698.44-.41-4.368-1.411-8.554-7.493-8.554h-11.633v19.929h10.208c4.216 0 4.823-3.322 4.853-5.975h1.684v16.319h-1.669c-.045-3.185-.788-7.234-6.021-7.234h-9.055v18.882c0 4.505 3.807 4.505 7.174 4.505h.637v1.85z"/></g><path d="M155.125 108.122c0-9.509 3.853-18.836 10.48-24.782 6.158-5.521 14.242-8.614 23.373-8.614 8.159 0 14.985 1.472 21.642 4.581l.667 14.803-2.092.272c-2.412-8.585-6.417-16.441-19.96-16.441-13.908 0-22.553 11.027-22.553 28.742 0 15.789 6.992 30.712 23.918 30.712 9.509 0 16.289-3.564 21.416-10.146l1.668 3.14c-5.764 7.462-14.682 11.421-24.813 11.421-20.612 0-33.746-12.164-33.746-33.687zm137.79-19.55l-2.108 39.465c-.394 8.751 2.32 9.509 8.189 9.737h.547v2.32h-21.537v-2.32h.82c7.249-.289 7.704-4.322 8.037-10.223l2.503-40.403c.334-5.522-2.685-8.646-7.781-8.646h-.727v-2.319h18.094c.212.501 21.703 48.426 21.703 48.426l20.535-48.441h17.731v2.351h-.349c-7.189 0-8.463 2.245-7.916 11.269l2.471 42.391c.379 4.96 2.972 5.415 7.872 5.597v2.306h-26.527v-2.322h.182c4.323-.257 7.432-.44 7.432-4.776l-.077-4.581-1.956-40.874-22.098 53.038h-1.926c-.212-.53-23.114-51.994-23.114-51.994zm256.636-9.328l-.015 50.187c0 6.78 2.867 7.872 9.722 7.872 16.153 0 23.493-13.909 23.493-27.528 0-21.187-8.736-30.818-26.709-30.818-1.592 0-4.974.135-6.491.287zm-18.776 60.864v-2.335h.91c3.64 0 7.008-.683 7.008-5.642V84.19c0-4.959-3.368-5.642-7.008-5.642h-.91v-2.351l28.574-.011c10.617 0 19.52 2.669 25.738 8.447 6.112 5.703 9.358 13.772 9.358 23.357 0 8.964-3.579 17.624-9.782 23.798-6.25 6.203-15.016 8.31-23.872 8.31zm118.058-3.291v-15.667c0-3.412-2.502-5.233-7.22-5.233h-.743v-2.275h24.57v2.275h-.743c-3.442 0-5.263 1.82-5.263 5.233l-.015 17.442c-5.854 1.896-13.726 3.382-22.461 3.382-21.098 0-34.733-13.681-34.733-34.838 0-22.493 17.988-32.76 34.914-32.76 7.568 0 15.365 1.517 20.293 3.17l1.016 15.258-2.138.121c-2.654-10.981-7.538-15.287-18.549-15.287-14.848 0-23.842 10.95-23.842 28.558 0 16.184 7.598 32.229 24.554 32.229 3.914.088 7.963-.516 10.36-1.607zm-246.884-31.501c8.053.591 12.33 2.366 15.925 6.051 2.791 2.852 4.261 6.461 4.261 10.663 0 10.025-9.205 18.063-21.157 18.063h-31.304v-2.32h1.259c3.109 0 6.734-1.486 6.734-5.445V85.964c0-7.401-4.383-7.401-6.734-7.401h-1.259v-2.335l28.377-.011c13.317 0 20.642 4.823 20.642 13.969 0 10.131-8.903 13.873-16.744 15.132zm-13.089-26.75v25.661h4.793c8.811 0 13.665-4.276 13.665-12.436 0-9.024-4.262-13.225-12.679-13.225zm0 28.453v22.492c0 6.249 1.986 8.023 8.463 8.023 7.78 0 13.665-6.4 13.665-15.121 0-9.829-5.99-15.394-16.001-15.394zM240.909 89.24l8.932 24.888H231.96zm1.107-13.043l-20.279 55.161c-1.501 3.928-4.156 6.34-8.099 6.34h-.211v2.396h19.443v-2.396h-.85c-4.686 0-7.871-1.501-5.838-7.538l4.655-12.892h20.127l5.035 14.06c1.456 4.428-.44 6.43-5.248 6.43h-.561v2.367h24.753v-2.367h-.198c-3.291 0-5.551-1.728-7.098-6.111l-20.808-55.435zM384.431 2.638l.137 10.784-1.714.44c-.394-4.717-1.456-8.554-8.993-8.554h-10.117v19.913h8.69c4.263 0 5.415-2.381 5.899-6.491h1.731v16.638l-1.729.033c-.258-3.973-1.199-7.067-5.87-7.067h-8.721V45.82c0 5.081 4.384 5.081 9.009 5.081 8.326 0 12.179-.515 14.514-8.948.334.088 1.699.377 1.699.377l-2.335 11.239h-37.796v-1.866h.713c2.897 0 5.58-.546 5.58-4.505V8.995c0-3.943-2.683-4.489-5.58-4.489h-.713V2.641z" class="B"/><defs ><path id="K" d="M53.357 61.303a1.24 1.24 0 0 0-.473.097c-.15.063-.285.155-.4.27s-.205.252-.266.403-.092.311-.091.474c0 .682.546 1.228 1.228 1.228.162.001.322-.031.471-.092s.285-.152.4-.266.205-.25.266-.399.093-.309.092-.471-.03-.323-.091-.474a1.24 1.24 0 0 0-.266-.403c-.114-.115-.25-.207-.4-.27s-.309-.096-.472-.097z"/><path id="L" d="M73.725 61.303c-.162.001-.323.034-.472.097s-.285.155-.399.27-.204.252-.266.403a1.24 1.24 0 0 0-.091.474c0 .682.546 1.228 1.228 1.228.162.001.322-.031.471-.092s.285-.152.4-.266a1.22 1.22 0 0 0 .266-.399c.062-.149.093-.309.093-.471s-.03-.323-.091-.474-.151-.287-.266-.403-.25-.207-.4-.27a1.24 1.24 0 0 0-.473-.097z"/><path id="M" d="M53.357 70.979a1.23 1.23 0 0 0-.868.361c-.23.23-.36.542-.361.868 0 .682.561 1.244 1.275 1.244.652 0 1.183-.561 1.183-1.244-.001-.326-.131-.638-.361-.868a1.23 1.23 0 0 0-.867-.361z"/><path id="N" d="M73.725 70.979c-.328 0-.642.13-.874.362s-.362.546-.362.874.13.642.362.874.546.362.874.362.642-.13.874-.362.362-.546.362-.874-.13-.642-.362-.874-.546-.362-.874-.362z"/></defs></svg>