<svg width="800" height="400" viewBox="0 0 800 400" fill="none" xmlns="http://www.w3.org/2000/svg">
<path d="M340.442 203.765C340.442 241.324 311.06 269 275.001 269C238.942 269 209.56 241.324 209.56 203.765C209.56 165.942 238.942 138.53 275.001 138.53C311.06 138.53 340.442 165.942 340.442 203.765ZM311.795 203.765C311.795 180.294 294.765 164.236 275.001 164.236C255.236 164.236 238.207 180.294 238.207 203.765C238.207 227 255.236 243.294 275.001 243.294C294.765 243.294 311.795 226.971 311.795 203.765Z" fill="#EA4335"/>
<path d="M481.618 203.765C481.618 241.324 452.235 269 416.177 269C380.118 269 350.735 241.324 350.735 203.765C350.735 165.971 380.118 138.53 416.177 138.53C452.235 138.53 481.618 165.942 481.618 203.765ZM452.971 203.765C452.971 180.294 435.941 164.236 416.177 164.236C396.412 164.236 379.382 180.294 379.382 203.765C379.382 227 396.412 243.294 416.177 243.294C435.941 243.294 452.971 226.971 452.971 203.765Z" fill="#FBBC05"/>
<path d="M616.912 142.471V259.589C616.912 307.765 588.501 327.442 554.912 327.442C523.295 327.442 504.265 306.294 497.089 289L522.03 278.618C526.471 289.236 537.354 301.765 554.883 301.765C576.383 301.765 589.706 288.5 589.706 263.53V254.147H588.706C582.295 262.059 569.942 268.971 554.354 268.971C521.736 268.971 491.854 240.559 491.854 204C491.854 167.177 521.736 138.53 554.354 138.53C569.912 138.53 582.265 145.442 588.706 153.118H589.706V142.5H616.912V142.471ZM591.736 204C591.736 181.03 576.412 164.236 556.912 164.236C537.148 164.236 520.589 181.03 520.589 204C520.589 226.736 537.148 243.294 556.912 243.294C576.412 243.294 591.736 226.736 591.736 204Z" fill="#4285F4"/>
<path d="M661.764 73.8237V265H633.823V73.8237H661.764Z" fill="#34A853"/>
<path d="M770.648 225.236L792.883 240.059C785.707 250.677 768.413 268.971 738.53 268.971C701.471 268.971 673.795 240.324 673.795 203.736C673.795 164.941 701.707 138.5 735.324 138.5C769.177 138.5 785.736 165.441 791.148 180L794.118 187.412L706.913 223.53C713.589 236.618 723.971 243.294 738.53 243.294C753.118 243.294 763.236 236.118 770.648 225.236ZM702.207 201.765L760.501 177.559C757.295 169.412 747.648 163.736 736.295 163.736C721.736 163.736 701.471 176.588 702.207 201.765Z" fill="#EA4335"/>
<path d="M103.796 186.794V159.118H197.061C197.972 163.941 198.443 169.647 198.443 175.824C198.443 196.588 192.766 222.265 174.472 240.559C156.678 259.088 133.943 268.971 103.825 268.971C48.0017 268.971 1.06055 223.5 1.06055 167.677C1.06055 111.853 48.0017 66.3826 103.825 66.3826C134.708 66.3826 156.708 78.5002 173.237 94.2943L153.708 113.824C141.855 102.706 125.796 94.059 103.796 94.059C63.0311 94.059 31.1488 126.912 31.1488 167.677C31.1488 208.441 63.0311 241.294 103.796 241.294C130.237 241.294 145.296 230.677 154.943 221.03C162.766 213.206 167.913 202.03 169.943 186.765L103.796 186.794Z" fill="#4285F4"/>
</svg>
