<svg width="444" height="150" viewBox="0 0 444 150" fill="none" xmlns="http://www.w3.org/2000/svg">
<path d="M188.723 76.9239C188.723 97.7446 172.435 113.087 152.446 113.087C132.457 113.087 116.169 97.7446 116.169 76.9239C116.169 55.9565 132.457 40.7609 152.446 40.7609C172.435 40.7609 188.723 55.9565 188.723 76.9239ZM172.843 76.9239C172.843 63.913 163.403 55.0109 152.446 55.0109C141.49 55.0109 132.049 63.913 132.049 76.9239C132.049 89.8043 141.49 98.8369 152.446 98.8369C163.403 98.8369 172.843 89.788 172.843 76.9239Z" fill="#EA4335"/>
<path d="M266.984 76.9239C266.984 97.7446 250.696 113.087 230.707 113.087C210.718 113.087 194.43 97.7446 194.43 76.9239C194.43 55.9728 210.718 40.7609 230.707 40.7609C250.696 40.7609 266.984 55.9565 266.984 76.9239ZM251.104 76.9239C251.104 63.913 241.663 55.0109 230.707 55.0109C219.75 55.0109 210.31 63.913 210.31 76.9239C210.31 89.8043 219.75 98.8369 230.707 98.8369C241.663 98.8369 251.104 89.788 251.104 76.9239Z" fill="#FBBC05"/>
<path d="M341.984 42.9456V107.87C341.984 134.576 326.234 145.484 307.615 145.484C290.088 145.484 279.539 133.761 275.56 124.174L289.386 118.418C291.848 124.304 297.881 131.25 307.598 131.25C319.517 131.25 326.903 123.897 326.903 110.054V104.853H326.348C322.794 109.239 315.946 113.071 307.305 113.071C289.223 113.071 272.658 97.3206 272.658 77.0543C272.658 56.6413 289.223 40.7609 307.305 40.7609C315.93 40.7609 322.778 44.5924 326.348 48.8478H326.903V42.962H341.984V42.9456ZM328.028 77.0543C328.028 64.3206 319.533 55.0109 308.723 55.0109C297.767 55.0109 288.588 64.3206 288.588 77.0543C288.588 89.6576 297.767 98.8369 308.723 98.8369C319.533 98.8369 328.028 89.6576 328.028 77.0543Z" fill="#4285F4"/>
<path d="M366.848 4.89136V110.87H351.358V4.89136H366.848Z" fill="#34A853"/>
<path d="M427.207 88.826L439.533 97.0434C435.555 102.929 425.968 113.071 409.402 113.071C388.859 113.071 373.517 97.1902 373.517 76.9075C373.517 55.4021 388.989 40.7445 407.625 40.7445C426.392 40.7445 435.571 55.6793 438.571 63.7499L440.218 67.8586L391.875 87.8804C395.576 95.1358 401.332 98.8369 409.402 98.8369C417.489 98.8369 423.098 94.8586 427.207 88.826ZM389.267 75.8152L421.582 62.3967C419.805 57.8804 414.457 54.7336 408.163 54.7336C400.093 54.7336 388.859 61.8586 389.267 75.8152Z" fill="#EA4335"/>
<path d="M57.539 67.5162V52.1738H109.24C109.745 54.8478 110.006 58.0108 110.006 61.4347C110.006 72.9456 106.86 87.1793 96.7183 97.3206C86.8542 107.592 74.2509 113.071 57.5553 113.071C26.6096 113.071 0.587891 87.8641 0.587891 56.9184C0.587891 25.9728 26.6096 0.766235 57.5553 0.766235C74.6748 0.766235 86.8705 7.48363 96.0335 16.2391L85.2075 27.0651C78.6368 20.9021 69.7346 16.1086 57.539 16.1086C34.9412 16.1086 17.2672 34.3206 17.2672 56.9184C17.2672 79.5162 34.9412 97.7282 57.539 97.7282C72.1966 97.7282 80.5444 91.8423 85.8922 86.4945C90.2292 82.1575 93.0825 75.9619 94.2075 67.4999L57.539 67.5162Z" fill="#4285F4"/>
</svg>
