<svg width="4348" height="994" viewBox="0 0 4348 994" fill="none" xmlns="http://www.w3.org/2000/svg">
<g clip-path="url(#clip0_356_12)">
<rect y="869.502" width="4347.83" height="124.498" fill="#C70000"/>
<rect y="869.502" width="4347.83" height="124.498" fill="#C70000"/>
<path d="M3951.66 0.0239563V450.827H4065.56V184.763L4253.73 450.827H4347.82V0.0239563H4240.86V252.032L4065.56 0.0239563H3951.66Z" fill="#10101C"/>
<rect x="3372" width="123" height="452" fill="#10101C"/>
<path d="M2532 452V0H2654.86V181.401L2811.41 0H2954.08L2780.69 193.428L2963 452H2819.33L2692.51 274.608L2654.86 312.692V452H2532Z" fill="#10101C"/>
<path d="M1751 0H1873.93V452H1751V0Z" fill="#10101C"/>
<path d="M1751 348.912H2096V452H1751V348.912Z" fill="#10101C"/>
<path d="M847 452L1021.2 0H1088.5V126.279L1034.06 273.605H1088.5V364.807H999.422L965.77 452H847Z" fill="#10101C"/>
<path d="M1330 452L1155.8 0H1088.5V126.279L1142.94 273.605H1088.5V364.807H1177.58L1211.23 452H1330Z" fill="#10101C"/>
<path d="M0 0H122.841V452H0V0Z" fill="#10101C"/>
<path d="M301.654 0H424V452H301.654V0Z" fill="#10101C"/>
<path d="M0 171.69H424V271.801H0V171.69Z" fill="#10101C"/>
</g>
<defs>
<clipPath id="clip0_356_12">
<rect width="4348" height="994" fill="white"/>
</clipPath>
</defs>
</svg>
