<svg width="1364" height="150" viewBox="0 0 1364 150" fill="none" xmlns="http://www.w3.org/2000/svg">
<path d="M565.225 0V150H662.524V123.75H593.666V86.25H656.535V60.75H593.666V26.25H662.524V0H565.225Z" fill="#0000CD"/>
<path d="M446.994 24.2207H426.037V74.7705H446.994C463.39 74.7705 475.435 66.8205 475.435 49.4912C475.435 31.5 463.39 24.2207 446.994 24.2207ZM448.492 99H426.037V150H397.597V0H448.492C480.41 0 505.374 14.4882 505.374 49.5C505.374 84 480.226 99 448.492 99Z" fill="#0000CD"/>
<path d="M909.523 0V26.25H944.7V123.75H909.523V150H1008.32V123.75H973.142V26.25H1008.32V0H909.523Z" fill="#0000CD"/>
<path d="M814.109 46.5C814.109 64.5707 803.629 70.2707 785.667 70.2707H761.715V24.2207H785.667C805.161 24.2295 814.109 31.5 814.109 46.5ZM844.047 46.5C844.047 11.4882 820.095 0 788.661 0H733.275V150H761.715V94.5H785.667C786.979 94.5 788.282 94.4736 789.576 94.4295L818.554 150H850.069L817.92 88.4824C833.56 81.5207 844.047 68.1441 844.047 46.5Z" fill="#0000CD"/>
<path d="M1133.11 26.6117L1153.57 92.7707H1112.64L1133.11 26.6117ZM1114.4 0L1065 150H1094.94L1105.14 117H1161.07L1171.27 150H1201.21L1151.81 0H1114.4Z" fill="#0000CD"/>
<path d="M1265.42 0V150H1362.96V123.75H1293.86V0H1265.42Z" fill="#0000CD"/>
<path d="M284.828 0L248.901 88.2L212.976 0H172.559V150H199.504V37.8529L233.933 117H263.871L298.299 37.8529V150H325.243V0H284.828Z" fill="#0000CD"/>
<path d="M0 0V26.25H35.1774V123.75H0V150H98.796V123.75H63.6188V26.25H98.796V0H0Z" fill="#0000CD"/>
</svg>
