<svg width="746" height="150" viewBox="0 0 746 150" fill="none" xmlns="http://www.w3.org/2000/svg">
<g clip-path="url(#clip0_48_79)">
<path d="M25.1417 98.9215C25.1417 107.545 27.0344 114.165 29.5082 118.17C32.7516 123.416 37.5893 125.639 42.5213 125.639C48.8825 125.639 54.7019 124.06 65.9166 108.55C74.9009 96.1178 85.4872 78.6675 92.6103 67.7277L104.673 49.1937C113.053 36.322 122.752 22.0131 133.872 12.3141C142.951 4.39791 152.744 0 162.6 0C179.147 0 194.909 9.58901 206.972 27.5733C220.173 47.2696 226.581 72.0785 226.581 97.6806C226.581 112.901 223.581 124.084 218.477 132.919C213.545 141.463 203.932 150 187.762 150V125.639C201.608 125.639 205.063 112.916 205.063 98.356C205.063 77.6073 200.225 54.5812 189.568 38.1283C182.006 26.4581 172.205 19.3272 161.422 19.3272C149.759 19.3272 140.375 28.123 129.828 43.8063C124.22 52.1387 118.464 62.2932 112 73.7513L104.885 86.356C90.592 111.699 86.9715 117.471 79.8249 126.997C67.2988 143.678 56.6024 150 42.5213 150C25.8171 150 15.2543 142.767 8.71237 131.866C3.37206 122.984 0.749023 111.33 0.749023 98.0497L25.1417 98.9215Z" fill="#0081FB"/>
<path d="M19.9814 29.2932C31.1647 12.055 47.3034 0 65.8139 0C76.5338 0 87.1909 3.17277 98.3191 12.2592C110.492 22.1937 123.466 38.5524 139.652 65.5131L145.455 75.1885C159.466 98.5288 167.437 110.537 172.102 116.199C178.102 123.471 182.303 125.639 187.762 125.639C201.607 125.639 205.063 112.916 205.063 98.356L226.581 97.6806C226.581 112.901 223.581 124.084 218.476 132.919C213.544 141.463 203.932 150 187.762 150C177.709 150 168.803 147.817 158.955 138.526C151.385 131.395 142.534 118.728 135.725 107.34L115.471 73.5079C105.309 56.5288 95.9867 43.8691 90.5914 38.1361C84.7877 31.9712 77.327 24.5262 65.4212 24.5262C55.7851 24.5262 47.6019 31.288 40.7537 41.6309L19.9814 29.2932Z" fill="url(#paint0_linear_48_79)"/>
<path d="M65.4218 24.5262C55.7857 24.5262 47.6024 31.288 40.7543 41.6309C31.071 56.2461 25.1417 78.0157 25.1417 98.9215C25.1417 107.545 27.0344 114.165 29.5082 118.17L8.71237 131.867C3.37206 122.984 0.749023 111.33 0.749023 98.0497C0.749023 73.9005 7.3773 48.7304 19.982 29.2932C31.1653 12.055 47.304 0 65.8145 0L65.4218 24.5262Z" fill="url(#paint1_linear_48_79)"/>
<path d="M274 4.74353H302.217L350.194 91.5393L398.178 4.74353H425.783V147.361H402.764V38.0577L360.686 113.749H339.089L297.018 38.0577V147.361H274V4.74353ZM497.908 57.9189C481.401 57.9189 471.458 70.343 469.079 85.7278H525.105C523.95 69.8797 514.809 57.9189 497.908 57.9189ZM446.257 94.4922C446.257 62.1205 467.178 38.5603 498.309 38.5603C528.929 38.5603 547.212 61.8221 547.212 96.22V102.542H469.079C471.851 119.278 482.955 130.555 500.861 130.555C515.147 130.555 524.076 126.196 532.542 118.225L544.77 133.202C533.249 143.796 518.594 149.906 500.045 149.906C466.346 149.906 446.257 125.333 446.257 94.4922ZM575.123 59.9608H553.935V41.1126H575.123V9.94248H597.332V41.1126H629.524V59.9608H597.332V107.733C597.332 124.045 602.547 129.84 615.364 129.84C621.215 129.84 624.568 129.338 629.524 128.513V147.157C623.351 148.901 617.461 149.702 611.084 149.702C587.107 149.702 575.123 136.602 575.123 110.38V59.9608ZM723.042 78.2907C718.581 67.0289 708.631 58.7357 694.008 58.7357C675.003 58.7357 662.838 72.22 662.838 94.1859C662.838 115.602 674.037 129.738 693.097 129.738C708.081 129.738 718.777 121.021 723.042 110.175V78.2907ZM745.251 147.361H723.45V132.487C717.356 141.244 706.267 149.906 688.306 149.906C659.421 149.906 640.118 125.725 640.118 94.1859C640.118 62.3482 659.885 38.5603 689.531 38.5603C704.186 38.5603 715.683 44.4189 723.45 54.7619V41.1126H745.251V147.361Z" fill="#192830"/>
</g>
<defs>
<linearGradient id="paint0_linear_48_79" x1="48.6542" y1="91.8848" x2="204.152" y2="99.7382" gradientUnits="userSpaceOnUse">
<stop stop-color="#0064E1"/>
<stop offset="0.4" stop-color="#0064E1"/>
<stop offset="0.83" stop-color="#0073EE"/>
<stop offset="1" stop-color="#0082FB"/>
</linearGradient>
<linearGradient id="paint1_linear_48_79" x1="36.0893" y1="109.162" x2="36.0893" y2="51.8325" gradientUnits="userSpaceOnUse">
<stop stop-color="#0082FB"/>
<stop offset="1" stop-color="#0064E0"/>
</linearGradient>
<clipPath id="clip0_48_79">
<rect width="744.503" height="150" fill="white" transform="translate(0.749023)"/>
</clipPath>
</defs>
</svg>
