<svg width="800" height="400" viewBox="0 0 800 400" fill="none" xmlns="http://www.w3.org/2000/svg">
<g clip-path="url(#clip0_61_496)">
<path d="M26.211 225.295C26.211 234.561 28.2447 241.675 30.903 245.979C34.3882 251.616 39.5865 254.004 44.8861 254.004C51.7215 254.004 57.9747 252.308 70.0253 235.641C79.6793 222.283 91.0549 203.532 98.7089 191.776L111.671 171.861C120.675 158.03 131.097 142.654 143.046 132.232C152.802 123.726 163.325 119 173.916 119C191.696 119 208.633 129.304 221.595 148.629C235.781 169.793 242.667 196.451 242.667 223.962C242.667 240.316 239.443 252.333 233.958 261.827C228.658 271.008 218.329 280.181 200.954 280.181V254.004C215.831 254.004 219.544 240.333 219.544 224.688C219.544 202.392 214.346 177.65 202.895 159.97C194.768 147.43 184.236 139.768 172.65 139.768C160.118 139.768 150.034 149.219 138.7 166.072C132.675 175.025 126.489 185.937 119.544 198.249L111.899 211.793C96.5401 239.025 92.6498 245.228 84.9705 255.464C71.5106 273.388 60.0169 280.181 44.8861 280.181C26.9367 280.181 15.5865 272.409 8.55696 260.696C2.81857 251.152 0 238.629 0 224.359L26.211 225.295Z" fill="#0081FB"/>
<path d="M20.666 150.477C32.6829 131.954 50.0247 119 69.915 119C81.434 119 92.8854 122.409 104.843 132.173C117.923 142.848 131.864 160.426 149.257 189.397L155.493 199.793C170.548 224.873 179.113 237.776 184.126 243.861C190.573 251.675 195.088 254.004 200.953 254.004C215.831 254.004 219.544 240.333 219.544 224.688L242.666 223.962C242.666 240.316 239.442 252.333 233.957 261.827C228.658 271.008 218.328 280.181 200.953 280.181C190.151 280.181 180.582 277.835 169.999 267.852C161.864 260.19 152.354 246.578 145.037 234.342L123.274 197.987C112.354 179.743 102.337 166.139 96.5394 159.979C90.3032 153.354 82.2863 145.354 69.493 145.354C59.1386 145.354 50.3453 152.62 42.9867 163.734L20.666 150.477Z" fill="url(#paint0_linear_61_496)"/>
<path d="M69.4937 145.354C59.1392 145.354 50.346 152.62 42.9873 163.734C32.5823 179.439 26.211 202.831 26.211 225.295C26.211 234.561 28.2447 241.675 30.903 245.979L8.55696 260.696C2.81857 251.152 0 238.629 0 224.359C0 198.409 7.12236 171.363 20.6667 150.477C32.6835 131.954 50.0253 119 69.9156 119L69.4937 145.354Z" fill="url(#paint1_linear_61_496)"/>
<path d="M293.62 124.097H323.941L375.494 217.363L427.055 124.097H456.717V277.346H431.983V159.895L386.768 241.228H363.561L318.354 159.895V277.346H293.62V124.097ZM534.219 181.236C516.481 181.236 505.797 194.587 503.24 211.118H563.443C562.202 194.089 552.38 181.236 534.219 181.236ZM478.717 220.536C478.717 185.751 501.198 160.435 534.65 160.435C567.553 160.435 587.198 185.43 587.198 222.393V229.186H503.24C506.219 247.169 518.152 259.287 537.392 259.287C552.742 259.287 562.337 254.603 571.435 246.038L584.574 262.131C572.194 273.515 556.447 280.08 536.515 280.08C500.304 280.08 478.717 253.675 478.717 220.536ZM617.19 183.43H594.422V163.177H617.19V129.684H641.055V163.177H675.645V183.43H641.055V234.764C641.055 252.291 646.658 258.519 660.43 258.519C666.717 258.519 670.321 257.979 675.645 257.093V277.127C669.013 279 662.683 279.861 655.831 279.861C630.067 279.861 617.19 265.785 617.19 237.608V183.43ZM776.135 203.127C771.342 191.025 760.65 182.114 744.937 182.114C724.515 182.114 711.443 196.603 711.443 220.207C711.443 243.22 723.477 258.409 743.958 258.409C760.059 258.409 771.553 249.042 776.135 237.388V203.127ZM800 277.346H776.574V261.363C770.025 270.772 758.11 280.08 738.81 280.08C707.772 280.08 687.029 254.097 687.029 220.207C687.029 185.996 708.27 160.435 740.126 160.435C755.873 160.435 768.228 166.73 776.574 177.844V163.177H800V277.346Z" fill="#192830"/>
</g>
<defs>
<linearGradient id="paint0_linear_61_496" x1="51.4761" y1="217.734" x2="218.565" y2="226.173" gradientUnits="userSpaceOnUse">
<stop stop-color="#0064E1"/>
<stop offset="0.4" stop-color="#0064E1"/>
<stop offset="0.83" stop-color="#0073EE"/>
<stop offset="1" stop-color="#0082FB"/>
</linearGradient>
<linearGradient id="paint1_linear_61_496" x1="37.9747" y1="236.3" x2="37.9747" y2="174.696" gradientUnits="userSpaceOnUse">
<stop stop-color="#0082FB"/>
<stop offset="1" stop-color="#0064E0"/>
</linearGradient>
<clipPath id="clip0_61_496">
<rect width="800" height="161.181" fill="white" transform="translate(0 119)"/>
</clipPath>
</defs>
</svg>
