<svg width="475" height="54" viewBox="0 0 475 54" fill="none" xmlns="http://www.w3.org/2000/svg">
<path d="M431.649 52.5V0.660004H441.585L464.121 35.22V0.660004H474.057V52.5H464.121L441.585 17.94V52.5H431.649Z" fill="black"/>
<path d="M377.341 52.5L393.181 0.660004H407.797L423.637 52.5H413.557L399.445 6.78H401.317L387.421 52.5H377.341ZM386.845 41.7V32.556H414.205V41.7H386.845Z" fill="black"/>
<path d="M316.261 52.5V0.722504H325.296L344.686 27.063H340.377L359.351 0.722504H368.386V52.5H358.864V11.495L362.548 12.3985L342.879 38.6H341.767L322.585 12.3985L325.713 11.495V52.5H316.261Z" fill="black"/>
<path d="M286.59 53.58C282.414 53.58 278.742 52.74 275.574 51.06C272.406 49.356 269.934 46.968 268.158 43.896C266.382 40.824 265.494 37.212 265.494 33.06V0.732002L275.43 0.660004V32.988C275.43 34.692 275.718 36.24 276.294 37.632C276.87 39.024 277.662 40.224 278.67 41.232C279.702 42.24 280.89 43.02 282.234 43.572C283.602 44.1 285.054 44.364 286.59 44.364C288.174 44.364 289.638 44.088 290.982 43.536C292.35 42.984 293.538 42.204 294.546 41.196C295.554 40.188 296.334 38.988 296.886 37.596C297.462 36.204 297.75 34.668 297.75 32.988V0.660004H307.686V33.06C307.686 37.212 306.798 40.824 305.022 43.896C303.246 46.968 300.774 49.356 297.606 51.06C294.438 52.74 290.766 53.58 286.59 53.58Z" fill="black"/>
<path d="M214.059 52.5V0.660004H223.851V21.972H247.035V0.660004H256.827V52.5H247.035V31.116H223.851V52.5H214.059Z" fill="black"/>
<path d="M171.471 52.4C170.063 52.4 168.911 51.9498 168.015 51.0494C167.119 50.0848 166.671 48.895 166.671 47.4801V5.5C166.671 4.08513 167.119 2.92751 168.015 2.02714C168.911 1.06245 170.063 0.580111 171.471 0.580111C172.815 0.580111 173.935 1.06245 174.831 2.02714C175.791 2.92751 176.271 4.08513 176.271 5.5L176.271 17.382L175.311 13.2338C175.823 11.4331 176.591 9.76097 177.615 8.21747C178.703 6.67398 179.983 5.32342 181.455 4.1658C182.927 3.00818 184.559 2.10781 186.351 1.46469C188.207 0.821563 190.127 0.5 192.111 0.5C193.775 0.5 195.215 0.950186 196.431 1.85056C197.647 2.75093 198.255 3.87639 198.255 5.22695C198.255 6.96339 197.807 8.24963 196.911 9.08569C196.015 9.85744 195.023 10.2433 193.935 10.2433C192.975 10.2433 192.047 10.0504 191.151 9.6645C190.255 9.21432 189.199 8.98922 187.983 8.98922C186.639 8.98922 185.263 9.34294 183.855 10.0504C182.447 10.7578 181.167 11.819 180.015 13.2338C178.863 14.5844 177.935 16.1922 177.231 18.0573C176.591 19.9223 176.271 22.0125 176.271 24.3277V47.4801C176.271 48.895 175.791 50.0848 174.831 51.0494C173.935 51.9498 172.815 52.4 171.471 52.4Z" fill="black"/>
<path d="M150.411 0.378833C151.819 0.378833 152.971 0.852373 153.867 1.79945C154.763 2.6834 155.211 3.8199 155.211 5.20895V47.1699C155.211 48.5589 154.763 49.727 153.867 50.6741C152.971 51.558 151.819 52 150.411 52C149.067 52 147.915 51.558 146.955 50.6741C146.059 49.727 145.611 48.5589 145.611 47.1699V39.3038L147.627 39.588C147.627 40.7245 147.147 41.9872 146.187 43.3763C145.291 44.7653 144.043 46.1228 142.443 47.4487C140.843 48.7115 138.955 49.7849 136.779 50.6688C134.603 51.4896 132.267 51.9 129.771 51.9C125.355 51.9 121.387 50.7951 117.867 48.5852C114.347 46.3122 111.563 43.2184 109.515 39.3038C107.467 35.3892 106.443 30.938 106.443 25.95C106.443 20.8358 107.467 16.3529 109.515 12.5015C111.563 8.58686 114.315 5.52464 117.771 3.31478C121.291 1.10493 125.195 0 129.483 0C132.235 0 134.763 0.441971 137.067 1.32591C139.435 2.20985 141.483 3.34635 143.211 4.7354C144.939 6.12445 146.251 7.60821 147.147 9.18668C148.107 10.702 148.587 12.1542 148.587 13.5433L145.611 13.8274C145.611 13.8274 145.611 6.53486 145.611 5.20895C145.611 3.88303 146.059 2.74654 146.955 1.79945C147.915 0.852373 149.067 0.378833 150.411 0.378833ZM130.827 43.1869C133.835 43.1869 136.491 42.4292 138.795 40.9139C141.099 39.3985 142.891 37.3465 144.171 34.7579C145.451 32.106 146.091 29.1701 146.091 25.95C146.091 22.6668 145.451 19.7308 144.171 17.1422C142.891 14.5535 141.099 12.5015 138.795 10.9861C136.491 9.47081 133.835 8.71314 130.827 8.71314C127.883 8.71314 125.259 9.47081 122.955 10.9861C120.715 12.5015 118.923 14.5535 117.579 17.1422C116.299 19.7308 115.659 22.6668 115.659 25.95C115.659 29.1701 116.299 32.106 117.579 34.7579C118.923 37.3465 120.715 39.3985 122.955 40.9139C125.259 42.4292 127.883 43.1869 130.827 43.1869Z" fill="black"/>
<path d="M78.225 52.4C72.913 52.4 68.305 51.3266 64.401 49.1799C60.497 46.9701 57.457 43.971 55.281 40.1827C53.169 36.3312 52.113 31.9431 52.113 27.0183C52.113 21.462 53.233 16.7266 55.473 12.812C57.777 8.83431 60.753 5.80365 64.401 3.72008C68.049 1.57336 71.921 0.5 76.017 0.5C79.153 0.5 82.129 1.13139 84.945 2.39416C87.761 3.5938 90.257 5.29854 92.433 7.5084C94.673 9.65511 96.433 12.2122 97.713 15.1797C98.993 18.0841 99.665 21.2726 99.729 24.7453C99.665 26.008 99.153 27.0498 98.193 27.8706C97.233 28.6914 96.113 29.1018 94.833 29.1018H57.489L55.185 21.0516H91.281L89.457 22.7564V20.3887C89.329 18.1788 88.593 16.2531 87.249 14.6115C85.905 12.9068 84.241 11.6124 82.257 10.7285C80.273 9.78139 78.193 9.30785 76.017 9.30785C74.097 9.30785 72.241 9.62354 70.449 10.2549C68.721 10.8232 67.153 11.7703 65.745 13.0962C64.401 14.4221 63.313 16.19 62.481 18.3998C61.713 20.5465 61.329 23.2299 61.329 26.45C61.329 29.9226 62.065 32.9533 63.537 35.542C65.009 38.1307 66.993 40.1511 69.489 41.6033C71.985 42.9923 74.737 43.6869 77.745 43.6869C80.113 43.6869 82.065 43.4659 83.601 43.0239C85.137 42.5188 86.417 41.919 87.441 41.2245C88.465 40.5299 89.361 39.867 90.129 39.2356C91.089 38.6673 92.049 38.3832 93.009 38.3832C94.161 38.3832 95.121 38.7936 95.889 39.6144C96.657 40.3721 97.041 41.2876 97.041 42.3609C97.041 43.75 96.337 45.0128 94.929 46.1493C93.201 47.7909 90.801 49.2431 87.729 50.5058C84.721 51.7686 81.553 52.4 78.225 52.4Z" fill="black"/>
<path d="M26.016 0.5C30.56 0.5 34.08 1.46469 36.576 3.39406C39.072 5.25911 40.8 7.79944 41.76 11.0151C42.784 14.1664 43.296 17.7035 43.296 21.6266V47.4801C43.296 48.895 42.816 50.0848 41.856 51.0494C40.96 51.9498 39.84 52.4 38.496 52.4C37.088 52.4 35.936 51.9498 35.04 51.0494C34.144 50.0848 33.696 48.895 33.696 47.4801V21.7231C33.696 19.4078 33.376 17.3498 32.736 15.5491C32.096 13.684 30.976 12.2048 29.376 11.1115C27.84 9.9539 25.664 9.3751 22.848 9.3751C20.224 9.3751 17.92 9.9539 15.936 11.1115C13.952 12.2048 12.384 13.684 11.232 15.5491C10.144 17.3498 9.6 19.4078 9.6 21.7231V47.4801C9.6 48.895 9.12 50.0848 8.16 51.0494C7.264 51.9498 6.144 52.4 4.8 52.4C3.392 52.4 2.24 51.9498 1.344 51.0494C0.448 50.0848 0 48.895 0 47.4801V5.41989C0 4.00502 0.448 2.8474 1.344 1.94702C2.24 0.982342 3.392 0.5 4.8 0.5C6.144 0.5 7.264 0.982342 8.16 1.94702C9.12 2.8474 9.6 4.00502 9.6 5.41989V11.9797L7.872 12.9444C8.32 11.5296 9.088 10.1147 10.176 8.69982C11.328 7.22064 12.704 5.87008 14.304 4.64814C15.904 3.3619 17.696 2.36506 19.68 1.65762C21.664 0.885874 23.776 0.5 26.016 0.5Z" fill="black"/>
</svg>
