<?xml version="1.0" encoding="UTF-8"?>
<svg version="1.1" xmlns="http://www.w3.org/2000/svg" width="1301" height="311">
<path d="M0 0 C15.66123537 13.25575151 23.96053455 30.77871232 26.390625 51.0234375 C26.86780037 57.24223648 26.81500172 63.4741132 26.7890625 69.70703125 C26.79109176 71.45947897 26.7940102 73.21192585 26.79776001 74.96437073 C26.80214457 78.61085162 26.79587961 82.25710978 26.78173828 85.90356445 C26.76466162 90.52686815 26.77450289 95.14964848 26.79245567 99.77293301 C26.80341023 103.38425991 26.79979417 106.99546723 26.7920723 110.60679817 C26.79010167 112.30926644 26.79241609 114.01174635 26.79951096 115.71420097 C26.87483653 138.8590051 23.15973091 160.9226523 6.578125 178.3359375 C-7.17867788 191.44951129 -25.91543846 197.14372284 -44.609375 198.0234375 C-45.4446875 198.0646875 -46.28 198.1059375 -47.140625 198.1484375 C-69.79819624 198.69440307 -91.57909743 193.2952028 -108.359375 177.40234375 C-115.85822688 169.47387015 -121.57800404 159.80904999 -123.609375 149.0234375 C-119.44718944 148.77500585 -115.28898331 148.59428837 -111.12158203 148.47412109 C-109.70675501 148.4240187 -108.29244122 148.35590388 -106.87939453 148.26904297 C-102.33068826 147.99656937 -98.07294183 147.92260082 -93.609375 149.0234375 C-91.22352858 151.38917396 -90.04549862 153.45468012 -88.73535156 156.53442383 C-85.54097303 163.59571809 -77.16941955 166.31825563 -70.44140625 169.04296875 C-57.11114854 173.6579959 -38.37617728 173.01760686 -25.609375 167.0234375 C-15.93103006 162.12059171 -9.32216703 154.47052297 -5.59765625 144.24609375 C-2.23987457 132.56756527 -2.49245638 121.06605508 -2.609375 109.0234375 C-2.99867188 109.5803125 -3.38796875 110.1371875 -3.7890625 110.7109375 C-13.24999627 123.61617435 -26.21047306 131.36391507 -41.8984375 134.5546875 C-65.90616309 137.58724231 -86.23568961 131.90238572 -105.796875 117.7109375 C-116.87954291 107.12083261 -124.67329249 93.11635753 -127.609375 78.0234375 C-127.78984375 77.15589844 -127.9703125 76.28835937 -128.15625 75.39453125 C-131.15859562 53.05811516 -127.52590118 31.16370552 -114.2890625 12.671875 C-87.66472407 -21.14360307 -33.66504534 -26.30711627 0 0 Z M-82.609375 21.0234375 C-83.29644531 21.57515625 -83.98351562 22.126875 -84.69140625 22.6953125 C-93.13456986 30.25057171 -98.66652348 41.86400579 -99.82666016 53.13427734 C-100.6096728 67.32839548 -98.4781791 80.45629479 -89.609375 92.0234375 C-80.65916731 101.97008979 -68.75368037 107.55841089 -55.5078125 108.2734375 C-39.77190174 108.83843707 -26.22766351 105.21226559 -14.359375 94.3984375 C-5.70682614 85.16905205 -1.87429125 72.50180432 -1.234375 60.0234375 C-1.94562033 46.15415354 -6.79112292 33.07503485 -16.421875 22.98828125 C-27.72928228 12.8318065 -40.99237017 10.12697629 -55.75 10.640625 C-65.96922345 11.27188239 -74.68204781 14.56077838 -82.609375 21.0234375 Z " fill="#000000" transform="translate(843.609375,88.9765625)"/>
<path d="M0 0 C15.37495128 13.31245782 23.92942045 29.782582 26.4375 49.96875 C26.53613118 52.69723508 26.59443126 55.40066322 26.59863281 58.12866211 C26.60359772 58.91352997 26.60856262 59.69839783 26.61367798 60.50704956 C26.62820062 63.08674015 26.63508746 65.66636911 26.640625 68.24609375 C26.64486607 69.58006289 26.64486607 69.58006289 26.64919281 70.94098091 C26.66415061 75.65377215 26.67339973 80.36653309 26.67773438 85.0793457 C26.6831926 89.90361033 26.70717416 94.72758896 26.73570633 99.55176449 C26.75450686 103.29857643 26.75954762 107.04532212 26.76107025 110.7921772 C26.76406172 112.56805536 26.77196858 114.34393336 26.78525543 116.11976433 C26.92993509 136.95538875 23.76771163 155.56817097 11.4375 172.96875 C10.32375 174.5465625 10.32375 174.5465625 9.1875 176.15625 C-6.63252002 192.33581593 -28.12236611 197.6852513 -50.0625 198.21875 C-68.47602441 197.71883531 -86.60553002 194.36333355 -101.5625 182.96875 C-102.26375 182.45957031 -102.965 181.95039063 -103.6875 181.42578125 C-113.26845245 173.84709816 -119.79139928 162.43365419 -123.5625 150.96875 C-123.5625 150.30875 -123.5625 149.64875 -123.5625 148.96875 C-119.40031444 148.72031835 -115.24210831 148.53960087 -111.07470703 148.41943359 C-109.65988001 148.3693312 -108.24556622 148.30121638 -106.83251953 148.21435547 C-102.28386487 147.94188496 -98.02603877 147.86800632 -93.5625 148.96875 C-91.18254724 151.33341054 -90.00951508 153.39603974 -88.70678711 156.47363281 C-85.89206243 162.61113787 -78.93681172 165.52001332 -73.03125 168.109375 C-65.46169595 170.74434635 -58.72741302 171.30625756 -50.75 171.28125 C-49.22536133 171.30541992 -49.22536133 171.30541992 -47.66992188 171.33007812 C-36.04888071 171.33748478 -23.88584684 168.52297407 -15 160.5546875 C-4.58510299 149.06433916 -2.36056999 133.42880997 -2.5 118.53125 C-2.50451172 117.60892578 -2.50902344 116.68660156 -2.51367188 115.73632812 C-2.52536062 113.48039952 -2.54174545 111.22461033 -2.5625 108.96875 C-2.975 109.53722656 -3.3875 110.10570312 -3.8125 110.69140625 C-13.93159454 124.22117775 -26.62311837 131.69508331 -43.31298828 134.65527344 C-62.98179309 137.39618351 -84.10858308 133.64924513 -100.29443359 121.68896484 C-103.99979816 118.70302485 -107.29867911 115.42771713 -110.5625 111.96875 C-111.31144531 111.18886719 -112.06039062 110.40898437 -112.83203125 109.60546875 C-126.7221272 93.80316073 -129.64116628 72.68904323 -128.73095703 52.39404297 C-127.32676175 32.17770102 -117.95365719 14.668291 -103.08691406 1.27441406 C-75.24688803 -22.57063066 -28.46123411 -22.56073436 0 0 Z M-83.5625 21.96875 C-84.51576172 22.71898437 -84.51576172 22.71898437 -85.48828125 23.484375 C-93.07145143 30.14276833 -98.72440499 41.92713017 -99.5625 51.96875 C-100.47012685 67.81860414 -98.41991268 81.8702795 -87.52734375 94.2890625 C-76.31696091 104.99080728 -63.43333587 108.35283814 -48.43920898 108.34204102 C-37.8072929 108.08546552 -28.4571417 104.72962553 -19.5625 98.96875 C-18.69625 98.411875 -17.83 97.855 -16.9375 97.28125 C-6.81741048 87.42747862 -1.72107728 74.68721551 -1.25 60.71875 C-1.59155319 47.24637431 -5.56017258 34.07276608 -14.875 24.03125 C-26.72405664 13.39343026 -40.15481699 10.03860742 -55.70703125 10.58984375 C-66.66312587 11.2686152 -75.16133467 15.00990863 -83.5625 21.96875 Z " fill="#000000" transform="translate(1015.5625,89.03125)"/>
<path d="M0 0 C7.32762535 7.46903567 10.48256403 16.6887425 12.19140625 26.79101562 C16.20151632 50.33351578 27.92814542 69.44103774 44.0390625 86.89453125 C46.17144864 89.20969334 48.2302361 91.57651322 50.2890625 93.95703125 C53.99768407 98.11562256 57.91736077 101.74382074 62.2265625 105.26953125 C63.22300781 106.10355469 64.21945313 106.93757813 65.24609375 107.796875 C82.25854007 121.78693175 99.70259526 130.47856968 121.47485352 134.30786133 C133.46246284 136.54051063 143.33659884 141.51958246 150.4765625 151.58203125 C157.09210937 162.30133982 158.26705364 174.48654765 155.41796875 186.75 C151.64056127 196.85358471 144.09453192 205.70652284 134.2265625 210.26953125 C124.48604982 214.40085215 113.64454275 214.7990414 103.6328125 211.3046875 C92.61286813 206.56396468 85.08849442 199.82080851 80.33984375 188.71484375 C78.65009084 183.48550317 77.73582319 178.14484349 76.73657227 172.74829102 C72.14143157 148.5109094 57.92883745 129.67260096 41.2265625 112.26953125 C40.63601074 111.64643066 40.04545898 111.02333008 39.43701172 110.38134766 C19.17589406 89.09026817 -3.00702717 73.55776701 -32.2734375 68.20703125 C-39.20284784 66.93906603 -45.06501578 65.63404203 -50.7734375 61.26953125 C-51.69769531 60.62564453 -51.69769531 60.62564453 -52.640625 59.96875 C-59.9415993 54.40684898 -65.13936791 45.27717105 -66.7734375 36.26953125 C-67.86132327 24.19534226 -66.36124594 13.72221927 -58.5234375 4.1796875 C-42.55048228 -13.25507835 -18.42106549 -15.76024492 0 0 Z " fill="#000000" transform="translate(88.7734375,45.73046875)"/>
<path d="M0 0 C12.30849762 9.75612158 20.15484203 22.34954031 24.86328125 37.26953125 C25.09660156 38.00042969 25.32992187 38.73132813 25.5703125 39.484375 C30.94870292 59.64366573 27.57783019 82.47938201 17.61328125 100.58203125 C13.9900639 106.42947965 9.70969645 111.40614086 4.86328125 116.26953125 C4.26128906 116.89472656 3.65929687 117.51992187 3.0390625 118.1640625 C-13.13616899 133.70772313 -35.28021615 136.81099319 -56.71484375 136.5390625 C-77.82653914 135.91066453 -96.29552631 126.85996119 -110.82421875 111.58203125 C-125.8315691 93.37167327 -129.26671751 72.25427296 -128.13671875 49.26953125 C-126.39436883 31.35879769 -117.09028978 13.79797806 -103.5546875 2.0234375 C-73.93129931 -21.49285326 -30.54153902 -22.48662763 0 0 Z M-82.13671875 21.26953125 C-82.82378906 21.82125 -83.51085937 22.37296875 -84.21875 22.94140625 C-92.63409102 30.47176877 -98.28049229 42.14822558 -99.33789062 53.41259766 C-99.43926953 55.64044876 -99.4657856 57.85198882 -99.44921875 60.08203125 C-99.4443042 60.87029297 -99.43938965 61.65855469 -99.43432617 62.47070312 C-99.18155739 75.11173457 -94.91040587 87.03230045 -86.21875 96.38671875 C-80.20816556 101.8221816 -72.98255956 106.14863288 -65.13671875 108.26953125 C-63.94369141 108.59244141 -63.94369141 108.59244141 -62.7265625 108.921875 C-49.05515241 112.00247256 -34.52390773 110.00227222 -22.5078125 102.6640625 C-10.25166442 93.60156384 -3.84622106 82.33868854 -1.578125 67.36328125 C0.29827043 52.23818108 -3.8875918 38.27250503 -13.13671875 26.26953125 C-20.29019721 18.23538698 -31.60024826 12.11163111 -42.35668945 11.05053711 C-57.07399771 10.32787277 -70.33213817 11.64598746 -82.13671875 21.26953125 Z " fill="#000000" transform="translate(675.13671875,88.73046875)"/>
<path d="M0 0 C13.60166891 12.06567064 19.81856343 28.28928888 22 46 C22.13071352 48.92801533 22.12689012 51.85048088 22.11352539 54.78100586 C22.11367142 55.63058868 22.11381744 56.48017151 22.1139679 57.35549927 C22.11327554 60.14197411 22.10551507 62.9283807 22.09765625 65.71484375 C22.09578966 67.65540022 22.09436689 69.59595717 22.09336853 71.53651428 C22.08956233 76.62787187 22.07974832 81.71920063 22.06866455 86.81054688 C22.05840956 92.01236583 22.05386217 97.21418946 22.04882812 102.41601562 C22.03812427 112.61069174 22.02054292 122.80533896 22 133 C12.43 133 2.86 133 -7 133 C-7.0093457 130.4628833 -7.01869141 127.9257666 -7.02832031 125.31176758 C-7.06223764 116.8858786 -7.11786771 108.46023074 -7.18390274 100.03453541 C-7.22324544 94.93097039 -7.25549831 89.8275745 -7.27099609 84.72387695 C-7.28625016 79.78937894 -7.32084905 74.85534634 -7.36830902 69.92105675 C-7.38303317 68.04785925 -7.39103581 66.17459528 -7.39188385 64.3013401 C-7.40518705 49.63703983 -8.54469985 36.03203322 -18 24 C-27.52673463 14.67467625 -38.84657573 12.70503807 -51.62231445 12.68310547 C-62.2997241 12.84823581 -71.08687494 15.67369096 -79 23 C-79.81404297 23.73476562 -79.81404297 23.73476562 -80.64453125 24.484375 C-88.82540128 32.8516446 -91.12189137 45.10938055 -91.20532227 56.37036133 C-91.22017166 57.61503677 -91.22017166 57.61503677 -91.23532104 58.88485718 C-91.26681279 61.61721989 -91.29164457 64.34959996 -91.31640625 67.08203125 C-91.33698643 68.98061058 -91.35798318 70.87918543 -91.37937927 72.77775574 C-91.43449007 77.76716482 -91.48394771 82.7566145 -91.53222656 87.74609375 C-91.58252197 92.84053141 -91.63816602 97.93491034 -91.69335938 103.02929688 C-91.80080648 113.01948288 -91.90178671 123.00971895 -92 133 C-101.57 133 -111.14 133 -121 133 C-121.06819229 122.34136952 -121.12305392 111.68288757 -121.15543652 101.02408695 C-121.1709905 96.07302203 -121.1920374 91.12211606 -121.22631836 86.17114258 C-121.25928279 81.37948008 -121.27692986 76.58796898 -121.28463173 71.79620171 C-121.29010954 69.98206644 -121.30080277 68.167938 -121.31719017 66.35386848 C-121.51660275 43.33117468 -118.36768202 20.72934093 -101.875 3.3125 C-75.7038508 -21.76080668 -28.2175909 -21.75364938 0 0 Z " fill="#000000" transform="translate(1244,88)"/>
<path d="M0 0 C13.37098747 10.83285482 19.97930181 28.34510112 22 45 C22.4821525 51.89407182 22.35204124 58.80886022 22.29296875 65.71484375 C22.28735904 67.66638357 22.28309546 69.61792767 22.28010559 71.56947327 C22.26876495 76.65424697 22.2393933 81.73875504 22.20599365 86.82342529 C22.17505754 92.03263763 22.16155043 97.24189375 22.14648438 102.45117188 C22.114511 112.63424883 22.06183394 122.81706056 22 133 C12.76 133 3.52 133 -6 133 C-6.01981934 130.70522705 -6.03963867 128.4104541 -6.06005859 126.04614258 C-6.12731231 118.41858348 -6.20494415 110.79115457 -6.28752708 103.16374683 C-6.33722779 98.54449714 -6.38355754 93.92526746 -6.421875 89.3059082 C-6.45906236 84.8383609 -6.50550729 80.37099267 -6.55806351 75.90360069 C-6.57643152 74.2090237 -6.59160249 72.51440858 -6.60334396 70.81977272 C-6.72051915 54.47533302 -6.94004837 37.15841444 -17.953125 24.00390625 C-25.55367078 16.56291391 -35.75658465 12.68012238 -46.29394531 12.53173828 C-47.12506836 12.54188965 -47.95619141 12.55204102 -48.8125 12.5625 C-49.68616211 12.57007324 -50.55982422 12.57764648 -51.45996094 12.58544922 C-62.19698298 12.85775059 -71.03399402 15.62473155 -79 23 C-79.81404297 23.73476562 -79.81404297 23.73476562 -80.64453125 24.484375 C-89.12103323 33.15401247 -91.1177432 45.76821021 -91.20532227 57.39208984 C-91.22017166 58.62235397 -91.22017166 58.62235397 -91.23532104 59.87747192 C-91.2667542 62.5719317 -91.29162111 65.26640907 -91.31640625 67.9609375 C-91.3369915 69.83566734 -91.35798838 71.7103927 -91.37937927 73.58511353 C-91.43443769 78.50710411 -91.48391822 83.42913545 -91.53222656 88.35119629 C-91.58256045 93.37869878 -91.63818433 98.40614247 -91.69335938 103.43359375 C-91.80074231 113.28901401 -91.90174183 123.14448454 -92 133 C-101.57 133 -111.14 133 -121 133 C-121.045396 122.41993725 -121.08199909 111.83994043 -121.10362434 101.25980186 C-121.11400948 96.34569013 -121.12807102 91.43164915 -121.15087891 86.51757812 C-121.17279698 81.76484111 -121.18460813 77.01217167 -121.18975449 72.25938797 C-121.19341652 70.45674198 -121.20056623 68.65409919 -121.21146011 66.85148239 C-121.34709276 43.45267896 -118.62611345 20.96880344 -101.8125 3.1875 C-75.06006742 -22.04037062 -28.78157829 -21.07304147 0 0 Z " fill="#000000" transform="translate(507,88)"/>
<path d="M0 0 C8.95114534 6.25213587 15.70323791 14.80060133 17.796875 25.6796875 C18.72987031 38.40513168 17.3125342 49.65289962 8.765625 59.6484375 C0.24404799 68.44054077 -8.85999934 72.75781661 -21.203125 73.1796875 C-33.54625066 72.75781661 -42.65029799 68.44054077 -51.171875 59.6484375 C-58.79175998 50.73704659 -60.94022468 40.84663701 -60.5859375 29.296875 C-59.33368403 17.46435748 -53.29683062 8.73567226 -44.35546875 1.21875 C-31.4606832 -8.00184076 -13.40246726 -8.03197506 0 0 Z " fill="#000000" transform="translate(82.203125,186.3203125)"/>
<path d="M0 0 C7.79063206 7.49371142 12.27297972 16.55265362 12.50561523 27.4140625 C12.47319497 39.81833894 9.91517572 49.10888043 1.125 58.3125 C-6.93514189 65.81965919 -17.29744562 69.7062613 -28.28515625 69.5234375 C-40.09894601 68.56122838 -49.19598714 63.81967593 -57.30859375 55.29296875 C-64.37398016 46.35992409 -67.04193812 35.51510592 -65.875 24.3125 C-63.18369 11.34527911 -57.02407786 2.34300101 -45.97265625 -4.94140625 C-31.25668107 -13.09688534 -12.76418238 -10.56198676 0 0 Z " fill="#000000" transform="translate(232.875,44.6875)"/>
<path d="M0 0 C9.57 0 19.14 0 29 0 C29 47.52 29 95.04 29 144 C19.43 144 9.86 144 0 144 C0 96.48 0 48.96 0 0 Z " fill="#000000" transform="translate(1068,77)"/>
<path d="M0 0 C4.57996756 3.94090232 8.35633841 7.64800697 8.92578125 13.94921875 C9.08679462 20.56771579 8.93182707 25.98241484 4.6875 31.3125 C-0.93329265 36.4223115 -5.93606977 37.6852897 -13.45703125 37.5859375 C-18.5626313 37.09702915 -22.40573208 35.40471418 -25.87890625 31.59375 C-30.67495528 25.14436213 -30.86754158 19.19827946 -30.3125 11.3125 C-28.58666831 5.83044639 -24.99976115 2.46007869 -20.3125 -0.6875 C-13.55604239 -3.61954764 -6.52833962 -3.32575792 0 0 Z " fill="#000000" transform="translate(1093.3125,17.6875)"/>
</svg>
