<svg width="820" height="150" viewBox="0 0 820 150" fill="none" xmlns="http://www.w3.org/2000/svg">
<path fill-rule="evenodd" clip-rule="evenodd" d="M801.76 120.345V118.1H803.2C803.985 118.1 805.055 118.16 805.055 119.12C805.055 120.16 804.505 120.345 803.575 120.345H801.76ZM801.76 121.92H802.72L804.955 125.84H807.405L804.935 121.76C806.21 121.665 807.26 121.06 807.26 119.34C807.26 117.205 805.785 116.515 803.295 116.515H799.69V125.84H801.76V121.92ZM812.25 121.19C812.25 115.715 807.995 112.54 803.25 112.54C798.475 112.54 794.225 115.715 794.225 121.19C794.225 126.665 798.475 129.855 803.25 129.855C807.99 129.855 812.25 126.665 812.25 121.19ZM809.65 121.19C809.65 125.18 806.715 127.86 803.25 127.86V127.83C799.685 127.86 796.805 125.18 796.805 121.19C796.805 117.205 799.69 114.535 803.25 114.535C806.72 114.535 809.65 117.205 809.65 121.19Z" fill="black"/>
<path fill-rule="evenodd" clip-rule="evenodd" d="M481.87 28.5351L481.88 126.835H509.64V28.5351H481.87ZM263.485 28.4051V126.835H291.5V50.4301L313.35 50.5001C320.535 50.5001 325.5 52.2251 328.965 55.9201C333.36 60.6001 335.15 68.1401 335.15 81.9451V126.835H362.285V72.4501C362.285 33.6351 337.545 28.4001 313.34 28.4001H263.49L263.485 28.4051ZM526.57 28.5401V126.835H571.6C595.59 126.835 603.42 122.845 611.885 113.9C617.875 107.62 621.74 93.8301 621.74 78.7651C621.74 64.9501 618.465 52.6251 612.755 44.9501C602.47 31.2251 587.655 28.5401 565.53 28.5401H526.57ZM554.11 49.9401H566.045C583.36 49.9401 594.56 57.7201 594.56 77.8951C594.56 98.0801 583.36 105.855 566.045 105.855H554.11V49.9401ZM441.845 28.5401L418.675 106.44L396.475 28.5451L366.51 28.5401L398.21 126.835H438.225L470.18 28.5401H441.845ZM634.66 126.835H662.425V28.5451L634.65 28.5401L634.66 126.835ZM712.48 28.5751L673.715 126.8H701.09L707.225 109.44H753.1L758.905 126.8H788.625L749.565 28.5701L712.48 28.5751ZM730.5 46.5001L747.32 92.5201H713.155L730.5 46.5001Z" fill="black"/>
<path fill-rule="evenodd" clip-rule="evenodd" d="M84.445 44.925V31.4C85.755 31.3 87.085 31.235 88.435 31.19C125.435 30.03 149.71 62.985 149.71 62.985C149.71 62.985 123.49 99.395 95.38 99.395C91.665 99.41 87.97 98.82 84.445 97.645V56.625C98.845 58.365 101.745 64.725 110.405 79.165L129.665 62.925C129.665 62.925 115.605 44.485 91.905 44.485C89.33 44.485 86.865 44.665 84.445 44.925ZM84.445 0.234985V20.45C85.77 20.345 87.1 20.26 88.435 20.21C139.885 18.48 173.41 62.41 173.41 62.41C173.41 62.41 134.91 109.23 94.795 109.23C91.12 109.23 87.675 108.89 84.445 108.315V120.805C87.21 121.155 90.075 121.365 93.065 121.365C130.39 121.365 157.385 102.305 183.525 79.74C187.86 83.21 205.605 91.655 209.25 95.355C184.395 116.155 126.475 132.93 93.635 132.93C90.565 132.92 87.5 132.76 84.445 132.45V150H226.32V0.234985H84.445ZM84.445 97.645V108.315C49.92 102.165 40.335 66.27 40.335 66.27C40.335 66.27 56.915 47.9 84.445 44.925V56.625L84.39 56.62C69.94 54.885 58.655 68.385 58.655 68.385C58.655 68.385 64.98 91.105 84.445 97.645ZM23.125 64.715C23.125 64.715 43.585 34.515 84.445 31.4V20.44C39.19 24.075 0 62.4 0 62.4C0 62.4 22.195 126.565 84.445 132.44V120.805C38.765 115.06 23.125 64.715 23.125 64.715Z" fill="#76B900"/>
</svg>
