<svg width="558" height="150" viewBox="0 0 558 150" fill="none" xmlns="http://www.w3.org/2000/svg">
<path d="M59.3407 0C26.7033 0 0 26.7033 0 59.3407C0 91.9781 26.7033 118.681 59.3407 118.681C91.9781 118.681 118.681 92.1428 118.681 59.3407C118.681 26.5381 92.1428 0 59.3407 0ZM59.3407 97.4175C39.0661 97.4175 22.7469 80.7693 22.7469 59.3407C22.7469 37.9121 39.0661 21.2634 59.3407 21.2634C79.6153 21.2634 95.934 37.9121 95.934 59.3407C95.934 80.7693 79.6153 97.4175 59.3407 97.4175Z" fill="black"/>
<path d="M178.68 32.9669C167.966 32.9669 157.581 37.2528 152.142 44.5056V34.6152H130.713V150H152.142V108.297C157.581 115.055 167.636 118.681 178.68 118.681C201.757 118.681 219.889 100.549 219.889 75.8242C219.889 51.0991 201.757 32.9669 178.68 32.9669ZM175.054 100.055C162.856 100.055 151.977 90.4947 151.977 75.8242C151.977 61.1538 162.856 51.5933 175.054 51.5933C187.252 51.5933 198.131 61.1538 198.131 75.8242C198.131 90.4947 187.252 100.055 175.054 100.055Z" fill="black"/>
<path d="M270.331 32.9669C246.925 32.9669 228.463 51.2638 228.463 75.8242C228.463 100.385 244.617 118.681 270.99 118.681C292.584 118.681 306.43 105.659 310.716 90.9888H289.782C287.144 97.0881 279.727 101.373 270.826 101.373C259.782 101.373 251.375 93.6264 249.397 82.5824H311.705V74.176C311.705 51.758 296.045 32.9669 270.331 32.9669ZM249.562 67.4178C251.87 57.0331 260.441 50.2745 270.826 50.2745C281.87 50.2745 290.276 57.5273 291.265 67.4178H249.562Z" fill="black"/>
<path d="M368.736 32.9669C359.176 32.9669 349.121 37.2527 344.505 44.3404V34.6152H323.077V117.033H344.505V72.6924C344.505 59.835 351.428 51.4285 362.637 51.4285C373.022 51.4285 378.625 59.3408 378.625 70.3848V117.033H400.054V66.9231C400.054 46.4833 387.526 32.9669 368.736 32.9669Z" fill="black"/>
<path d="M454.938 1.651L408.29 117.036H431.202L441.091 91.8161H494.17L504.058 117.036H527.298L480.982 1.651H454.938ZM448.508 72.6951L467.63 24.3984L486.584 72.6951H448.508Z" fill="black"/>
<path d="M557.793 1.651H536.037V117.036H557.793V1.651Z" fill="black"/>
</svg>
