<svg width="336" height="150" viewBox="0 0 336 150" fill="none" xmlns="http://www.w3.org/2000/svg">
<mask id="mask0_54_323" style="mask-type:luminance" maskUnits="userSpaceOnUse" x="0" y="0" width="336" height="150">
<path d="M335.382 0.020874H0.451172V149.937H335.382V0.020874Z" fill="white"/>
</mask>
<g mask="url(#mask0_54_323)">
<path d="M75.4094 49.993C61.6671 49.993 50.4233 61.2368 50.4233 74.9791C50.4233 88.7215 61.6671 99.9652 75.4094 99.9652C89.1518 99.9652 100.395 88.7908 100.395 74.9791C100.395 61.1672 89.2211 49.993 75.4094 49.993ZM75.4094 91.0118C66.8726 91.0118 60.0012 84.0019 60.0012 74.9791C60.0012 65.9563 66.8726 58.9462 75.4094 58.9462C83.9462 58.9462 90.8174 65.9563 90.8174 74.9791C90.8174 84.0019 83.9462 91.0118 75.4094 91.0118Z" fill="black"/>
<path d="M125.659 63.8741C121.147 63.8741 116.775 65.6787 114.484 68.7326V64.5681H105.461V113.152H114.484V95.5926C116.775 98.4382 121.008 99.9652 125.659 99.9652C135.375 99.9652 143.01 92.3304 143.01 81.9196C143.01 71.5088 135.375 63.8741 125.659 63.8741ZM124.132 92.1223C118.996 92.1223 114.415 88.0968 114.415 81.9196C114.415 75.7425 118.996 71.7169 124.132 71.7169C129.268 71.7169 133.848 75.7425 133.848 81.9196C133.848 88.0968 129.268 92.1223 124.132 92.1223Z" fill="black"/>
<path d="M164.249 63.8741C154.394 63.8741 146.62 71.5782 146.62 81.9196C146.62 92.2611 153.422 99.9652 164.527 99.9652C173.619 99.9652 179.449 94.482 181.254 88.3049H172.439C171.329 90.873 168.205 92.6774 164.457 92.6774C159.807 92.6774 156.268 89.4155 155.435 84.7652H181.67V81.2256C181.67 71.7863 175.076 63.8741 164.249 63.8741ZM155.504 78.38C156.476 74.0074 160.085 71.1616 164.457 71.1616C169.108 71.1616 172.647 74.2155 173.064 78.38H155.504Z" fill="black"/>
<path d="M205.684 63.8741C201.658 63.8741 197.424 65.6787 195.481 68.663V64.5681H186.458V99.271H195.481V80.601C195.481 75.1872 198.396 71.6476 203.116 71.6476C207.488 71.6476 209.847 74.9791 209.847 79.6293V99.271H218.87V78.1717C218.87 69.5653 213.595 63.8741 205.684 63.8741Z" fill="black"/>
<path d="M241.98 50.6883L222.338 99.2724H231.986L236.15 88.6533H258.499L262.663 99.2724H272.448L252.946 50.6883H241.98ZM239.273 80.6022L247.324 60.2664L255.305 80.6022H239.273Z" fill="black"/>
<path d="M285.288 50.6883H276.127V99.2724H285.288V50.6883Z" fill="black"/>
</g>
</svg>
