<svg width="517" height="150" viewBox="0 0 517 150" fill="none" xmlns="http://www.w3.org/2000/svg">
<path d="M40.3933 4.51083C50.5941 0.393283 61.8858 -0.924882 72.7687 0.636707C87.9161 2.74945 102.122 10.7067 111.926 22.4347C117.118 28.5938 121.114 35.761 123.596 43.4266C126.673 52.865 127.406 63.0383 125.826 72.835C124.423 81.6028 121.109 90.063 116.16 97.4369C112.376 103.095 107.65 108.118 102.262 112.277C101.798 112.637 101.389 113.06 100.981 113.48C94.5 120.064 85.9733 124.533 76.9184 126.296C75.7587 126.533 74.5898 126.719 73.4209 126.889C73.8044 128.524 74.3601 130.113 74.9962 131.668C74.5737 132.086 74.1512 132.508 73.7286 132.931C72.5873 132.292 70.9866 132.651 70.3919 133.859C69.6225 135.191 70.5595 137.055 72.0775 137.253C73.3061 137.485 74.3762 136.67 75.1455 135.808C75.637 137.822 75.4785 140.013 74.4681 141.846C72.4816 145.564 68.8211 148.115 64.9653 149.619C64.4119 149.798 63.8263 150.18 63.2407 149.902C59.1829 148.489 55.3041 145.959 53.0995 142.183C51.9513 140.284 51.701 137.96 52.2407 135.824C53.01 136.782 54.2478 137.554 55.5131 137.205C56.8497 136.883 57.6419 135.26 57.0494 134.013C56.5488 132.779 54.9574 132.251 53.7977 132.878C53.3407 132.465 52.9066 132.026 52.4726 131.587C53.4601 129.89 54.3833 128.147 55.0446 126.294C52.6494 125.826 50.3116 125.114 47.9693 124.457C44.892 125.573 41.4657 125.766 38.3287 124.778C33.5246 123.352 29.655 119.311 28.3598 114.479C18.6964 107.913 10.9343 98.5897 6.24727 87.8882C2.10906 78.5164 0.352267 68.118 1.13766 57.9057C1.9506 46.9631 5.74894 36.2662 11.993 27.2457C18.965 17.1069 28.9684 9.08537 40.3933 4.51083ZM56.186 2.23504C45.0137 3.60832 34.2709 8.20353 25.5306 15.2881C15.6788 23.2086 8.37379 34.2522 5.01637 46.4441C2.03557 57.1662 2.08379 68.7059 5.14956 79.4028C8.82159 92.3893 16.9924 104.03 27.9166 111.948C27.6433 108.917 28.3782 105.837 29.9099 103.217C29.1682 102.514 28.4563 101.782 27.7811 101.015C27.9442 100.895 28.1072 100.776 28.2726 100.659C28.9707 101.267 29.7285 101.805 30.4932 102.333C32.0571 100.11 34.2158 98.3233 36.6983 97.2187C31.777 93.363 27.6847 88.4486 24.8141 82.8911C21.0135 75.6917 19.3141 67.3993 19.9709 59.2836C20.6139 50.6879 23.9162 42.322 29.2807 35.5773C34.9415 28.4008 42.8826 23.0478 51.678 20.5493C58.944 18.471 66.7451 18.2987 74.0914 20.067C81.5411 21.8491 88.4925 25.6336 94.043 30.9132C98.7554 35.3729 102.473 40.8844 104.813 46.9401C107.3 53.3358 108.224 60.3239 107.528 67.1466C106.722 75.2945 103.53 83.1736 98.4798 89.6152C93.0877 96.5321 85.5944 101.798 77.2307 104.457C76.3144 104.705 75.5061 105.266 74.9549 106.037C73.5357 108.001 72.9823 110.451 72.7526 112.825C81.9361 114.897 91.742 114.504 100.602 111.248C110.183 104.108 117.545 94.0267 121.437 82.7304C124.689 73.331 125.576 63.1301 124.051 53.3059C122.712 44.6368 119.442 36.2777 114.571 28.9864C107.739 18.7167 97.738 10.5827 86.2627 6.04486C76.7737 2.25801 66.3179 0.9651 56.186 2.23504ZM56.643 21.2313C48.4469 22.6138 40.7148 26.5453 34.721 32.2956C28.3851 38.3215 23.992 46.366 22.412 54.9708C21.0525 62.1909 21.6312 69.7669 24.1022 76.6884C26.7959 84.3517 31.7678 91.1836 38.2093 96.1325C38.4459 96.291 38.6939 96.5803 39.0131 96.4356C41.4818 95.811 44.1066 95.8133 46.5615 96.5045C50.5183 97.577 53.9814 100.365 55.8346 104.028C64.3338 105.686 73.3428 104.625 81.2151 101.015C88.6739 97.6275 95.0879 92.0035 99.4443 85.0682C104.595 76.9548 106.786 67.0341 105.574 57.5038C104.733 50.6168 102.127 43.9593 98.0917 38.3192C93.6527 32.0867 87.5004 27.085 80.471 24.0606C73.0305 20.8225 64.6346 19.842 56.643 21.2313ZM32.0227 103.332C32.8035 103.8 33.5889 104.262 34.3834 104.71C36.3377 102.039 39.5918 100.351 42.9171 100.443C44.5223 100.438 46.0839 100.893 47.5398 101.545C49.4505 102.338 51.4139 102.999 53.4188 103.504C51.0695 99.9676 46.9129 97.7033 42.6576 97.7331C38.4711 97.6918 34.3788 99.8849 32.0227 103.332ZM36.0185 105.596C38.3609 106.767 40.7331 107.881 43.149 108.896C43.8471 109.206 44.683 109.475 45.0275 110.228C45.62 111.333 44.9494 112.862 43.7162 113.14C42.8068 113.42 41.9893 112.814 41.2544 112.373C39.0361 110.931 36.9348 109.316 34.9116 107.612C33.9632 109.806 34.0941 112.424 35.1573 114.552C36.154 116.553 37.9774 117.992 39.9179 119.019C45.5075 122.073 51.6734 124.009 57.9451 125.04C62.8985 125.872 67.9622 125.798 72.934 125.18C78.1585 124.517 83.3025 123.065 88.0126 120.688C91.5468 118.927 94.8032 116.64 97.7472 114.015C89.7877 116.21 81.3161 116.417 73.2418 114.722C64.7816 113 56.8359 109.337 49.5194 104.827C47.8338 103.895 46.2515 102.631 44.2949 102.338C41.2062 101.747 37.8832 103.07 36.0185 105.596ZM31.2694 104.515C29.9696 106.981 29.4323 109.854 29.8709 112.616C30.4611 116.837 33.3064 120.64 37.1667 122.432C39.6469 123.628 42.4876 123.906 45.186 123.449C42.3521 122.232 39.4793 121.028 36.9279 119.269C35.2216 118.043 33.8001 116.367 33.0653 114.382C32.0847 111.81 32.2523 108.864 33.4006 106.375C32.6932 105.75 31.9928 105.119 31.2694 104.515ZM53.6897 105.288C55.2766 106.163 56.8979 106.969 58.5238 107.766C58.8912 107.259 59.3069 106.79 59.7708 106.372C57.72 106.161 55.706 105.706 53.6897 105.288ZM64.0238 106.554C62.5127 106.542 61.0039 107.259 60.1405 108.515C63.6127 110.111 67.2227 111.411 70.92 112.385C71.1612 109.985 71.8042 107.576 73.1522 105.548C70.153 106.189 67.0896 106.531 64.0238 106.554ZM55.0056 130.763C56.0689 130.885 57.1505 131.232 57.9106 132.019C59.5595 133.595 59.5112 136.55 57.8004 138.059C56.7532 139.014 55.2421 139.242 53.8849 139C54.3213 141.067 55.6096 142.838 57.139 144.248C58.9854 145.945 61.2037 147.242 63.5829 148.037C65.071 147.748 66.4443 146.932 67.7532 146.17C70.3597 144.51 72.8422 142.137 73.4852 138.996C72.02 139.29 70.385 138.918 69.3516 137.797C67.7762 136.173 67.8956 133.227 69.6524 131.78C70.486 131.05 71.6136 130.779 72.6998 130.777C72.2727 129.571 71.8478 128.361 71.5676 127.112C66.6808 127.605 61.7296 127.523 56.8864 126.655C56.3789 128.074 55.7451 129.447 55.0056 130.763Z" fill="#002147"/>
<path d="M51.7853 5.93926C52.403 5.73947 53.03 5.56723 53.6592 5.3927C53.1838 7.82924 52.6373 10.2543 52.201 12.6954C52.5156 14.1123 52.9978 15.4856 53.3744 16.8888C52.8279 17.0495 52.279 17.2126 51.7371 17.3871C51.3145 16.1493 51.0137 14.8725 50.6348 13.6186C50.536 13.18 50.1801 12.8814 49.8907 12.5668C48.5611 11.2142 47.2751 9.82027 45.9408 8.47225C45.7502 8.26097 45.5183 8.06348 45.4287 7.78331C45.9822 7.60189 46.5448 7.45492 47.1005 7.28039C48.3751 8.56181 49.606 9.88686 50.8667 11.1821C51.1653 9.43446 51.512 7.69375 51.7853 5.93926Z" fill="#002147"/>
<path d="M77.9262 6.87858C80.032 6.44225 82.379 7.54226 83.2609 9.52869C84.3746 12.0548 83.5296 15.2423 81.4536 17.0174C80.1032 18.1909 78.0801 18.4183 76.4542 17.7156C74.7181 17.0151 73.5744 15.2216 73.5216 13.3707C73.3517 10.5965 75.0212 7.43662 77.9262 6.87858ZM78.1352 8.44706C76.5323 8.95228 75.6366 10.6149 75.3611 12.1788C75.0947 13.5819 75.4414 15.2652 76.7137 16.0782C77.9239 16.9187 79.6899 16.6087 80.6062 15.4742C81.7544 14.0826 82.3469 12.0869 81.7636 10.3347C81.2951 8.87879 79.598 7.98088 78.1352 8.44706Z" fill="#002147"/>
<path d="M63.2104 8.91543C64.253 8.48599 65.4793 9.53777 65.1946 10.6355C65.0223 11.7263 63.5319 12.2361 62.7328 11.4668C61.8693 10.7801 62.1541 9.24382 63.2104 8.91543Z" fill="#002147"/>
<path d="M34.1074 12.9342C36.4774 11.7056 38.845 10.4747 41.2127 9.24146C41.44 9.68926 41.6674 10.1371 41.8924 10.5849C40.9692 11.0557 40.0552 11.5379 39.139 12.0202C40.6018 14.8035 42.0279 17.6074 43.5114 20.3793C42.9993 20.6709 42.4803 20.9488 41.959 21.2198C40.4939 18.4227 39.0356 15.621 37.5774 12.8193C36.6542 13.3062 35.731 13.793 34.801 14.2661C34.569 13.8229 34.3371 13.3774 34.1074 12.9342Z" fill="#002147"/>
<path d="M85.2861 20.9029C87.1302 17.7429 88.9972 14.5991 90.855 11.4484C92.6026 12.4726 94.3479 13.506 96.0955 14.5325C95.8406 14.9642 95.5834 15.396 95.3285 15.8277C94.0862 15.0837 92.8346 14.358 91.5853 13.6231C91.0732 14.4866 90.5749 15.3615 90.0421 16.2158C91.2064 16.9415 92.4143 17.596 93.574 18.3331C93.3191 18.7419 93.0734 19.1553 92.83 19.5686C91.6519 18.8843 90.4784 18.1931 89.3072 17.4972C88.4644 18.9233 87.6239 20.3517 86.7834 21.7778C86.2874 21.4793 85.7891 21.1853 85.2861 20.9029Z" fill="#002147"/>
<path d="M28.0928 17.1805C28.5681 16.8406 29.0343 16.4893 29.5074 16.1471C31.6867 19.0751 33.935 21.9479 36.1373 24.8598C35.6734 25.2135 35.2118 25.5672 34.7525 25.9254C32.5272 23.0135 30.279 20.12 28.0928 17.1805Z" fill="#002147"/>
<path d="M310.332 18.8155C313.681 18.1289 317.41 18.9028 319.961 21.2567C319.477 21.9134 318.935 22.5243 318.437 23.1719C316.971 22.1086 315.256 21.3347 313.435 21.213C311.86 21.0936 310.14 21.3439 308.899 22.3934C307.701 23.3855 307.287 25.1583 307.832 26.6005C308.158 27.4112 308.821 28.0335 309.538 28.5066C311.935 30.0498 314.776 30.7663 317.1 32.4358C318.629 33.5243 319.851 35.1548 320.131 37.0448C320.453 39.2103 319.904 41.5573 318.439 43.22C317.378 44.4509 315.876 45.2339 314.305 45.5876C310.681 46.4074 306.727 45.42 303.863 43.0661C304.343 42.3634 304.828 41.6607 305.287 40.9419C307.124 42.0763 309.152 43.05 311.341 43.1924C312.783 43.2429 314.335 43.0156 315.506 42.1039C316.815 41.0865 317.284 39.2769 317.02 37.6901C316.774 36.3673 315.766 35.3477 314.684 34.6289C312.091 32.9204 308.915 32.1993 306.564 30.1118C304.178 28.0358 304.003 24.1249 305.808 21.6241C306.872 20.136 308.564 19.1944 310.332 18.8155Z" fill="#002147"/>
<path d="M409.658 18.6799C412.418 18.3401 415.337 18.9188 417.622 20.5447C420.81 22.7493 422.53 26.5752 422.854 30.3574C423.244 34.6311 422.261 39.2837 419.211 42.4528C415.813 46.0652 409.943 46.8689 405.616 44.5242C402.213 42.7307 400.073 39.1276 399.446 35.405C398.748 31.214 399.384 26.6119 401.951 23.1328C403.756 20.6572 406.62 19.0244 409.658 18.6799ZM408.818 21.539C407.251 21.9478 405.844 22.8939 404.847 24.1639C403.442 25.9184 402.766 28.1482 402.541 30.3574C402.3 32.81 402.518 35.3545 403.483 37.6418C404.167 39.2883 405.272 40.7879 406.755 41.7961C409.631 43.8101 413.918 43.5506 416.465 41.1048C418.109 39.5547 418.991 37.3616 419.39 35.1731C419.824 32.5988 419.792 29.8958 418.959 27.4042C418.346 25.5739 417.239 23.8699 415.654 22.7401C413.711 21.3278 411.121 20.942 408.818 21.539Z" fill="#002147"/>
<path d="M159.547 19.0705C160.587 19.0682 161.63 19.082 162.672 19.0544C162.734 25.0436 162.661 31.0328 162.709 37.0219C162.716 38.5674 163.063 40.2232 164.195 41.353C165.773 42.9399 168.195 43.3555 170.34 43.0455C172.109 42.7998 173.808 41.748 174.589 40.106C175.17 38.8614 175.211 37.4536 175.255 36.1033C175.301 30.4219 175.239 24.7405 175.289 19.059C176.318 19.0774 177.344 19.0705 178.376 19.0705C178.376 22.9906 178.373 26.9083 178.376 30.8284C178.334 33.4325 178.488 36.0528 178.148 38.6432C177.921 40.4321 177.211 42.2165 175.859 43.452C173.918 45.2983 171.13 45.939 168.517 45.8403C165.711 45.7645 162.773 44.6576 161.076 42.329C159.813 40.6159 159.581 38.4113 159.561 36.3467C159.531 30.5872 159.554 24.83 159.547 19.0705Z" fill="#002147"/>
<path d="M188.487 19.0704C189.562 19.0704 190.639 19.0681 191.716 19.075C195.951 26.2629 200.13 33.4876 204.411 40.6479C204.429 33.4554 204.362 26.2629 204.351 19.0704C205.318 19.0727 206.289 19.059 207.261 19.0888C207.222 27.8475 207.277 36.6085 207.231 45.3671C206.133 45.3442 205.035 45.3717 203.94 45.3419C199.751 38.1632 195.539 30.9982 191.303 23.8494C191.314 31.0212 191.376 38.1953 191.365 45.3671C190.405 45.3511 189.445 45.3557 188.487 45.358C188.485 36.5947 188.485 27.8337 188.487 19.0704Z" fill="#002147"/>
<path d="M218.233 45.3739C218.198 36.6038 218.198 27.8313 218.235 19.0612C219.28 19.0841 220.329 19.0726 221.376 19.0749C221.379 27.8359 221.379 36.5992 221.376 45.3602C220.329 45.3602 219.28 45.3487 218.233 45.3739Z" fill="#002147"/>
<path d="M228.362 19.0704C229.46 19.0704 230.56 19.0704 231.658 19.0704C234.221 26.8071 236.767 34.5485 239.337 42.283C241.957 34.5393 244.594 26.8003 247.239 19.0658C248.254 19.0727 249.274 19.0681 250.291 19.0704C247.214 27.8314 244.127 36.59 241.057 45.3533C239.847 45.3602 238.634 45.3579 237.424 45.3556C234.409 36.5923 231.38 27.8337 228.362 19.0704Z" fill="#002147"/>
<path d="M257.445 19.0795C262.205 19.0589 266.966 19.0979 271.729 19.0612C271.761 19.9407 271.754 20.8225 271.738 21.7021C268.011 21.686 264.281 21.7021 260.554 21.6929C260.547 24.5864 260.552 27.4777 260.552 30.3689C264.061 30.3804 267.57 30.3436 271.081 30.3873C271.056 31.2209 271.056 32.0545 271.083 32.8881C267.574 32.9754 264.063 32.9042 260.552 32.9249C260.543 36.1652 260.566 39.4055 260.543 42.6435C264.382 42.6825 268.222 42.6457 272.064 42.6618C272.059 43.562 272.059 44.46 272.062 45.3579C267.189 45.3556 262.315 45.3693 257.442 45.351C257.456 36.5946 257.452 27.8382 257.445 19.0795Z" fill="#002147"/>
<path d="M280.419 45.3395C280.472 36.5785 280.391 27.8153 280.46 19.052C283.333 19.1071 286.208 19.0176 289.081 19.1324C290.884 19.2265 292.795 19.6445 294.14 20.9374C296.315 22.9055 296.894 26.233 295.952 28.9451C295.16 31.175 292.937 32.6218 290.661 32.9593C292.234 33.1775 293.316 34.4865 293.94 35.8506C295.429 38.9921 296.795 42.1865 298.219 45.3579C297.13 45.3602 296.044 45.3441 294.958 45.3717C293.699 42.6963 292.592 39.9497 291.309 37.2836C290.682 36.0274 289.887 34.6357 288.44 34.2247C286.844 33.8021 285.17 33.9583 283.54 33.9215C283.538 37.7337 283.538 41.5458 283.538 45.3556C282.497 45.3533 281.457 45.3694 280.419 45.3395ZM283.54 21.5965C283.538 24.8666 283.538 28.1391 283.54 31.4092C285.535 31.3794 287.57 31.5447 289.527 31.0464C290.771 30.7341 291.943 29.9785 292.588 28.8441C293.527 27.2389 293.47 25.1009 292.464 23.5393C291.614 22.2854 290.073 21.7159 288.61 21.6401C286.922 21.546 285.228 21.6194 283.54 21.5965Z" fill="#002147"/>
<path d="M328.943 19.075C329.997 19.075 331.052 19.075 332.108 19.075C332.11 27.8359 332.11 36.5969 332.108 45.3602C331.052 45.3602 329.997 45.3602 328.943 45.3579C328.943 36.5969 328.943 27.8359 328.943 19.075Z" fill="#002147"/>
<path d="M339.18 19.0772C345.44 19.0726 351.698 19.0749 357.958 19.0749C357.955 19.9476 357.955 20.8225 357.958 21.6952C355.36 21.6929 352.763 21.6998 350.168 21.6929C350.159 29.5812 350.166 37.4718 350.164 45.3601C349.119 45.3624 348.074 45.3441 347.034 45.3808C346.953 37.4833 347.045 29.5812 346.988 21.6837C344.386 21.7112 341.782 21.6883 339.18 21.6952C339.18 20.8225 339.18 19.9499 339.18 19.0772Z" fill="#002147"/>
<path d="M361.635 19.0727C362.845 19.075 364.055 19.0543 365.268 19.0888C367.376 23.1925 369.562 27.255 371.686 31.3518C373.886 27.3101 375.896 23.1627 378.013 19.0727C379.154 19.0681 380.298 19.0704 381.444 19.0727C378.718 24.2673 375.99 29.4595 373.264 34.6518C373.076 34.9596 373.087 35.3224 373.089 35.6692C373.101 38.898 373.092 42.1268 373.096 45.3556C372.049 45.3556 371.002 45.3694 369.959 45.3418C369.964 41.8857 370.015 38.4226 369.934 34.9687C367.231 29.641 364.372 24.3867 361.635 19.0727Z" fill="#002147"/>
<path d="M431.592 19.075C436.249 19.075 440.904 19.075 445.561 19.075C445.559 19.9476 445.559 20.8226 445.561 21.6952C441.951 21.6975 438.341 21.6952 434.731 21.6952C434.731 24.5864 434.736 27.4754 434.729 30.3666C438.123 30.385 441.519 30.3437 444.916 30.385C444.893 31.2255 444.893 32.066 444.914 32.9042C441.519 32.9547 438.123 32.9111 434.731 32.9272C434.733 37.0723 434.731 41.2151 434.731 45.3602C433.684 45.3602 432.637 45.3602 431.592 45.3602C431.592 36.5969 431.592 27.8359 431.592 19.075Z" fill="#002147"/>
<path d="M19.8835 25.7899C20.1752 23.8035 21.9871 22.2488 23.9391 21.9893C24.0539 22.4784 24.148 22.9721 24.2376 23.4659C23.0159 23.6749 21.7505 24.4855 21.5025 25.7738C21.3349 26.5822 22.1639 27.3308 22.9539 27.1218C24.4259 26.8118 25.7234 25.8106 27.2781 25.8634C29.1405 25.8772 30.6493 27.8613 30.1647 29.6617C29.6526 31.5999 27.7971 32.9525 25.8681 33.2557C25.751 32.7665 25.6292 32.2774 25.5029 31.7905C26.6764 31.4644 28.0245 30.9317 28.4562 29.6778C28.8466 28.7661 28.0704 27.5995 27.0576 27.7097C25.5259 27.8383 24.2399 28.9223 22.6852 28.9613C21.057 29.0302 19.6171 27.3997 19.8835 25.7899Z" fill="#002147"/>
<path d="M98.9668 23.034C99.9084 22.5196 101.19 23.3164 101.139 24.3935C101.188 25.5325 99.7453 26.3156 98.8176 25.6519C97.8439 25.0847 97.9357 23.4864 98.9668 23.034Z" fill="#002147"/>
<path d="M107.299 29.5836C108.381 29.292 109.568 29.2851 110.615 29.7191C112.88 30.6147 114.276 33.3774 113.449 35.7106C112.659 37.9588 110.452 39.5227 108.154 39.9154C106.39 40.2323 104.493 39.463 103.469 37.9886C102.562 36.7784 102.238 35.1273 102.734 33.6851C103.414 31.6435 105.274 30.1646 107.299 29.5836ZM107.993 31.198C106.3 31.7101 104.613 32.9364 104.202 34.7437C103.781 36.512 105.334 38.4479 107.178 38.2941C108.976 38.1448 110.758 37.1229 111.674 35.5475C112.469 34.1995 111.975 32.3302 110.675 31.4874C109.89 30.9661 108.875 30.9523 107.993 31.198Z" fill="#002147"/>
<path d="M49.8977 30.2496C50.024 30.2358 50.2789 30.2082 50.4075 30.1945C51.6361 31.8571 52.8532 33.5358 53.9808 35.2696C53.4067 35.4074 52.8257 35.5176 52.2493 35.6462C52.8923 36.7945 53.6983 37.8417 54.424 38.9394C55.5148 38.1471 56.5436 37.2652 57.5196 36.3375C57.0764 36.1055 56.6171 35.9057 56.1877 35.6508C56.2359 35.3362 56.5482 35.1984 56.771 35.0216C57.8503 34.2776 58.9251 33.5243 59.9929 32.7619C60.2892 32.546 60.613 32.3439 60.9965 32.3416C60.1674 35.1204 59.2052 37.8554 58.3234 40.6181C55.586 39.6857 52.6512 39.6122 49.7875 39.587C47.1994 39.6673 44.5355 39.7385 42.0737 40.6273C41.1482 37.883 40.2457 35.1318 39.373 32.3692C40.0872 32.3256 40.5764 32.9295 41.1482 33.2556C42.2344 34.0663 43.4998 34.6634 44.4528 35.6416C43.9912 35.8575 43.5136 36.0481 43.0956 36.3444C43.9407 37.3043 44.9649 38.0897 45.9088 38.9508C46.6781 37.8692 47.5117 36.8128 48.1042 35.6187C47.5346 35.513 46.9651 35.4189 46.4048 35.2719C47.4887 33.545 48.7472 31.9329 49.8977 30.2496Z" fill="#002147"/>
<path d="M74.6422 33.6436C75.4574 32.4885 76.2818 31.3403 77.0902 30.1806C77.8595 30.1622 78.0891 31.0188 78.5163 31.5033C79.343 32.794 80.4108 33.9376 81.0791 35.3224C80.5211 35.4211 79.9653 35.513 79.4119 35.6255C80.0044 36.8013 80.8541 37.8186 81.5545 38.9301C82.6706 38.1723 83.6718 37.2514 84.6662 36.3443C84.2115 36.0963 83.743 35.8735 83.2745 35.6553C83.7384 35.0192 84.4733 34.6793 85.0864 34.2132C85.9706 33.6207 86.7973 32.9409 87.7159 32.4013C87.8284 32.399 88.0489 32.3898 88.1591 32.3852C87.2772 35.134 86.3587 37.8714 85.4699 40.6157C82.7877 39.7017 79.9125 39.6213 77.1062 39.5846C74.4515 39.6466 71.7348 39.7407 69.2018 40.618C68.3062 37.8714 67.3945 35.1317 66.5127 32.3829C67.321 32.337 67.8791 33.0603 68.5382 33.4232C69.5371 34.1833 70.7497 34.6977 71.5741 35.6599C71.1033 35.862 70.6371 36.0779 70.1847 36.3213C71.0987 37.1779 71.9943 38.0643 72.9657 38.8543L73.1357 38.8405C73.9096 37.853 74.548 36.7714 75.276 35.7518C74.7707 35.4487 74.1691 35.4326 73.6041 35.3315C73.8154 34.6931 74.2655 34.1856 74.6422 33.6436Z" fill="#002147"/>
<path d="M13.4924 34.266C13.9999 33.4691 14.7922 32.7595 15.7796 32.7205C17.5869 32.5115 19.5642 34.1833 19.0613 36.0894C19.9179 35.6645 20.8847 35.8597 21.7964 35.9217C22.8435 36.0182 23.893 36.0917 24.9402 36.1996C24.6072 36.7186 24.3064 37.256 24.0239 37.8048C22.5771 37.7313 21.135 37.4558 19.6836 37.5132C18.7604 37.5706 18.4091 38.5443 18.0164 39.2286C19.3621 39.9428 20.6918 40.6846 22.0306 41.4148C21.755 41.9224 21.4748 42.4276 21.1832 42.9259C17.9796 41.1645 14.7646 39.4215 11.5381 37.6992C12.1742 36.5464 12.7828 35.3752 13.4924 34.266ZM15.0999 34.7C14.4408 35.2879 14.1009 36.133 13.637 36.8656C14.6659 37.4305 15.6993 37.9862 16.735 38.5397C17.1391 37.7681 17.665 37.0011 17.7018 36.1008C17.727 34.8768 16.1011 33.9238 15.0999 34.7Z" fill="#002147"/>
<path d="M117.436 40.5468C117.666 41.1622 117.873 41.7845 118.084 42.4046C117.152 43.585 116.047 44.6253 115.177 45.8539C116.639 46.1616 118.1 46.4854 119.554 46.8482C119.724 47.4361 119.916 48.0194 120.107 48.6027C118.098 48.1044 116.084 47.6221 114.07 47.1468C112.653 48.8576 111.201 50.5409 109.81 52.2747C109.557 51.6593 109.348 51.0278 109.176 50.3894C110.274 49.1653 111.332 47.9092 112.389 46.6507C110.811 46.2488 109.201 45.9687 107.633 45.5369C107.281 45.0179 107.203 44.3359 106.974 43.7526C109.162 44.2417 111.328 44.8434 113.525 45.2889C114.784 43.6722 116.164 42.152 117.436 40.5468Z" fill="#002147"/>
<path d="M45.6146 41.6928C48.3199 41.3254 51.0664 41.3162 53.7808 41.5711C54.9796 41.7204 56.2151 41.8467 57.322 42.3611C57.6664 42.4644 57.9764 42.9536 57.5539 43.1809C56.8282 43.6632 55.9326 43.7849 55.0921 43.9479C52.3432 44.3613 49.5393 44.382 46.772 44.1363C45.5595 44.0054 44.3217 43.8676 43.1896 43.3945C42.8818 43.2912 42.705 43.0087 42.5029 42.779C43.3434 42.0005 44.5376 41.8857 45.6146 41.6928Z" fill="#002147"/>
<path d="M70.117 42.4093C71.2951 41.8214 72.6408 41.7088 73.9291 41.5504C76.9007 41.3047 79.9229 41.3116 82.8646 41.8581C83.634 42.0579 84.6077 42.1544 85.0164 42.9443C84.0887 43.7045 82.8578 43.8446 81.7164 44.026C78.6621 44.4003 75.5527 44.398 72.5053 43.9594C71.6166 43.778 70.6314 43.6838 69.892 43.1074C69.582 42.8938 69.869 42.5149 70.117 42.4093Z" fill="#002147"/>
<path d="M7.30469 50.0725C7.90636 48.047 8.51951 46.0239 9.10511 43.9961C9.59196 44.1178 10.0788 44.2464 10.5634 44.3796C10.1201 45.8493 9.67233 47.3168 9.22682 48.7842C10.2097 49.0345 11.1834 49.3124 12.1617 49.5834C12.5567 48.2491 12.8598 46.8873 13.3375 45.5829C13.7899 45.7253 14.2423 45.8631 14.697 46.0009C14.3227 47.326 13.946 48.6487 13.574 49.9738C14.6809 50.2608 15.7832 50.5777 16.8878 50.8786C17.2851 49.4364 17.7099 48.0034 18.1003 46.5589C18.5941 46.6829 19.0855 46.8161 19.5792 46.947C19.0419 48.9656 18.4723 50.9727 17.9212 52.9867C14.387 51.9969 10.8412 51.0531 7.30469 50.0725Z" fill="#002147"/>
<path d="M43.1348 48.6785C47.2707 48.6785 51.4066 48.6808 55.5425 48.6785C57.2028 48.7083 58.9872 48.6762 60.4592 49.5603C62.1471 50.5593 62.8659 52.5985 62.8751 54.4747C62.9004 62.0576 62.8728 69.6405 62.8889 77.2211C62.8935 77.6988 62.8705 78.1764 62.8039 78.6495C62.3354 77.9514 62.4893 76.9984 61.9129 76.3439C60.9277 75.0188 59.1158 74.8971 57.6024 74.8512C52.7822 74.8374 47.9619 74.8397 43.144 74.8489C43.1256 66.1269 43.1417 57.4027 43.1348 48.6785ZM44.7285 52.8328C44.8433 52.9591 45.0707 53.214 45.1832 53.3403C45.2567 54.1831 45.236 55.0351 45.2039 55.8824C45.2544 56.2361 44.8433 56.3532 44.6596 56.5737C45.7137 56.5392 46.8849 56.762 47.8287 56.1695C48.9218 55.5219 48.9724 53.6113 47.7529 53.0693C46.7976 52.6812 45.7321 52.8695 44.7285 52.8328ZM50.302 52.9223C48.9035 53.4964 48.7657 55.763 50.1435 56.4428C51.3836 57.1524 53.1312 56.1741 53.0371 54.7113C53.1772 53.2943 51.5352 52.2954 50.302 52.9223ZM53.3838 52.8373C53.5699 53.0578 54.0085 53.1703 53.9419 53.5355C53.9465 54.3048 53.896 55.0741 53.8087 55.8388C53.8225 56.1879 53.4849 56.3555 53.2828 56.5829C53.8156 56.5875 54.3552 56.6035 54.8811 56.491C54.7365 56.4083 54.4448 56.243 54.2978 56.1603C54.2129 55.4323 54.2703 54.6975 54.2955 53.9672C54.7548 54.7779 54.9845 55.6918 55.3909 56.5278C55.4598 56.5186 55.5976 56.5025 55.6665 56.4956C56.0937 55.5862 56.3417 54.6033 56.8125 53.7146C56.8331 54.5321 56.8285 55.352 56.817 56.1718C56.6793 56.2705 56.406 56.4635 56.2682 56.5599C56.9365 56.5829 57.6024 56.5806 58.2707 56.5783C58.1513 56.4497 57.9102 56.1925 57.7884 56.0639C57.7058 55.1568 57.6805 54.2405 57.7081 53.3288C57.8344 53.2025 58.087 52.9522 58.2156 52.8259C57.7196 52.8282 57.2258 52.8305 56.7321 52.8282C56.4404 53.586 56.1465 54.3438 55.8617 55.104C55.5058 54.3507 55.1705 53.5883 54.8398 52.8259C54.3529 52.8282 53.8684 52.8305 53.3838 52.8373ZM58.5026 52.8373C59.2306 53.2002 58.9964 54.0407 59.0377 54.6952C58.9964 55.3566 59.2306 56.1879 58.5141 56.576C59.1847 56.5783 59.8553 56.5783 60.5258 56.5829C60.4064 56.4543 60.1676 56.1994 60.0459 56.0731C59.977 55.1614 59.9862 54.2405 60.0413 53.3288C60.163 53.2186 60.4087 52.9958 60.5327 52.8833C59.8576 52.8098 59.1778 52.8144 58.5026 52.8373ZM47.0548 59.7497C47.2592 59.9793 47.6772 60.0941 47.6955 60.4455C47.7759 61.3182 47.7208 62.1954 47.6749 63.0681C47.5463 63.1714 47.2845 63.3758 47.1559 63.4791C47.6978 63.5136 48.2421 63.5113 48.7817 63.4355C47.6243 63.1232 48.2168 61.7177 48.0744 60.8612C48.8346 61.6994 49.4868 62.6294 50.1964 63.5113C50.3158 63.5342 50.5523 63.5802 50.6694 63.6008C50.8095 62.4342 50.5799 61.2378 50.8371 60.0896L51.3492 59.9311C50.8371 59.6349 50.2331 59.7635 49.6728 59.7589C50.7016 60.1171 50.2905 61.2929 50.3755 62.1173C49.6934 61.3549 49.078 60.5374 48.4327 59.7474C47.9734 59.7497 47.5141 59.7474 47.0548 59.7497ZM51.4686 60.0069C52.4377 60.9461 52.3573 62.6042 53.2254 63.5756L53.4803 63.5159C54.1623 62.2896 54.2381 60.666 55.3886 59.7497C54.8674 59.7497 54.3438 59.7497 53.8225 59.7474C53.9465 59.8576 54.1922 60.0781 54.3162 60.1883C54.1325 60.8703 53.8822 61.5317 53.6388 62.1954C53.2805 61.5317 53.0417 60.8129 52.7868 60.1079C52.9223 60.023 53.1978 59.853 53.3333 59.7658C52.6628 59.7497 51.9922 59.7497 51.3239 59.7244C51.3584 59.7933 51.4319 59.9357 51.4686 60.0069ZM56.0638 59.8806C55.5104 60.1975 55.345 61.0701 55.8296 61.518C56.2177 61.8463 56.7091 62.0209 57.0972 62.3493C57.3636 62.7006 57.1592 63.2908 56.6861 63.2977C56.0753 63.2449 55.8732 62.5651 55.4162 62.2551C55.4575 62.6363 55.5264 63.0129 55.5976 63.3896C56.1649 63.5457 56.7987 63.7019 57.3567 63.4217C57.9745 63.1668 58.2385 62.3401 57.8918 61.7752C57.5244 61.2378 56.778 61.1597 56.3807 60.6637C56.1488 60.2388 56.7068 59.7795 57.0972 60.0207C57.3889 60.2595 57.6047 60.5764 57.8573 60.8543C57.8275 60.4983 57.7953 60.1424 57.7609 59.7864C57.2006 59.6969 56.5759 59.5499 56.0638 59.8806ZM46.5863 66.7102C46.7264 66.7998 47.0066 66.9789 47.1467 67.0685C47.1834 68.0445 47.1788 69.0228 47.1536 69.9988C46.963 70.1228 46.7746 70.2468 46.5863 70.3708C47.2776 70.4305 47.9688 70.4236 48.6623 70.4213C48.5039 70.2353 48.2857 70.0929 48.1801 69.8702C48.1089 68.9447 48.1594 68.0169 48.1686 67.0914C48.35 66.9514 48.5314 66.8113 48.7129 66.6666C48.0033 66.6597 47.2936 66.6574 46.5863 66.7102ZM48.8782 66.6919C49.0573 66.809 49.2342 66.9261 49.4156 67.0432C49.4546 68.0215 49.512 69.009 49.4064 69.9827C49.2709 70.0791 48.9999 70.2697 48.8644 70.3639C49.845 70.4672 50.8302 70.396 51.8131 70.4351C51.9026 70.0562 51.9784 69.6773 52.0427 69.2937C51.6431 69.8219 51.1884 70.2927 50.4605 70.0929C50.4398 69.1697 50.3962 68.242 50.4582 67.3188C50.449 66.9881 50.8118 66.8572 50.9978 66.6482C50.2905 66.6689 49.5832 66.662 48.8782 66.6919ZM52.1093 66.685C52.2907 66.8182 52.4722 66.9537 52.6536 67.0891C52.6651 68.0215 52.7133 68.9562 52.6467 69.8885C52.5135 70.0171 52.2448 70.2789 52.1116 70.4098C53.0945 70.4213 54.0774 70.4213 55.0626 70.4167C55.1314 70.0447 55.1957 69.6704 55.2509 69.2983C54.8559 69.8196 54.4081 70.2812 53.6893 70.1159C53.6594 69.1881 53.6181 68.258 53.6778 67.3326C53.6617 66.9973 54.0246 66.8595 54.2129 66.6482C53.5102 66.6689 52.8097 66.6666 52.1093 66.685ZM54.5734 66.6551C54.8053 66.8802 55.1062 67.0662 55.2256 67.3877C55.6481 68.3866 56.0041 69.4155 56.3945 70.4305C56.5024 70.4466 56.7229 70.4833 56.8308 70.4994C57.2671 69.4591 57.6208 68.382 58.0985 67.3601C58.234 67.0524 58.5371 66.8756 58.7736 66.6551C58.2294 66.6689 57.6851 66.6666 57.1408 66.6643C57.2832 66.7676 57.5634 66.9697 57.7058 67.0731C57.4646 67.7781 57.2281 68.4854 56.9893 69.1904C56.6861 68.4923 56.4221 67.7781 56.1465 67.0685C56.2751 66.9674 56.5323 66.7631 56.6609 66.662C55.9628 66.6666 55.2669 66.6735 54.5734 66.6551Z" fill="#002147"/>
<path d="M66.5999 49.9346C67.9204 48.8209 69.7368 48.7221 71.3857 48.6854C75.7696 48.6716 80.1536 48.6831 84.5375 48.6808C84.5467 57.3958 84.5214 66.1109 84.549 74.8236C80.312 74.8696 76.0751 74.8305 71.8358 74.8443C70.2076 74.8673 68.5014 74.7249 66.9558 75.3472C65.9844 75.7307 65.2657 76.6516 65.1279 77.6873C65.0062 77.9675 65.1256 78.4314 64.7742 78.5623C64.7168 78.2683 64.6892 77.9744 64.6915 77.6758C64.7053 70.0217 64.6892 62.3677 64.6984 54.7136C64.6892 52.9683 65.1899 51.0714 66.5999 49.9346ZM67.1648 52.8328C67.36 52.9843 67.5414 53.1497 67.7091 53.3311C67.7412 54.1647 67.6723 54.9983 67.5851 55.8274C67.6011 56.1741 67.2705 56.3486 67.0707 56.5806C67.5621 56.5783 68.0513 56.5783 68.5427 56.5829L68.5542 56.4175C68.4325 56.3509 68.189 56.2132 68.0673 56.1466C67.9915 55.4186 68.0444 54.686 68.0788 53.9603C68.5243 54.7733 68.7586 55.6758 69.1581 56.5094C69.227 56.5094 69.3671 56.5048 69.436 56.5025C69.8609 55.5908 70.1204 54.6079 70.5865 53.7146C70.6049 54.5344 70.6049 55.3543 70.5888 56.1741C70.4533 56.2706 70.1847 56.4658 70.0492 56.5622C70.7174 56.5806 71.3857 56.5806 72.054 56.5783C71.9323 56.4497 71.6865 56.1925 71.5648 56.0639C71.4799 55.1499 71.4615 54.229 71.4776 53.3127C71.6131 53.1933 71.884 52.9522 72.0195 52.8328C71.5143 52.8305 71.0114 52.8305 70.5062 52.8282C70.2214 53.5653 69.9412 54.3048 69.6611 55.0443C69.2431 54.3461 68.9446 53.5883 68.6346 52.8397C68.1431 52.8282 67.654 52.8305 67.1648 52.8328ZM72.3112 52.8305C72.426 52.9637 72.6579 53.2301 72.7728 53.3656C72.8302 54.2612 72.8325 55.1683 72.7705 56.0662C72.6465 56.1925 72.3961 56.4474 72.2721 56.576C72.9565 56.5783 73.6408 56.576 74.3275 56.5806C74.2012 56.4543 73.9486 56.204 73.8222 56.0777C73.7534 55.1706 73.7579 54.2543 73.8177 53.3472C73.944 53.2163 74.1943 52.9591 74.3183 52.8282C73.65 52.8282 72.9794 52.8282 72.3112 52.8305ZM74.417 52.8443C74.6398 52.9981 74.8465 53.1726 75.0348 53.3678C75.1358 54.1165 75.0968 54.8766 75.0738 55.6299C75.1335 56.0524 74.8901 56.3509 74.5158 56.5186C75.0761 56.615 75.6502 56.6104 76.2037 56.4772C76.0314 56.4152 75.687 56.2912 75.5124 56.2269C75.4275 55.476 75.4183 54.7182 75.4527 53.9626C75.9832 54.5413 76.4517 55.1752 76.9316 55.7998C77.2394 56.1787 77.5081 56.6954 78.073 56.6816C78.0982 55.6299 78.0339 54.5758 78.1166 53.5263C78.0868 53.1681 78.4863 53.0509 78.6838 52.8305C78.1281 52.8282 77.5747 52.8305 77.0235 52.842C77.2371 52.9889 77.4461 53.1428 77.6527 53.3035C77.7584 53.9328 77.7193 54.5781 77.7377 55.2142C77.0625 54.4311 76.4379 53.6044 75.7696 52.8144C75.3172 52.8259 74.8671 52.8328 74.417 52.8443ZM78.4106 56.5783C78.9319 56.5806 79.4532 56.5737 79.9745 56.5576C79.8367 56.4704 79.5611 56.2912 79.421 56.2017C79.5014 55.9514 79.5818 55.701 79.6598 55.4507C79.9721 55.4438 80.2845 55.4393 80.5968 55.4324C80.6864 55.6965 80.7713 55.9605 80.8609 56.2269C80.7415 56.3096 80.5003 56.475 80.3786 56.5576C81.0515 56.5852 81.7266 56.5806 82.4018 56.5737C82.1722 56.3441 81.8667 56.1672 81.7588 55.8457C81.3317 54.833 81.0469 53.7674 80.6037 52.7616L80.3304 52.7845C79.522 53.9534 79.5542 55.6345 78.4106 56.5783ZM69.746 59.6234C69.7346 60.0505 69.7254 60.4777 69.7231 60.9048C69.9803 60.4432 70.288 60.0092 70.8667 59.9885C70.8943 61.0196 70.8943 62.053 70.8598 63.0841C70.7083 63.1783 70.4051 63.3689 70.2536 63.4654C71.0137 63.5159 71.7761 63.5159 72.5362 63.4608C72.3755 63.3666 72.0517 63.1829 71.8886 63.091C71.8542 62.0553 71.8519 61.0196 71.8863 59.9862C72.4536 59.9977 72.7521 60.4593 73.0392 60.8795C73.0415 60.4754 73.0254 60.0712 72.9932 59.667C71.9162 59.7566 70.8139 59.8484 69.746 59.6234ZM73.3446 59.7635C73.5283 59.9082 73.7143 60.0528 73.9026 60.1952C73.8843 61.1322 73.96 62.0714 73.8659 63.0061C73.7465 63.1278 73.5076 63.3689 73.3882 63.4906C74.0703 63.5021 74.7523 63.5067 75.4367 63.4722C75.3035 63.3735 75.0371 63.1714 74.9039 63.0704C74.8901 62.1885 74.8534 61.3044 74.9039 60.4249C74.8648 60.085 75.246 59.9633 75.4229 59.7451C74.7293 59.7474 74.0358 59.7428 73.3446 59.7635ZM76.7686 59.9288C75.7582 60.5052 75.501 62.0232 76.2404 62.9142C76.911 63.7432 78.282 63.8006 79.0628 63.0956C79.8803 62.3401 79.901 60.8635 79.0582 60.1194C78.4427 59.5706 77.4736 59.5407 76.7686 59.9288ZM68.8091 66.6597C69.1053 66.8986 69.5026 67.1259 69.3763 67.5783C69.2707 68.5336 69.5164 69.6589 68.8183 70.4328C69.3166 70.4213 69.8287 70.4673 70.3133 70.318C69.2339 70.0769 69.8218 68.7128 69.7575 67.9457C70.2765 68.738 70.4488 69.6956 70.9172 70.5155C71.5442 69.5923 71.7692 68.4739 72.2331 67.4704C72.1045 68.4395 72.6832 69.7209 71.7761 70.4213C72.4306 70.4213 73.0828 70.4167 73.735 70.4075C73.6156 70.3042 73.3744 70.1021 73.255 70.0011C73.0943 69.0412 73.1609 68.056 73.1218 67.0846C73.3193 66.9445 73.5168 66.8044 73.7166 66.6666C73.193 66.6666 72.6717 66.6689 72.1504 66.6804C71.8726 67.4336 71.5809 68.1823 71.303 68.9332C70.9218 68.1892 70.6118 67.413 70.2559 66.6574C69.7736 66.6666 69.2913 66.6666 68.8091 66.6597ZM73.9164 66.6643C74.0473 66.7746 74.3091 66.9904 74.4423 67.1007C74.4538 68.0307 74.5043 68.9631 74.4308 69.8931C74.2838 70.0194 73.9922 70.2721 73.8452 70.3984C74.874 70.4282 75.9051 70.4259 76.9362 70.4098C76.9982 70.0286 77.0557 69.6474 77.1039 69.2685C76.8605 69.5211 76.6492 69.8013 76.4058 70.0516C76.0957 70.0929 75.7834 70.1136 75.4734 70.1113C75.4481 69.5992 75.439 69.0848 75.439 68.5704C75.9396 68.5589 76.2817 68.8712 76.5389 69.2593C76.5527 68.7541 76.5596 68.2489 76.5504 67.746C76.2657 68.0904 75.9143 68.3338 75.4504 68.3499C75.4389 67.8906 75.4367 67.4336 75.4321 66.9789C76.0705 66.8297 76.4838 67.2338 76.803 67.7276C76.7985 67.3785 76.7939 67.0318 76.7916 66.6873C75.8316 66.6574 74.874 66.6689 73.9164 66.6643ZM77.0832 70.4144C77.5724 70.419 78.0615 70.419 78.5506 70.4121C78.3945 70.2721 78.2383 70.1366 78.0799 70.0034C78.158 69.7599 78.2337 69.5211 78.3141 69.28C78.631 69.2823 78.9525 69.2846 79.2717 69.2869C79.46 69.6865 79.4853 70.0929 79.1753 70.4397C79.8022 70.4213 80.4314 70.4144 81.0607 70.3892C80.7966 70.1641 80.4728 69.9689 80.374 69.613C79.9561 68.5773 79.6369 67.5025 79.1959 66.476C78.0799 67.5232 78.2911 69.4109 77.0832 70.4144Z" fill="#002147"/>
<path d="M33.9744 50.4032C34.5715 49.5375 36.039 49.5099 36.5924 50.4331C36.9621 51.2047 37.906 51.1863 38.6064 51.4504C38.6041 51.2437 38.6018 50.8327 38.5995 50.626C39.2012 50.6237 39.8051 50.6237 40.4091 50.6237C40.416 59.8394 40.4068 69.0573 40.4137 78.2753C47.078 78.2684 53.7423 78.2753 60.4066 78.273C60.7121 79.0515 61.1071 79.9127 61.9659 80.202C63.1348 80.5993 64.4576 80.5993 65.6288 80.2112C66.5014 79.9334 66.9148 79.063 67.2202 78.273C73.9052 78.2615 80.5925 78.2937 87.2775 78.2569C87.2545 69.0459 87.2729 59.8348 87.2683 50.6237C87.8699 50.6237 88.4716 50.6237 89.0733 50.6214C89.0802 60.441 89.0756 70.2607 89.0756 80.0803C82.161 80.0849 75.2463 80.0711 68.3317 80.0849C67.2133 82.0622 64.7079 82.5536 62.625 82.2137C61.254 82.0599 60.0025 81.263 59.2883 80.0826C52.3966 80.0803 45.5072 80.0688 38.6156 80.0895C38.5995 79.4327 38.6018 78.7782 38.6018 78.1215C38.0484 78.3465 37.4972 78.5807 36.9598 78.8402C36.7026 79.644 35.9563 80.3467 35.0584 80.1791C33.9216 80.0597 33.2465 78.6198 33.901 77.6759C34.3786 76.863 35.458 76.7436 36.2456 77.15C37.0356 76.8217 37.8256 76.4864 38.6064 76.135C38.6018 75.4162 38.6018 74.6997 38.6018 73.9855C38.0667 74.1463 37.5339 74.3093 37.0058 74.4862C36.6774 75.2164 35.9356 75.8365 35.0882 75.6413C33.9033 75.4828 33.3062 73.8983 34.0962 72.9981C34.6496 72.2494 35.7381 72.2379 36.4661 72.7363C37.1803 72.5319 37.8876 72.3137 38.5995 72.1001C38.6041 71.3584 38.6018 70.6166 38.6041 69.8749C38.0598 69.9644 37.5156 70.054 36.9736 70.1505C36.5694 70.7659 35.8828 71.3033 35.0997 71.1104C33.9124 70.9381 33.3406 69.3444 34.1398 68.4534C34.7552 67.6496 35.954 67.7277 36.6636 68.3569C37.3112 68.2559 37.9565 68.1434 38.6018 68.0308C38.6018 67.2753 38.6018 66.5175 38.6041 65.7619C38.0346 65.7803 37.4674 65.801 36.9001 65.8285C36.2962 66.6621 34.9803 66.9216 34.2523 66.1041C33.3544 65.2475 33.8826 63.5573 35.1066 63.3621C35.7932 63.1669 36.3605 63.6446 36.8932 63.9937C37.4628 64.0189 38.0323 63.9684 38.6018 63.95C38.6018 63.1302 38.6018 62.3127 38.6064 61.4951C38.0001 61.4607 37.3939 61.4331 36.7876 61.417C36.3329 61.8465 35.7358 62.2277 35.079 62.0532C34.0135 61.874 33.4049 60.526 33.9928 59.6143C34.4659 58.7279 35.7978 58.5143 36.5005 59.2515C37.0333 59.844 37.8991 59.5776 38.6018 59.6763C38.6018 58.9208 38.6018 58.1676 38.6041 57.4166C37.9381 57.2926 37.2767 57.1663 36.6085 57.0653C36.1124 57.4212 35.4878 57.7152 34.8747 57.4786C33.8757 57.1939 33.4026 55.8757 33.9997 55.026C34.5233 54.1442 35.9287 53.9926 36.5717 54.8193C37.0104 55.5174 37.9014 55.4003 38.6041 55.568C38.6018 54.8262 38.6018 54.0845 38.5995 53.3404C37.883 53.1406 37.1849 52.8765 36.4592 52.7158C35.9012 52.8375 35.3385 53.2026 34.7552 52.9431C33.731 52.6285 33.2993 51.2392 33.9744 50.4032Z" fill="#002147"/>
<path d="M46.2156 53.1085C47.7244 52.9661 47.9678 55.0949 47.187 55.9974C46.9803 56.2638 46.3235 56.4682 46.2477 55.9997C46.1467 55.0398 46.2179 54.0707 46.2156 53.1085Z" fill="#002147"/>
<path d="M50.7613 53.129C51.3424 52.7983 51.8062 53.5217 51.8774 54.0201C51.9831 54.748 52.1048 55.6804 51.5513 56.2591C50.9474 56.6472 50.4146 55.9169 50.3319 55.3796C50.201 54.6401 50.1092 53.6549 50.7613 53.129Z" fill="#002147"/>
<path d="M79.7354 55.0811C79.8685 54.7252 80.0063 54.3738 80.1487 54.0225C80.2635 54.3876 80.3807 54.755 80.4978 55.1225C80.2429 55.1087 79.988 55.0949 79.7354 55.0811Z" fill="#002147"/>
<path d="M110.334 56.0985C113.985 55.8138 117.632 55.4762 121.288 55.2167C121.407 57.233 121.61 59.2447 121.761 61.2587C121.261 61.3 120.762 61.339 120.264 61.3804C120.147 59.9405 120.025 58.5006 119.917 57.0584C118.916 57.1296 117.917 57.233 116.913 57.272C116.964 58.643 117.122 60.0071 117.219 61.3735C116.727 61.4102 116.238 61.4516 115.751 61.486C115.65 60.1288 115.533 58.7739 115.423 57.419C113.772 57.5682 112.121 57.6946 110.467 57.8163C110.424 57.2421 110.38 56.6703 110.334 56.0985Z" fill="#002147"/>
<path d="M6.21704 55.4142C9.83166 56.8587 13.4325 58.3399 17.0425 59.7981C17.0219 60.4021 16.9966 61.0061 16.969 61.6123C13.2672 62.7284 9.56068 63.8307 5.85191 64.9261C5.8542 64.3244 5.8565 63.7228 5.84961 63.1234C8.82122 62.2668 11.8066 61.4608 14.7782 60.6065C11.9651 59.3549 9.03479 58.372 6.17571 57.2215C6.18948 56.6198 6.20326 56.0159 6.21704 55.4142Z" fill="#002147"/>
<path d="M77.4168 60.0345C77.7635 59.837 78.1631 60.0804 78.3239 60.4019C78.6569 61.0472 78.65 61.8165 78.5374 62.5193C78.4915 62.9051 78.2297 63.3138 77.7934 63.3001C77.1504 63.1485 76.9598 62.4159 76.9024 61.8464C76.8633 61.2241 76.8633 60.4433 77.4168 60.0345Z" fill="#002147"/>
<path d="M113.496 66.0856C116.171 65.3898 119.513 66.3796 120.776 68.9884C121.731 71.023 121.106 73.7168 119.239 75.0143C116.764 76.6723 113.117 76.1464 111.066 74.0337C109.785 72.6673 109.539 70.5339 110.249 68.8368C110.816 67.4727 112.072 66.4439 113.496 66.0856ZM114.217 67.7299C112.717 67.9251 111.388 69.2065 111.411 70.7658C111.294 72.2264 112.536 73.3631 113.817 73.8017C115.25 74.3276 116.975 74.4402 118.314 73.6065C119.747 72.7385 120.158 70.5591 119.067 69.2639C117.914 67.8838 115.928 67.4842 114.217 67.7299Z" fill="#002147"/>
<path d="M78.3896 68.9586C78.516 68.5797 78.6492 68.2054 78.7823 67.8287C78.9018 68.1962 79.0235 68.5636 79.1498 68.931C78.9592 68.9379 78.5803 68.9517 78.3896 68.9586Z" fill="#002147"/>
<path d="M180.364 68.6577C188.431 67.8172 196.898 70.1619 203.057 75.5241C206.592 78.5577 209.331 82.5099 210.937 86.8847C213.959 95.1542 213.056 104.802 208.436 112.313C205.195 117.632 200.097 121.752 194.264 123.915C185.035 127.35 174.09 126.133 166.043 120.369C160.55 116.488 156.582 110.529 155.123 103.963C153.206 95.4412 155.114 86.0143 160.644 79.18C165.416 73.1656 172.746 69.3834 180.364 68.6577ZM181.041 71.4249C177.992 71.7924 175.038 72.9727 172.618 74.8696C169.58 77.2258 167.41 80.5464 166.002 84.0899C164.073 88.9675 163.439 94.2861 163.712 99.5037C163.942 103.89 164.821 108.299 166.757 112.267C168.388 115.627 170.87 118.64 174.106 120.558C177.638 122.691 181.916 123.385 185.983 122.9C189.152 122.53 192.23 121.288 194.707 119.267C197.702 116.858 199.824 113.512 201.193 109.953C203.133 104.887 203.7 99.3705 203.319 93.9853C203 89.5715 201.999 85.1439 199.902 81.2216C198.145 77.9354 195.518 75.0441 192.188 73.3126C188.796 71.5099 184.83 70.9702 181.041 71.4249Z" fill="#002147"/>
<path d="M358.124 68.6808C366.364 67.7645 375.047 70.1873 381.275 75.7447C384.614 78.6819 387.216 82.4412 388.796 86.5978C392.086 95.2898 390.989 105.566 385.778 113.287C382.023 118.9 376.154 123.008 369.643 124.746C360.634 127.194 350.438 125.456 343.046 119.653C337.275 115.202 333.444 108.373 332.597 101.139C331.547 92.8326 334.037 84.0234 339.764 77.8368C344.465 72.6376 351.17 69.3973 358.124 68.6808ZM359.024 71.4228C356.457 71.7351 353.951 72.6032 351.784 74.0201C348.619 76.0524 346.247 79.1389 344.658 82.5147C342.607 86.8779 341.716 91.7189 341.631 96.5184C341.567 101.504 342.249 106.572 344.228 111.179C345.746 114.72 348.132 117.967 351.368 120.112C354.445 122.184 358.193 123.125 361.883 123.042C365.431 123.001 369 121.952 371.891 119.862C375.162 117.531 377.497 114.086 378.99 110.396C381.047 105.284 381.667 99.6761 381.307 94.2013C381.006 89.7095 380.002 85.1969 377.862 81.208C376.128 77.9677 373.552 75.1178 370.286 73.3794C366.869 71.5307 362.855 70.9635 359.024 71.4228Z" fill="#002147"/>
<path d="M6.5 70.302C10.1215 69.7899 13.7361 69.2273 17.3553 68.7106C17.438 69.2847 17.5207 69.8588 17.6034 70.4329C13.9887 70.9772 10.3741 71.5214 6.75491 72.0381C6.66994 71.4594 6.58497 70.8784 6.5 70.302Z" fill="#002147"/>
<path d="M215.314 69.4086C223.437 69.4109 231.559 69.4063 239.684 69.4109C239.68 70.0838 239.68 70.7566 239.677 71.4295C237.93 71.79 236.182 72.1552 234.432 72.4996C233.991 72.6122 233.468 72.6811 233.192 73.0852C233.084 73.6088 233.461 74.0475 233.72 74.4585C237.927 80.4592 242.109 86.4759 246.321 92.4742C246.479 92.8968 246.863 92.6671 247.005 92.3732C251.325 86.3358 255.656 80.3076 259.966 74.2656C260.332 73.8591 260.527 73.1128 259.842 72.9176C258.001 72.2792 256.067 71.9232 254.182 71.4272C254.177 70.7543 254.177 70.0815 254.177 69.4086C260.706 69.4063 267.235 69.4086 273.766 69.4086C273.764 70.0838 273.764 70.7589 273.759 71.4364C271.568 72.0426 269.304 72.4032 267.168 73.1932C265.303 73.8844 264.137 75.5562 262.97 77.0604C258.136 83.1483 253.3 89.2339 248.473 95.3264C254.228 102.896 259.969 110.474 265.719 118.048C266.647 119.396 267.779 120.693 269.361 121.267C271.247 121.956 273.228 122.33 275.153 122.893C275.153 123.559 275.153 124.227 275.164 124.896C267.04 124.923 258.912 124.898 250.79 124.907C250.788 124.239 250.787 123.571 250.783 122.905C252.829 122.425 254.93 122.158 256.947 121.563C257.665 121.329 257.289 120.516 256.963 120.103C252.971 114.46 248.962 108.832 244.961 103.196C244.282 102.269 243.666 101.293 242.922 100.415C238.621 106.168 234.485 112.051 230.248 117.855C229.619 118.789 228.847 119.634 228.333 120.638C228.115 121.235 228.879 121.458 229.3 121.602C231.006 122.066 232.735 122.436 234.444 122.895C234.446 123.568 234.446 124.243 234.418 124.916C227.899 124.898 221.381 124.905 214.864 124.912C214.855 124.239 214.855 123.566 214.859 122.893C216.704 122.441 218.55 121.997 220.382 121.499C221.848 121.1 223.212 120.293 224.178 119.108C229.821 112.072 235.415 104.992 241.069 97.965C235.893 91.0229 230.65 84.1312 225.446 77.2074C224.291 75.7124 223.267 73.9487 221.437 73.1932C219.466 72.3963 217.358 72.0082 215.319 71.4272C215.312 70.7543 215.312 70.0815 215.314 69.4086Z" fill="#002147"/>
<path d="M282.706 69.4131C296.689 69.4017 310.672 69.4108 324.658 69.4086C324.655 74.0382 324.655 78.6656 324.658 83.2929C323.882 83.2952 323.11 83.2952 322.338 83.2929C321.459 80.4798 320.572 77.6689 319.69 74.858C319.415 74.0015 319.054 73.0967 318.297 72.5547C317.617 72.0701 316.746 72.0334 315.943 72.038C310.259 72.0564 304.573 72.0196 298.889 72.0564C298.912 80.0136 298.891 87.9685 298.898 95.9234C302.899 95.9257 306.899 95.9234 310.902 95.9257C312.059 95.9028 313.336 96.0681 314.367 95.4113C315.263 94.8418 315.674 93.8038 315.959 92.8278C316.39 91.3443 316.818 89.8585 317.256 88.375C318.019 88.3796 318.783 88.3796 319.55 88.3635C319.596 94.5318 319.555 100.7 319.571 106.868C318.799 106.871 318.03 106.871 317.263 106.878C316.781 105.033 316.335 103.18 315.865 101.334C315.66 100.528 315.309 99.7057 314.618 99.2005C313.89 98.6378 312.934 98.5483 312.048 98.5437C307.664 98.5414 303.282 98.5437 298.898 98.5437C298.903 105.357 298.889 112.171 298.905 118.984C298.827 120.036 299.479 121.093 300.538 121.331C302.857 121.896 305.204 122.353 307.531 122.893C307.531 123.554 307.533 124.218 307.556 124.884C299.275 124.937 290.992 124.891 282.711 124.907C282.708 124.234 282.708 123.564 282.708 122.895C284.454 122.482 286.194 122.055 287.937 121.635C288.743 121.414 289.637 121.221 290.227 120.578C290.714 120.032 290.725 119.251 290.734 118.557C290.725 104.17 290.741 89.7804 290.728 75.3908C290.819 74.3367 290.156 73.3332 289.134 73.0484C287.021 72.4008 284.846 71.9714 282.708 71.418C282.708 70.7497 282.708 70.0814 282.706 69.4131Z" fill="#002147"/>
<path d="M396.979 69.4087C404.188 69.4087 411.399 69.4087 418.607 69.4087C422.991 69.411 427.474 69.3421 431.718 70.6074C435.916 71.8245 439.45 75.0534 441.094 79.0951C442.626 82.7212 442.518 87.034 440.623 90.5062C438.697 94.1369 435.149 96.6584 431.344 98.0271C430.39 98.406 429.364 98.5622 428.434 98.9939C430.407 100.048 431.748 101.881 433.128 103.58C437.179 108.738 441.083 114.008 445.049 119.233C445.958 120.438 447.288 121.322 448.774 121.63C450.687 122.037 452.593 122.473 454.503 122.891C454.501 123.557 454.503 124.225 454.517 124.893C449.965 124.914 445.414 124.919 440.865 124.891C439.374 124.886 438.341 123.667 437.537 122.567C433.227 116.546 428.923 110.522 424.619 104.496C423.324 102.758 421.891 100.801 419.643 100.314C417.517 99.8918 415.333 100.172 413.183 100.082C413.167 106.398 413.169 112.713 413.181 119.028C413.112 120.091 413.805 121.127 414.871 121.348C417.174 121.901 419.501 122.363 421.811 122.893C421.809 123.566 421.809 124.239 421.804 124.912C413.534 124.905 405.265 124.9 396.995 124.914C396.975 124.239 396.975 123.566 396.982 122.893C399.124 122.342 401.308 121.933 403.421 121.267C404.404 120.987 405.058 120.032 404.992 119.014C405.008 104.471 405.001 89.9229 404.996 75.3794C405.072 74.3392 404.438 73.3333 403.416 73.0508C401.301 72.4055 399.124 71.9715 396.982 71.4227C396.977 70.7498 396.977 70.0792 396.979 69.4087ZM413.174 72.0427C413.185 80.5235 413.149 89.0043 413.192 97.4851C415.606 97.4461 418.019 97.4943 420.433 97.4599C422.828 97.4208 425.283 97.0465 427.419 95.9052C429.075 95.0302 430.464 93.6569 431.327 91.9897C432.538 89.7185 432.903 87.1006 432.914 84.5538C432.928 81.7935 432.175 78.9757 430.498 76.755C428.567 74.1623 425.483 72.5502 422.289 72.2218C419.26 71.9049 416.21 72.0932 413.174 72.0427Z" fill="#002147"/>
<path d="M458.975 69.4087C466.028 69.4087 473.082 69.4087 480.137 69.4087C485.364 69.4156 490.657 69.2709 495.797 70.4053C500.024 71.2734 504.062 73.1473 507.346 75.9651C512.942 80.6866 516.063 87.8837 516.564 95.1083C517.034 102.113 515.583 109.528 511.21 115.168C508.655 118.472 505.152 120.992 501.29 122.551C497.191 124.147 492.763 124.641 488.397 124.843C478.596 124.99 468.79 124.857 458.989 124.916C458.968 124.239 458.966 123.566 458.978 122.891C461.058 122.374 463.162 121.924 465.226 121.336C466.28 121.084 467.075 120.119 466.988 119.014C467.008 104.618 466.988 90.2215 466.999 75.8227C466.995 75.0924 466.988 74.2588 466.453 73.6962C465.89 73.1221 465.079 72.9246 464.333 72.7248C462.544 72.2999 460.764 71.8475 458.975 71.4273C458.971 70.7544 458.971 70.0815 458.975 69.4087ZM475.172 72.0404C475.172 87.9296 475.175 103.819 475.172 119.708C475.195 120.385 475.151 121.152 475.59 121.722C476.088 122.291 476.917 122.259 477.616 122.289C480.371 122.278 483.127 122.31 485.885 122.266C489.403 122.165 493 121.828 496.279 120.452C499.666 119.049 502.342 116.27 504.085 113.09C506.161 109.28 507.029 104.933 507.306 100.636C507.561 96.2152 507.304 91.7279 506.181 87.4336C505.207 83.7523 503.499 80.1905 500.828 77.4394C498.546 75.058 495.546 73.3793 492.299 72.7684C486.659 71.6569 480.879 72.1621 475.172 72.0404Z" fill="#002147"/>
<path d="M8.05176 78.5463C11.5125 77.3614 14.9572 76.1305 18.4111 74.9271C18.6086 75.4461 18.7992 75.9697 18.9875 76.4956C16.9804 78.9184 15.0169 81.3779 12.9914 83.7846C15.5061 82.7603 18.0367 81.7545 20.5743 80.7785C20.7443 81.2883 20.9257 81.7912 21.1094 82.2964C17.7152 83.6353 14.2866 84.8869 10.8994 86.2464C10.6697 85.7228 10.4699 85.1877 10.2931 84.6457C12.2864 82.2528 14.2522 79.8346 16.2363 77.4326C13.685 78.2937 11.1543 79.2169 8.6052 80.085C8.41919 79.5729 8.23318 79.0584 8.05176 78.5463Z" fill="#002147"/>
<path d="M108.116 78.4728C111.445 79.954 114.764 81.4651 118.087 82.9646C117.393 84.4344 116.922 86.0396 115.921 87.3417C114.631 88.9308 111.783 88.3636 110.979 86.5563C110.796 86.1475 110.786 85.6951 110.745 85.2588C108.878 85.826 106.887 85.4701 104.965 85.5757C105.206 85.0223 105.449 84.4711 105.674 83.9131C107.107 83.8029 108.552 83.9751 109.98 83.8028C110.936 83.6949 111.234 82.6523 111.56 81.906C110.169 81.3043 108.8 80.659 107.415 80.0481C107.649 79.5246 107.881 78.9987 108.116 78.4728ZM112.141 85.0223C112.215 86.2417 113.871 87.0156 114.824 86.2348C115.444 85.6148 115.689 84.7398 116.08 83.9751C115.039 83.4446 113.958 83.006 112.899 82.5191C112.575 83.3229 112.093 84.1244 112.141 85.0223Z" fill="#002147"/>
<path d="M61.7042 87.5484C62.3334 86.7125 62.8639 85.7985 63.5506 85.0085C64.1362 84.8271 64.3428 85.4563 64.6368 85.8145C65.56 87.1901 66.5957 88.4899 67.4729 89.893C67.2088 90.4304 66.3201 90.187 65.8218 90.4672C66.5681 91.5603 67.2364 92.7131 68.0998 93.7212C69.1011 92.8647 70.1299 92.0402 71.1036 91.1538C70.665 90.8622 70.1827 90.644 69.7074 90.4235C70.6351 89.4292 71.8959 88.8229 72.9568 87.9847C73.469 87.6953 73.9007 87.0937 74.5368 87.1442C73.8203 89.9252 72.7502 92.6166 71.9372 95.3747C69.3101 94.5388 66.5291 94.3918 63.794 94.3619C61.0474 94.3918 58.2595 94.5342 55.6255 95.3747C54.8125 92.8004 53.9468 90.2398 53.1132 87.6724C52.9409 87.4244 53.0764 86.887 53.4416 87.1809C55.0009 88.2052 56.5716 89.2225 58.0666 90.3409C57.5913 90.6164 57.1067 90.8736 56.6359 91.1561C57.5729 92.0242 58.5259 92.8738 59.4744 93.7281C60.3057 92.697 61.0061 91.5695 61.7295 90.4672C61.176 90.288 60.5996 90.1893 60.0278 90.0997C60.4412 89.1605 61.1439 88.3981 61.7042 87.5484Z" fill="#002147"/>
<path d="M19.8849 88.189C20.8723 87.53 22.1055 87.0087 23.2905 87.4519C25.1644 88.1408 26.4504 90.1801 26.3126 92.1665C26.2323 93.3354 25.2861 94.169 24.4066 94.8189C22.489 96.2014 20.5669 97.5746 18.631 98.9296C18.3049 98.445 17.9742 97.965 17.6412 97.4874C19.4439 96.2174 21.2329 94.9291 23.0333 93.6546C23.6625 93.1746 24.4571 92.7176 24.65 91.8886C24.8567 90.4947 23.6924 88.9262 22.2181 88.9951C21.6554 89.0571 21.1801 89.3947 20.7139 89.6863C18.7895 90.9953 16.8627 92.302 14.936 93.6041C14.6076 93.1333 14.2792 92.6602 13.9531 92.1895C15.9327 90.8621 17.8915 89.498 19.8849 88.189Z" fill="#002147"/>
<path d="M100.717 91.666C101.496 90.5637 102.362 89.528 103.204 88.4762C106.054 90.7612 108.916 93.0347 111.768 95.3196C110.583 96.7297 109.568 98.3211 108.096 99.4555C106.677 100.574 104.624 100.562 103.053 99.7725C101.363 98.9182 99.9434 97.3153 99.6885 95.3931C99.4818 94.0658 99.9664 92.7407 100.717 91.666ZM101.503 93.3102C100.954 94.4516 101.301 95.8386 102.104 96.7687C103.108 97.9606 104.651 98.9595 106.275 98.5967C107.77 98.2637 108.587 96.8445 109.536 95.7789C107.462 94.1071 105.395 92.4238 103.287 90.8002C102.58 91.5443 101.953 92.3848 101.503 93.3102Z" fill="#002147"/>
<path d="M60.3821 96.3277C63.2871 96.0843 66.2358 96.0958 69.1132 96.5987C69.8366 96.7617 70.6289 96.8743 71.2214 97.3542C71.5727 97.6252 71.1754 98.0018 70.8999 98.1144C69.6873 98.6655 68.337 98.7872 67.028 98.9296C64.1552 99.1615 61.241 99.1409 58.3957 98.6403C57.6631 98.468 56.8456 98.3532 56.2692 97.8273C56.0441 97.4484 56.4919 97.2027 56.7767 97.0741C57.918 96.601 59.1627 96.4632 60.3821 96.3277Z" fill="#002147"/>
<path d="M56.3303 115.498C57.2397 114.938 58.5395 115.65 58.5716 116.711C58.6933 117.823 57.3729 118.709 56.3946 118.16C55.329 117.692 55.29 116.017 56.3303 115.498Z" fill="#002147"/>
<path d="M71.6862 117.981C72.6898 117.411 74.0424 118.348 73.8702 119.485C73.7967 120.597 72.3476 121.237 71.4795 120.535C70.5793 119.935 70.7056 118.426 71.6862 117.981Z" fill="#002147"/>
</svg>
