<svg width="800" height="400" viewBox="0 0 800 400" fill="none" xmlns="http://www.w3.org/2000/svg">
<path d="M241.863 140.69H280.203C294.423 140.69 303.7 141.32 311.733 150.102C317.298 156.38 320.388 163.91 320.388 172.7C320.388 181.483 317.298 189.02 311.118 195.29C304.93 201.567 296.898 205.34 276.49 205.34H257.95V257.427H241.87L241.863 140.69ZM257.943 192.155H276.49C287.005 192.155 303.078 191.525 303.078 172.07C303.078 153.867 288.235 153.867 279.58 153.867H257.95L257.943 192.155ZM371.71 257.427C370.473 253.662 370.473 249.267 370.473 245.502C363.048 258.68 352.548 259.94 345.738 259.94C327.19 259.94 317.298 249.268 317.298 236.09C317.298 229.813 319.773 219.14 331.518 212.24C340.173 207.215 352.54 207.215 359.343 207.215C363.055 207.215 365.523 207.215 369.858 207.845C369.858 197.802 369.858 193.408 366.76 189.643C363.67 185.878 357.49 184.617 353.163 184.617C338.32 184.617 337.083 195.298 337.083 198.433H322.248C322.863 194.038 323.485 188.39 327.813 183.372C333.993 176.472 345.123 174.583 353.778 174.583C365.523 174.583 377.89 178.348 382.218 186.508C384.693 191.533 384.693 195.298 384.693 199.062L384.078 237.972C384.078 239.225 384.078 249.897 385.315 258.057H371.71V257.427ZM361.195 217.25C355.015 217.25 332.14 217.25 332.14 233.57C332.14 238.595 335.23 247.377 348.835 247.377C356.253 247.377 362.433 244.243 366.145 238.588C369.235 232.94 369.858 228.553 369.858 217.25C367.383 217.88 364.908 217.25 361.195 217.25ZM397.675 140.69H412.518V257.427H397.675V140.69ZM476.823 257.427C475.585 253.662 475.585 249.267 475.585 245.502C468.16 258.68 457.66 259.94 450.85 259.94C432.303 259.94 422.41 249.268 422.41 236.09C422.41 229.813 424.885 219.14 436.63 212.24C445.285 207.215 457.653 207.215 464.455 207.215C468.168 207.215 470.635 207.215 474.97 207.845C474.97 197.802 474.97 193.408 471.873 189.643C468.783 185.878 462.603 184.617 458.275 184.617C443.433 184.617 442.195 195.298 442.195 198.433H427.36C427.975 194.038 428.59 188.39 432.925 183.372C439.105 176.472 450.235 174.583 458.89 174.583C470.635 174.583 483.003 178.348 487.33 186.508C489.805 191.533 489.805 195.298 489.805 199.062L489.19 237.972C489.19 239.225 489.19 249.897 490.428 258.057H476.823V257.427ZM466.923 217.257C460.743 217.257 437.868 217.258 437.868 233.578C437.868 238.603 440.958 247.385 454.563 247.385C461.988 247.385 468.168 244.25 471.873 238.595C474.97 232.947 475.585 228.56 475.585 217.257C472.495 217.887 470.628 217.257 466.923 217.257ZM503.41 185.877V176.465H518.245V189.643C520.105 186.508 525.67 175.213 543.595 175.213C551.02 175.213 572.658 177.717 572.658 202.827V258.057H557.2V206.592C557.2 201.567 556.585 196.543 552.873 192.785C549.16 189.02 543.595 187.137 538.653 187.137C527.523 187.137 517.63 195.29 517.63 211.61V258.057H502.788V185.877H503.41ZM577.608 176.465H591.828V158.893L606.663 153.867V175.842H624.595V187.137H606.67V235.46C606.67 239.225 606.67 246.132 617.17 246.132C620.268 246.132 623.358 245.502 624.595 245.502V257.427C622.12 258.057 617.793 258.68 612.228 258.68C598.008 258.68 591.828 254.285 591.828 241.107V187.13H577.6L577.608 176.465ZM635.103 140.69H653.035V157.64H635.11L635.103 140.69ZM636.34 176.465H651.183V257.427H636.34V176.465ZM665.403 192.785C665.403 187.138 664.788 181.483 664.788 176.465H679.623L680.245 192.155C683.335 180.86 692.605 177.095 699.408 176.465C702.892 175.992 706.407 175.782 709.923 175.835V190.902C709.3 190.902 708.063 190.273 706.833 190.273H702.498C684.573 190.273 680.86 200.937 680.86 214.745V258.05H666.025V192.777H665.403V192.785ZM149.74 125C118.825 125 93.475 150.732 93.475 182.112C93.475 213.492 118.825 239.225 149.74 239.225C180.655 239.225 206.005 213.5 206.005 182.112C206.005 150.732 180.655 125 149.74 125ZM149.74 221.653C128.095 221.653 110.785 204.08 110.785 182.112C110.785 160.145 128.095 142.572 149.74 142.572C171.378 142.572 188.695 160.145 188.695 182.112C188.073 204.08 170.763 221.653 149.74 221.653ZM199.818 234.207L149.74 256.168L99.655 234.207L91 249.897L149.74 275L208.48 249.897L199.818 234.207Z" fill="black"/>
</svg>
