<svg width="800" height="400" viewBox="0 0 800 400" fill="none" xmlns="http://www.w3.org/2000/svg">
  <rect x="120" y="130" width="10" height="10" fill="#000000"/>
  <rect x="130" y="130" width="10" height="10" fill="#000000"/>
  <rect x="140" y="130" width="10" height="10" fill="#000000"/>
  <rect x="150" y="130" width="10" height="10" fill="#000000"/>
  <rect x="160" y="130" width="10" height="10" fill="#000000"/>
  <rect x="170" y="130" width="10" height="10" fill="#000000"/>
  <rect x="110" y="140" width="10" height="10" fill="#000000"/>
  <rect x="120" y="140" width="10" height="10" fill="#000000"/>
  <rect x="130" y="140" width="10" height="10" fill="#000000"/>
  <rect x="160" y="140" width="10" height="10" fill="#000000"/>
  <rect x="170" y="140" width="10" height="10" fill="#000000"/>
  <rect x="180" y="140" width="10" height="10" fill="#000000"/>
  <rect x="240" y="140" width="10" height="10" fill="#000000"/>
  <rect x="250" y="140" width="10" height="10" fill="#000000"/>
  <rect x="260" y="140" width="10" height="10" fill="#000000"/>
  <rect x="270" y="140" width="10" height="10" fill="#000000"/>
  <rect x="280" y="140" width="10" height="10" fill="#000000"/>
  <rect x="290" y="140" width="10" height="10" fill="#000000"/>
  <rect x="400" y="140" width="10" height="10" fill="#000000"/>
  <rect x="640" y="140" width="10" height="10" fill="#000000"/>
  <rect x="100" y="150" width="10" height="10" fill="#000000"/>
  <rect x="110" y="150" width="10" height="10" fill="#000000"/>
  <rect x="180" y="150" width="10" height="10" fill="#000000"/>
  <rect x="190" y="150" width="10" height="10" fill="#000000"/>
  <rect x="240" y="150" width="10" height="10" fill="#000000"/>
  <rect x="250" y="150" width="10" height="10" fill="#000000"/>
  <rect x="290" y="150" width="10" height="10" fill="#000000"/>
  <rect x="300" y="150" width="10" height="10" fill="#000000"/>
  <rect x="400" y="150" width="10" height="10" fill="#000000"/>
  <rect x="640" y="150" width="10" height="10" fill="#000000"/>
  <rect x="100" y="160" width="10" height="10" fill="#000000"/>
  <rect x="110" y="160" width="10" height="10" fill="#000000"/>
  <rect x="180" y="160" width="10" height="10" fill="#000000"/>
  <rect x="190" y="160" width="10" height="10" fill="#000000"/>
  <rect x="240" y="160" width="10" height="10" fill="#000000"/>
  <rect x="250" y="160" width="10" height="10" fill="#000000"/>
  <rect x="300" y="160" width="10" height="10" fill="#000000"/>
  <rect x="310" y="160" width="10" height="10" fill="#000000"/>
  <rect x="400" y="160" width="10" height="10" fill="#000000"/>
  <rect x="590" y="160" width="10" height="10" fill="#000000"/>
  <rect x="600" y="160" width="10" height="10" fill="#000000"/>
  <rect x="90" y="170" width="10" height="10" fill="#000000"/>
  <rect x="100" y="170" width="10" height="10" fill="#000000"/>
  <rect x="190" y="170" width="10" height="10" fill="#000000"/>
  <rect x="200" y="170" width="10" height="10" fill="#000000"/>
  <rect x="240" y="170" width="10" height="10" fill="#000000"/>
  <rect x="250" y="170" width="10" height="10" fill="#000000"/>
  <rect x="300" y="170" width="10" height="10" fill="#000000"/>
  <rect x="310" y="170" width="10" height="10" fill="#000000"/>
  <rect x="350" y="170" width="10" height="10" fill="#000000"/>
  <rect x="400" y="170" width="10" height="10" fill="#000000"/>
  <rect x="590" y="170" width="10" height="10" fill="#000000"/>
  <rect x="600" y="170" width="10" height="10" fill="#000000"/>
  <rect x="90" y="180" width="10" height="10" fill="#000000"/>
  <rect x="100" y="180" width="10" height="10" fill="#000000"/>
  <rect x="190" y="180" width="10" height="10" fill="#000000"/>
  <rect x="200" y="180" width="10" height="10" fill="#000000"/>
  <rect x="240" y="180" width="10" height="10" fill="#000000"/>
  <rect x="250" y="180" width="10" height="10" fill="#000000"/>
  <rect x="300" y="180" width="10" height="10" fill="#000000"/>
  <rect x="310" y="180" width="10" height="10" fill="#000000"/>
  <rect x="330" y="180" width="10" height="10" fill="#000000"/>
  <rect x="340" y="180" width="10" height="10" fill="#000000"/>
  <rect x="350" y="180" width="10" height="10" fill="#000000"/>
  <rect x="360" y="180" width="10" height="10" fill="#000000"/>
  <rect x="370" y="180" width="10" height="10" fill="#000000"/>
  <rect x="400" y="180" width="10" height="10" fill="#000000"/>
  <rect x="430" y="180" width="10" height="10" fill="#000000"/>
  <rect x="440" y="180" width="10" height="10" fill="#000000"/>
  <rect x="450" y="180" width="10" height="10" fill="#000000"/>
  <rect x="460" y="180" width="10" height="10" fill="#000000"/>
  <rect x="470" y="180" width="10" height="10" fill="#000000"/>
  <rect x="480" y="180" width="10" height="10" fill="#000000"/>
  <rect x="500" y="180" width="10" height="10" fill="#000000"/>
  <rect x="510" y="180" width="10" height="10" fill="#000000"/>
  <rect x="520" y="180" width="10" height="10" fill="#000000"/>
  <rect x="530" y="180" width="10" height="10" fill="#000000"/>
  <rect x="540" y="180" width="10" height="10" fill="#000000"/>
  <rect x="550" y="180" width="10" height="10" fill="#000000"/>
  <rect x="560" y="180" width="10" height="10" fill="#000000"/>
  <rect x="580" y="180" width="10" height="10" fill="#000000"/>
  <rect x="590" y="180" width="10" height="10" fill="#000000"/>
  <rect x="600" y="180" width="10" height="10" fill="#000000"/>
  <rect x="610" y="180" width="10" height="10" fill="#000000"/>
  <rect x="640" y="180" width="10" height="10" fill="#000000"/>
  <rect x="670" y="180" width="10" height="10" fill="#000000"/>
  <rect x="680" y="180" width="10" height="10" fill="#000000"/>
  <rect x="690" y="180" width="10" height="10" fill="#000000"/>
  <rect x="700" y="180" width="10" height="10" fill="#000000"/>
  <rect x="100" y="190" width="10" height="10" fill="#000000"/>
  <rect x="190" y="190" width="10" height="10" fill="#000000"/>
  <rect x="240" y="190" width="10" height="10" fill="#000000"/>
  <rect x="250" y="190" width="10" height="10" fill="#000000"/>
  <rect x="260" y="190" width="10" height="10" fill="#000000"/>
  <rect x="270" y="190" width="10" height="10" fill="#000000"/>
  <rect x="280" y="190" width="10" height="10" fill="#000000"/>
  <rect x="290" y="190" width="10" height="10" fill="#000000"/>
  <rect x="300" y="190" width="10" height="10" fill="#000000"/>
  <rect x="320" y="190" width="10" height="10" fill="#000000"/>
  <rect x="330" y="190" width="10" height="10" fill="#000000"/>
  <rect x="370" y="190" width="10" height="10" fill="#000000"/>
  <rect x="400" y="190" width="10" height="10" fill="#000000"/>
  <rect x="430" y="190" width="10" height="10" fill="#000000"/>
  <rect x="470" y="190" width="10" height="10" fill="#000000"/>
  <rect x="480" y="190" width="10" height="10" fill="#000000"/>
  <rect x="500" y="190" width="10" height="10" fill="#000000"/>
  <rect x="510" y="190" width="10" height="10" fill="#000000"/>
  <rect x="550" y="190" width="10" height="10" fill="#000000"/>
  <rect x="560" y="190" width="10" height="10" fill="#000000"/>
  <rect x="590" y="190" width="10" height="10" fill="#000000"/>
  <rect x="600" y="190" width="10" height="10" fill="#000000"/>
  <rect x="640" y="190" width="10" height="10" fill="#000000"/>
  <rect x="670" y="190" width="10" height="10" fill="#000000"/>
  <rect x="680" y="190" width="10" height="10" fill="#000000"/>
  <rect x="100" y="200" width="10" height="10" fill="#000000"/>
  <rect x="110" y="200" width="10" height="10" fill="#000000"/>
  <rect x="180" y="200" width="10" height="10" fill="#000000"/>
  <rect x="190" y="200" width="10" height="10" fill="#000000"/>
  <rect x="240" y="200" width="10" height="10" fill="#000000"/>
  <rect x="250" y="200" width="10" height="10" fill="#000000"/>
  <rect x="260" y="200" width="10" height="10" fill="#000000"/>
  <rect x="270" y="200" width="10" height="10" fill="#000000"/>
  <rect x="370" y="200" width="10" height="10" fill="#000000"/>
  <rect x="400" y="200" width="10" height="10" fill="#000000"/>
  <rect x="470" y="200" width="10" height="10" fill="#000000"/>
  <rect x="480" y="200" width="10" height="10" fill="#000000"/>
  <rect x="500" y="200" width="10" height="10" fill="#000000"/>
  <rect x="510" y="200" width="10" height="10" fill="#000000"/>
  <rect x="560" y="200" width="10" height="10" fill="#000000"/>
  <rect x="590" y="200" width="10" height="10" fill="#000000"/>
  <rect x="600" y="200" width="10" height="10" fill="#000000"/>
  <rect x="640" y="200" width="10" height="10" fill="#000000"/>
  <rect x="670" y="200" width="10" height="10" fill="#000000"/>
  <rect x="100" y="210" width="10" height="10" fill="#000000"/>
  <rect x="110" y="210" width="10" height="10" fill="#000000"/>
  <rect x="120" y="210" width="10" height="10" fill="#000000"/>
  <rect x="170" y="210" width="10" height="10" fill="#000000"/>
  <rect x="180" y="210" width="10" height="10" fill="#000000"/>
  <rect x="190" y="210" width="10" height="10" fill="#000000"/>
  <rect x="240" y="210" width="10" height="10" fill="#000000"/>
  <rect x="250" y="210" width="10" height="10" fill="#000000"/>
  <rect x="330" y="210" width="10" height="10" fill="#000000"/>
  <rect x="340" y="210" width="10" height="10" fill="#000000"/>
  <rect x="350" y="210" width="10" height="10" fill="#000000"/>
  <rect x="360" y="210" width="10" height="10" fill="#000000"/>
  <rect x="370" y="210" width="10" height="10" fill="#000000"/>
  <rect x="400" y="210" width="10" height="10" fill="#000000"/>
  <rect x="430" y="210" width="10" height="10" fill="#000000"/>
  <rect x="440" y="210" width="10" height="10" fill="#000000"/>
  <rect x="450" y="210" width="10" height="10" fill="#000000"/>
  <rect x="460" y="210" width="10" height="10" fill="#000000"/>
  <rect x="470" y="210" width="10" height="10" fill="#000000"/>
  <rect x="480" y="210" width="10" height="10" fill="#000000"/>
  <rect x="500" y="210" width="10" height="10" fill="#000000"/>
  <rect x="510" y="210" width="10" height="10" fill="#000000"/>
  <rect x="560" y="210" width="10" height="10" fill="#000000"/>
  <rect x="590" y="210" width="10" height="10" fill="#000000"/>
  <rect x="600" y="210" width="10" height="10" fill="#000000"/>
  <rect x="640" y="210" width="10" height="10" fill="#000000"/>
  <rect x="670" y="210" width="10" height="10" fill="#000000"/>
  <rect x="110" y="220" width="10" height="10" fill="#000000"/>
  <rect x="120" y="220" width="10" height="10" fill="#000000"/>
  <rect x="130" y="220" width="10" height="10" fill="#000000"/>
  <rect x="140" y="220" width="10" height="10" fill="#000000"/>
  <rect x="150" y="220" width="10" height="10" fill="#000000"/>
  <rect x="160" y="220" width="10" height="10" fill="#000000"/>
  <rect x="170" y="220" width="10" height="10" fill="#000000"/>
  <rect x="180" y="220" width="10" height="10" fill="#000000"/>
  <rect x="240" y="220" width="10" height="10" fill="#000000"/>
  <rect x="250" y="220" width="10" height="10" fill="#000000"/>
  <rect x="320" y="220" width="10" height="10" fill="#000000"/>
  <rect x="330" y="220" width="10" height="10" fill="#000000"/>
  <rect x="370" y="220" width="10" height="10" fill="#000000"/>
  <rect x="400" y="220" width="10" height="10" fill="#000000"/>
  <rect x="430" y="220" width="10" height="10" fill="#000000"/>
  <rect x="480" y="220" width="10" height="10" fill="#000000"/>
  <rect x="500" y="220" width="10" height="10" fill="#000000"/>
  <rect x="510" y="220" width="10" height="10" fill="#000000"/>
  <rect x="560" y="220" width="10" height="10" fill="#000000"/>
  <rect x="590" y="220" width="10" height="10" fill="#000000"/>
  <rect x="600" y="220" width="10" height="10" fill="#000000"/>
  <rect x="640" y="220" width="10" height="10" fill="#000000"/>
  <rect x="670" y="220" width="10" height="10" fill="#000000"/>
  <rect x="130" y="230" width="10" height="10" fill="#000000"/>
  <rect x="140" y="230" width="10" height="10" fill="#000000"/>
  <rect x="150" y="230" width="10" height="10" fill="#000000"/>
  <rect x="160" y="230" width="10" height="10" fill="#000000"/>
  <rect x="240" y="230" width="10" height="10" fill="#000000"/>
  <rect x="250" y="230" width="10" height="10" fill="#000000"/>
  <rect x="320" y="230" width="10" height="10" fill="#000000"/>
  <rect x="370" y="230" width="10" height="10" fill="#000000"/>
  <rect x="400" y="230" width="10" height="10" fill="#000000"/>
  <rect x="420" y="230" width="10" height="10" fill="#000000"/>
  <rect x="430" y="230" width="10" height="10" fill="#000000"/>
  <rect x="470" y="230" width="10" height="10" fill="#000000"/>
  <rect x="480" y="230" width="10" height="10" fill="#000000"/>
  <rect x="500" y="230" width="10" height="10" fill="#000000"/>
  <rect x="510" y="230" width="10" height="10" fill="#000000"/>
  <rect x="560" y="230" width="10" height="10" fill="#000000"/>
  <rect x="590" y="230" width="10" height="10" fill="#000000"/>
  <rect x="600" y="230" width="10" height="10" fill="#000000"/>
  <rect x="640" y="230" width="10" height="10" fill="#000000"/>
  <rect x="670" y="230" width="10" height="10" fill="#000000"/>
  <rect x="90" y="240" width="10" height="10" fill="#000000"/>
  <rect x="100" y="240" width="10" height="10" fill="#000000"/>
  <rect x="110" y="240" width="10" height="10" fill="#000000"/>
  <rect x="180" y="240" width="10" height="10" fill="#000000"/>
  <rect x="190" y="240" width="10" height="10" fill="#000000"/>
  <rect x="200" y="240" width="10" height="10" fill="#000000"/>
  <rect x="240" y="240" width="10" height="10" fill="#000000"/>
  <rect x="250" y="240" width="10" height="10" fill="#000000"/>
  <rect x="320" y="240" width="10" height="10" fill="#000000"/>
  <rect x="330" y="240" width="10" height="10" fill="#000000"/>
  <rect x="360" y="240" width="10" height="10" fill="#000000"/>
  <rect x="370" y="240" width="10" height="10" fill="#000000"/>
  <rect x="400" y="240" width="10" height="10" fill="#000000"/>
  <rect x="420" y="240" width="10" height="10" fill="#000000"/>
  <rect x="430" y="240" width="10" height="10" fill="#000000"/>
  <rect x="440" y="240" width="10" height="10" fill="#000000"/>
  <rect x="460" y="240" width="10" height="10" fill="#000000"/>
  <rect x="470" y="240" width="10" height="10" fill="#000000"/>
  <rect x="480" y="240" width="10" height="10" fill="#000000"/>
  <rect x="500" y="240" width="10" height="10" fill="#000000"/>
  <rect x="510" y="240" width="10" height="10" fill="#000000"/>
  <rect x="560" y="240" width="10" height="10" fill="#000000"/>
  <rect x="590" y="240" width="10" height="10" fill="#000000"/>
  <rect x="600" y="240" width="10" height="10" fill="#000000"/>
  <rect x="640" y="240" width="10" height="10" fill="#000000"/>
  <rect x="670" y="240" width="10" height="10" fill="#000000"/>
  <rect x="100" y="250" width="10" height="10" fill="#000000"/>
  <rect x="110" y="250" width="10" height="10" fill="#000000"/>
  <rect x="120" y="250" width="10" height="10" fill="#000000"/>
  <rect x="130" y="250" width="10" height="10" fill="#000000"/>
  <rect x="140" y="250" width="10" height="10" fill="#000000"/>
  <rect x="150" y="250" width="10" height="10" fill="#000000"/>
  <rect x="160" y="250" width="10" height="10" fill="#000000"/>
  <rect x="170" y="250" width="10" height="10" fill="#000000"/>
  <rect x="180" y="250" width="10" height="10" fill="#000000"/>
  <rect x="190" y="250" width="10" height="10" fill="#000000"/>
  <rect x="240" y="250" width="10" height="10" fill="#000000"/>
  <rect x="250" y="250" width="10" height="10" fill="#000000"/>
  <rect x="330" y="250" width="10" height="10" fill="#000000"/>
  <rect x="340" y="250" width="10" height="10" fill="#000000"/>
  <rect x="350" y="250" width="10" height="10" fill="#000000"/>
  <rect x="370" y="250" width="10" height="10" fill="#000000"/>
  <rect x="400" y="250" width="10" height="10" fill="#000000"/>
  <rect x="430" y="250" width="10" height="10" fill="#000000"/>
  <rect x="440" y="250" width="10" height="10" fill="#000000"/>
  <rect x="450" y="250" width="10" height="10" fill="#000000"/>
  <rect x="460" y="250" width="10" height="10" fill="#000000"/>
  <rect x="480" y="250" width="10" height="10" fill="#000000"/>
  <rect x="500" y="250" width="10" height="10" fill="#000000"/>
  <rect x="510" y="250" width="10" height="10" fill="#000000"/>
  <rect x="560" y="250" width="10" height="10" fill="#000000"/>
  <rect x="600" y="250" width="10" height="10" fill="#000000"/>
  <rect x="610" y="250" width="10" height="10" fill="#000000"/>
  <rect x="640" y="250" width="10" height="10" fill="#000000"/>
  <rect x="670" y="250" width="10" height="10" fill="#000000"/>
  <rect x="130" y="260" width="10" height="10" fill="#000000"/>
  <rect x="140" y="260" width="10" height="10" fill="#000000"/>
  <rect x="150" y="260" width="10" height="10" fill="#000000"/>
  <rect x="160" y="260" width="10" height="10" fill="#000000"/>
</svg>
