<svg width="48" height="48" viewBox="0 0 48 48" fill="none" xmlns="http://www.w3.org/2000/svg">
  <rect width="48" height="48" rx="8" fill="#F3F4F6"/>
  <path d="M24 16C20.6863 16 18 18.6863 18 22C18 25.3137 20.6863 28 24 28C27.3137 28 30 25.3137 30 22C30 18.6863 27.3137 16 24 16ZM24 26C21.7909 26 20 24.2091 20 22C20 19.7909 21.7909 18 24 18C26.2091 18 28 19.7909 28 22C28 24.2091 26.2091 26 24 26Z" fill="#9CA3AF"/>
  <path d="M32 30C32 26.6863 29.3137 24 26 24H22C18.6863 24 16 26.6863 16 30V32H18V30C18 27.7909 19.7909 26 22 26H26C28.2091 26 30 27.7909 30 30V32H32V30Z" fill="#9CA3AF"/>
</svg>