<svg width="247" height="40" viewBox="0 0 247 40" fill="none" xmlns="http://www.w3.org/2000/svg">
<g clip-path="url(#clip0_616_253)">
<path d="M8.225 38.93H0V1.14H6.622L7.667 9.483L19.168 0L23.978 5.633L8.225 18.253V38.93ZM44.304 40C33.013 40 25.276 31.73 25.276 20.178C25.276 7.701 33.29 0 43.607 0C54.063 0 61.033 7.487 61.242 19.75V21.747H33.5C34.057 28.377 38.1 32.87 44.373 32.87C48.625 32.87 51.831 30.73 53.086 26.952H61.101C59.221 35.08 53.017 40 44.304 40ZM33.85 15.829H52.74C51.694 10.41 48.418 7.13 43.608 7.13C38.729 7.13 35.105 10.41 33.85 15.829ZM84.806 40C72.748 40 65.708 31.159 65.708 19.75C65.708 7.344 73.863 0 84.598 0C94.704 0 101.535 6.346 102.232 15.758H94.147C93.38 10.553 89.755 7.201 84.527 7.201C78.254 7.201 74.072 12.05 74.072 19.751C74.072 28.021 78.672 32.799 84.806 32.799C89.825 32.799 93.31 29.519 94.146 24.099H102.232C101.256 33.87 94.633 40 84.806 40ZM121.88 40C113.098 40 108.01 34.367 108.01 26.168V1.14H116.234V25.81C116.234 30.088 119.162 32.584 123.553 32.584C129.199 32.584 132.545 28.804 132.614 23.956V1.141H140.839V38.931H134.217L133.59 33.441C131.429 37.503 127.038 40 121.88 40ZM157.43 38.93H149.206V1.14H155.827L156.873 9.483L168.374 0L173.183 5.633L157.43 18.253V38.93ZM192.842 40C182.735 40 176.741 35.151 176.253 26.88H184.199C184.477 30.945 187.893 33.084 192.423 33.084C196.606 33.084 198.836 31.444 198.836 28.52C198.836 25.597 196.466 25.027 193.26 23.957L188.381 22.317C182.247 20.25 176.95 18.11 176.95 11.123C176.95 4.421 181.968 0 190.82 0C199.394 0 205.249 4.635 206.224 13.19H198.418C198 8.913 195.002 6.916 190.751 6.916C187.126 6.916 185.035 8.485 185.035 11.052C185.035 13.975 188.241 14.759 190.89 15.686L195.351 17.184C202.67 19.679 207.061 21.961 207.061 28.734C207.061 35.722 201.903 40 192.842 40ZM230.062 40C218.771 40 211.034 31.73 211.034 20.178C211.034 7.701 219.05 0 229.365 0C239.821 0 246.791 7.487 247 19.75V21.747H219.259C219.816 28.377 223.859 32.87 230.132 32.87C234.384 32.87 237.59 30.73 238.845 26.952H246.861C244.979 35.08 238.775 40 230.062 40ZM219.607 15.829H238.496C237.451 10.41 234.175 7.13 229.365 7.13C224.486 7.13 220.862 10.41 219.607 15.829Z" fill="black"/>
</g>
<defs>
<clipPath id="clip0_616_253">
<rect width="247" height="40" fill="white"/>
</clipPath>
</defs>
</svg>
