<?xml version="1.0" encoding="UTF-8"?>
<svg id="Ebene_1" data-name="Ebene 1" xmlns="http://www.w3.org/2000/svg" viewBox="0 0 1000 327.13">
  <defs>
    <style>
      .cls-1 {
        fill: #290629;
      }
    </style>
  </defs>
  <g>
    <path class="cls-1" d="M381.91,140.51l-.29-.29c2.47,0,4.29.1,5.43.29v35.45h-7.15c-30.31,0-45.46,18.4-45.46,55.18v55.18h-35.74v-142.96h34.31v42.03h.29c7.24-29.92,23.45-44.89,48.61-44.89Z"/>
    <path class="cls-1" d="M513.78,227.43h36.31c-1.14,18.3-5.92,33.12-19.93,44.46-14.01,11.34-31.4,17.01-52.18,17.01-23.07,0-41.89-7-56.47-21.01-14.58-14.01-21.87-31.98-21.87-53.9s7.19-39.22,21.59-53.04c14.39-13.82,32.92-20.73,55.61-20.73s40.74,6.67,54.18,20.02c13.44,13.34,19.77,31.16,19.01,53.47h-115.8c.19,13.92,4.19,24.92,12.01,33.02,7.81,8.1,18.11,12.15,30.88,12.15,27.24,0,35.89-22.11,36.66-31.45ZM476.26,166.82c-17.73,0-30.12,7.15-37.17,21.44h72.91c-5.91-14.3-17.82-21.44-35.74-21.44Z"/>
    <path class="cls-1" d="M580.63,286.33V80.47h35.74v205.86h-35.74Z"/>
    <path class="cls-1" d="M729.52,258.31s17.63-1.05,25.45-4.29v29.74c-10.1,3.81-22.11,5.72-36.03,5.72-16.4,0-29.02-4.67-37.88-14.01-8.86-9.33-13.3-22.02-13.3-38.03v-64.04h-26.3v-26.59l9.15-.57c13.15-.76,36.31-33.8,36.31-44.03h52.04c0,17.74-50.04,41.17-50.04,41.17h61.76v29.73h-47.46v61.76c0,15.63,8.77,23.45,26.31,23.45Z"/>
    <path class="cls-1" d="M782.7,286.33v-142.96h35.74v142.96h-35.74Z"/>
    <path class="cls-1" d="M1000,286.33h-44.03l-35.17-48.61-35.45,48.61h-42.89l59.47-73.48-56.32-69.48h42.89l32.59,44.6,32.02-44.6h42.89l-55.75,69.19,59.76,73.77Z"/>
    <path class="cls-1" d="M782.7,80.47h35.74c0,19.73-16.01,35.74-35.74,35.74h0v-35.74h0Z"/>
  </g>
  <path class="cls-1" d="M206.07,27.33V7.34c0-4.05-3.28-7.34-7.34-7.34H7.34C3.28,0,0,3.28,0,7.34v62.94c0,4.74,4.42,8.23,9.03,7.14l39.59-9.39c7.48-1.77,12.31,7.69,6.47,12.7L2.56,125.81c-1.62,1.39-2.56,3.43-2.56,5.57v60.21c0,6.27,7.36,9.65,12.11,5.57l39.28-33.71v1.04l21.27,18.22c3.41,2.93,3.42,8.21,0,11.14L2.56,254.01c-1.62,1.39-2.56,3.43-2.56,5.57v60.21c0,6.27,7.36,9.65,12.11,5.57l108.66-93.25c2.75-2.36,6.8-2.36,9.55,0l63.64,54.53c4.76,4.08,12.11.7,12.11-5.57v-60.23c0-2.14-.94-4.18-2.56-5.57l-25.09-21.49c-3.42-2.93-3.42-8.21,0-11.14l25.1-21.53c1.62-1.39,2.56-3.43,2.56-5.57v-60.21c0-6.27-7.35-9.65-12.11-5.57l-63.64,54.62c-2.75,2.36-6.8,2.36-9.55,0l-17.1-14.65c-3.42-2.93-3.42-8.21,0-11.14l99.85-85.69c1.62-1.39,2.56-3.43,2.56-5.57Z"/>
</svg>