<svg width="785" height="221" viewBox="0 0 785 221" fill="none" xmlns="http://www.w3.org/2000/svg">
<path d="M65.7742 217.846C35.9342 218.226 5.7842 197.106 0.0342016 166.826C-0.175798 165.656 0.604201 164.406 1.7442 164.296C4.4242 163.856 24.1942 160.596 29.2342 159.766C30.7542 159.336 32.0242 159.716 32.5542 161.306C33.2942 163.856 34.2942 166.456 35.6842 168.706C44.3042 183.436 67.9042 190.686 84.8742 179.216C92.9142 174.026 98.5442 165.216 98.8542 155.646C99.2342 145.736 94.0542 135.986 85.5142 130.446C71.9642 122.136 54.7842 121.946 40.0242 114.836C13.6842 103.486 -1.2658 78.0759 4.3942 49.1359C15.2542 -7.61411 93.3842 -17.5041 121.814 31.5459C122.644 32.7259 122.664 34.3959 121.494 35.0259C119.434 36.1859 98.6242 47.8859 96.2942 49.1959C95.3742 49.8459 93.8642 49.1559 93.3042 48.1959C86.4242 36.7359 73.0142 30.2359 58.0442 33.9159C44.6542 36.9159 36.1742 47.6059 36.3242 61.3659C36.3742 65.7859 37.0842 70.5359 41.0142 75.5659C43.4542 78.8459 48.6942 82.5459 52.9542 84.4459C63.2642 89.1459 74.1942 90.4259 85.0642 94.1159C91.9442 96.3559 99.2642 99.7059 105.424 104.056C156.884 142.136 127.834 217.326 65.9442 217.846H65.7642H65.7742Z" fill="black"/>
<path d="M202.765 217.846C178.175 217.936 155.195 203.816 143.905 182.246C119.695 137.286 155.595 81.6661 206.515 84.9461C227.495 86.1161 247.035 97.3061 258.555 114.916C259.335 115.976 259.245 117.616 258.195 118.186C256.275 119.336 237.785 130.416 233.895 132.746C233.265 133.096 233.065 133.376 232.165 133.306C231.285 133.266 230.545 132.416 230.035 131.706C225.925 126.016 220.225 121.796 213.605 119.586C186.285 110.196 160.055 138.836 172.355 165.246C182.995 188.796 216.005 191.716 230.625 170.156C231.315 169.076 232.685 168.436 233.715 169.086C235.495 170.106 248.085 177.356 254.785 181.216C258.175 183.366 261.255 183.726 258.885 187.306C246.735 206.206 225.495 217.836 202.955 217.846H202.765Z" fill="black"/>
<path d="M331.764 217.846C284.224 217.976 251.864 168.296 270.774 125.076C280.374 102.466 302.894 86.4158 327.484 84.9858C367.694 82.0258 401.944 116.996 398.114 157.166C395.204 191.146 366.394 217.856 331.964 217.836H331.774L331.764 217.846ZM331.764 117.846C314.474 117.846 299.914 131.326 298.484 148.446C296.714 167.866 312.364 184.946 331.864 184.846C350.264 185.166 366.244 168.786 365.344 150.306C364.994 132.606 349.744 117.706 331.954 117.846H331.764Z" fill="black"/>
<path d="M469.764 217.846C422.224 217.976 389.864 168.296 408.774 125.076C418.374 102.466 440.894 86.4158 465.484 84.9858C505.694 82.0258 539.944 116.996 536.114 157.166C533.204 191.146 504.394 217.856 469.964 217.836H469.774L469.764 217.846ZM469.764 117.846C452.474 117.846 437.914 131.326 436.484 148.446C434.714 167.866 450.364 184.946 469.864 184.846C488.264 185.166 504.244 168.786 503.344 150.306C502.994 132.606 487.744 117.706 469.954 117.846H469.764Z" fill="black"/>
<path d="M679.364 152.846C679.354 164.806 679.374 215.116 679.364 216.116C679.264 217.086 677.964 218.116 676.984 217.876C676.234 217.876 674.844 217.876 673.074 217.876C666.924 217.876 655.734 217.876 650.004 217.876C649.014 217.776 648.174 218.126 647.324 217.546C646.854 217.236 646.364 216.576 646.364 216.046C646.364 213.716 646.364 177.496 646.364 160.986C643.234 122.356 671.274 88.4962 710.114 86.9062C711.444 86.7362 712.944 87.5962 712.864 88.8562C712.714 92.1562 713.194 114.996 712.664 118.716C712.274 119.536 711.194 119.876 710.264 119.946C693.004 121.296 679.394 135.756 679.364 153.356" fill="black"/>
<path d="M750.454 152.846C750.444 164.806 750.464 215.116 750.454 216.116C750.354 217.086 749.054 218.116 748.074 217.876C747.324 217.876 745.934 217.876 744.164 217.876C738.014 217.876 726.824 217.876 721.094 217.876C720.104 217.776 719.264 218.126 718.414 217.546C717.944 217.236 717.454 216.576 717.454 216.046C717.454 213.716 717.454 177.496 717.454 160.986C714.324 122.356 742.364 88.4962 781.204 86.9062C782.534 86.7362 784.034 87.5962 783.954 88.8562C783.804 92.1562 784.284 114.996 783.754 118.716C783.364 119.536 782.284 119.876 781.354 119.946C764.094 121.296 750.484 135.756 750.454 153.356" fill="black"/>
<path d="M595.844 131.736C595.894 136.086 595.844 147.016 595.864 149.176C595.964 151.336 594.244 153.686 591.954 153.906C588.714 154.356 586.484 151.366 586.864 148.356C587.024 142.736 586.514 133.806 587.124 130.936C588.314 125.926 595.374 126.556 595.834 131.626V131.736H595.844Z" fill="black"/>
<path d="M591.285 127.436C589.175 127.456 587.475 129.106 587.025 131.316C586.705 132.836 586.915 133.916 586.855 135.546C586.855 139.946 586.855 147.466 586.855 149.076C586.855 149.696 586.905 150.126 587.125 150.836C588.335 154.876 594.335 154.946 595.585 150.836C596.195 147.986 595.705 145.526 595.855 140.096C595.855 137.046 595.855 134.826 595.855 132.606C596.125 130.066 594.075 127.416 591.455 127.436H591.275H591.285Z" fill="black"/>
<path d="M595.844 131.736C595.894 136.086 595.844 147.016 595.864 149.176C595.964 151.336 594.244 153.686 591.954 153.906C588.714 154.356 586.484 151.366 586.864 148.356C587.024 142.736 586.514 133.806 587.124 130.936C588.314 125.926 595.374 126.556 595.834 131.626V131.736H595.844Z" fill="black"/>
<path d="M641.124 87.2957C640.854 86.4857 639.404 85.8457 638.344 86.0457C625.514 86.5957 613.614 90.8057 603.664 97.6457C601.114 99.5157 598.164 101.026 595.044 101.596C589.794 102.646 584.204 101.346 579.854 98.2057C569.754 91.0757 557.674 86.6657 544.564 86.0557C543.254 85.8957 541.504 86.3857 541.464 87.8757C541.434 94.8157 541.354 113.376 541.344 115.996C541.284 117.436 543.004 118.086 544.324 118.086C561.584 119.496 575.014 134.596 574.834 151.556C574.834 154.206 574.834 216.916 574.834 219.226C574.834 219.356 574.914 219.716 575.284 220.126C575.544 220.426 575.874 220.686 576.134 220.776C580.674 220.996 588.174 220.756 593.414 220.776C599.304 220.736 604.744 220.706 605.934 220.696C606.774 220.776 607.784 219.706 607.824 219.036C607.844 202.206 607.824 169.986 607.824 151.586C607.804 145.676 609.404 139.746 612.234 134.856C617.654 125.316 627.704 118.796 639.144 117.986C640.134 117.926 641.184 117.186 641.294 116.346C641.314 113.256 641.334 94.6557 641.124 87.3857L641.084 87.2957H641.124ZM598.844 149.746C598.324 158.686 585.574 159.466 583.994 150.696C583.724 148.786 583.914 147.596 583.854 145.466C583.954 139.546 583.644 133.746 584.004 131.046C585.514 121.726 598.474 122.676 598.844 131.876C598.864 133.546 598.854 146.446 598.844 149.636V149.746Z" fill="black"/>
</svg>
