<?xml version="1.0" encoding="UTF-8"?>
<svg xmlns="http://www.w3.org/2000/svg" version="1.1" viewBox="0 0 1000 1000">
  <defs>
    <style>
      .cls-1 {
        fill: none;
      }

      .cls-2 {
        display: none;
      }
    </style>
  </defs>
  <!-- Generator: Adobe Illustrator 28.7.1, SVG Export Plug-In . SVG Version: 1.2.0 Build 142)  -->
  <g>
    <g id="Layer_1">
      <path class="cls-2" d="M696,677.27v10.5c0,9.11-7.39,16.5-16.5,16.5s-16.5-7.39-16.5-16.5v-10.5c.39-9.1,7.39-16.5,16.5-16.5s16.5,7.39,16.5,16.5Z"/>
      <g>
        <path d="M173.77,607.41c-29.84.38-59.99-20.74-65.74-51.02-.21-1.17.57-2.42,1.71-2.53,2.68-.44,22.45-3.7,27.49-4.53,1.52-.43,2.79-.05,3.32,1.54.74,2.55,1.74,5.15,3.13,7.4,8.62,14.73,32.22,21.98,49.19,10.51,8.04-5.19,13.67-14,13.98-23.57.38-9.91-4.8-19.66-13.34-25.2-13.55-8.31-30.73-8.5-45.49-15.61-26.34-11.35-41.29-36.76-35.63-65.7,10.86-56.75,88.99-66.64,117.42-17.59.83,1.18.85,2.85-.32,3.48-2.06,1.16-22.87,12.86-25.2,14.17-.92.65-2.43-.04-2.99-1-6.88-11.46-20.29-17.96-35.26-14.28-13.39,3-21.87,13.69-21.72,27.45.05,4.42.76,9.17,4.69,14.2,2.44,3.28,7.68,6.98,11.94,8.88,10.31,4.7,21.24,5.98,32.11,9.67,6.88,2.24,14.2,5.59,20.36,9.94,51.46,38.08,22.41,113.27-39.48,113.79h-.18Z"/>
        <path d="M310.76,607.41c-24.59.09-47.57-14.03-58.86-35.6-24.21-44.96,11.69-100.58,62.61-97.3,20.98,1.17,40.52,12.36,52.04,29.97.78,1.06.69,2.7-.36,3.27-1.92,1.15-20.41,12.23-24.3,14.56-.63.35-.83.63-1.73.56-.88-.04-1.62-.89-2.13-1.6-4.11-5.69-9.81-9.91-16.43-12.12-27.32-9.39-53.55,19.25-41.25,45.66,10.64,23.55,43.65,26.47,58.27,4.91.69-1.08,2.06-1.72,3.09-1.07,1.78,1.02,14.37,8.27,21.07,12.13,3.39,2.15,6.47,2.51,4.1,6.09-12.15,18.9-33.39,30.53-55.93,30.54h-.19Z"/>
        <path d="M439.76,607.41c-47.54.13-79.9-49.55-60.99-92.77,9.6-22.61,32.12-38.66,56.71-40.09,40.21-2.96,74.46,32.01,70.63,72.18-2.91,33.98-31.72,60.69-66.15,60.67h-.19ZM439.76,507.41c-17.29,0-31.85,13.48-33.28,30.6-1.77,19.42,13.88,36.5,33.38,36.4,18.4.32,34.38-16.06,33.48-34.54-.35-17.7-15.6-32.6-33.39-32.46h-.19Z"/>
        <path d="M577.76,607.41c-47.54.13-79.9-49.55-60.99-92.77,9.6-22.61,32.12-38.66,56.71-40.09,40.21-2.96,74.46,32.01,70.63,72.18-2.91,33.98-31.72,60.69-66.15,60.67h-.19ZM577.76,507.41c-17.29,0-31.85,13.48-33.28,30.6-1.77,19.42,13.88,36.5,33.38,36.4,18.4.32,34.38-16.06,33.48-34.54-.35-17.7-15.6-32.6-33.39-32.46h-.19Z"/>
        <path d="M787.36,542.41c-.01,11.96.01,62.27,0,63.27-.1.97-1.4,2-2.38,1.76-.75,0-2.14,0-3.91,0-6.15,0-17.34,0-23.07,0-.99-.1-1.83.25-2.68-.33-.47-.31-.96-.97-.96-1.5,0-2.33,0-38.55,0-55.06-3.13-38.63,24.91-72.49,63.75-74.08,1.33-.17,2.83.69,2.75,1.95-.15,3.3.33,26.14-.2,29.86-.39.82-1.47,1.16-2.4,1.23-17.26,1.35-30.87,15.81-30.9,33.41"/>
        <path d="M858.45,542.41c-.01,11.96.01,62.27,0,63.27-.1.97-1.4,2-2.38,1.76-.75,0-2.14,0-3.91,0-6.15,0-17.34,0-23.07,0-.99-.1-1.83.25-2.68-.33-.47-.31-.96-.97-.96-1.5,0-2.33,0-38.55,0-55.06-3.13-38.63,24.91-72.49,63.75-74.08,1.33-.17,2.83.69,2.75,1.95-.15,3.3.33,26.14-.2,29.86-.39.82-1.47,1.16-2.4,1.23-17.26,1.35-30.87,15.81-30.9,33.41"/>
        <g>
          <g>
            <path class="cls-1" d="M699.28,517c-2.11.02-3.81,1.67-4.26,3.88-.32,1.52-.11,2.6-.17,4.23,0,4.4,0,11.92,0,13.53,0,.62.05,1.05.27,1.76,1.21,4.04,7.21,4.11,8.46,0,.61-2.85.12-5.31.27-10.74,0-3.05,0-5.27,0-7.49.27-2.54-1.78-5.19-4.4-5.17h-.18Z"/>
            <path d="M703.84,521.3c.05,4.35,0,15.28.02,17.44.1,2.16-1.62,4.51-3.91,4.73-3.24.45-5.47-2.54-5.09-5.55.16-5.62-.35-14.55.26-17.42,1.19-5.01,8.25-4.38,8.71.69v.11Z"/>
            <path d="M699.28,517c-2.11.02-3.81,1.67-4.26,3.88-.32,1.52-.11,2.6-.17,4.23,0,4.4,0,11.92,0,13.53,0,.62.05,1.05.27,1.76,1.21,4.04,7.21,4.11,8.46,0,.61-2.85.12-5.31.27-10.74,0-3.05,0-5.27,0-7.49.27-2.54-1.78-5.19-4.4-5.17h-.18Z"/>
          </g>
          <path d="M703.84,521.3c.05,4.35,0,15.28.02,17.44.1,2.16-1.62,4.51-3.91,4.73-3.24.45-5.47-2.54-5.09-5.55.16-5.62-.35-14.55.26-17.42,1.19-5.01,8.25-4.38,8.71.69v.11Z"/>
          <path d="M749.12,476.86c-.27-.81-1.72-1.45-2.78-1.25-12.83.55-24.73,4.76-34.68,11.6-2.55,1.87-5.5,3.38-8.62,3.95-5.25,1.05-10.84-.25-15.19-3.39-10.1-7.13-22.18-11.54-35.29-12.15-1.31-.16-3.06.33-3.1,1.82-.03,6.94-.11,25.5-.12,28.12-.06,1.44,1.66,2.09,2.98,2.09,17.26,1.41,30.69,16.51,30.51,33.47,0,2.65,0,65.36,0,67.67,0,.13.08.49.45.9.26.3.59.56.85.65,4.54.22,12.04-.02,17.28,0,5.89-.04,11.33-.07,12.52-.08.84.08,1.85-.99,1.89-1.66.02-16.83,0-49.05,0-67.45-.02-5.91,1.58-11.84,4.41-16.73,5.42-9.54,15.47-16.06,26.91-16.87.99-.06,2.04-.8,2.15-1.64.02-3.09.04-21.69-.17-28.96l-.04-.09ZM706.84,539.31c-.52,8.94-13.27,9.72-14.85.95-.27-1.91-.08-3.1-.14-5.23.1-5.92-.21-11.72.15-14.42,1.51-9.32,14.47-8.37,14.84.83.02,1.67.01,14.57,0,17.76v.11Z"/>
        </g>
      </g>
    </g>
  </g>
</svg>