<svg fill="none" height="150" viewBox="0 0 511 150" width="511" xmlns="http://www.w3.org/2000/svg" xmlns:xlink="http://www.w3.org/1999/xlink"><clipPath id="a"><path d="m0 0h510.732v150h-510.732z"/></clipPath><g clip-path="url(#a)"><path d="m0 0v150.017l185.561-.001c-1.431-1.013-2.763-2.086-3.952-3.223-10.597-10.247-10.745-22.149-11.047-33.302v-63.289h33.902v66.456c0 4.522.155 9.192 3.936 12.806 2.723 2.866 6.812 3.918 10.744 3.918 5.298 0 8.783-1.962 10.751-3.765 3.931-3.767 4.082-8.437 4.082-12.959v-66.456h34.054v56.66c0 12.202 0 28.028-12.561 39.931-1.2 1.125-2.525 2.198-3.954 3.223h50.769c-14.946-10.722-21.968-28.64-21.968-46.02 0-28.63 19.224-57.7144 55.394-57.7144 16.195 0 31.63 5.7292 42.833 17.1841 4.542 4.6694 6.661 8.2849 8.928 12.5017l-28.299 14.0189c-2.728-6.3334-7.872-17.6334-22.1-17.6334-7.416 0-12.108 3.467-14.378 5.7277-8.022 7.6819-8.022 19.7379-8.022 23.9634 0 15.817 5.907 30.739 22.554 30.739 15.742 0 20.433-13.867 21.644-17.481l28.754 13.863c-2.725 5.123-5.296 9.945-10.438 15.066-2.21 2.163-4.601 4.084-7.127 5.785h31.094v-99.9659h33.746v78.5689h43.795v21.397l32.037-.016v-150z" fill="#231f20"/><g fill="#fff"><path d="m153.393 74.0803c-.066-.0138-18.264-3.9237-18.264-3.9237s-18.222 3.9151-18.257 3.9237c-.099.0196-.066.1042-.066.1042l.252.9336.052-.0013-.006.0013s.282-.0349.446.2256l.272 1.501s.007.105.115.105h.66 33.066.666c.093 0 .101-.0774.101-.0774l.274-1.5011c.156-.2939.462-.2531.462-.2531l-.007-.0013.045.0013.254-.9336s.035-.0846-.065-.1042z"/><path d="m151.483 77.4324c.02 0 .039-.0157.039-.0413v-.4658c0-.0236-.019-.0039-.039-.0039h-2.774c-.02 0-.044-.0197-.044.0039v.4658c0 .0255.024.0413.044.0413l.117.0014c.056 0 .059.0557.059.1101 0 .0696.03.4303.282.6481.037.0316.027.1201-.052.1201-.007 0-.079 0-.086 0-.062 0-.065.0427-.045.0761.022.042.029.1654.029.2223v.2027c0 .0368.003.0664.04.0664h.042s.027-.0034.027.0295v.04 10.2045c-.03.0314-.138.1411-.148.1488-.007.0086-.017.0217-.017.0375v.1731c0 .0126-.003.0296-.013.0368-.007.0086-.022.0124-.039.0124h-.127c-.024 0-.044.0203-.044.042v.2946h2.719c0-.0104 0-.2946 0-.2946 0-.0217-.019-.042-.039-.042h-.127c-.017 0-.031-.0038-.041-.0124-.006-.0072-.011-.0242-.011-.0368v-.1731c0-.0131-.004-.0237-.017-.0361-.017-.0138-.106-.105-.148-.1502v-10.2045s0-.0131 0-.04c0-.0329.027-.0295.027-.0295h.039c.035 0 .042-.0296.042-.0664 0-.0413 0-.1442 0-.2027 0-.0569.01-.1803.03-.2223.023-.0334.017-.0761-.049-.0761-.003 0-.079 0-.082 0-.079 0-.089-.0892-.056-.1201.256-.2079.283-.57.283-.6402 0-.0623-.004-.118.065-.118z"/><path d="m145.501 77.4324c.018 0 .038-.0157.038-.0413v-.4658c0-.0236-.02-.0039-.038-.0039h-2.78c-.022 0-.038-.0197-.038.0039v.4658c0 .0255.016.0413.038.0413l.121.0014c.054 0 .057.0557.057.1101 0 .0696.032.4303.282.6481.036.0316.022.1201-.05.1201-.007 0-.081 0-.084 0-.065 0-.072.0427-.054.0761.027.042.031.1654.031.2223v.2027c0 .0368.006.0664.042.0664h.04s.028-.0034.028.0295c0 .0269.004.04.004.04v10.2045c-.032.0314-.145.1411-.151.1488-.009.0086-.016.0217-.016.0375v.1731c0 .0126 0 .0296-.013.0368-.007.0086-.02.0124-.037.0124h-.131c-.018 0-.035.0203-.035.042v.2946h2.712c0-.0104 0-.2946 0-.2946 0-.0217-.02-.042-.039-.042h-.129c-.015 0-.032-.0038-.038-.0124-.011-.0072-.014-.0242-.014-.0368v-.1731c0-.0131-.003-.0237-.017-.0361-.011-.0138-.1-.105-.147-.1502v-10.2045s0-.0131 0-.04c0-.0329.03-.0295.03-.0295h.037c.035 0 .038-.0296.038-.0664 0-.0413 0-.1442 0-.2027 0-.0569.014-.1803.036-.2223.016-.0334.01-.0761-.052-.0761-.004 0-.076 0-.083 0-.079 0-.087-.0892-.052-.1201.255-.2079.282-.57.282-.6402 0-.0623-.003-.118.062-.118z"/><path d="m139.514 77.4324c.023 0 .037-.0157.037-.0413v-.4658c0-.0236-.014-.0039-.037-.0039h-2.778c-.023 0-.04-.0197-.04.0039v.4658c0 .0255.017.0413.04.0413l.121.0014c.052 0 .055.0557.055.1101 0 .0696.034.4303.286.6481.034.0316.02.1201-.052.1201-.007 0-.082 0-.086 0-.065 0-.069.0427-.048.0761.021.042.028.1654.028.2223v.2027c0 .0368.003.0664.037.0664h.045s.031-.0034.031.0295v.04 10.2045c-.031.0314-.141.1411-.152.1488-.01.0086-.016.0217-.016.0375v.1731c0 .0126-.004.0296-.01.0368-.011.0086-.026.0124-.039.0124h-.128c-.02 0-.04.0203-.04.042v.2946h2.714c0-.0104 0-.2946 0-.2946 0-.0217-.02-.042-.04-.042h-.128c-.017 0-.034-.0038-.04-.0124-.005-.0072-.012-.0242-.012-.0368v-.1731c0-.0131-.003-.0237-.013-.0361-.017-.0138-.103-.105-.152-.1502v-10.2045s0-.0131 0-.04c0-.0329.031-.0295.031-.0295h.032c.043 0 .045-.0296.045-.0664 0-.0413 0-.1442 0-.2027 0-.0569.01-.1803.034-.2223.016-.0334.016-.0761-.049-.0761-.004 0-.079 0-.086 0-.079 0-.089-.0892-.049-.1201.252-.2079.276-.57.276-.6402 0-.0623 0-.118.065-.118z"/><path d="m133.529 77.4324c.021 0 .038-.0157.038-.0413v-.4658c0-.0236-.017-.0039-.038-.0039h-2.78c-.022 0-.035-.0197-.035.0039v.4658c0 .0255.013.0413.035.0413l.119.0014c.056 0 .059.0557.059.1101 0 .0696.032.4303.286.6481.035.0316.018.1201-.054.1201-.005 0-.081 0-.084 0-.066 0-.069.0427-.05.0761.023.042.03.1654.03.2223v.2027c0 .0368.003.0664.042.0664h.04s.029-.0034.029.0295v.04 10.2045c-.029.0314-.141.1411-.15.1488-.007.0086-.013.0217-.013.0375v.1731c0 .0126-.004.0296-.014.0368-.01.0086-.027.0124-.04.0124h-.128c-.021 0-.038.0203-.038.042v.2946h2.712c0-.0104 0-.2946 0-.2946 0-.0217-.017-.042-.039-.042h-.129c-.015 0-.028-.0038-.038-.0124-.007-.0072-.011-.0242-.011-.0368v-.1731c0-.0131-.003-.0237-.016-.0361-.015-.0138-.104-.105-.146-.1502v-10.2045s-.004-.0131-.004-.04c0-.0329.029-.0295.029-.0295h.04c.032 0 .039-.0296.039-.0664 0-.0413 0-.1442 0-.2027 0-.0569.01-.1803.033-.2223.019-.0334.012-.0761-.05-.0761-.007 0-.079 0-.082 0-.081 0-.091-.0892-.056-.1201.257-.2079.282-.57.282-.6402 0-.0623-.003-.118.062-.118z"/><path d="m127.541 77.4324c.023 0 .04-.0157.04-.0413v-.4658c0-.0236-.017-.0039-.04-.0039h-2.775c-.023 0-.04-.0197-.04.0039v.4658c0 .0255.017.0413.04.0413l.115.0014c.058 0 .062.0557.062.1101 0 .0696.033.4303.285.6481.034.0316.02.1201-.055.1201-.004 0-.082 0-.086 0-.065 0-.069.0427-.049.0761.024.042.029.1654.029.2223v.2027c0 .0368.003.0664.044.0664h.038s.031-.0034.031.0295v.04 10.2045c-.031.0314-.142.1411-.148.1488-.01.0086-.017.0217-.017.0375v.1731c0 .0126-.003.0296-.014.0368-.005.0086-.021.0124-.038.0124h-.124c-.024 0-.044.0203-.044.042v.2946h2.714c0-.0104 0-.2946 0-.2946 0-.0217-.017-.042-.037-.042h-.131c-.013 0-.027-.0038-.035-.0124-.01-.0072-.014-.0242-.014-.0368v-.1731c0-.0131-.003-.0237-.017-.0361-.013-.0138-.105-.105-.151-.1502v-10.2045s0-.0131 0-.04c0-.0329.03-.0295.03-.0295h.036c.04 0 .043-.0296.043-.0664 0-.0413 0-.1442 0-.2027 0-.0569.009-.1803.032-.2223.024-.0334.017-.0761-.048-.0761-.004 0-.079 0-.086 0-.079 0-.089-.0892-.052-.1201.255-.2079.282-.57.282-.6402 0-.0623-.003-.118.062-.118z"/><path d="m121.556 77.4324c.022 0 .042-.0157.042-.0413v-.4658c0-.0236-.02-.0039-.042-.0039h-2.776c-.022 0-.039-.0197-.039.0039v.4658c0 .0255.017.0413.039.0413l.119.0014c.056 0 .059.0557.059.1101 0 .0696.032.4303.285.6481.032.0316.019.1201-.053.1201-.005 0-.081 0-.088 0-.062 0-.065.0427-.047.0761.024.042.027.1654.027.2223v.2027c0 .0368.004.0664.042.0664h.041s.028-.0034.028.0295v.04 10.2045c-.028.0314-.138.1411-.146.1488-.01.0086-.017.0217-.017.0375v.1731c0 .0126-.003.0296-.01.0368-.01.0086-.027.0124-.04.0124h-.128c-.022 0-.042.0203-.042.042v.2946h2.716c0-.0104 0-.2946 0-.2946 0-.0217-.017-.042-.039-.042h-.131c-.013 0-.03-.0038-.037-.0124-.01-.0072-.013-.0242-.013-.0368v-.1731c0-.0131-.004-.0237-.014-.0361-.015-.0138-.107-.105-.149-.1502v-10.2045s0-.0131 0-.04c0-.0329.025-.0295.025-.0295h.037c.039 0 .045-.0296.045-.0664 0-.0413 0-.1442 0-.2027 0-.0569.007-.1803.034-.2223.015-.0334.012-.0761-.05-.0761-.007 0-.079 0-.084 0-.083 0-.089-.0892-.054-.1201.253-.2079.279-.57.279-.6402 0-.0623-.004-.118.065-.118z"/><path d="m143.627 66.6245s-.225 0-.285 0c-.076 0-.073-.0623-.073-.0623s0-.2454 0-.3077c0-.0787-.077-.0787-.077-.0787s-.21 0-.28 0c-.078 0-.074-.0702-.074-.0702v-.284s0-.0623-.072-.0623c-.027 0-.123 0-.168 0-.059 0-.121-.0492-.125-.1305-.01-.3878.125-3.1261-1.321-5.1078-1.139-1.7024-2.708-2.5672-3.572-2.9692-.017-.3693-.543-.5091-.771-.5892-.123-.0406-.227-.0892-.227-.1968 0-.0059-.003-.1201-.003-.126 0-.1147.105-.1607.262-.1561.05.002.085-.0407.085-.0721v-.3327c0-.0472-.042-.1003-.111-.1003-.115 0-.246-.0006-.312-.0006-.076 0-.111-.0682-.111-.1097 0-.0675 0-.0373 0-.1666 0-.0977-.075-.1528-.134-.1817v-2.0436c0-.0688.052-.0596.097-.0596.007 0 .017 0 .024-.0027h.006c.026 0 .049-.0235.049-.0498v-.1949c0-.0282-.023-.0485-.049-.0485h-.092c-.032-.0151-.055-.0578-.055-.149 0-.0944.028-.139.069-.1469h.078c.026 0 .049-.0217.049-.0486v-.198c0-.0257-.023-.048-.049-.048h-.105c-.046-.0066-.079-.0262-.125-.0623-.347-.2754-.698-.6724-.698-.7314 0-.0322 0-.0341 0-.0735 0-.042-.042-.1253-.138-.1253-.092 0-.079-.0958-.03-.0958.033 0 .04-.0092.04-.0544 0-.0282 0-.0794 0-.1325 0-.0591-.178-.3051-.178-.3051h-.012s-.181.246-.181.3051v.1325c0 .0452.013.0544.044.0544.048 0 .062.0958-.027.0958-.096 0-.138.0833-.138.1253 0 .0394-.003.0413-.003.0735 0 .059-.351.456-.699.7314-.045.0361-.079.0558-.124.0623h-.106c-.025 0-.049.0223-.049.048v.198c0 .0269.024.0486.049.0486h.082c.037.0079.066.0525.066.1469 0 .0912-.024.1339-.056.149h-.092c-.025 0-.049.0203-.049.0485v.1949c0 .0263.024.0498.049.0498h.007c.01.0027.017.0027.023.0027.046 0 .101-.0092.101.0596v2.0436c-.059.0289-.138.084-.138.1817v.1666c0 .0415-.035.1097-.111.1097-.065 0-.199.0006-.312.0006-.069 0-.114.0531-.114.1003v.3327c0 .0314.039.0741.086.0721.157-.0046.265.0414.265.1561 0 .0059-.003.1201-.003.126 0 .1076-.108.1562-.227.1968-.229.0801-.754.2199-.768.5892-.868.402-2.44 1.2668-3.572 2.9692-1.449 1.9817-1.311 4.72-1.325 5.1078-.003.0813-.062.1305-.124.1305-.042 0-.141 0-.168 0-.072 0-.072.0623-.072.0623v.284s.003.0702-.073.0702c-.072 0-.283 0-.283 0s-.073 0-.073.0787v.3077s.004.0623-.079.0623c-.057 0-.285 0-.285 0s-.079 0-.079.0801v.3314c0 .0366.024.0431.049.0478.085.0111.258.0892.258.2781 0 .3228.199.3536.278.3536v1.192c0 .2775-.217.3871-.34.4167-.025.0038-.058.0327-.058.0662v1.2268l8.371-1.8467h.012l8.372 1.8467s0-1.1953 0-1.2268c0-.0335-.037-.0624-.062-.0662-.123-.0296-.336-.1392-.336-.4167v-1.192c.079 0 .277-.0308.277-.3536 0-.1889.173-.267.255-.2781.029-.0047.053-.0112.053-.0478 0-.1004 0-.2849 0-.3314 0-.0801-.083-.0801-.083-.0801z"/><path d="m152.887 93.3799v-2.447h-1.431v-1.0688h-32.646v1.0668h-1.434v2.4449h-1.439v2.472l38.39.0027v-2.4706z"/></g></g></svg>