<svg width="511" height="150" viewBox="0 0 511 150" fill="none" xmlns="http://www.w3.org/2000/svg">
<g clip-path="url(#clip0_49_102)">
<path d="M0 0V150.017L185.561 150.016C184.13 149.003 182.798 147.93 181.609 146.793C171.012 136.546 170.864 124.644 170.562 113.491V50.202H204.464V116.658C204.464 121.18 204.619 125.85 208.4 129.464C211.123 132.33 215.212 133.382 219.144 133.382C224.442 133.382 227.927 131.42 229.895 129.617C233.826 125.85 233.977 121.18 233.977 116.658V50.202H268.031V106.862C268.031 119.064 268.031 134.89 255.47 146.793C254.27 147.918 252.945 148.991 251.516 150.016H302.285C287.339 139.294 280.317 121.376 280.317 103.996C280.317 75.366 299.541 46.2816 335.711 46.2816C351.906 46.2816 367.341 52.0108 378.544 63.4657C383.086 68.1351 385.205 71.7506 387.472 75.9674L359.173 89.9863C356.445 83.6529 351.301 72.3529 337.073 72.3529C329.657 72.3529 324.965 75.8199 322.695 78.0806C314.673 85.7625 314.673 97.8185 314.673 102.044C314.673 117.861 320.58 132.783 337.227 132.783C352.969 132.783 357.66 118.916 358.871 115.302L387.625 129.165C384.9 134.288 382.329 139.11 377.187 144.231C374.977 146.394 372.586 148.315 370.06 150.016H401.154V50.0501H434.9V128.619H478.695V150.016L510.732 150V0L0 0Z" fill="#231F20"/>
<path d="M153.393 74.0803C153.327 74.0665 135.129 70.1566 135.129 70.1566C135.129 70.1566 116.907 74.0717 116.872 74.0803C116.773 74.0999 116.806 74.1845 116.806 74.1845L117.058 75.1181L117.11 75.1168L117.104 75.1181C117.104 75.1181 117.386 75.0832 117.55 75.3437L117.822 76.8447C117.822 76.8447 117.829 76.9497 117.937 76.9497C118.049 76.9497 118.597 76.9497 118.597 76.9497H151.663C151.663 76.9497 152.237 76.9497 152.329 76.9497C152.422 76.9497 152.43 76.8723 152.43 76.8723L152.704 75.3712C152.86 75.0773 153.166 75.1181 153.166 75.1181L153.159 75.1168L153.204 75.1181L153.458 74.1845C153.458 74.1845 153.493 74.0999 153.393 74.0803Z" fill="white"/>
<path d="M151.483 77.4324C151.503 77.4324 151.522 77.4167 151.522 77.3911V76.9253C151.522 76.9017 151.503 76.9214 151.483 76.9214H148.709C148.689 76.9214 148.665 76.9017 148.665 76.9253V77.3911C148.665 77.4166 148.689 77.4324 148.709 77.4324L148.826 77.4338C148.882 77.4338 148.885 77.4895 148.885 77.5439C148.885 77.6135 148.915 77.9742 149.167 78.192C149.204 78.2236 149.194 78.3121 149.115 78.3121C149.108 78.3121 149.036 78.3121 149.029 78.3121C148.967 78.3121 148.964 78.3548 148.984 78.3882C149.006 78.4302 149.013 78.5536 149.013 78.6105C149.013 78.669 149.013 78.7719 149.013 78.8132C149.013 78.85 149.016 78.8796 149.053 78.8796C149.056 78.8796 149.092 78.8796 149.095 78.8796C149.095 78.8796 149.122 78.8762 149.122 78.9091C149.122 78.936 149.122 78.9491 149.122 78.9491V89.1536C149.092 89.185 148.984 89.2947 148.974 89.3024C148.967 89.311 148.957 89.3241 148.957 89.3399V89.513C148.957 89.5256 148.954 89.5426 148.944 89.5498C148.937 89.5584 148.922 89.5622 148.905 89.5622H148.778C148.754 89.5622 148.734 89.5825 148.734 89.6042C148.734 89.6042 148.734 89.8884 148.734 89.8988H151.453C151.453 89.8884 151.453 89.6042 151.453 89.6042C151.453 89.5825 151.434 89.5622 151.414 89.5622H151.287C151.27 89.5622 151.256 89.5584 151.246 89.5498C151.24 89.5426 151.235 89.5256 151.235 89.513V89.3399C151.235 89.3268 151.231 89.3162 151.218 89.3038C151.201 89.29 151.112 89.1988 151.07 89.1536V78.9491C151.07 78.9491 151.07 78.936 151.07 78.9091C151.07 78.8762 151.097 78.8796 151.097 78.8796C151.099 78.8796 151.132 78.8796 151.136 78.8796C151.171 78.8796 151.178 78.85 151.178 78.8132C151.178 78.7719 151.178 78.669 151.178 78.6105C151.178 78.5536 151.188 78.4302 151.208 78.3882C151.231 78.3548 151.225 78.3121 151.159 78.3121C151.156 78.3121 151.08 78.3121 151.077 78.3121C150.998 78.3121 150.988 78.2229 151.021 78.192C151.277 77.9841 151.304 77.622 151.304 77.5518C151.304 77.4895 151.3 77.4338 151.369 77.4338L151.483 77.4324Z" fill="white"/>
<path d="M145.501 77.4324C145.519 77.4324 145.539 77.4167 145.539 77.3911V76.9253C145.539 76.9017 145.519 76.9214 145.501 76.9214H142.721C142.699 76.9214 142.683 76.9017 142.683 76.9253V77.3911C142.683 77.4166 142.699 77.4324 142.721 77.4324L142.842 77.4338C142.896 77.4338 142.899 77.4895 142.899 77.5439C142.899 77.6135 142.931 77.9742 143.181 78.192C143.217 78.2236 143.203 78.3121 143.131 78.3121C143.124 78.3121 143.05 78.3121 143.047 78.3121C142.982 78.3121 142.975 78.3548 142.993 78.3882C143.02 78.4302 143.024 78.5536 143.024 78.6105C143.024 78.669 143.024 78.7719 143.024 78.8132C143.024 78.85 143.03 78.8796 143.066 78.8796H143.106C143.106 78.8796 143.134 78.8762 143.134 78.9091C143.134 78.936 143.138 78.9491 143.138 78.9491V89.1536C143.106 89.185 142.993 89.2947 142.987 89.3024C142.978 89.311 142.971 89.3241 142.971 89.3399V89.513C142.971 89.5256 142.971 89.5426 142.958 89.5498C142.951 89.5584 142.938 89.5622 142.921 89.5622H142.79C142.772 89.5622 142.755 89.5825 142.755 89.6042C142.755 89.6042 142.755 89.8884 142.755 89.8988H145.467C145.467 89.8884 145.467 89.6042 145.467 89.6042C145.467 89.5825 145.447 89.5622 145.428 89.5622H145.299C145.284 89.5622 145.267 89.5584 145.261 89.5498C145.25 89.5426 145.247 89.5256 145.247 89.513V89.3399C145.247 89.3268 145.244 89.3162 145.23 89.3038C145.219 89.29 145.13 89.1988 145.083 89.1536V78.9491C145.083 78.9491 145.083 78.936 145.083 78.9091C145.083 78.8762 145.113 78.8796 145.113 78.8796C145.116 78.8796 145.146 78.8796 145.15 78.8796C145.185 78.8796 145.188 78.85 145.188 78.8132C145.188 78.7719 145.188 78.669 145.188 78.6105C145.188 78.5536 145.202 78.4302 145.224 78.3882C145.24 78.3548 145.234 78.3121 145.172 78.3121C145.168 78.3121 145.096 78.3121 145.089 78.3121C145.01 78.3121 145.002 78.2229 145.037 78.192C145.292 77.9841 145.319 77.622 145.319 77.5518C145.319 77.4895 145.316 77.4338 145.381 77.4338L145.501 77.4324Z" fill="white"/>
<path d="M139.514 77.4324C139.537 77.4324 139.551 77.4167 139.551 77.3911V76.9253C139.551 76.9017 139.537 76.9214 139.514 76.9214H136.736C136.713 76.9214 136.696 76.9017 136.696 76.9253V77.3911C136.696 77.4166 136.713 77.4324 136.736 77.4324L136.857 77.4338C136.909 77.4338 136.912 77.4895 136.912 77.5439C136.912 77.6135 136.946 77.9742 137.198 78.192C137.232 78.2236 137.218 78.3121 137.146 78.3121C137.139 78.3121 137.064 78.3121 137.06 78.3121C136.995 78.3121 136.991 78.3548 137.012 78.3882C137.033 78.4302 137.04 78.5536 137.04 78.6105C137.04 78.669 137.04 78.7719 137.04 78.8132C137.04 78.85 137.043 78.8796 137.077 78.8796C137.08 78.8796 137.119 78.8796 137.122 78.8796C137.122 78.8796 137.153 78.8762 137.153 78.9091C137.153 78.936 137.153 78.9491 137.153 78.9491V89.1536C137.122 89.185 137.012 89.2947 137.001 89.3024C136.991 89.311 136.985 89.3241 136.985 89.3399V89.513C136.985 89.5256 136.981 89.5426 136.975 89.5498C136.964 89.5584 136.949 89.5622 136.936 89.5622H136.808C136.788 89.5622 136.768 89.5825 136.768 89.6042C136.768 89.6042 136.768 89.8884 136.768 89.8988H139.482C139.482 89.8884 139.482 89.6042 139.482 89.6042C139.482 89.5825 139.462 89.5622 139.442 89.5622H139.314C139.297 89.5622 139.28 89.5584 139.274 89.5498C139.269 89.5426 139.262 89.5256 139.262 89.513V89.3399C139.262 89.3268 139.259 89.3162 139.249 89.3038C139.232 89.29 139.146 89.1988 139.097 89.1536V78.9491C139.097 78.9491 139.097 78.936 139.097 78.9091C139.097 78.8762 139.128 78.8796 139.128 78.8796C139.131 78.8796 139.16 78.8796 139.16 78.8796C139.203 78.8796 139.205 78.85 139.205 78.8132C139.205 78.7719 139.205 78.669 139.205 78.6105C139.205 78.5536 139.215 78.4302 139.239 78.3882C139.255 78.3548 139.255 78.3121 139.19 78.3121C139.186 78.3121 139.111 78.3121 139.104 78.3121C139.025 78.3121 139.015 78.2229 139.055 78.192C139.307 77.9841 139.331 77.622 139.331 77.5518C139.331 77.4895 139.331 77.4338 139.396 77.4338L139.514 77.4324Z" fill="white"/>
<path d="M133.529 77.4324C133.55 77.4324 133.567 77.4167 133.567 77.3911V76.9253C133.567 76.9017 133.55 76.9214 133.529 76.9214H130.749C130.727 76.9214 130.714 76.9017 130.714 76.9253V77.3911C130.714 77.4166 130.727 77.4324 130.749 77.4324L130.868 77.4338C130.924 77.4338 130.927 77.4895 130.927 77.5439C130.927 77.6135 130.959 77.9742 131.213 78.192C131.248 78.2236 131.231 78.3121 131.159 78.3121C131.154 78.3121 131.078 78.3121 131.075 78.3121C131.009 78.3121 131.006 78.3548 131.025 78.3882C131.048 78.4302 131.055 78.5536 131.055 78.6105C131.055 78.669 131.055 78.7719 131.055 78.8132C131.055 78.85 131.058 78.8796 131.097 78.8796C131.097 78.8796 131.134 78.8796 131.137 78.8796C131.137 78.8796 131.166 78.8762 131.166 78.9091C131.166 78.936 131.166 78.9491 131.166 78.9491V89.1536C131.137 89.185 131.025 89.2947 131.016 89.3024C131.009 89.311 131.003 89.3241 131.003 89.3399V89.513C131.003 89.5256 130.999 89.5426 130.989 89.5498C130.979 89.5584 130.962 89.5622 130.949 89.5622H130.821C130.8 89.5622 130.783 89.5825 130.783 89.6042C130.783 89.6042 130.783 89.8884 130.783 89.8988H133.495C133.495 89.8884 133.495 89.6042 133.495 89.6042C133.495 89.5825 133.478 89.5622 133.456 89.5622H133.327C133.312 89.5622 133.299 89.5584 133.289 89.5498C133.282 89.5426 133.278 89.5256 133.278 89.513V89.3399C133.278 89.3268 133.275 89.3162 133.262 89.3038C133.247 89.29 133.158 89.1988 133.116 89.1536V78.9491C133.116 78.9491 133.112 78.936 133.112 78.9091C133.112 78.8762 133.141 78.8796 133.141 78.8796C133.144 78.8796 133.178 78.8796 133.181 78.8796C133.213 78.8796 133.22 78.85 133.22 78.8132C133.22 78.7719 133.22 78.669 133.22 78.6105C133.22 78.5536 133.23 78.4302 133.253 78.3882C133.272 78.3548 133.265 78.3121 133.203 78.3121C133.196 78.3121 133.124 78.3121 133.121 78.3121C133.04 78.3121 133.03 78.2229 133.065 78.192C133.322 77.9841 133.347 77.622 133.347 77.5518C133.347 77.4895 133.344 77.4338 133.409 77.4338L133.529 77.4324Z" fill="white"/>
<path d="M127.541 77.4324C127.564 77.4324 127.581 77.4167 127.581 77.3911V76.9253C127.581 76.9017 127.564 76.9214 127.541 76.9214H124.766C124.743 76.9214 124.726 76.9017 124.726 76.9253V77.3911C124.726 77.4166 124.743 77.4324 124.766 77.4324L124.881 77.4338C124.939 77.4338 124.943 77.4895 124.943 77.5439C124.943 77.6135 124.976 77.9742 125.228 78.192C125.262 78.2236 125.248 78.3121 125.173 78.3121C125.169 78.3121 125.091 78.3121 125.087 78.3121C125.022 78.3121 125.018 78.3548 125.038 78.3882C125.062 78.4302 125.067 78.5536 125.067 78.6105C125.067 78.669 125.067 78.7719 125.067 78.8132C125.067 78.85 125.07 78.8796 125.111 78.8796C125.114 78.8796 125.146 78.8796 125.149 78.8796C125.149 78.8796 125.18 78.8762 125.18 78.9091C125.18 78.936 125.18 78.9491 125.18 78.9491V89.1536C125.149 89.185 125.038 89.2947 125.032 89.3024C125.022 89.311 125.015 89.3241 125.015 89.3399V89.513C125.015 89.5256 125.012 89.5426 125.001 89.5498C124.996 89.5584 124.98 89.5622 124.963 89.5622H124.839C124.815 89.5622 124.795 89.5825 124.795 89.6042C124.795 89.6042 124.795 89.8884 124.795 89.8988H127.509C127.509 89.8884 127.509 89.6042 127.509 89.6042C127.509 89.5825 127.492 89.5622 127.472 89.5622H127.341C127.328 89.5622 127.314 89.5584 127.306 89.5498C127.296 89.5426 127.292 89.5256 127.292 89.513V89.3399C127.292 89.3268 127.289 89.3162 127.275 89.3038C127.262 89.29 127.17 89.1988 127.124 89.1536V78.9491C127.124 78.9491 127.124 78.936 127.124 78.9091C127.124 78.8762 127.154 78.8796 127.154 78.8796C127.158 78.8796 127.19 78.8796 127.19 78.8796C127.23 78.8796 127.233 78.85 127.233 78.8132C127.233 78.7719 127.233 78.669 127.233 78.6105C127.233 78.5536 127.242 78.4302 127.265 78.3882C127.289 78.3548 127.282 78.3121 127.217 78.3121C127.213 78.3121 127.138 78.3121 127.131 78.3121C127.052 78.3121 127.042 78.2229 127.079 78.192C127.334 77.9841 127.361 77.622 127.361 77.5518C127.361 77.4895 127.358 77.4338 127.423 77.4338L127.541 77.4324Z" fill="white"/>
<path d="M121.556 77.4324C121.578 77.4324 121.598 77.4167 121.598 77.3911V76.9253C121.598 76.9017 121.578 76.9214 121.556 76.9214H118.78C118.758 76.9214 118.741 76.9017 118.741 76.9253V77.3911C118.741 77.4166 118.758 77.4324 118.78 77.4324L118.899 77.4338C118.955 77.4338 118.958 77.4895 118.958 77.5439C118.958 77.6135 118.99 77.9742 119.243 78.192C119.275 78.2236 119.262 78.3121 119.19 78.3121C119.185 78.3121 119.109 78.3121 119.102 78.3121C119.04 78.3121 119.037 78.3548 119.055 78.3882C119.079 78.4302 119.082 78.5536 119.082 78.6105C119.082 78.669 119.082 78.7719 119.082 78.8132C119.082 78.85 119.086 78.8796 119.124 78.8796H119.165C119.165 78.8796 119.193 78.8762 119.193 78.9091C119.193 78.936 119.193 78.9491 119.193 78.9491V89.1536C119.165 89.185 119.055 89.2947 119.047 89.3024C119.037 89.311 119.03 89.3241 119.03 89.3399V89.513C119.03 89.5256 119.027 89.5426 119.02 89.5498C119.01 89.5584 118.993 89.5622 118.98 89.5622H118.852C118.83 89.5622 118.81 89.5825 118.81 89.6042C118.81 89.6042 118.81 89.8884 118.81 89.8988H121.526C121.526 89.8884 121.526 89.6042 121.526 89.6042C121.526 89.5825 121.509 89.5622 121.487 89.5622H121.356C121.343 89.5622 121.326 89.5584 121.319 89.5498C121.309 89.5426 121.306 89.5256 121.306 89.513V89.3399C121.306 89.3268 121.302 89.3162 121.292 89.3038C121.277 89.29 121.185 89.1988 121.143 89.1536V78.9491C121.143 78.9491 121.143 78.936 121.143 78.9091C121.143 78.8762 121.168 78.8796 121.168 78.8796C121.171 78.8796 121.205 78.8796 121.205 78.8796C121.244 78.8796 121.25 78.85 121.25 78.8132C121.25 78.7719 121.25 78.669 121.25 78.6105C121.25 78.5536 121.257 78.4302 121.284 78.3882C121.299 78.3548 121.296 78.3121 121.234 78.3121C121.227 78.3121 121.155 78.3121 121.15 78.3121C121.067 78.3121 121.061 78.2229 121.096 78.192C121.349 77.9841 121.375 77.622 121.375 77.5518C121.375 77.4895 121.371 77.4338 121.44 77.4338L121.556 77.4324Z" fill="white"/>
<path d="M143.627 66.6245C143.627 66.6245 143.402 66.6245 143.342 66.6245C143.266 66.6245 143.269 66.5622 143.269 66.5622C143.269 66.5622 143.269 66.3168 143.269 66.2545C143.269 66.1758 143.192 66.1758 143.192 66.1758C143.192 66.1758 142.982 66.1758 142.912 66.1758C142.834 66.1758 142.838 66.1056 142.838 66.1056V65.8216C142.838 65.8216 142.838 65.7593 142.766 65.7593C142.739 65.7593 142.643 65.7593 142.598 65.7593C142.539 65.7593 142.477 65.7101 142.473 65.6288C142.463 65.241 142.598 62.5027 141.152 60.521C140.013 58.8186 138.444 57.9538 137.58 57.5518C137.563 57.1825 137.037 57.0427 136.809 56.9626C136.686 56.922 136.582 56.8734 136.582 56.7658C136.582 56.7599 136.579 56.6457 136.579 56.6398C136.579 56.5251 136.684 56.4791 136.841 56.4837C136.891 56.4857 136.926 56.443 136.926 56.4116V56.0789C136.926 56.0317 136.884 55.9786 136.815 55.9786C136.7 55.9786 136.569 55.978 136.503 55.978C136.427 55.978 136.392 55.9098 136.392 55.8683C136.392 55.8008 136.392 55.831 136.392 55.7017C136.392 55.604 136.317 55.5489 136.258 55.52V53.4764C136.258 53.4076 136.31 53.4168 136.355 53.4168C136.362 53.4168 136.372 53.4168 136.379 53.4141H136.385C136.411 53.4141 136.434 53.3906 136.434 53.3643V53.1694C136.434 53.1412 136.411 53.1209 136.385 53.1209H136.293C136.261 53.1058 136.238 53.0631 136.238 52.9719C136.238 52.8775 136.266 52.8329 136.307 52.825H136.385C136.411 52.825 136.434 52.8033 136.434 52.7764V52.5784C136.434 52.5527 136.411 52.5304 136.385 52.5304H136.28C136.234 52.5238 136.201 52.5042 136.155 52.4681C135.808 52.1927 135.457 51.7957 135.457 51.7367C135.457 51.7045 135.457 51.7026 135.457 51.6632C135.457 51.6212 135.415 51.5379 135.319 51.5379C135.227 51.5379 135.24 51.4421 135.289 51.4421C135.322 51.4421 135.329 51.4329 135.329 51.3877C135.329 51.3595 135.329 51.3083 135.329 51.2552C135.329 51.1961 135.151 50.9501 135.151 50.9501H135.139C135.139 50.9501 134.958 51.1961 134.958 51.2552C134.958 51.3083 134.958 51.3595 134.958 51.3877C134.958 51.4329 134.971 51.4421 135.002 51.4421C135.05 51.4421 135.064 51.5379 134.975 51.5379C134.879 51.5379 134.837 51.6212 134.837 51.6632C134.837 51.7026 134.834 51.7045 134.834 51.7367C134.834 51.7957 134.483 52.1927 134.135 52.4681C134.09 52.5042 134.056 52.5239 134.011 52.5304H133.905C133.88 52.5304 133.856 52.5527 133.856 52.5784V52.7764C133.856 52.8033 133.88 52.825 133.905 52.825H133.987C134.024 52.8329 134.053 52.8775 134.053 52.9719C134.053 53.0631 134.029 53.1058 133.997 53.1209H133.905C133.88 53.1209 133.856 53.1412 133.856 53.1694V53.3643C133.856 53.3906 133.88 53.4141 133.905 53.4141H133.912C133.922 53.4168 133.929 53.4168 133.935 53.4168C133.981 53.4168 134.036 53.4076 134.036 53.4764V55.52C133.977 55.5489 133.898 55.604 133.898 55.7017C133.898 55.831 133.898 55.8008 133.898 55.8683C133.898 55.9098 133.863 55.978 133.787 55.978C133.722 55.978 133.588 55.9786 133.475 55.9786C133.406 55.9786 133.361 56.0317 133.361 56.0789V56.4116C133.361 56.443 133.4 56.4857 133.447 56.4837C133.604 56.4791 133.712 56.5251 133.712 56.6398C133.712 56.6457 133.709 56.7599 133.709 56.7658C133.709 56.8734 133.601 56.922 133.482 56.9626C133.253 57.0427 132.728 57.1825 132.714 57.5518C131.846 57.9538 130.274 58.8186 129.142 60.521C127.693 62.5027 127.831 65.241 127.817 65.6288C127.814 65.7101 127.755 65.7593 127.693 65.7593C127.651 65.7593 127.552 65.7593 127.525 65.7593C127.453 65.7593 127.453 65.8216 127.453 65.8216V66.1056C127.453 66.1056 127.456 66.1758 127.38 66.1758C127.308 66.1758 127.097 66.1758 127.097 66.1758C127.097 66.1758 127.024 66.1758 127.024 66.2545C127.024 66.3168 127.024 66.5622 127.024 66.5622C127.024 66.5622 127.028 66.6245 126.945 66.6245C126.888 66.6245 126.66 66.6245 126.66 66.6245C126.66 66.6245 126.581 66.6245 126.581 66.7046C126.581 66.7511 126.581 66.9356 126.581 67.036C126.581 67.0726 126.605 67.0791 126.63 67.0838C126.715 67.0949 126.888 67.173 126.888 67.3619C126.888 67.6847 127.087 67.7155 127.166 67.7155V68.9075C127.166 69.185 126.949 69.2946 126.826 69.3242C126.801 69.328 126.768 69.3569 126.768 69.3904C126.768 69.4219 126.768 70.6172 126.768 70.6172L135.139 68.7705H135.151L143.523 70.6172C143.523 70.6172 143.523 69.4219 143.523 69.3904C143.523 69.3569 143.486 69.328 143.461 69.3242C143.338 69.2946 143.125 69.185 143.125 68.9075V67.7155C143.204 67.7155 143.402 67.6847 143.402 67.3619C143.402 67.173 143.575 67.0949 143.657 67.0838C143.686 67.0791 143.71 67.0726 143.71 67.036C143.71 66.9356 143.71 66.7511 143.71 66.7046C143.71 66.6245 143.627 66.6245 143.627 66.6245Z" fill="white"/>
<path d="M152.887 93.3799V90.9329H151.456V89.8641H118.81V90.9309H117.376V93.3758H115.937V95.8478L154.327 95.8505V93.3799H152.887Z" fill="white"/>
</g>
<defs>
<clipPath id="clip0_49_102">
<rect width="510.732" height="150" fill="white"/>
</clipPath>
</defs>
</svg>
