<svg xmlns="http://www.w3.org/2000/svg" xmlns:xlink="http://www.w3.org/1999/xlink" width="128" zoomAndPan="magnify" viewBox="0 0 96 30.000001" height="40" preserveAspectRatio="xMidYMid meet" version="1.0"><defs><g/><clipPath id="1c83ba8c89"><path d="M 7.03125 2 L 36 2 L 36 28 L 7.03125 28 Z M 7.03125 2 " clip-rule="nonzero"/></clipPath><clipPath id="c1fe1d0351"><rect x="0" width="49" y="0" height="21"/></clipPath></defs><g clip-path="url(#1c83ba8c89)"><path fill="#1a1a1a" d="M 7.027344 2.511719 L 21.429688 27.945312 L 22.582031 25.914062 L 8.980469 2.511719 Z M 12.832031 2.511719 L 24.273438 22.925781 L 35.835938 2.511719 L 34.441406 2.511719 L 24.617188 19.859375 L 14.792969 2.511719 Z M 12.832031 2.511719 " fill-opacity="1" fill-rule="nonzero"/></g><g transform="matrix(1, 0, 0, 1, 35, 6)"><g clip-path="url(#c1fe1d0351)"><g fill="#000000" fill-opacity="1"><g transform="translate(0.381382, 16.647612)"><g><path d="M 11.375 -13.625 L 13.09375 -13.625 L 8.171875 0 L 5.71875 0 L 0.78125 -13.625 L 2.5625 -13.625 L 6.375 -3.109375 C 6.601562 -2.484375 6.800781 -1.882812 6.96875 -1.3125 C 7.050781 -1.613281 7.140625 -1.910156 7.234375 -2.203125 C 7.335938 -2.503906 7.4375 -2.804688 7.53125 -3.109375 Z M 11.375 -13.625 "/></g></g></g><g fill="#000000" fill-opacity="1"><g transform="translate(12.620267, 16.647612)"><g><path d="M 4.5625 0.265625 C 3.582031 0.265625 2.773438 0.015625 2.140625 -0.484375 C 1.503906 -0.992188 1.1875 -1.734375 1.1875 -2.703125 C 1.1875 -3.535156 1.425781 -4.210938 1.90625 -4.734375 C 2.394531 -5.253906 3.191406 -5.601562 4.296875 -5.78125 L 6.90625 -6.203125 C 7.445312 -6.296875 7.835938 -6.429688 8.078125 -6.609375 C 8.316406 -6.785156 8.4375 -7.066406 8.4375 -7.453125 C 8.4375 -7.972656 8.265625 -8.410156 7.921875 -8.765625 C 7.585938 -9.117188 6.921875 -9.296875 5.921875 -9.296875 C 4.921875 -9.296875 4.207031 -9.082031 3.78125 -8.65625 C 3.351562 -8.238281 3.109375 -7.695312 3.046875 -7.03125 L 1.4375 -7.03125 C 1.457031 -8.125 1.847656 -8.988281 2.609375 -9.625 C 3.367188 -10.269531 4.453125 -10.59375 5.859375 -10.59375 C 7.265625 -10.59375 8.296875 -10.300781 8.953125 -9.71875 C 9.609375 -9.132812 9.9375 -8.378906 9.9375 -7.453125 L 9.9375 -2.546875 C 9.9375 -2.171875 9.941406 -1.78125 9.953125 -1.375 C 9.960938 -0.96875 10 -0.507812 10.0625 0 L 8.5625 0 C 8.519531 -0.4375 8.484375 -0.847656 8.453125 -1.234375 C 8.429688 -1.628906 8.421875 -2.015625 8.421875 -2.390625 C 8.296875 -1.984375 8.078125 -1.570312 7.765625 -1.15625 C 7.460938 -0.75 7.050781 -0.410156 6.53125 -0.140625 C 6.007812 0.128906 5.351562 0.265625 4.5625 0.265625 Z M 4.890625 -1.03125 C 5.703125 -1.03125 6.367188 -1.210938 6.890625 -1.578125 C 7.421875 -1.941406 7.8125 -2.414062 8.0625 -3 C 8.3125 -3.59375 8.4375 -4.210938 8.4375 -4.859375 L 8.4375 -5.734375 C 8.175781 -5.554688 7.898438 -5.414062 7.609375 -5.3125 C 7.328125 -5.207031 6.988281 -5.117188 6.59375 -5.046875 L 4.890625 -4.6875 C 4.191406 -4.550781 3.675781 -4.335938 3.34375 -4.046875 C 3.007812 -3.753906 2.84375 -3.328125 2.84375 -2.765625 C 2.84375 -2.179688 3.035156 -1.742188 3.421875 -1.453125 C 3.804688 -1.171875 4.296875 -1.03125 4.890625 -1.03125 Z M 4.890625 -1.03125 "/></g></g></g><g fill="#000000" fill-opacity="1"><g transform="translate(23.836608, 16.647612)"><g><path d="M 11.3125 -13.625 L 12.984375 -13.625 L 12.984375 0 L 10.140625 0 L 3.953125 -10.6875 C 3.609375 -11.34375 3.320312 -11.9375 3.09375 -12.46875 L 3.09375 0 L 1.390625 0 L 1.390625 -13.625 L 4.265625 -13.625 L 10.453125 -2.90625 C 10.585938 -2.675781 10.726562 -2.40625 10.875 -2.09375 C 11.03125 -1.78125 11.175781 -1.460938 11.3125 -1.140625 Z M 11.3125 -13.625 "/></g></g></g><g fill="#000000" fill-opacity="1"><g transform="translate(38.123061, 16.647612)"><g><path d="M 8.828125 -12.25 L 5.9375 -12.25 L 5.9375 -1.375 L 8.828125 -1.375 L 8.828125 0 L 1.375 0 L 1.375 -1.375 L 4.265625 -1.375 L 4.265625 -12.25 L 1.375 -12.25 L 1.375 -13.625 L 8.828125 -13.625 Z M 8.828125 -12.25 "/></g></g></g></g></g></svg>