<svg width="800" height="400" viewBox="0 0 800 400" fill="none" xmlns="http://www.w3.org/2000/svg">
  <rect x="430" y="130" width="10" height="10" fill="#000000"/>
  <rect x="440" y="130" width="10" height="10" fill="#000000"/>
  <rect x="450" y="130" width="10" height="10" fill="#000000"/>
  <rect x="420" y="140" width="10" height="10" fill="#000000"/>
  <rect x="430" y="140" width="10" height="10" fill="#000000"/>
  <rect x="440" y="140" width="10" height="10" fill="#000000"/>
  <rect x="420" y="150" width="10" height="10" fill="#000000"/>
  <rect x="430" y="150" width="10" height="10" fill="#000000"/>
  <rect x="450" y="150" width="10" height="10" fill="#000000"/>
  <rect x="410" y="160" width="10" height="10" fill="#000000"/>
  <rect x="420" y="160" width="10" height="10" fill="#000000"/>
  <rect x="430" y="160" width="10" height="10" fill="#000000"/>
  <rect x="440" y="160" width="10" height="10" fill="#000000"/>
  <rect x="450" y="160" width="10" height="10" fill="#000000"/>
  <rect x="400" y="170" width="10" height="10" fill="#000000"/>
  <rect x="410" y="170" width="10" height="10" fill="#000000"/>
  <rect x="420" y="170" width="10" height="10" fill="#000000"/>
  <rect x="440" y="170" width="10" height="10" fill="#000000"/>
  <rect x="450" y="170" width="10" height="10" fill="#000000"/>
  <rect x="340" y="180" width="10" height="10" fill="#000000"/>
  <rect x="350" y="180" width="10" height="10" fill="#000000"/>
  <rect x="360" y="180" width="10" height="10" fill="#000000"/>
  <rect x="400" y="180" width="10" height="10" fill="#000000"/>
  <rect x="410" y="180" width="10" height="10" fill="#000000"/>
  <rect x="440" y="180" width="10" height="10" fill="#000000"/>
  <rect x="450" y="180" width="10" height="10" fill="#000000"/>
  <rect x="350" y="190" width="10" height="10" fill="#000000"/>
  <rect x="360" y="190" width="10" height="10" fill="#000000"/>
  <rect x="370" y="190" width="10" height="10" fill="#000000"/>
  <rect x="390" y="190" width="10" height="10" fill="#000000"/>
  <rect x="400" y="190" width="10" height="10" fill="#000000"/>
  <rect x="410" y="190" width="10" height="10" fill="#000000"/>
  <rect x="440" y="190" width="10" height="10" fill="#000000"/>
  <rect x="450" y="190" width="10" height="10" fill="#000000"/>
  <rect x="360" y="200" width="10" height="10" fill="#000000"/>
  <rect x="370" y="200" width="10" height="10" fill="#000000"/>
  <rect x="390" y="200" width="10" height="10" fill="#000000"/>
  <rect x="400" y="200" width="10" height="10" fill="#000000"/>
  <rect x="440" y="200" width="10" height="10" fill="#000000"/>
  <rect x="450" y="200" width="10" height="10" fill="#000000"/>
  <rect x="360" y="210" width="10" height="10" fill="#000000"/>
  <rect x="370" y="210" width="10" height="10" fill="#000000"/>
  <rect x="380" y="210" width="10" height="10" fill="#000000"/>
  <rect x="440" y="210" width="10" height="10" fill="#000000"/>
  <rect x="450" y="210" width="10" height="10" fill="#000000"/>
  <rect x="370" y="220" width="10" height="10" fill="#000000"/>
  <rect x="380" y="220" width="10" height="10" fill="#000000"/>
  <rect x="390" y="220" width="10" height="10" fill="#000000"/>
  <rect x="440" y="220" width="10" height="10" fill="#000000"/>
  <rect x="450" y="220" width="10" height="10" fill="#000000"/>
  <rect x="360" y="230" width="10" height="10" fill="#000000"/>
  <rect x="380" y="230" width="10" height="10" fill="#000000"/>
  <rect x="390" y="230" width="10" height="10" fill="#000000"/>
  <rect x="440" y="230" width="10" height="10" fill="#000000"/>
  <rect x="450" y="230" width="10" height="10" fill="#000000"/>
  <rect x="360" y="240" width="10" height="10" fill="#000000"/>
  <rect x="370" y="240" width="10" height="10" fill="#000000"/>
  <rect x="380" y="240" width="10" height="10" fill="#000000"/>
  <rect x="390" y="240" width="10" height="10" fill="#000000"/>
  <rect x="400" y="240" width="10" height="10" fill="#000000"/>
  <rect x="440" y="240" width="10" height="10" fill="#000000"/>
  <rect x="450" y="240" width="10" height="10" fill="#000000"/>
  <rect x="350" y="250" width="10" height="10" fill="#000000"/>
  <rect x="360" y="250" width="10" height="10" fill="#000000"/>
  <rect x="370" y="250" width="10" height="10" fill="#000000"/>
  <rect x="390" y="250" width="10" height="10" fill="#000000"/>
  <rect x="400" y="250" width="10" height="10" fill="#000000"/>
  <rect x="410" y="250" width="10" height="10" fill="#000000"/>
  <rect x="440" y="250" width="10" height="10" fill="#000000"/>
  <rect x="450" y="250" width="10" height="10" fill="#000000"/>
  <rect x="340" y="260" width="10" height="10" fill="#000000"/>
  <rect x="350" y="260" width="10" height="10" fill="#000000"/>
  <rect x="360" y="260" width="10" height="10" fill="#000000"/>
  <rect x="400" y="260" width="10" height="10" fill="#000000"/>
  <rect x="410" y="260" width="10" height="10" fill="#000000"/>
  <rect x="440" y="260" width="10" height="10" fill="#000000"/>
  <rect x="450" y="260" width="10" height="10" fill="#000000"/>
</svg>
