<svg width="150" height="150" viewBox="0 0 150 150" fill="none" xmlns="http://www.w3.org/2000/svg">
<g clip-path="url(#clip0_48_84)">
<path d="M150 0H0V150H150V0Z" fill="#FB651E"/>
<path d="M69.9457 84.8119L44.1992 36.5809H55.9657L71.1107 67.1039C71.3437 67.6476 71.6156 68.2107 71.9262 68.7932C72.2369 69.3757 72.5087 69.9776 72.7417 70.5989C72.8971 70.8319 73.0136 71.0455 73.0912 71.2397C73.1689 71.4338 73.2466 71.6086 73.3242 71.7639C73.7126 72.5406 74.0621 73.2978 74.3727 74.0357C74.6834 74.7735 74.9552 75.4531 75.1882 76.0744C75.8096 74.7541 76.4891 73.3367 77.227 71.8222C77.9648 70.3077 78.7221 68.7349 79.4987 67.1039L94.8767 36.5809H105.828L79.8482 85.3944V116.5H69.9457V84.8119Z" fill="white"/>
</g>
<defs>
<clipPath id="clip0_48_84">
<rect width="150" height="150" fill="white"/>
</clipPath>
</defs>
</svg>
