<svg width="800" height="400" viewBox="0 0 800 400" fill="none" xmlns="http://www.w3.org/2000/svg">
<g clip-path="url(#clip0_61_833)">
<mask id="mask0_61_833" style="mask-type:luminance" maskUnits="userSpaceOnUse" x="284" y="84" width="233" height="233">
<path d="M516.7 84H284V316.7H516.7V84Z" fill="white"/>
</mask>
<g mask="url(#mask0_61_833)">
<path d="M516.7 84H284V316.7H516.7V84Z" fill="#FB651E"/>
<path d="M392.509 215.571L352.567 140.749H370.821L394.316 188.1C394.678 188.944 395.099 189.817 395.581 190.721C396.063 191.625 396.485 192.558 396.846 193.522C397.087 193.884 397.268 194.215 397.389 194.516C397.509 194.817 397.63 195.089 397.75 195.33C398.353 196.535 398.895 197.709 399.377 198.854C399.859 199.998 400.28 201.053 400.642 202.017C401.606 199.968 402.66 197.77 403.805 195.42C404.949 193.071 406.124 190.631 407.329 188.1L431.185 140.749H448.174L407.871 216.475V264.73H392.509V215.571Z" fill="white"/>
</g>
</g>
<defs>
<clipPath id="clip0_61_833">
<rect width="232.7" height="232.7" fill="white" transform="translate(284 84)"/>
</clipPath>
</defs>
</svg>
