<svg xmlns="http://www.w3.org/2000/svg" width="1024" height="1024" viewBox="0 0 1024 1024" style="shape-rendering:crispEdges;image-rendering:pixelated">
  <rect x="257" y="480" width="64" height="64" fill="white" style="stroke:none;shape-rendering:crispEdges" />
  <rect x="257" y="416" width="64" height="64" fill="white" style="stroke:none;shape-rendering:crispEdges" />
  <rect x="257" y="352" width="64" height="64" fill="white" style="stroke:none;shape-rendering:crispEdges" />
  <rect x="321" y="352" width="64" height="64" fill="white" style="stroke:none;shape-rendering:crispEdges" />
  <rect x="321" y="288" width="64" height="64" fill="white" style="stroke:none;shape-rendering:crispEdges" />
  <rect x="385" y="288" width="64" height="64" fill="white" style="stroke:none;shape-rendering:crispEdges" />
  <rect x="385" y="224" width="64" height="64" fill="white" style="stroke:none;shape-rendering:crispEdges" />
  <rect x="449" y="224" width="64" height="64" fill="white" style="stroke:none;shape-rendering:crispEdges" />
  <rect x="513" y="288" width="64" height="64" fill="white" style="stroke:none;shape-rendering:crispEdges" />
  <rect x="513" y="352" width="64" height="64" fill="white" style="stroke:none;shape-rendering:crispEdges" />
  <rect x="577" y="352" width="64" height="64" fill="white" style="stroke:none;shape-rendering:crispEdges" />
  <rect x="641" y="352" width="64" height="64" fill="white" style="stroke:none;shape-rendering:crispEdges" />
  <rect x="641" y="416" width="64" height="64" fill="white" style="stroke:none;shape-rendering:crispEdges" />
  <rect x="705" y="480" width="64" height="64" fill="white" style="stroke:none;shape-rendering:crispEdges" />
  <rect x="769" y="544" width="64" height="64" fill="white" style="stroke:none;shape-rendering:crispEdges" />
  <rect x="769" y="608" width="64" height="64" fill="white" style="stroke:none;shape-rendering:crispEdges" />
  <rect x="769" y="672" width="64" height="64" fill="white" style="stroke:none;shape-rendering:crispEdges" />
  <rect x="705" y="736" width="64" height="64" fill="white" style="stroke:none;shape-rendering:crispEdges" />
  <rect x="641" y="736" width="64" height="64" fill="white" style="stroke:none;shape-rendering:crispEdges" />
  <rect x="577" y="672" width="64" height="64" fill="white" style="stroke:none;shape-rendering:crispEdges" />
  <rect x="513" y="672" width="64" height="64" fill="white" style="stroke:none;shape-rendering:crispEdges" />
  <rect x="513" y="736" width="64" height="64" fill="white" style="stroke:none;shape-rendering:crispEdges" />
  <rect x="513" y="800" width="64" height="64" fill="white" style="stroke:none;shape-rendering:crispEdges" />
  <rect x="513" y="480" width="64" height="64" fill="white" style="stroke:none;shape-rendering:crispEdges" />
  <rect x="193" y="544" width="64" height="64" fill="white" style="stroke:none;shape-rendering:crispEdges" />
  <rect x="257" y="544" width="64" height="64" fill="white" style="stroke:none;shape-rendering:crispEdges" />
  <rect x="193" y="608" width="64" height="64" fill="white" style="stroke:none;shape-rendering:crispEdges" />
  <rect x="257" y="608" width="64" height="64" fill="white" style="stroke:none;shape-rendering:crispEdges" />
  <rect x="193" y="672" width="64" height="64" fill="white" style="stroke:none;shape-rendering:crispEdges" />
  <rect x="193" y="736" width="64" height="64" fill="white" style="stroke:none;shape-rendering:crispEdges" />
  <rect x="257" y="672" width="64" height="64" fill="white" style="stroke:none;shape-rendering:crispEdges" />
  <rect x="641" y="288" width="64" height="64" fill="#B307EB" style="stroke:none;shape-rendering:crispEdges" />
  <rect x="705" y="288" width="64" height="64" fill="#3198F1" style="stroke:none;shape-rendering:crispEdges" />
  <rect x="705" y="224" width="64" height="64" fill="#4EF9BD" style="stroke:none;shape-rendering:crispEdges" />
  <rect x="769" y="160" width="64" height="64" fill="#EE1701" style="stroke:none;shape-rendering:crispEdges" />
  <rect x="193" y="480" width="64" height="64" fill="white" style="stroke:none;shape-rendering:crispEdges" />
</svg>

