<svg width="1024" height="1024" viewBox="0 0 1024 1024" fill="none" xmlns="http://www.w3.org/2000/svg">
<path d="M321 480H257V544H321V480Z" fill="white"/>
<path d="M321 416H257V480H321V416Z" fill="white"/>
<path d="M321 352H257V416H321V352Z" fill="white"/>
<path d="M385 352H321V416H385V352Z" fill="white"/>
<path d="M385 288H321V352H385V288Z" fill="white"/>
<path d="M449 288H385V352H449V288Z" fill="white"/>
<path d="M449 224H385V288H449V224Z" fill="white"/>
<path d="M513 224H449V288H513V224Z" fill="white"/>
<path d="M577 288H513V352H577V288Z" fill="white"/>
<path d="M577 352H513V416H577V352Z" fill="white"/>
<path d="M641 352H577V416H641V352Z" fill="white"/>
<path d="M705 352H641V416H705V352Z" fill="white"/>
<path d="M705 416H641V480H705V416Z" fill="white"/>
<path d="M769 480H705V544H769V480Z" fill="white"/>
<path d="M833 544H769V608H833V544Z" fill="white"/>
<path d="M833 608H769V672H833V608Z" fill="white"/>
<path d="M833 672H769V736H833V672Z" fill="white"/>
<path d="M769 736H705V800H769V736Z" fill="white"/>
<path d="M705 736H641V800H705V736Z" fill="white"/>
<path d="M641 672H577V736H641V672Z" fill="white"/>
<path d="M577 672H513V736H577V672Z" fill="white"/>
<path d="M577 736H513V800H577V736Z" fill="white"/>
<path d="M577 800H513V864H577V800Z" fill="white"/>
<path d="M577 480H513V544H577V480Z" fill="white"/>
<path d="M257 544H193V608H257V544Z" fill="white"/>
<path d="M321 544H257V608H321V544Z" fill="white"/>
<path d="M257 608H193V672H257V608Z" fill="white"/>
<path d="M321 608H257V672H321V608Z" fill="white"/>
<path d="M257 672H193V736H257V672Z" fill="white"/>
<path d="M257 736H193V800H257V736Z" fill="white"/>
<path d="M321 672H257V736H321V672Z" fill="white"/>
<path d="M705 288H641V352H705V288Z" fill="#B307EB"/>
<path d="M769 288H705V352H769V288Z" fill="#3198F1"/>
<path d="M769 224H705V288H769V224Z" fill="#4EF9BD"/>
<path d="M833 160H769V224H833V160Z" fill="#EE1701"/>
<path d="M257 480H193V544H257V480Z" fill="white"/>
</svg>
