<svg width="1894" height="250" viewBox="0 0 1894 250" fill="none" xmlns="http://www.w3.org/2000/svg">
<mask id="path-1-outside-1_754_17906" maskUnits="userSpaceOnUse" x="-0.998047" y="0" width="1895" height="250" fill="black">
<rect fill="white" x="-0.998047" width="1895" height="250"/>
<path d="M2.00195 2H25.547L25.6969 224.455H2.15183L2.00195 2ZM25.6969 224.455H96.3321V248H25.6969V224.455ZM96.1823 2H119.727L119.877 224.455H96.3321L96.1823 2Z"/>
<path d="M161.88 106.59H185.425V130.135H208.97V153.68H185.425V247.861H161.88V106.59ZM208.97 106.59H256.06V130.135H208.97V106.59ZM256.06 130.135H279.605V247.861H256.06V130.135Z"/>
<path d="M368.697 130.135H321.607V106.59H392.243V224.316H439.333V247.861H321.607V224.316H368.697V130.135ZM368.697 59.5H392.243V83.0451H368.697V59.5Z"/>
<path d="M504.88 106.59H575.515V130.135H504.88V106.59ZM481.335 130.135H504.88V224.316H481.335V130.135ZM504.88 224.316H575.515V247.861H504.88V224.316ZM575.515 130.135H599.06V153.68H575.515V130.135ZM575.515 200.77H599.06V224.316H575.515V200.77Z"/>
<path d="M664.607 106.59H735.243V130.135H664.607V106.59ZM735.243 130.135H758.788V224.316H735.243V130.135ZM641.062 130.135H664.607V224.316H641.062V130.135ZM664.607 224.316H735.243V247.861H664.607V224.316Z"/>
<path d="M847.88 106.59V130.135H871.425V153.68H847.88V224.316H894.97V247.861H800.79V224.316H824.335V130.135H800.79V106.59H847.88ZM918.516 106.59V130.135H871.425V106.59H918.516Z"/>
<path d="M960.518 106.59H984.063V130.135H1007.61V153.68H984.063V247.861H960.518V106.59ZM1007.61 106.59H1054.7V130.135H1007.61V106.59ZM1054.7 130.135H1078.24V247.861H1054.7V130.135Z"/>
<path d="M1135.15 2H1158.7V84.0887H1182.24V107.634H1158.7V248H1135.15V2ZM1229.33 107.634H1205.79V84.0887H1229.33V2H1252.88V248H1229.33V107.634ZM1182.24 107.634H1205.79V154.724H1182.24V107.634Z"/>
<path d="M1294.88 177.365H1318.42V224.455H1294.88V177.365ZM1318.42 224.455H1365.51V248H1318.42V224.455ZM1365.51 200.91H1389.06V177.365H1318.42V153.82H1389.06V130.275H1412.6V248H1389.06V224.455H1365.51V200.91ZM1318.42 106.729H1389.06V130.275H1318.42V106.729Z"/>
<path d="M1478.15 130.275H1454.61V106.729H1478.15V83.1844H1501.7V106.729H1572.33V130.275H1501.7V224.455H1548.79V248H1454.61V224.455H1478.15V130.275ZM1501.7 59.6394H1572.33V83.1844H1501.7V59.6394Z"/>
<path d="M1661.42 130.275H1614.33V106.729H1684.97V224.455H1732.06V248H1614.33V224.455H1661.42V130.275ZM1661.42 59.6394H1684.97V83.1844H1661.42V59.6394Z"/>
<path d="M1774.06 177.365H1797.61V224.455H1774.06V177.365ZM1797.61 224.455H1844.7V248H1797.61V224.455ZM1844.7 200.91H1868.24V177.365H1797.61V153.82H1868.24V130.275H1891.79V248H1868.24V224.455H1844.7V200.91ZM1797.61 106.729H1868.24V130.275H1797.61V106.729Z"/>
</mask>
<path d="M2.00195 2H25.547L25.6969 224.455H2.15183L2.00195 2ZM25.6969 224.455H96.3321V248H25.6969V224.455ZM96.1823 2H119.727L119.877 224.455H96.3321L96.1823 2Z" fill="white"/>
<path d="M161.88 106.59H185.425V130.135H208.97V153.68H185.425V247.861H161.88V106.59ZM208.97 106.59H256.06V130.135H208.97V106.59ZM256.06 130.135H279.605V247.861H256.06V130.135Z" fill="white"/>
<path d="M368.697 130.135H321.607V106.59H392.243V224.316H439.333V247.861H321.607V224.316H368.697V130.135ZM368.697 59.5H392.243V83.0451H368.697V59.5Z" fill="white"/>
<path d="M504.88 106.59H575.515V130.135H504.88V106.59ZM481.335 130.135H504.88V224.316H481.335V130.135ZM504.88 224.316H575.515V247.861H504.88V224.316ZM575.515 130.135H599.06V153.68H575.515V130.135ZM575.515 200.77H599.06V224.316H575.515V200.77Z" fill="white"/>
<path d="M664.607 106.59H735.243V130.135H664.607V106.59ZM735.243 130.135H758.788V224.316H735.243V130.135ZM641.062 130.135H664.607V224.316H641.062V130.135ZM664.607 224.316H735.243V247.861H664.607V224.316Z" fill="white"/>
<path d="M847.88 106.59V130.135H871.425V153.68H847.88V224.316H894.97V247.861H800.79V224.316H824.335V130.135H800.79V106.59H847.88ZM918.516 106.59V130.135H871.425V106.59H918.516Z" fill="white"/>
<path d="M960.518 106.59H984.063V130.135H1007.61V153.68H984.063V247.861H960.518V106.59ZM1007.61 106.59H1054.7V130.135H1007.61V106.59ZM1054.7 130.135H1078.24V247.861H1054.7V130.135Z" fill="white"/>
<path d="M1135.15 2H1158.7V84.0887H1182.24V107.634H1158.7V248H1135.15V2ZM1229.33 107.634H1205.79V84.0887H1229.33V2H1252.88V248H1229.33V107.634ZM1182.24 107.634H1205.79V154.724H1182.24V107.634Z" fill="white"/>
<path d="M1294.88 177.365H1318.42V224.455H1294.88V177.365ZM1318.42 224.455H1365.51V248H1318.42V224.455ZM1365.51 200.91H1389.06V177.365H1318.42V153.82H1389.06V130.275H1412.6V248H1389.06V224.455H1365.51V200.91ZM1318.42 106.729H1389.06V130.275H1318.42V106.729Z" fill="white"/>
<path d="M1478.15 130.275H1454.61V106.729H1478.15V83.1844H1501.7V106.729H1572.33V130.275H1501.7V224.455H1548.79V248H1454.61V224.455H1478.15V130.275ZM1501.7 59.6394H1572.33V83.1844H1501.7V59.6394Z" fill="white"/>
<path d="M1661.42 130.275H1614.33V106.729H1684.97V224.455H1732.06V248H1614.33V224.455H1661.42V130.275ZM1661.42 59.6394H1684.97V83.1844H1661.42V59.6394Z" fill="white"/>
<path d="M1774.06 177.365H1797.61V224.455H1774.06V177.365ZM1797.61 224.455H1844.7V248H1797.61V224.455ZM1844.7 200.91H1868.24V177.365H1797.61V153.82H1868.24V130.275H1891.79V248H1868.24V224.455H1844.7V200.91ZM1797.61 106.729H1868.24V130.275H1797.61V106.729Z" fill="white"/>
<path d="M2.00195 2V0H0.000605106L0.0019536 2.00135L2.00195 2ZM25.547 2L27.547 1.99865L27.5457 0H25.547V2ZM2.15183 224.455L0.151833 224.456L0.153179 226.455H2.15183V224.455ZM96.3321 248V250H98.3321V248H96.3321ZM25.6969 248H23.6969V250H25.6969V248ZM96.1823 2V0H94.1809L94.1823 2.00135L96.1823 2ZM119.727 2L121.727 1.99865L121.726 0H119.727V2ZM119.877 224.455V226.455H121.879L121.877 224.454L119.877 224.455ZM161.88 106.59V104.59H159.88V106.59H161.88ZM185.425 106.59H187.425V104.59H185.425V106.59ZM185.425 130.135H183.425V132.135H185.425V130.135ZM208.97 153.68V155.68H210.97V153.68H208.97ZM185.425 153.68V151.68H183.425V153.68H185.425ZM185.425 247.861V249.861H187.425V247.861H185.425ZM161.88 247.861H159.88V249.861H161.88V247.861ZM208.97 106.59V104.59H206.97V106.59H208.97ZM256.06 106.59H258.06V104.59H256.06V106.59ZM279.605 130.135H281.605V128.135H279.605V130.135ZM279.605 247.861V249.861H281.605V247.861H279.605ZM256.06 247.861H254.06V249.861H256.06V247.861ZM368.697 130.135H370.697V128.135H368.697V130.135ZM321.607 130.135H319.607V132.135H321.607V130.135ZM321.607 106.59V104.59H319.607V106.59H321.607ZM392.243 106.59H394.243V104.59H392.243V106.59ZM392.243 224.316H390.243V226.316H392.243V224.316ZM439.333 224.316H441.333V222.316H439.333V224.316ZM439.333 247.861V249.861H441.333V247.861H439.333ZM321.607 247.861H319.607V249.861H321.607V247.861ZM321.607 224.316V222.316H319.607V224.316H321.607ZM368.697 224.316V226.316H370.697V224.316H368.697ZM368.697 59.5V57.5H366.697V59.5H368.697ZM392.243 59.5H394.243V57.5H392.243V59.5ZM392.243 83.0451V85.0451H394.243V83.0451H392.243ZM368.697 83.0451H366.697V85.0451H368.697V83.0451ZM504.88 106.59V104.59H502.88V106.59H504.88ZM575.515 106.59H577.515V104.59H575.515V106.59ZM481.335 130.135V128.135H479.335V130.135H481.335ZM481.335 224.316H479.335V226.316H481.335V224.316ZM575.515 247.861V249.861H577.515V247.861H575.515ZM504.88 247.861H502.88V249.861H504.88V247.861ZM599.06 130.135H601.06V128.135H599.06V130.135ZM599.06 153.68V155.68H601.06V153.68H599.06ZM575.515 153.68H573.515V155.68H575.515V153.68ZM575.515 200.77V198.77H573.515V200.77H575.515ZM599.06 200.77H601.06V198.77H599.06V200.77ZM599.06 224.316V226.316H601.06V224.316H599.06ZM664.607 106.59V104.59H662.607V106.59H664.607ZM735.243 106.59H737.243V104.59H735.243V106.59ZM758.788 130.135H760.788V128.135H758.788V130.135ZM758.788 224.316V226.316H760.788V224.316H758.788ZM641.062 130.135V128.135H639.062V130.135H641.062ZM641.062 224.316H639.062V226.316H641.062V224.316ZM735.243 247.861V249.861H737.243V247.861H735.243ZM664.607 247.861H662.607V249.861H664.607V247.861ZM847.88 106.59H849.88V104.59H847.88V106.59ZM847.88 130.135H845.88V132.135H847.88V130.135ZM871.425 153.68V155.68H873.425V153.68H871.425ZM847.88 153.68V151.68H845.88V153.68H847.88ZM847.88 224.316H845.88V226.316H847.88V224.316ZM894.97 224.316H896.97V222.316H894.97V224.316ZM894.97 247.861V249.861H896.97V247.861H894.97ZM800.79 247.861H798.79V249.861H800.79V247.861ZM800.79 224.316V222.316H798.79V224.316H800.79ZM824.335 224.316V226.316H826.335V224.316H824.335ZM824.335 130.135H826.335V128.135H824.335V130.135ZM800.79 130.135H798.79V132.135H800.79V130.135ZM800.79 106.59V104.59H798.79V106.59H800.79ZM918.516 106.59H920.516V104.59H918.516V106.59ZM918.516 130.135V132.135H920.516V130.135H918.516ZM871.425 106.59V104.59H869.425V106.59H871.425ZM960.518 106.59V104.59H958.518V106.59H960.518ZM984.063 106.59H986.063V104.59H984.063V106.59ZM984.063 130.135H982.063V132.135H984.063V130.135ZM1007.61 153.68V155.68H1009.61V153.68H1007.61ZM984.063 153.68V151.68H982.063V153.68H984.063ZM984.063 247.861V249.861H986.063V247.861H984.063ZM960.518 247.861H958.518V249.861H960.518V247.861ZM1007.61 106.59V104.59H1005.61V106.59H1007.61ZM1054.7 106.59H1056.7V104.59H1054.7V106.59ZM1078.24 130.135H1080.24V128.135H1078.24V130.135ZM1078.24 247.861V249.861H1080.24V247.861H1078.24ZM1054.7 247.861H1052.7V249.861H1054.7V247.861ZM1135.15 2V0H1133.15V2H1135.15ZM1158.7 2H1160.7V0H1158.7V2ZM1158.7 84.0887H1156.7V86.0887H1158.7V84.0887ZM1182.24 84.0887H1184.24V82.0887H1182.24V84.0887ZM1158.7 107.634V105.634H1156.7V107.634H1158.7ZM1158.7 248V250H1160.7V248H1158.7ZM1135.15 248H1133.15V250H1135.15V248ZM1229.33 107.634H1231.33V105.634H1229.33V107.634ZM1205.79 84.0887V82.0887H1203.79V84.0887H1205.79ZM1229.33 84.0887V86.0887H1231.33V84.0887H1229.33ZM1229.33 2V0H1227.33V2H1229.33ZM1252.88 2H1254.88V0H1252.88V2ZM1252.88 248V250H1254.88V248H1252.88ZM1229.33 248H1227.33V250H1229.33V248ZM1205.79 154.724V156.724H1207.79V154.724H1205.79ZM1182.24 154.724H1180.24V156.724H1182.24V154.724ZM1294.88 177.365V175.365H1292.88V177.365H1294.88ZM1294.88 224.455H1292.88V226.455H1294.88V224.455ZM1365.51 248V250H1367.51V248H1365.51ZM1318.42 248H1316.42V250H1318.42V248ZM1365.51 200.91V198.91H1363.51V200.91H1365.51ZM1389.06 200.91V202.91H1391.06V200.91H1389.06ZM1389.06 177.365H1391.06V175.365H1389.06V177.365ZM1318.42 153.82V151.82H1316.42V153.82H1318.42ZM1389.06 153.82V155.82H1391.06V153.82H1389.06ZM1412.6 130.275H1414.6V128.275H1412.6V130.275ZM1412.6 248V250H1414.6V248H1412.6ZM1389.06 248H1387.06V250H1389.06V248ZM1389.06 224.455H1391.06V222.455H1389.06V224.455ZM1318.42 106.729V104.729H1316.42V106.729H1318.42ZM1389.06 106.729H1391.06V104.729H1389.06V106.729ZM1318.42 130.275H1316.42V132.275H1318.42V130.275ZM1478.15 130.275H1480.15V128.275H1478.15V130.275ZM1454.61 130.275H1452.61V132.275H1454.61V130.275ZM1454.61 106.729V104.729H1452.61V106.729H1454.61ZM1478.15 106.729V108.729H1480.15V106.729H1478.15ZM1478.15 83.1844V81.1844H1476.15V83.1844H1478.15ZM1501.7 106.729H1499.7V108.729H1501.7V106.729ZM1572.33 106.729H1574.33V104.729H1572.33V106.729ZM1572.33 130.275V132.275H1574.33V130.275H1572.33ZM1501.7 130.275V128.275H1499.7V130.275H1501.7ZM1501.7 224.455H1499.7V226.455H1501.7V224.455ZM1548.79 224.455H1550.79V222.455H1548.79V224.455ZM1548.79 248V250H1550.79V248H1548.79ZM1454.61 248H1452.61V250H1454.61V248ZM1454.61 224.455V222.455H1452.61V224.455H1454.61ZM1478.15 224.455V226.455H1480.15V224.455H1478.15ZM1501.7 59.6394V57.6394H1499.7V59.6394H1501.7ZM1572.33 59.6394H1574.33V57.6394H1572.33V59.6394ZM1572.33 83.1844V85.1844H1574.33V83.1844H1572.33ZM1661.42 130.275H1663.42V128.275H1661.42V130.275ZM1614.33 130.275H1612.33V132.275H1614.33V130.275ZM1614.33 106.729V104.729H1612.33V106.729H1614.33ZM1684.97 106.729H1686.97V104.729H1684.97V106.729ZM1684.97 224.455H1682.97V226.455H1684.97V224.455ZM1732.06 224.455H1734.06V222.455H1732.06V224.455ZM1732.06 248V250H1734.06V248H1732.06ZM1614.33 248H1612.33V250H1614.33V248ZM1614.33 224.455V222.455H1612.33V224.455H1614.33ZM1661.42 224.455V226.455H1663.42V224.455H1661.42ZM1661.42 59.6394V57.6394H1659.42V59.6394H1661.42ZM1684.97 59.6394H1686.97V57.6394H1684.97V59.6394ZM1684.97 83.1844V85.1844H1686.97V83.1844H1684.97ZM1661.42 83.1844H1659.42V85.1844H1661.42V83.1844ZM1774.06 177.365V175.365H1772.06V177.365H1774.06ZM1774.06 224.455H1772.06V226.455H1774.06V224.455ZM1844.7 248V250H1846.7V248H1844.7ZM1797.61 248H1795.61V250H1797.61V248ZM1844.7 200.91V198.91H1842.7V200.91H1844.7ZM1868.24 200.91V202.91H1870.24V200.91H1868.24ZM1868.24 177.365H1870.24V175.365H1868.24V177.365ZM1797.61 153.82V151.82H1795.61V153.82H1797.61ZM1868.24 153.82V155.82H1870.24V153.82H1868.24ZM1891.79 130.275H1893.79V128.275H1891.79V130.275ZM1891.79 248V250H1893.79V248H1891.79ZM1868.24 248H1866.24V250H1868.24V248ZM1868.24 224.455H1870.24V222.455H1868.24V224.455ZM1797.61 106.729V104.729H1795.61V106.729H1797.61ZM1868.24 106.729H1870.24V104.729H1868.24V106.729ZM1797.61 130.275H1795.61V132.275H1797.61V130.275ZM2.00195 2V4H25.547V2V0H2.00195V2ZM25.547 2L23.547 2.00135L23.6969 224.456L25.6969 224.455L27.6969 224.454L27.547 1.99865L25.547 2ZM25.6969 224.455V222.455H2.15183V224.455V226.455H25.6969V224.455ZM2.15183 224.455L4.15183 224.454L4.00195 1.99865L2.00195 2L0.0019536 2.00135L0.151833 224.456L2.15183 224.455ZM25.6969 224.455V226.455H96.3321V224.455V222.455H25.6969V224.455ZM96.3321 224.455H94.3321V248H96.3321H98.3321V224.455H96.3321ZM96.3321 248V246H25.6969V248V250H96.3321V248ZM25.6969 248H27.6969V224.455H25.6969H23.6969V248H25.6969ZM96.1823 2V4H119.727V2V0H96.1823V2ZM119.727 2L117.727 2.00135L117.877 224.456L119.877 224.455L121.877 224.454L121.727 1.99865L119.727 2ZM119.877 224.455V222.455H96.3321V224.455V226.455H119.877V224.455ZM96.3321 224.455L98.3321 224.454L98.1823 1.99865L96.1823 2L94.1823 2.00135L94.3321 224.456L96.3321 224.455ZM161.88 106.59V108.59H185.425V106.59V104.59H161.88V106.59ZM185.425 106.59H183.425V130.135H185.425H187.425V106.59H185.425ZM185.425 130.135V132.135H208.97V130.135V128.135H185.425V130.135ZM208.97 130.135H206.97V153.68H208.97H210.97V130.135H208.97ZM208.97 153.68V151.68H185.425V153.68V155.68H208.97V153.68ZM185.425 153.68H183.425V247.861H185.425H187.425V153.68H185.425ZM185.425 247.861V245.861H161.88V247.861V249.861H185.425V247.861ZM161.88 247.861H163.88V106.59H161.88H159.88V247.861H161.88ZM208.97 106.59V108.59H256.06V106.59V104.59H208.97V106.59ZM256.06 106.59H254.06V130.135H256.06H258.06V106.59H256.06ZM256.06 130.135V128.135H208.97V130.135V132.135H256.06V130.135ZM208.97 130.135H210.97V106.59H208.97H206.97V130.135H208.97ZM256.06 130.135V132.135H279.605V130.135V128.135H256.06V130.135ZM279.605 130.135H277.605V247.861H279.605H281.605V130.135H279.605ZM279.605 247.861V245.861H256.06V247.861V249.861H279.605V247.861ZM256.06 247.861H258.06V130.135H256.06H254.06V247.861H256.06ZM368.697 130.135V128.135H321.607V130.135V132.135H368.697V130.135ZM321.607 130.135H323.607V106.59H321.607H319.607V130.135H321.607ZM321.607 106.59V108.59H392.243V106.59V104.59H321.607V106.59ZM392.243 106.59H390.243V224.316H392.243H394.243V106.59H392.243ZM392.243 224.316V226.316H439.333V224.316V222.316H392.243V224.316ZM439.333 224.316H437.333V247.861H439.333H441.333V224.316H439.333ZM439.333 247.861V245.861H321.607V247.861V249.861H439.333V247.861ZM321.607 247.861H323.607V224.316H321.607H319.607V247.861H321.607ZM321.607 224.316V226.316H368.697V224.316V222.316H321.607V224.316ZM368.697 224.316H370.697V130.135H368.697H366.697V224.316H368.697ZM368.697 59.5V61.5H392.243V59.5V57.5H368.697V59.5ZM392.243 59.5H390.243V83.0451H392.243H394.243V59.5H392.243ZM392.243 83.0451V81.0451H368.697V83.0451V85.0451H392.243V83.0451ZM368.697 83.0451H370.697V59.5H368.697H366.697V83.0451H368.697ZM504.88 106.59V108.59H575.515V106.59V104.59H504.88V106.59ZM575.515 106.59H573.515V130.135H575.515H577.515V106.59H575.515ZM575.515 130.135V128.135H504.88V130.135V132.135H575.515V130.135ZM504.88 130.135H506.88V106.59H504.88H502.88V130.135H504.88ZM481.335 130.135V132.135H504.88V130.135V128.135H481.335V130.135ZM504.88 130.135H502.88V224.316H504.88H506.88V130.135H504.88ZM504.88 224.316V222.316H481.335V224.316V226.316H504.88V224.316ZM481.335 224.316H483.335V130.135H481.335H479.335V224.316H481.335ZM504.88 224.316V226.316H575.515V224.316V222.316H504.88V224.316ZM575.515 224.316H573.515V247.861H575.515H577.515V224.316H575.515ZM575.515 247.861V245.861H504.88V247.861V249.861H575.515V247.861ZM504.88 247.861H506.88V224.316H504.88H502.88V247.861H504.88ZM575.515 130.135V132.135H599.06V130.135V128.135H575.515V130.135ZM599.06 130.135H597.06V153.68H599.06H601.06V130.135H599.06ZM599.06 153.68V151.68H575.515V153.68V155.68H599.06V153.68ZM575.515 153.68H577.515V130.135H575.515H573.515V153.68H575.515ZM575.515 200.77V202.77H599.06V200.77V198.77H575.515V200.77ZM599.06 200.77H597.06V224.316H599.06H601.06V200.77H599.06ZM599.06 224.316V222.316H575.515V224.316V226.316H599.06V224.316ZM575.515 224.316H577.515V200.77H575.515H573.515V224.316H575.515ZM664.607 106.59V108.59H735.243V106.59V104.59H664.607V106.59ZM735.243 106.59H733.243V130.135H735.243H737.243V106.59H735.243ZM735.243 130.135V128.135H664.607V130.135V132.135H735.243V130.135ZM664.607 130.135H666.607V106.59H664.607H662.607V130.135H664.607ZM735.243 130.135V132.135H758.788V130.135V128.135H735.243V130.135ZM758.788 130.135H756.788V224.316H758.788H760.788V130.135H758.788ZM758.788 224.316V222.316H735.243V224.316V226.316H758.788V224.316ZM735.243 224.316H737.243V130.135H735.243H733.243V224.316H735.243ZM641.062 130.135V132.135H664.607V130.135V128.135H641.062V130.135ZM664.607 130.135H662.607V224.316H664.607H666.607V130.135H664.607ZM664.607 224.316V222.316H641.062V224.316V226.316H664.607V224.316ZM641.062 224.316H643.062V130.135H641.062H639.062V224.316H641.062ZM664.607 224.316V226.316H735.243V224.316V222.316H664.607V224.316ZM735.243 224.316H733.243V247.861H735.243H737.243V224.316H735.243ZM735.243 247.861V245.861H664.607V247.861V249.861H735.243V247.861ZM664.607 247.861H666.607V224.316H664.607H662.607V247.861H664.607ZM847.88 106.59H845.88V130.135H847.88H849.88V106.59H847.88ZM847.88 130.135V132.135H871.425V130.135V128.135H847.88V130.135ZM871.425 130.135H869.425V153.68H871.425H873.425V130.135H871.425ZM871.425 153.68V151.68H847.88V153.68V155.68H871.425V153.68ZM847.88 153.68H845.88V224.316H847.88H849.88V153.68H847.88ZM847.88 224.316V226.316H894.97V224.316V222.316H847.88V224.316ZM894.97 224.316H892.97V247.861H894.97H896.97V224.316H894.97ZM894.97 247.861V245.861H800.79V247.861V249.861H894.97V247.861ZM800.79 247.861H802.79V224.316H800.79H798.79V247.861H800.79ZM800.79 224.316V226.316H824.335V224.316V222.316H800.79V224.316ZM824.335 224.316H826.335V130.135H824.335H822.335V224.316H824.335ZM824.335 130.135V128.135H800.79V130.135V132.135H824.335V130.135ZM800.79 130.135H802.79V106.59H800.79H798.79V130.135H800.79ZM800.79 106.59V108.59H847.88V106.59V104.59H800.79V106.59ZM918.516 106.59H916.516V130.135H918.516H920.516V106.59H918.516ZM918.516 130.135V128.135H871.425V130.135V132.135H918.516V130.135ZM871.425 130.135H873.425V106.59H871.425H869.425V130.135H871.425ZM871.425 106.59V108.59H918.516V106.59V104.59H871.425V106.59ZM960.518 106.59V108.59H984.063V106.59V104.59H960.518V106.59ZM984.063 106.59H982.063V130.135H984.063H986.063V106.59H984.063ZM984.063 130.135V132.135H1007.61V130.135V128.135H984.063V130.135ZM1007.61 130.135H1005.61V153.68H1007.61H1009.61V130.135H1007.61ZM1007.61 153.68V151.68H984.063V153.68V155.68H1007.61V153.68ZM984.063 153.68H982.063V247.861H984.063H986.063V153.68H984.063ZM984.063 247.861V245.861H960.518V247.861V249.861H984.063V247.861ZM960.518 247.861H962.518V106.59H960.518H958.518V247.861H960.518ZM1007.61 106.59V108.59H1054.7V106.59V104.59H1007.61V106.59ZM1054.7 106.59H1052.7V130.135H1054.7H1056.7V106.59H1054.7ZM1054.7 130.135V128.135H1007.61V130.135V132.135H1054.7V130.135ZM1007.61 130.135H1009.61V106.59H1007.61H1005.61V130.135H1007.61ZM1054.7 130.135V132.135H1078.24V130.135V128.135H1054.7V130.135ZM1078.24 130.135H1076.24V247.861H1078.24H1080.24V130.135H1078.24ZM1078.24 247.861V245.861H1054.7V247.861V249.861H1078.24V247.861ZM1054.7 247.861H1056.7V130.135H1054.7H1052.7V247.861H1054.7ZM1135.15 2V4H1158.7V2V0H1135.15V2ZM1158.7 2H1156.7V84.0887H1158.7H1160.7V2H1158.7ZM1158.7 84.0887V86.0887H1182.24V84.0887V82.0887H1158.7V84.0887ZM1182.24 84.0887H1180.24V107.634H1182.24H1184.24V84.0887H1182.24ZM1182.24 107.634V105.634H1158.7V107.634V109.634H1182.24V107.634ZM1158.7 107.634H1156.7V248H1158.7H1160.7V107.634H1158.7ZM1158.7 248V246H1135.15V248V250H1158.7V248ZM1135.15 248H1137.15V2H1135.15H1133.15V248H1135.15ZM1229.33 107.634V105.634H1205.79V107.634V109.634H1229.33V107.634ZM1205.79 107.634H1207.79V84.0887H1205.79H1203.79V107.634H1205.79ZM1205.79 84.0887V86.0887H1229.33V84.0887V82.0887H1205.79V84.0887ZM1229.33 84.0887H1231.33V2H1229.33H1227.33V84.0887H1229.33ZM1229.33 2V4H1252.88V2V0H1229.33V2ZM1252.88 2H1250.88V248H1252.88H1254.88V2H1252.88ZM1252.88 248V246H1229.33V248V250H1252.88V248ZM1229.33 248H1231.33V107.634H1229.33H1227.33V248H1229.33ZM1182.24 107.634V109.634H1205.79V107.634V105.634H1182.24V107.634ZM1205.79 107.634H1203.79V154.724H1205.79H1207.79V107.634H1205.79ZM1205.79 154.724V152.724H1182.24V154.724V156.724H1205.79V154.724ZM1182.24 154.724H1184.24V107.634H1182.24H1180.24V154.724H1182.24ZM1294.88 177.365V179.365H1318.42V177.365V175.365H1294.88V177.365ZM1318.42 177.365H1316.42V224.455H1318.42H1320.42V177.365H1318.42ZM1318.42 224.455V222.455H1294.88V224.455V226.455H1318.42V224.455ZM1294.88 224.455H1296.88V177.365H1294.88H1292.88V224.455H1294.88ZM1318.42 224.455V226.455H1365.51V224.455V222.455H1318.42V224.455ZM1365.51 224.455H1363.51V248H1365.51H1367.51V224.455H1365.51ZM1365.51 248V246H1318.42V248V250H1365.51V248ZM1318.42 248H1320.42V224.455H1318.42H1316.42V248H1318.42ZM1365.51 200.91V202.91H1389.06V200.91V198.91H1365.51V200.91ZM1389.06 200.91H1391.06V177.365H1389.06H1387.06V200.91H1389.06ZM1389.06 177.365V175.365H1318.42V177.365V179.365H1389.06V177.365ZM1318.42 177.365H1320.42V153.82H1318.42H1316.42V177.365H1318.42ZM1318.42 153.82V155.82H1389.06V153.82V151.82H1318.42V153.82ZM1389.06 153.82H1391.06V130.275H1389.06H1387.06V153.82H1389.06ZM1389.06 130.275V132.275H1412.6V130.275V128.275H1389.06V130.275ZM1412.6 130.275H1410.6V248H1412.6H1414.6V130.275H1412.6ZM1412.6 248V246H1389.06V248V250H1412.6V248ZM1389.06 248H1391.06V224.455H1389.06H1387.06V248H1389.06ZM1389.06 224.455V222.455H1365.51V224.455V226.455H1389.06V224.455ZM1365.51 224.455H1367.51V200.91H1365.51H1363.51V224.455H1365.51ZM1318.42 106.729V108.729H1389.06V106.729V104.729H1318.42V106.729ZM1389.06 106.729H1387.06V130.275H1389.06H1391.06V106.729H1389.06ZM1389.06 130.275V128.275H1318.42V130.275V132.275H1389.06V130.275ZM1318.42 130.275H1320.42V106.729H1318.42H1316.42V130.275H1318.42ZM1478.15 130.275V128.275H1454.61V130.275V132.275H1478.15V130.275ZM1454.61 130.275H1456.61V106.729H1454.61H1452.61V130.275H1454.61ZM1454.61 106.729V108.729H1478.15V106.729V104.729H1454.61V106.729ZM1478.15 106.729H1480.15V83.1844H1478.15H1476.15V106.729H1478.15ZM1478.15 83.1844V85.1844H1501.7V83.1844V81.1844H1478.15V83.1844ZM1501.7 83.1844H1499.7V106.729H1501.7H1503.7V83.1844H1501.7ZM1501.7 106.729V108.729H1572.33V106.729V104.729H1501.7V106.729ZM1572.33 106.729H1570.33V130.275H1572.33H1574.33V106.729H1572.33ZM1572.33 130.275V128.275H1501.7V130.275V132.275H1572.33V130.275ZM1501.7 130.275H1499.7V224.455H1501.7H1503.7V130.275H1501.7ZM1501.7 224.455V226.455H1548.79V224.455V222.455H1501.7V224.455ZM1548.79 224.455H1546.79V248H1548.79H1550.79V224.455H1548.79ZM1548.79 248V246H1454.61V248V250H1548.79V248ZM1454.61 248H1456.61V224.455H1454.61H1452.61V248H1454.61ZM1454.61 224.455V226.455H1478.15V224.455V222.455H1454.61V224.455ZM1478.15 224.455H1480.15V130.275H1478.15H1476.15V224.455H1478.15ZM1501.7 59.6394V61.6394H1572.33V59.6394V57.6394H1501.7V59.6394ZM1572.33 59.6394H1570.33V83.1844H1572.33H1574.33V59.6394H1572.33ZM1572.33 83.1844V81.1844H1501.7V83.1844V85.1844H1572.33V83.1844ZM1501.7 83.1844H1503.7V59.6394H1501.7H1499.7V83.1844H1501.7ZM1661.42 130.275V128.275H1614.33V130.275V132.275H1661.42V130.275ZM1614.33 130.275H1616.33V106.729H1614.33H1612.33V130.275H1614.33ZM1614.33 106.729V108.729H1684.97V106.729V104.729H1614.33V106.729ZM1684.97 106.729H1682.97V224.455H1684.97H1686.97V106.729H1684.97ZM1684.97 224.455V226.455H1732.06V224.455V222.455H1684.97V224.455ZM1732.06 224.455H1730.06V248H1732.06H1734.06V224.455H1732.06ZM1732.06 248V246H1614.33V248V250H1732.06V248ZM1614.33 248H1616.33V224.455H1614.33H1612.33V248H1614.33ZM1614.33 224.455V226.455H1661.42V224.455V222.455H1614.33V224.455ZM1661.42 224.455H1663.42V130.275H1661.42H1659.42V224.455H1661.42ZM1661.42 59.6394V61.6394H1684.97V59.6394V57.6394H1661.42V59.6394ZM1684.97 59.6394H1682.97V83.1844H1684.97H1686.97V59.6394H1684.97ZM1684.97 83.1844V81.1844H1661.42V83.1844V85.1844H1684.97V83.1844ZM1661.42 83.1844H1663.42V59.6394H1661.42H1659.42V83.1844H1661.42ZM1774.06 177.365V179.365H1797.61V177.365V175.365H1774.06V177.365ZM1797.61 177.365H1795.61V224.455H1797.61H1799.61V177.365H1797.61ZM1797.61 224.455V222.455H1774.06V224.455V226.455H1797.61V224.455ZM1774.06 224.455H1776.06V177.365H1774.06H1772.06V224.455H1774.06ZM1797.61 224.455V226.455H1844.7V224.455V222.455H1797.61V224.455ZM1844.7 224.455H1842.7V248H1844.7H1846.7V224.455H1844.7ZM1844.7 248V246H1797.61V248V250H1844.7V248ZM1797.61 248H1799.61V224.455H1797.61H1795.61V248H1797.61ZM1844.7 200.91V202.91H1868.24V200.91V198.91H1844.7V200.91ZM1868.24 200.91H1870.24V177.365H1868.24H1866.24V200.91H1868.24ZM1868.24 177.365V175.365H1797.61V177.365V179.365H1868.24V177.365ZM1797.61 177.365H1799.61V153.82H1797.61H1795.61V177.365H1797.61ZM1797.61 153.82V155.82H1868.24V153.82V151.82H1797.61V153.82ZM1868.24 153.82H1870.24V130.275H1868.24H1866.24V153.82H1868.24ZM1868.24 130.275V132.275H1891.79V130.275V128.275H1868.24V130.275ZM1891.79 130.275H1889.79V248H1891.79H1893.79V130.275H1891.79ZM1891.79 248V246H1868.24V248V250H1891.79V248ZM1868.24 248H1870.24V224.455H1868.24H1866.24V248H1868.24ZM1868.24 224.455V222.455H1844.7V224.455V226.455H1868.24V224.455ZM1844.7 224.455H1846.7V200.91H1844.7H1842.7V224.455H1844.7ZM1797.61 106.729V108.729H1868.24V106.729V104.729H1797.61V106.729ZM1868.24 106.729H1866.24V130.275H1868.24H1870.24V106.729H1868.24ZM1868.24 130.275V128.275H1797.61V130.275V132.275H1868.24V130.275ZM1797.61 130.275H1799.61V106.729H1797.61H1795.61V130.275H1797.61Z" fill="white" mask="url(#path-1-outside-1_754_17906)"/>
</svg>
