<svg width="831" height="108" viewBox="0 0 831 108" fill="none" xmlns="http://www.w3.org/2000/svg">
<g clip-path="url(#clip0_1065_49)">
<path d="M297.24 26.5693H275.934L301.679 105.979H324.614L350.359 26.5693H329.052L312.93 86.3866L297.24 26.5693Z" fill="black"/>
<path d="M0 0H22.0465V105.979H0V0Z" fill="black"/>
<path d="M43.7773 0H65.8237V105.979H43.7773V0Z" fill="black"/>
<path d="M87.5781 0H152.829V17.6632H109.625V42.8961H149.87V60.5593H109.625V88.3157H152.829V105.979H87.5781V0Z" fill="black"/>
<path d="M166.293 0H187.155V105.979H166.293V0Z" fill="black"/>
<path d="M199.73 66.1981C199.73 37.2542 214.083 24.7861 236.425 24.7861C258.767 24.7861 271.493 37.1057 271.493 66.4949V71.2446H220.297C221.037 88.4625 226.215 94.2512 236.129 94.2512C243.971 94.2512 248.853 89.6499 249.742 81.6347H270.604C269.273 99.1494 254.773 107.758 236.129 107.758C212.456 107.758 199.73 95.1418 199.73 66.1981ZM250.926 57.4406C249.89 42.8945 244.859 38.1448 236.129 38.1448C227.4 38.1448 221.924 43.043 220.446 57.4406H250.926Z" fill="black"/>
<path d="M354.352 66.1981C354.352 37.2542 368.704 24.7861 391.046 24.7861C413.388 24.7861 426.114 37.1057 426.114 66.4949V71.2446H374.918C375.658 88.4625 380.837 94.2512 390.75 94.2512C398.592 94.2512 403.475 89.6499 404.363 81.6347H425.225C423.894 99.1494 409.393 107.758 390.75 107.758C367.076 107.758 354.352 95.1418 354.352 66.1981ZM405.546 57.4406C404.51 42.8945 399.48 38.1448 390.75 38.1448C382.021 38.1448 376.545 43.043 375.067 57.4406H405.546Z" fill="black"/>
<path d="M524.941 0H546.988V88.3157H588.417V105.979H524.941V0Z" fill="black"/>
<path fill-rule="evenodd" clip-rule="evenodd" d="M593.613 66.1981C593.613 35.9183 607.522 24.7861 625.425 24.7861C634.302 24.7861 642.441 29.8328 645.696 35.1762V26.5673H667.003V105.977H646.288V96.6261C643.18 102.86 634.451 107.758 624.833 107.758C605.894 107.758 593.613 95.5871 593.613 66.1981ZM630.899 40.3712C641.256 40.3712 646.879 48.2381 646.879 66.1981C646.879 84.1581 641.256 92.1732 630.899 92.1732C620.543 92.1732 614.624 84.1581 614.624 66.1981C614.624 48.2381 620.543 40.3712 630.899 40.3712Z" fill="black"/>
<path fill-rule="evenodd" clip-rule="evenodd" d="M703.831 96.6278V105.979H683.117V0H703.98V35.1779C707.531 29.686 715.816 24.7878 724.695 24.7878C742.154 24.7878 756.062 35.92 756.062 66.1997C756.062 96.4793 742.45 107.76 724.25 107.76C714.633 107.76 706.791 102.862 703.831 96.6278ZM718.776 40.5214C729.133 40.5214 735.052 48.2397 735.052 66.1997C735.052 84.1597 729.133 92.1749 718.776 92.1749C708.418 92.1749 702.795 84.1597 702.795 66.1997C702.795 48.2397 708.418 40.5214 718.776 40.5214Z" fill="black"/>
<path d="M764.66 82.3769H785.523C785.818 90.6889 790.257 94.6965 798.099 94.6965C805.941 94.6965 810.38 91.1342 810.38 84.9002C810.38 79.2598 806.978 77.1818 799.579 75.4006L793.217 73.768C775.166 69.1666 766.139 64.2684 766.139 49.277C766.139 34.2857 780.048 24.7861 797.804 24.7861C815.559 24.7861 829.024 31.7623 829.615 48.2381H808.752C808.309 40.965 803.869 37.848 797.508 37.848C791.145 37.848 786.705 40.965 786.705 46.9022C786.705 52.394 790.257 54.4721 796.472 55.9563L802.982 57.5891C820.146 61.8935 830.947 66.1981 830.947 82.2284C830.947 98.2588 816.743 107.758 797.508 107.758C776.644 107.758 765.103 99.8915 764.66 82.3769Z" fill="black"/>
<path d="M459.857 59.2218C459.857 46.7537 465.776 39.9259 474.95 39.9259C482.495 39.9259 486.787 44.6756 486.787 54.9174V105.977H507.649V51.6519C507.649 33.2466 497.292 24.7861 482.2 24.7861C471.99 24.7861 463.557 29.9811 459.857 36.8089V26.5673H438.699V105.977H459.857V59.2218Z" fill="black"/>
</g>
<defs>
<clipPath id="clip0_1065_49">
<rect width="830.949" height="107.76" fill="white"/>
</clipPath>
</defs>
</svg>
