<svg width="2756" height="480" viewBox="0 0 2756 480" fill="none" xmlns="http://www.w3.org/2000/svg">
<g opacity="0.5">
<line opacity="0.5" x1="8.22495e-08" y1="45" x2="2680" y2="45.0002" stroke="#EDEDED" stroke-width="2"/>
<line opacity="0.5" x1="8.22495e-08" y1="115" x2="2680" y2="115" stroke="#EDEDED" stroke-width="2"/>
<line opacity="0.5" x1="8.22495e-08" y1="363" x2="2680" y2="363" stroke="#EDEDED" stroke-width="2"/>
<line opacity="0.5" x1="8.22495e-08" y1="435" x2="2680" y2="435" stroke="#EDEDED" stroke-width="2"/>
<line opacity="0.5" x1="111" y1="480" x2="111" y2="4.37114e-08" stroke="#EAEAEA" stroke-width="2"/>
<line opacity="0.5" x1="182" y1="480" x2="182" y2="4.37114e-08" stroke="#EAEAEA" stroke-width="2"/>
<g opacity="0.5">
<mask id="mask0_594_530" style="mask-type:alpha" maskUnits="userSpaceOnUse" x="111" y="45" width="71" height="390">
<rect x="111" y="45" width="71" height="390" fill="#D9D9D9"/>
</mask>
<g mask="url(#mask0_594_530)">
<line y1="-1" x2="834.194" y2="-1" transform="matrix(0.7222 -0.691684 0.7222 0.691684 -489.098 277.26)" stroke="#F0F0F0" stroke-width="2"/>
<line y1="-1" x2="834.194" y2="-1" transform="matrix(0.7222 -0.691684 0.7222 0.691684 -474.331 291.4)" stroke="#F0F0F0" stroke-width="2"/>
<line y1="-1" x2="834.194" y2="-1" transform="matrix(0.7222 -0.691684 0.7222 0.691684 -459.565 305.543)" stroke="#F0F0F0" stroke-width="2"/>
<line y1="-1" x2="834.194" y2="-1" transform="matrix(0.7222 -0.691684 0.7222 0.691684 -444.799 319.686)" stroke="#F0F0F0" stroke-width="2"/>
<line y1="-1" x2="834.194" y2="-1" transform="matrix(0.7222 -0.691684 0.7222 0.691684 -430.033 333.828)" stroke="#F0F0F0" stroke-width="2"/>
<line y1="-1" x2="834.194" y2="-1" transform="matrix(0.7222 -0.691684 0.7222 0.691684 -415.267 347.969)" stroke="#F0F0F0" stroke-width="2"/>
<line y1="-1" x2="834.194" y2="-1" transform="matrix(0.7222 -0.691684 0.7222 0.691684 -400.501 362.111)" stroke="#F0F0F0" stroke-width="2"/>
<line y1="-1" x2="834.194" y2="-1" transform="matrix(0.7222 -0.691684 0.7222 0.691684 -385.734 376.254)" stroke="#F0F0F0" stroke-width="2"/>
<line y1="-1" x2="834.194" y2="-1" transform="matrix(0.7222 -0.691684 0.7222 0.691684 -370.969 390.396)" stroke="#F0F0F0" stroke-width="2"/>
<line y1="-1" x2="834.194" y2="-1" transform="matrix(0.7222 -0.691684 0.7222 0.691684 -356.203 404.539)" stroke="#F0F0F0" stroke-width="2"/>
<line y1="-1" x2="834.194" y2="-1" transform="matrix(0.7222 -0.691684 0.7222 0.691684 -341.437 418.68)" stroke="#F0F0F0" stroke-width="2"/>
<line y1="-1" x2="834.194" y2="-1" transform="matrix(0.7222 -0.691684 0.7222 0.691684 -326.671 432.822)" stroke="#F0F0F0" stroke-width="2"/>
<line y1="-1" x2="834.194" y2="-1" transform="matrix(0.7222 -0.691684 0.7222 0.691684 -311.904 446.965)" stroke="#F0F0F0" stroke-width="2"/>
<line y1="-1" x2="834.194" y2="-1" transform="matrix(0.7222 -0.691684 0.7222 0.691684 -297.139 461.107)" stroke="#F0F0F0" stroke-width="2"/>
<line y1="-1" x2="834.194" y2="-1" transform="matrix(0.7222 -0.691684 0.7222 0.691684 -282.372 475.248)" stroke="#F0F0F0" stroke-width="2"/>
<line y1="-1" x2="834.194" y2="-1" transform="matrix(0.7222 -0.691684 0.7222 0.691684 -267.606 489.391)" stroke="#F0F0F0" stroke-width="2"/>
<line y1="-1" x2="834.194" y2="-1" transform="matrix(0.7222 -0.691684 0.7222 0.691684 -252.84 503.533)" stroke="#F0F0F0" stroke-width="2"/>
<line y1="-1" x2="834.194" y2="-1" transform="matrix(0.7222 -0.691684 0.7222 0.691684 -238.074 517.676)" stroke="#F0F0F0" stroke-width="2"/>
<line y1="-1" x2="834.194" y2="-1" transform="matrix(0.7222 -0.691684 0.7222 0.691684 -223.309 531.818)" stroke="#F0F0F0" stroke-width="2"/>
<line y1="-1" x2="834.194" y2="-1" transform="matrix(0.7222 -0.691684 0.7222 0.691684 -208.542 545.959)" stroke="#F0F0F0" stroke-width="2"/>
<line y1="-1" x2="834.194" y2="-1" transform="matrix(0.7222 -0.691684 0.7222 0.691684 -193.776 560.102)" stroke="#F0F0F0" stroke-width="2"/>
<line y1="-1" x2="834.194" y2="-1" transform="matrix(0.7222 -0.691684 0.7222 0.691684 -179.01 574.244)" stroke="#F0F0F0" stroke-width="2"/>
<line y1="-1" x2="834.194" y2="-1" transform="matrix(0.7222 -0.691684 0.7222 0.691684 -164.244 588.387)" stroke="#F0F0F0" stroke-width="2"/>
<line y1="-1" x2="834.194" y2="-1" transform="matrix(0.7222 -0.691684 0.7222 0.691684 -149.478 602.527)" stroke="#F0F0F0" stroke-width="2"/>
<line y1="-1" x2="834.194" y2="-1" transform="matrix(0.7222 -0.691684 0.7222 0.691684 -134.712 616.67)" stroke="#F0F0F0" stroke-width="2"/>
<line y1="-1" x2="834.194" y2="-1" transform="matrix(0.7222 -0.691684 0.7222 0.691684 -119.945 630.812)" stroke="#F0F0F0" stroke-width="2"/>
<line y1="-1" x2="834.194" y2="-1" transform="matrix(0.7222 -0.691684 0.7222 0.691684 -105.181 644.955)" stroke="#F0F0F0" stroke-width="2"/>
<line y1="-1" x2="834.194" y2="-1" transform="matrix(0.7222 -0.691684 0.7222 0.691684 -90.4141 659.098)" stroke="#F0F0F0" stroke-width="2"/>
<line y1="-1" x2="834.194" y2="-1" transform="matrix(0.7222 -0.691684 0.7222 0.691684 -75.6484 673.238)" stroke="#F0F0F0" stroke-width="2"/>
<line y1="-1" x2="834.194" y2="-1" transform="matrix(0.7222 -0.691684 0.7222 0.691684 -60.8818 687.381)" stroke="#F0F0F0" stroke-width="2"/>
<line y1="-1" x2="834.194" y2="-1" transform="matrix(0.7222 -0.691684 0.7222 0.691684 -46.1152 701.523)" stroke="#F0F0F0" stroke-width="2"/>
<line y1="-1" x2="834.194" y2="-1" transform="matrix(0.7222 -0.691684 0.7222 0.691684 -31.3496 715.666)" stroke="#F0F0F0" stroke-width="2"/>
<line y1="-1" x2="834.194" y2="-1" transform="matrix(0.7222 -0.691684 0.7222 0.691684 -16.583 729.807)" stroke="#F0F0F0" stroke-width="2"/>
<line y1="-1" x2="834.194" y2="-1" transform="matrix(0.7222 -0.691684 0.7222 0.691684 -1.81738 743.949)" stroke="#F0F0F0" stroke-width="2"/>
<line y1="-1" x2="834.194" y2="-1" transform="matrix(0.7222 -0.691684 0.7222 0.691684 12.9492 758.092)" stroke="#F0F0F0" stroke-width="2"/>
<line y1="-1" x2="834.194" y2="-1" transform="matrix(0.7222 -0.691684 0.7222 0.691684 27.7139 772.234)" stroke="#F0F0F0" stroke-width="2"/>
<line y1="-1" x2="834.194" y2="-1" transform="matrix(0.7222 -0.691684 0.7222 0.691684 42.4805 786.375)" stroke="#F0F0F0" stroke-width="2"/>
<line y1="-1" x2="834.194" y2="-1" transform="matrix(0.7222 -0.691684 0.7222 0.691684 57.2461 800.518)" stroke="#F0F0F0" stroke-width="2"/>
<line y1="-1" x2="834.194" y2="-1" transform="matrix(0.7222 -0.691684 0.7222 0.691684 72.0127 814.66)" stroke="#F0F0F0" stroke-width="2"/>
<line y1="-1" x2="834.194" y2="-1" transform="matrix(0.7222 -0.691684 0.7222 0.691684 86.7793 828.803)" stroke="#F0F0F0" stroke-width="2"/>
<line y1="-1" x2="834.194" y2="-1" transform="matrix(0.7222 -0.691684 0.7222 0.691684 101.545 842.945)" stroke="#F0F0F0" stroke-width="2"/>
<line y1="-1" x2="834.194" y2="-1" transform="matrix(0.7222 -0.691684 0.7222 0.691684 116.312 857.086)" stroke="#F0F0F0" stroke-width="2"/>
<line y1="-1" x2="834.194" y2="-1" transform="matrix(0.7222 -0.691684 0.7222 0.691684 131.077 871.229)" stroke="#F0F0F0" stroke-width="2"/>
<line y1="-1" x2="834.194" y2="-1" transform="matrix(0.7222 -0.691684 0.7222 0.691684 145.844 885.371)" stroke="#F0F0F0" stroke-width="2"/>
<line y1="-1" x2="834.194" y2="-1" transform="matrix(0.7222 -0.691684 0.7222 0.691684 160.609 899.514)" stroke="#F0F0F0" stroke-width="2"/>
<line y1="-1" x2="834.194" y2="-1" transform="matrix(0.7222 -0.691684 0.7222 0.691684 175.375 913.654)" stroke="#F0F0F0" stroke-width="2"/>
</g>
</g>
<line opacity="0.5" x1="538" y1="480" x2="538" y2="4.37114e-08" stroke="#EAEAEA" stroke-width="2"/>
<line opacity="0.5" x1="609" y1="480" x2="609" y2="4.37114e-08" stroke="#EAEAEA" stroke-width="2"/>
<g opacity="0.5">
<mask id="mask1_594_530" style="mask-type:alpha" maskUnits="userSpaceOnUse" x="538" y="45" width="71" height="390">
<rect x="538" y="45" width="71" height="390" fill="#D9D9D9"/>
</mask>
<g mask="url(#mask1_594_530)">
<line y1="-1" x2="834.194" y2="-1" transform="matrix(0.7222 -0.691684 0.7222 0.691684 -62.0977 277.26)" stroke="#F0F0F0" stroke-width="2"/>
<line y1="-1" x2="834.194" y2="-1" transform="matrix(0.7222 -0.691684 0.7222 0.691684 -47.3311 291.4)" stroke="#F0F0F0" stroke-width="2"/>
<line y1="-1" x2="834.194" y2="-1" transform="matrix(0.7222 -0.691684 0.7222 0.691684 -32.5654 305.543)" stroke="#F0F0F0" stroke-width="2"/>
<line y1="-1" x2="834.194" y2="-1" transform="matrix(0.7222 -0.691684 0.7222 0.691684 -17.7988 319.686)" stroke="#F0F0F0" stroke-width="2"/>
<line y1="-1" x2="834.194" y2="-1" transform="matrix(0.7222 -0.691684 0.7222 0.691684 -3.0332 333.828)" stroke="#F0F0F0" stroke-width="2"/>
<line y1="-1" x2="834.194" y2="-1" transform="matrix(0.7222 -0.691684 0.7222 0.691684 11.7334 347.969)" stroke="#F0F0F0" stroke-width="2"/>
<line y1="-1" x2="834.194" y2="-1" transform="matrix(0.7222 -0.691684 0.7222 0.691684 26.499 362.111)" stroke="#F0F0F0" stroke-width="2"/>
<line y1="-1" x2="834.194" y2="-1" transform="matrix(0.7222 -0.691684 0.7222 0.691684 41.2656 376.254)" stroke="#F0F0F0" stroke-width="2"/>
<line y1="-1" x2="834.194" y2="-1" transform="matrix(0.7222 -0.691684 0.7222 0.691684 56.0312 390.396)" stroke="#F0F0F0" stroke-width="2"/>
<line y1="-1" x2="834.194" y2="-1" transform="matrix(0.7222 -0.691684 0.7222 0.691684 70.7969 404.539)" stroke="#F0F0F0" stroke-width="2"/>
<line y1="-1" x2="834.194" y2="-1" transform="matrix(0.7222 -0.691684 0.7222 0.691684 85.5635 418.68)" stroke="#F0F0F0" stroke-width="2"/>
<line y1="-1" x2="834.194" y2="-1" transform="matrix(0.7222 -0.691684 0.7222 0.691684 100.329 432.822)" stroke="#F0F0F0" stroke-width="2"/>
<line y1="-1" x2="834.194" y2="-1" transform="matrix(0.7222 -0.691684 0.7222 0.691684 115.096 446.965)" stroke="#F0F0F0" stroke-width="2"/>
<line y1="-1" x2="834.194" y2="-1" transform="matrix(0.7222 -0.691684 0.7222 0.691684 129.861 461.107)" stroke="#F0F0F0" stroke-width="2"/>
<line y1="-1" x2="834.194" y2="-1" transform="matrix(0.7222 -0.691684 0.7222 0.691684 144.628 475.248)" stroke="#F0F0F0" stroke-width="2"/>
<line y1="-1" x2="834.194" y2="-1" transform="matrix(0.7222 -0.691684 0.7222 0.691684 159.394 489.391)" stroke="#F0F0F0" stroke-width="2"/>
<line y1="-1" x2="834.194" y2="-1" transform="matrix(0.7222 -0.691684 0.7222 0.691684 174.16 503.533)" stroke="#F0F0F0" stroke-width="2"/>
<line y1="-1" x2="834.194" y2="-1" transform="matrix(0.7222 -0.691684 0.7222 0.691684 188.926 517.676)" stroke="#F0F0F0" stroke-width="2"/>
<line y1="-1" x2="834.194" y2="-1" transform="matrix(0.7222 -0.691684 0.7222 0.691684 203.691 531.818)" stroke="#F0F0F0" stroke-width="2"/>
<line y1="-1" x2="834.194" y2="-1" transform="matrix(0.7222 -0.691684 0.7222 0.691684 218.458 545.959)" stroke="#F0F0F0" stroke-width="2"/>
<line y1="-1" x2="834.194" y2="-1" transform="matrix(0.7222 -0.691684 0.7222 0.691684 233.224 560.102)" stroke="#F0F0F0" stroke-width="2"/>
<line y1="-1" x2="834.194" y2="-1" transform="matrix(0.7222 -0.691684 0.7222 0.691684 247.99 574.244)" stroke="#F0F0F0" stroke-width="2"/>
<line y1="-1" x2="834.194" y2="-1" transform="matrix(0.7222 -0.691684 0.7222 0.691684 262.756 588.387)" stroke="#F0F0F0" stroke-width="2"/>
<line y1="-1" x2="834.194" y2="-1" transform="matrix(0.7222 -0.691684 0.7222 0.691684 277.522 602.527)" stroke="#F0F0F0" stroke-width="2"/>
<line y1="-1" x2="834.194" y2="-1" transform="matrix(0.7222 -0.691684 0.7222 0.691684 292.288 616.67)" stroke="#F0F0F0" stroke-width="2"/>
<line y1="-1" x2="834.194" y2="-1" transform="matrix(0.7222 -0.691684 0.7222 0.691684 307.055 630.812)" stroke="#F0F0F0" stroke-width="2"/>
<line y1="-1" x2="834.194" y2="-1" transform="matrix(0.7222 -0.691684 0.7222 0.691684 321.819 644.955)" stroke="#F0F0F0" stroke-width="2"/>
<line y1="-1" x2="834.194" y2="-1" transform="matrix(0.7222 -0.691684 0.7222 0.691684 336.586 659.098)" stroke="#F0F0F0" stroke-width="2"/>
<line y1="-1" x2="834.194" y2="-1" transform="matrix(0.7222 -0.691684 0.7222 0.691684 351.352 673.238)" stroke="#F0F0F0" stroke-width="2"/>
<line y1="-1" x2="834.194" y2="-1" transform="matrix(0.7222 -0.691684 0.7222 0.691684 366.118 687.381)" stroke="#F0F0F0" stroke-width="2"/>
<line y1="-1" x2="834.194" y2="-1" transform="matrix(0.7222 -0.691684 0.7222 0.691684 380.885 701.523)" stroke="#F0F0F0" stroke-width="2"/>
<line y1="-1" x2="834.194" y2="-1" transform="matrix(0.7222 -0.691684 0.7222 0.691684 395.65 715.666)" stroke="#F0F0F0" stroke-width="2"/>
<line y1="-1" x2="834.194" y2="-1" transform="matrix(0.7222 -0.691684 0.7222 0.691684 410.417 729.807)" stroke="#F0F0F0" stroke-width="2"/>
<line y1="-1" x2="834.194" y2="-1" transform="matrix(0.7222 -0.691684 0.7222 0.691684 425.183 743.949)" stroke="#F0F0F0" stroke-width="2"/>
<line y1="-1" x2="834.194" y2="-1" transform="matrix(0.7222 -0.691684 0.7222 0.691684 439.949 758.092)" stroke="#F0F0F0" stroke-width="2"/>
<line y1="-1" x2="834.194" y2="-1" transform="matrix(0.7222 -0.691684 0.7222 0.691684 454.714 772.234)" stroke="#F0F0F0" stroke-width="2"/>
<line y1="-1" x2="834.194" y2="-1" transform="matrix(0.7222 -0.691684 0.7222 0.691684 469.48 786.375)" stroke="#F0F0F0" stroke-width="2"/>
<line y1="-1" x2="834.194" y2="-1" transform="matrix(0.7222 -0.691684 0.7222 0.691684 484.246 800.518)" stroke="#F0F0F0" stroke-width="2"/>
<line y1="-1" x2="834.194" y2="-1" transform="matrix(0.7222 -0.691684 0.7222 0.691684 499.013 814.66)" stroke="#F0F0F0" stroke-width="2"/>
<line y1="-1" x2="834.194" y2="-1" transform="matrix(0.7222 -0.691684 0.7222 0.691684 513.779 828.803)" stroke="#F0F0F0" stroke-width="2"/>
<line y1="-1" x2="834.194" y2="-1" transform="matrix(0.7222 -0.691684 0.7222 0.691684 528.545 842.945)" stroke="#F0F0F0" stroke-width="2"/>
<line y1="-1" x2="834.194" y2="-1" transform="matrix(0.7222 -0.691684 0.7222 0.691684 543.312 857.086)" stroke="#F0F0F0" stroke-width="2"/>
<line y1="-1" x2="834.194" y2="-1" transform="matrix(0.7222 -0.691684 0.7222 0.691684 558.077 871.229)" stroke="#F0F0F0" stroke-width="2"/>
<line y1="-1" x2="834.194" y2="-1" transform="matrix(0.7222 -0.691684 0.7222 0.691684 572.844 885.371)" stroke="#F0F0F0" stroke-width="2"/>
<line y1="-1" x2="834.194" y2="-1" transform="matrix(0.7222 -0.691684 0.7222 0.691684 587.609 899.514)" stroke="#F0F0F0" stroke-width="2"/>
<line y1="-1" x2="834.194" y2="-1" transform="matrix(0.7222 -0.691684 0.7222 0.691684 602.375 913.654)" stroke="#F0F0F0" stroke-width="2"/>
</g>
</g>
<line opacity="0.5" x1="2501" y1="480" x2="2501" y2="4.37114e-08" stroke="#EAEAEA" stroke-width="2"/>
<line opacity="0.5" x1="2572" y1="480" x2="2572" y2="4.37114e-08" stroke="#EAEAEA" stroke-width="2"/>
<g opacity="0.5">
<mask id="mask2_594_530" style="mask-type:alpha" maskUnits="userSpaceOnUse" x="2501" y="44" width="71" height="390">
<rect x="2501" y="44" width="71" height="390" fill="#D9D9D9"/>
</mask>
<g mask="url(#mask2_594_530)">
<line y1="-1" x2="834.194" y2="-1" transform="matrix(0.7222 -0.691684 0.7222 0.691684 1900.9 276.26)" stroke="#F0F0F0" stroke-width="2"/>
<line y1="-1" x2="834.194" y2="-1" transform="matrix(0.7222 -0.691684 0.7222 0.691684 1915.67 290.4)" stroke="#F0F0F0" stroke-width="2"/>
<line y1="-1" x2="834.194" y2="-1" transform="matrix(0.7222 -0.691684 0.7222 0.691684 1930.43 304.543)" stroke="#F0F0F0" stroke-width="2"/>
<line y1="-1" x2="834.194" y2="-1" transform="matrix(0.7222 -0.691684 0.7222 0.691684 1945.2 318.686)" stroke="#F0F0F0" stroke-width="2"/>
<line y1="-1" x2="834.194" y2="-1" transform="matrix(0.7222 -0.691684 0.7222 0.691684 1959.97 332.828)" stroke="#F0F0F0" stroke-width="2"/>
<line y1="-1" x2="834.194" y2="-1" transform="matrix(0.7222 -0.691684 0.7222 0.691684 1974.73 346.969)" stroke="#F0F0F0" stroke-width="2"/>
<line y1="-1" x2="834.194" y2="-1" transform="matrix(0.7222 -0.691684 0.7222 0.691684 1989.5 361.111)" stroke="#F0F0F0" stroke-width="2"/>
<line y1="-1" x2="834.194" y2="-1" transform="matrix(0.7222 -0.691684 0.7222 0.691684 2004.27 375.254)" stroke="#F0F0F0" stroke-width="2"/>
<line y1="-1" x2="834.194" y2="-1" transform="matrix(0.7222 -0.691684 0.7222 0.691684 2019.03 389.396)" stroke="#F0F0F0" stroke-width="2"/>
<line y1="-1" x2="834.194" y2="-1" transform="matrix(0.7222 -0.691684 0.7222 0.691684 2033.8 403.539)" stroke="#F0F0F0" stroke-width="2"/>
<line y1="-1" x2="834.194" y2="-1" transform="matrix(0.7222 -0.691684 0.7222 0.691684 2048.56 417.68)" stroke="#F0F0F0" stroke-width="2"/>
<line y1="-1" x2="834.194" y2="-1" transform="matrix(0.7222 -0.691684 0.7222 0.691684 2063.33 431.822)" stroke="#F0F0F0" stroke-width="2"/>
<line y1="-1" x2="834.194" y2="-1" transform="matrix(0.7222 -0.691684 0.7222 0.691684 2078.1 445.965)" stroke="#F0F0F0" stroke-width="2"/>
<line y1="-1" x2="834.194" y2="-1" transform="matrix(0.7222 -0.691684 0.7222 0.691684 2092.86 460.107)" stroke="#F0F0F0" stroke-width="2"/>
<line y1="-1" x2="834.194" y2="-1" transform="matrix(0.7222 -0.691684 0.7222 0.691684 2107.63 474.248)" stroke="#F0F0F0" stroke-width="2"/>
<line y1="-1" x2="834.194" y2="-1" transform="matrix(0.7222 -0.691684 0.7222 0.691684 2122.39 488.391)" stroke="#F0F0F0" stroke-width="2"/>
<line y1="-1" x2="834.194" y2="-1" transform="matrix(0.7222 -0.691684 0.7222 0.691684 2137.16 502.533)" stroke="#F0F0F0" stroke-width="2"/>
<line y1="-1" x2="834.194" y2="-1" transform="matrix(0.7222 -0.691684 0.7222 0.691684 2151.93 516.676)" stroke="#F0F0F0" stroke-width="2"/>
<line y1="-1" x2="834.194" y2="-1" transform="matrix(0.7222 -0.691684 0.7222 0.691684 2166.69 530.818)" stroke="#F0F0F0" stroke-width="2"/>
<line y1="-1" x2="834.194" y2="-1" transform="matrix(0.7222 -0.691684 0.7222 0.691684 2181.46 544.959)" stroke="#F0F0F0" stroke-width="2"/>
<line y1="-1" x2="834.194" y2="-1" transform="matrix(0.7222 -0.691684 0.7222 0.691684 2196.22 559.102)" stroke="#F0F0F0" stroke-width="2"/>
<line y1="-1" x2="834.194" y2="-1" transform="matrix(0.7222 -0.691684 0.7222 0.691684 2210.99 573.244)" stroke="#F0F0F0" stroke-width="2"/>
<line y1="-1" x2="834.194" y2="-1" transform="matrix(0.7222 -0.691684 0.7222 0.691684 2225.76 587.387)" stroke="#F0F0F0" stroke-width="2"/>
<line y1="-1" x2="834.194" y2="-1" transform="matrix(0.7222 -0.691684 0.7222 0.691684 2240.52 601.527)" stroke="#F0F0F0" stroke-width="2"/>
<line y1="-1" x2="834.194" y2="-1" transform="matrix(0.7222 -0.691684 0.7222 0.691684 2255.29 615.67)" stroke="#F0F0F0" stroke-width="2"/>
<line y1="-1" x2="834.194" y2="-1" transform="matrix(0.7222 -0.691684 0.7222 0.691684 2270.05 629.812)" stroke="#F0F0F0" stroke-width="2"/>
<line y1="-1" x2="834.194" y2="-1" transform="matrix(0.7222 -0.691684 0.7222 0.691684 2284.82 643.955)" stroke="#F0F0F0" stroke-width="2"/>
<line y1="-1" x2="834.194" y2="-1" transform="matrix(0.7222 -0.691684 0.7222 0.691684 2299.59 658.098)" stroke="#F0F0F0" stroke-width="2"/>
<line y1="-1" x2="834.194" y2="-1" transform="matrix(0.7222 -0.691684 0.7222 0.691684 2314.35 672.238)" stroke="#F0F0F0" stroke-width="2"/>
<line y1="-1" x2="834.194" y2="-1" transform="matrix(0.7222 -0.691684 0.7222 0.691684 2329.12 686.381)" stroke="#F0F0F0" stroke-width="2"/>
<line y1="-1" x2="834.194" y2="-1" transform="matrix(0.7222 -0.691684 0.7222 0.691684 2343.88 700.523)" stroke="#F0F0F0" stroke-width="2"/>
<line y1="-1" x2="834.194" y2="-1" transform="matrix(0.7222 -0.691684 0.7222 0.691684 2358.65 714.666)" stroke="#F0F0F0" stroke-width="2"/>
<line y1="-1" x2="834.194" y2="-1" transform="matrix(0.7222 -0.691684 0.7222 0.691684 2373.42 728.807)" stroke="#F0F0F0" stroke-width="2"/>
<line y1="-1" x2="834.194" y2="-1" transform="matrix(0.7222 -0.691684 0.7222 0.691684 2388.18 742.949)" stroke="#F0F0F0" stroke-width="2"/>
<line y1="-1" x2="834.194" y2="-1" transform="matrix(0.7222 -0.691684 0.7222 0.691684 2402.95 757.092)" stroke="#F0F0F0" stroke-width="2"/>
<line y1="-1" x2="834.194" y2="-1" transform="matrix(0.7222 -0.691684 0.7222 0.691684 2417.71 771.234)" stroke="#F0F0F0" stroke-width="2"/>
<line y1="-1" x2="834.194" y2="-1" transform="matrix(0.7222 -0.691684 0.7222 0.691684 2432.48 785.375)" stroke="#F0F0F0" stroke-width="2"/>
<line y1="-1" x2="834.194" y2="-1" transform="matrix(0.7222 -0.691684 0.7222 0.691684 2447.25 799.518)" stroke="#F0F0F0" stroke-width="2"/>
<line y1="-1" x2="834.194" y2="-1" transform="matrix(0.7222 -0.691684 0.7222 0.691684 2462.01 813.66)" stroke="#F0F0F0" stroke-width="2"/>
<line y1="-1" x2="834.194" y2="-1" transform="matrix(0.7222 -0.691684 0.7222 0.691684 2476.78 827.803)" stroke="#F0F0F0" stroke-width="2"/>
<line y1="-1" x2="834.194" y2="-1" transform="matrix(0.7222 -0.691684 0.7222 0.691684 2491.55 841.945)" stroke="#F0F0F0" stroke-width="2"/>
<line y1="-1" x2="834.194" y2="-1" transform="matrix(0.7222 -0.691684 0.7222 0.691684 2506.31 856.086)" stroke="#F0F0F0" stroke-width="2"/>
<line y1="-1" x2="834.194" y2="-1" transform="matrix(0.7222 -0.691684 0.7222 0.691684 2521.08 870.229)" stroke="#F0F0F0" stroke-width="2"/>
<line y1="-1" x2="834.194" y2="-1" transform="matrix(0.7222 -0.691684 0.7222 0.691684 2535.84 884.371)" stroke="#F0F0F0" stroke-width="2"/>
<line y1="-1" x2="834.194" y2="-1" transform="matrix(0.7222 -0.691684 0.7222 0.691684 2550.61 898.514)" stroke="#F0F0F0" stroke-width="2"/>
<line y1="-1" x2="834.194" y2="-1" transform="matrix(0.7222 -0.691684 0.7222 0.691684 2565.38 912.654)" stroke="#F0F0F0" stroke-width="2"/>
</g>
</g>
</g>
<mask id="mask3_594_530" style="mask-type:alpha" maskUnits="userSpaceOnUse" x="431" y="115" width="36" height="37">
<rect x="431.731" y="116.185" width="34.9005" height="34.9005" fill="#D9D9D9" stroke="#B307EB" stroke-width="0.553977"/>
</mask>
<g mask="url(#mask3_594_530)">
<line x1="380.923" y1="115.518" x2="481.203" y2="15.2379" stroke="#B307EB" stroke-width="1.10795"/>
<line x1="384.84" y1="119.434" x2="485.12" y2="19.1539" stroke="#B307EB" stroke-width="1.10795"/>
<line x1="388.758" y1="123.35" x2="489.038" y2="23.0699" stroke="#B307EB" stroke-width="1.10795"/>
<line x1="392.675" y1="127.268" x2="492.955" y2="26.9879" stroke="#B307EB" stroke-width="1.10795"/>
<line x1="396.591" y1="131.186" x2="496.871" y2="30.9059" stroke="#B307EB" stroke-width="1.10795"/>
<line x1="400.509" y1="135.104" x2="500.789" y2="34.8238" stroke="#B307EB" stroke-width="1.10795"/>
<line x1="404.426" y1="139.02" x2="504.706" y2="38.7398" stroke="#B307EB" stroke-width="1.10795"/>
<line x1="408.344" y1="142.936" x2="508.624" y2="42.6559" stroke="#B307EB" stroke-width="1.10795"/>
<line x1="412.261" y1="146.854" x2="512.541" y2="46.5738" stroke="#B307EB" stroke-width="1.10795"/>
<line x1="416.177" y1="150.77" x2="516.457" y2="50.4898" stroke="#B307EB" stroke-width="1.10795"/>
<line x1="420.095" y1="154.69" x2="520.375" y2="54.4098" stroke="#B307EB" stroke-width="1.10795"/>
<line x1="424.012" y1="158.606" x2="524.292" y2="58.3258" stroke="#B307EB" stroke-width="1.10795"/>
<line x1="427.929" y1="162.524" x2="528.209" y2="62.2437" stroke="#B307EB" stroke-width="1.10795"/>
<line x1="431.847" y1="166.44" x2="532.127" y2="66.1598" stroke="#B307EB" stroke-width="1.10795"/>
<line x1="435.763" y1="170.356" x2="536.043" y2="70.0758" stroke="#B307EB" stroke-width="1.10795"/>
<line x1="439.681" y1="174.276" x2="539.961" y2="73.9957" stroke="#B307EB" stroke-width="1.10795"/>
<line x1="443.598" y1="178.192" x2="543.878" y2="77.9117" stroke="#B307EB" stroke-width="1.10795"/>
<line x1="447.515" y1="182.11" x2="547.795" y2="81.8297" stroke="#B307EB" stroke-width="1.10795"/>
<line x1="451.432" y1="186.028" x2="551.713" y2="85.7477" stroke="#B307EB" stroke-width="1.10795"/>
<line x1="455.349" y1="189.946" x2="555.629" y2="89.6656" stroke="#B307EB" stroke-width="1.10795"/>
</g>
<mask id="mask4_594_530" style="mask-type:alpha" maskUnits="userSpaceOnUse" x="466" y="115" width="37" height="37">
<rect x="467.185" y="116.185" width="34.9005" height="34.9005" fill="#D9D9D9" stroke="#3198F1" stroke-width="0.553977"/>
</mask>
<g mask="url(#mask4_594_530)">
<line x1="424.969" y1="118.852" x2="525.249" y2="18.5719" stroke="#3198F1" stroke-width="1.10795"/>
<line x1="428.887" y1="122.768" x2="529.167" y2="22.4879" stroke="#3198F1" stroke-width="1.10795"/>
<line x1="432.804" y1="126.686" x2="533.084" y2="26.4059" stroke="#3198F1" stroke-width="1.10795"/>
<line x1="436.72" y1="130.602" x2="537" y2="30.3219" stroke="#3198F1" stroke-width="1.10795"/>
<line x1="440.638" y1="134.522" x2="540.918" y2="34.2418" stroke="#3198F1" stroke-width="1.10795"/>
<line x1="444.555" y1="138.438" x2="544.835" y2="38.1578" stroke="#3198F1" stroke-width="1.10795"/>
<line x1="448.473" y1="142.354" x2="548.753" y2="42.0738" stroke="#3198F1" stroke-width="1.10795"/>
<line x1="452.39" y1="146.274" x2="552.67" y2="45.9937" stroke="#3198F1" stroke-width="1.10795"/>
<line x1="456.307" y1="150.19" x2="556.587" y2="49.9098" stroke="#3198F1" stroke-width="1.10795"/>
<line x1="460.224" y1="154.108" x2="560.504" y2="53.8277" stroke="#3198F1" stroke-width="1.10795"/>
<line x1="464.141" y1="158.024" x2="564.421" y2="57.7437" stroke="#3198F1" stroke-width="1.10795"/>
<line x1="468.058" y1="161.94" x2="568.339" y2="61.6598" stroke="#3198F1" stroke-width="1.10795"/>
<line x1="471.975" y1="165.86" x2="572.256" y2="65.5797" stroke="#3198F1" stroke-width="1.10795"/>
<line x1="475.893" y1="169.776" x2="576.174" y2="69.4957" stroke="#3198F1" stroke-width="1.10795"/>
<line x1="479.81" y1="173.694" x2="580.091" y2="73.4137" stroke="#3198F1" stroke-width="1.10795"/>
<line x1="483.727" y1="177.61" x2="584.008" y2="77.3297" stroke="#3198F1" stroke-width="1.10795"/>
<line x1="487.644" y1="181.526" x2="587.925" y2="81.2457" stroke="#3198F1" stroke-width="1.10795"/>
<line x1="491.561" y1="185.446" x2="591.842" y2="85.1656" stroke="#3198F1" stroke-width="1.10795"/>
<line x1="495.479" y1="189.362" x2="595.76" y2="89.0816" stroke="#3198F1" stroke-width="1.10795"/>
<line x1="499.396" y1="193.28" x2="599.677" y2="92.9996" stroke="#3198F1" stroke-width="1.10795"/>
</g>
<mask id="mask5_594_530" style="mask-type:alpha" maskUnits="userSpaceOnUse" x="466" y="80" width="37" height="36">
<rect x="467.185" y="80.7321" width="34.9005" height="34.9005" fill="#D9D9D9" stroke="#4EF9BD" stroke-width="0.553977"/>
</mask>
<g mask="url(#mask5_594_530)">
<line x1="420.294" y1="83.9813" x2="520.574" y2="-16.2992" stroke="#4EF9BD" stroke-width="1.10795"/>
<line x1="424.212" y1="87.8973" x2="524.492" y2="-12.3832" stroke="#4EF9BD" stroke-width="1.10795"/>
<line x1="428.129" y1="91.8134" x2="528.409" y2="-8.46719" stroke="#4EF9BD" stroke-width="1.10795"/>
<line x1="432.046" y1="95.7333" x2="532.326" y2="-4.54727" stroke="#4EF9BD" stroke-width="1.10795"/>
<line x1="435.963" y1="99.6493" x2="536.243" y2="-0.631252" stroke="#4EF9BD" stroke-width="1.10795"/>
<line x1="439.88" y1="103.567" x2="540.16" y2="3.28672" stroke="#4EF9BD" stroke-width="1.10795"/>
<line x1="443.798" y1="107.483" x2="544.078" y2="7.20273" stroke="#4EF9BD" stroke-width="1.10795"/>
<line x1="447.715" y1="111.401" x2="547.995" y2="11.1207" stroke="#4EF9BD" stroke-width="1.10795"/>
<line x1="451.632" y1="115.317" x2="551.912" y2="15.0367" stroke="#4EF9BD" stroke-width="1.10795"/>
<line x1="455.55" y1="119.235" x2="555.83" y2="18.9547" stroke="#4EF9BD" stroke-width="1.10795"/>
<line x1="459.466" y1="123.153" x2="559.746" y2="22.8727" stroke="#4EF9BD" stroke-width="1.10795"/>
<line x1="463.384" y1="127.069" x2="563.664" y2="26.7887" stroke="#4EF9BD" stroke-width="1.10795"/>
<line x1="467.301" y1="130.987" x2="567.581" y2="30.7066" stroke="#4EF9BD" stroke-width="1.10795"/>
<line x1="471.219" y1="134.903" x2="571.499" y2="34.6227" stroke="#4EF9BD" stroke-width="1.10795"/>
<line x1="475.136" y1="138.823" x2="575.416" y2="38.5426" stroke="#4EF9BD" stroke-width="1.10795"/>
<line x1="479.052" y1="142.739" x2="579.332" y2="42.4586" stroke="#4EF9BD" stroke-width="1.10795"/>
<line x1="482.97" y1="146.655" x2="583.25" y2="46.3746" stroke="#4EF9BD" stroke-width="1.10795"/>
<line x1="486.887" y1="150.573" x2="587.167" y2="50.2926" stroke="#4EF9BD" stroke-width="1.10795"/>
<line x1="490.805" y1="154.489" x2="591.085" y2="54.2086" stroke="#4EF9BD" stroke-width="1.10795"/>
</g>
<mask id="mask6_594_530" style="mask-type:alpha" maskUnits="userSpaceOnUse" x="502" y="45" width="36" height="36">
<rect x="502.641" y="45.277" width="34.9005" height="34.9005" fill="#D9D9D9" stroke="#EE1701" stroke-width="0.553977"/>
</mask>
<g mask="url(#mask6_594_530)">
<line x1="451.832" y1="44.6122" x2="552.112" y2="-55.6684" stroke="#EE1701" stroke-width="1.10795"/>
<line x1="455.748" y1="48.5282" x2="556.029" y2="-51.7523" stroke="#EE1701" stroke-width="1.10795"/>
<line x1="459.666" y1="52.4462" x2="559.946" y2="-47.8344" stroke="#EE1701" stroke-width="1.10795"/>
<line x1="463.583" y1="56.3622" x2="563.863" y2="-43.9184" stroke="#EE1701" stroke-width="1.10795"/>
<line x1="467.501" y1="60.2802" x2="567.781" y2="-40.0004" stroke="#EE1701" stroke-width="1.10795"/>
<line x1="471.418" y1="64.1981" x2="571.698" y2="-36.0824" stroke="#EE1701" stroke-width="1.10795"/>
<line x1="475.336" y1="68.1141" x2="575.616" y2="-32.1664" stroke="#EE1701" stroke-width="1.10795"/>
<line x1="479.252" y1="72.0321" x2="579.532" y2="-28.2484" stroke="#EE1701" stroke-width="1.10795"/>
<line x1="483.169" y1="75.9481" x2="583.449" y2="-24.3324" stroke="#EE1701" stroke-width="1.10795"/>
<line x1="487.087" y1="79.8641" x2="587.367" y2="-20.4164" stroke="#EE1701" stroke-width="1.10795"/>
<line x1="491.004" y1="83.7841" x2="591.284" y2="-16.4965" stroke="#EE1701" stroke-width="1.10795"/>
<line x1="494.922" y1="87.7001" x2="595.202" y2="-12.5805" stroke="#EE1701" stroke-width="1.10795"/>
<line x1="498.838" y1="91.618" x2="599.118" y2="-8.6625" stroke="#EE1701" stroke-width="1.10795"/>
<line x1="502.755" y1="95.5341" x2="603.035" y2="-4.74649" stroke="#EE1701" stroke-width="1.10795"/>
<line x1="506.673" y1="99.4501" x2="606.953" y2="-0.830471" stroke="#EE1701" stroke-width="1.10795"/>
<line x1="510.59" y1="103.37" x2="610.87" y2="3.08945" stroke="#EE1701" stroke-width="1.10795"/>
<line x1="514.507" y1="107.286" x2="614.787" y2="7.00547" stroke="#EE1701" stroke-width="1.10795"/>
<line x1="518.424" y1="111.204" x2="618.704" y2="10.9234" stroke="#EE1701" stroke-width="1.10795"/>
<line x1="522.341" y1="115.12" x2="622.621" y2="14.8395" stroke="#EE1701" stroke-width="1.10795"/>
<line x1="526.259" y1="119.036" x2="626.539" y2="18.7555" stroke="#EE1701" stroke-width="1.10795"/>
</g>
<path d="M254.182 222.271H218.728V257.726H254.182V222.271Z" stroke="#D3D3D5" stroke-width="2"/>
<path d="M254.182 186.816H218.728V222.271H254.182V186.816Z" stroke="#D3D3D5" stroke-width="2"/>
<path d="M254.182 151.363H218.728V186.818H254.182V151.363Z" stroke="#D3D3D5" stroke-width="2"/>
<path d="M289.47 151.748H254.071V187.147H289.47V151.748Z" stroke="#D3D3D5" stroke-width="2"/>
<path d="M289.636 151.363H254.182V186.818H289.636V151.363Z" stroke="#D3D3D5" stroke-width="2"/>
<path d="M289.636 115.908H254.182V151.363H289.636V115.908Z" stroke="#D3D3D5" stroke-width="2"/>
<path d="M325.091 115.908H289.637V151.363H325.091V115.908Z" stroke="#D3D3D5" stroke-width="2"/>
<path d="M325.091 80.4551H289.637V115.91H325.091V80.4551Z" stroke="#D3D3D5" stroke-width="2"/>
<path d="M360.545 80.4551H325.091V115.91H360.545V80.4551Z" stroke="#D3D3D5" stroke-width="2"/>
<path d="M396 115.908H360.546V151.363H396V115.908Z" stroke="#D3D3D5" stroke-width="2"/>
<path d="M396 151.363H360.546V186.818H396V151.363Z" stroke="#D3D3D5" stroke-width="2"/>
<path d="M431.455 151.363H396V186.818H431.455V151.363Z" stroke="#D3D3D5" stroke-width="2"/>
<path d="M466.909 151.363H431.454V186.818H466.909V151.363Z" stroke="#D3D3D5" stroke-width="2"/>
<path d="M466.909 186.816H431.454V222.271H466.909V186.816Z" stroke="#D3D3D5" stroke-width="2"/>
<path d="M502.363 222.271H466.908V257.726H502.363V222.271Z" stroke="#D3D3D5" stroke-width="2"/>
<path d="M537.819 257.729H502.364V293.183H537.819V257.729Z" stroke="#D3D3D5" stroke-width="2"/>
<path d="M537.819 293.182H502.364V328.636H537.819V293.182Z" stroke="#D3D3D5" stroke-width="2"/>
<path d="M537.819 328.637H502.364V364.091H537.819V328.637Z" stroke="#D3D3D5" stroke-width="2"/>
<path d="M502.363 364.092H466.908V399.546H502.363V364.092Z" stroke="#D3D3D5" stroke-width="2"/>
<path d="M466.909 364.092H431.454V399.546H466.909V364.092Z" stroke="#D3D3D5" stroke-width="2"/>
<path d="M431.455 328.637H396V364.091H431.455V328.637Z" stroke="#D3D3D5" stroke-width="2"/>
<path d="M396 328.637H360.546V364.091H396V328.637Z" stroke="#D3D3D5" stroke-width="2"/>
<path d="M396 364.092H360.546V399.546H396V364.092Z" stroke="#D3D3D5" stroke-width="2"/>
<path d="M396 399.545H360.546V434.999H396V399.545Z" stroke="#D3D3D5" stroke-width="2"/>
<path d="M396 222.271H360.546V257.726H396V222.271Z" stroke="#D3D3D5" stroke-width="2"/>
<path d="M218.672 257.947H183.272V293.346H218.672V257.947Z" stroke="#D3D3D5" stroke-width="2"/>
<path d="M254.182 257.729H218.728V293.183H254.182V257.729Z" stroke="#D3D3D5" stroke-width="2"/>
<path d="M218.727 293.182H183.272V328.636H218.727V293.182Z" stroke="#D3D3D5" stroke-width="2"/>
<path d="M254.182 293.182H218.728V328.636H254.182V293.182Z" stroke="#D3D3D5" stroke-width="2"/>
<path d="M218.727 328.637H183.272V364.091H218.727V328.637Z" stroke="#D3D3D5" stroke-width="2"/>
<path d="M218.727 364.092H183.272V399.546H218.727V364.092Z" stroke="#D3D3D5" stroke-width="2"/>
<path d="M254.182 328.637H218.728V364.091H254.182V328.637Z" stroke="#D3D3D5" stroke-width="2"/>
<path d="M466.909 115.908H431.454V151.363H466.909V115.908Z" stroke="#D3D3D5" stroke-width="2"/>
<path d="M502.363 80.4551H466.908V115.91H502.363V80.4551Z" stroke="#D3D3D5" stroke-width="2"/>
<path d="M537.819 45H502.364V80.4545H537.819V45Z" stroke="#D3D3D5" stroke-width="2"/>
<path d="M218.727 222.271H183.272V257.726H218.727V222.271Z" stroke="#D3D3D5" stroke-width="2"/>
<path d="M502.363 115.908H466.908V151.363H502.363V115.908Z" stroke="#D3D3D5" stroke-width="2"/>
<mask id="path-272-outside-1_594_530" maskUnits="userSpaceOnUse" x="607" y="114" width="1895" height="250" fill="black">
<rect fill="white" x="607" y="114" width="1895" height="250"/>
<path d="M610 116H633.545L633.695 338.455H610.15L610 116ZM633.695 338.455H704.33V362H633.695V338.455ZM704.18 116H727.725L727.875 338.455H704.33L704.18 116Z"/>
<path d="M769.878 220.59H793.423V244.135H816.968V267.68H793.423V361.861H769.878V220.59ZM816.968 220.59H864.058V244.135H816.968V220.59ZM864.058 244.135H887.603V361.861H864.058V244.135Z"/>
<path d="M976.695 244.135H929.605V220.59H1000.24V338.316H1047.33V361.861H929.605V338.316H976.695V244.135ZM976.695 173.5H1000.24V197.045H976.695V173.5Z"/>
<path d="M1112.88 220.59H1183.51V244.135H1112.88V220.59ZM1089.33 244.135H1112.88V338.316H1089.33V244.135ZM1112.88 338.316H1183.51V361.861H1112.88V338.316ZM1183.51 244.135H1207.06V267.68H1183.51V244.135ZM1183.51 314.77H1207.06V338.316H1183.51V314.77Z"/>
<path d="M1272.61 220.59H1343.24V244.135H1272.61V220.59ZM1343.24 244.135H1366.79V338.316H1343.24V244.135ZM1249.06 244.135H1272.61V338.316H1249.06V244.135ZM1272.61 338.316H1343.24V361.861H1272.61V338.316Z"/>
<path d="M1455.88 220.59V244.135H1479.42V267.68H1455.88V338.316H1502.97V361.861H1408.79V338.316H1432.33V244.135H1408.79V220.59H1455.88ZM1526.51 220.59V244.135H1479.42V220.59H1526.51Z"/>
<path d="M1568.52 220.59H1592.06V244.135H1615.61V267.68H1592.06V361.861H1568.52V220.59ZM1615.61 220.59H1662.7V244.135H1615.61V220.59ZM1662.7 244.135H1686.24V361.861H1662.7V244.135Z"/>
<path d="M1743.15 116H1766.69V198.089H1790.24V221.634H1766.69V362H1743.15V116ZM1837.33 221.634H1813.78V198.089H1837.33V116H1860.88V362H1837.33V221.634ZM1790.24 221.634H1813.78V268.724H1790.24V221.634Z"/>
<path d="M1902.88 291.365H1926.42V338.455H1902.88V291.365ZM1926.42 338.455H1973.51V362H1926.42V338.455ZM1973.51 314.91H1997.06V291.365H1926.42V267.82H1997.06V244.275H2020.6V362H1997.06V338.455H1973.51V314.91ZM1926.42 220.729H1997.06V244.275H1926.42V220.729Z"/>
<path d="M2086.15 244.275H2062.6V220.729H2086.15V197.184H2109.69V220.729H2180.33V244.275H2109.69V338.455H2156.79V362H2062.6V338.455H2086.15V244.275ZM2109.69 173.639H2180.33V197.184H2109.69V173.639Z"/>
<path d="M2269.42 244.275H2222.33V220.729H2292.97V338.455H2340.06V362H2222.33V338.455H2269.42V244.275ZM2269.42 173.639H2292.97V197.184H2269.42V173.639Z"/>
<path d="M2382.06 291.365H2405.6V338.455H2382.06V291.365ZM2405.6 338.455H2452.7V362H2405.6V338.455ZM2452.7 314.91H2476.24V291.365H2405.6V267.82H2476.24V244.275H2499.79V362H2476.24V338.455H2452.7V314.91ZM2405.6 220.729H2476.24V244.275H2405.6V220.729Z"/>
</mask>
<path d="M610 116V114H607.999L608 116.001L610 116ZM633.545 116L635.545 115.999L635.544 114H633.545V116ZM610.15 338.455L608.15 338.456L608.151 340.455H610.15V338.455ZM704.33 362V364H706.33V362H704.33ZM633.695 362H631.695V364H633.695V362ZM704.18 116V114H702.179L702.18 116.001L704.18 116ZM727.725 116L729.725 115.999L729.724 114H727.725V116ZM727.875 338.455V340.455H729.877L729.875 338.454L727.875 338.455ZM769.878 220.59V218.59H767.878V220.59H769.878ZM793.423 220.59H795.423V218.59H793.423V220.59ZM793.423 244.135H791.423V246.135H793.423V244.135ZM816.968 267.68V269.68H818.968V267.68H816.968ZM793.423 267.68V265.68H791.423V267.68H793.423ZM793.423 361.861V363.861H795.423V361.861H793.423ZM769.878 361.861H767.878V363.861H769.878V361.861ZM816.968 220.59V218.59H814.968V220.59H816.968ZM864.058 220.59H866.058V218.59H864.058V220.59ZM887.603 244.135H889.603V242.135H887.603V244.135ZM887.603 361.861V363.861H889.603V361.861H887.603ZM864.058 361.861H862.058V363.861H864.058V361.861ZM976.695 244.135H978.695V242.135H976.695V244.135ZM929.605 244.135H927.605V246.135H929.605V244.135ZM929.605 220.59V218.59H927.605V220.59H929.605ZM1000.24 220.59H1002.24V218.59H1000.24V220.59ZM1000.24 338.316H998.241V340.316H1000.24V338.316ZM1047.33 338.316H1049.33V336.316H1047.33V338.316ZM1047.33 361.861V363.861H1049.33V361.861H1047.33ZM929.605 361.861H927.605V363.861H929.605V361.861ZM929.605 338.316V336.316H927.605V338.316H929.605ZM976.695 338.316V340.316H978.695V338.316H976.695ZM976.695 173.5V171.5H974.695V173.5H976.695ZM1000.24 173.5H1002.24V171.5H1000.24V173.5ZM1000.24 197.045V199.045H1002.24V197.045H1000.24ZM976.695 197.045H974.695V199.045H976.695V197.045ZM1112.88 220.59V218.59H1110.88V220.59H1112.88ZM1183.51 220.59H1185.51V218.59H1183.51V220.59ZM1089.33 244.135V242.135H1087.33V244.135H1089.33ZM1089.33 338.316H1087.33V340.316H1089.33V338.316ZM1183.51 361.861V363.861H1185.51V361.861H1183.51ZM1112.88 361.861H1110.88V363.861H1112.88V361.861ZM1207.06 244.135H1209.06V242.135H1207.06V244.135ZM1207.06 267.68V269.68H1209.06V267.68H1207.06ZM1183.51 267.68H1181.51V269.68H1183.51V267.68ZM1183.51 314.77V312.77H1181.51V314.77H1183.51ZM1207.06 314.77H1209.06V312.77H1207.06V314.77ZM1207.06 338.316V340.316H1209.06V338.316H1207.06ZM1272.61 220.59V218.59H1270.61V220.59H1272.61ZM1343.24 220.59H1345.24V218.59H1343.24V220.59ZM1366.79 244.135H1368.79V242.135H1366.79V244.135ZM1366.79 338.316V340.316H1368.79V338.316H1366.79ZM1249.06 244.135V242.135H1247.06V244.135H1249.06ZM1249.06 338.316H1247.06V340.316H1249.06V338.316ZM1343.24 361.861V363.861H1345.24V361.861H1343.24ZM1272.61 361.861H1270.61V363.861H1272.61V361.861ZM1455.88 220.59H1457.88V218.59H1455.88V220.59ZM1455.88 244.135H1453.88V246.135H1455.88V244.135ZM1479.42 267.68V269.68H1481.42V267.68H1479.42ZM1455.88 267.68V265.68H1453.88V267.68H1455.88ZM1455.88 338.316H1453.88V340.316H1455.88V338.316ZM1502.97 338.316H1504.97V336.316H1502.97V338.316ZM1502.97 361.861V363.861H1504.97V361.861H1502.97ZM1408.79 361.861H1406.79V363.861H1408.79V361.861ZM1408.79 338.316V336.316H1406.79V338.316H1408.79ZM1432.33 338.316V340.316H1434.33V338.316H1432.33ZM1432.33 244.135H1434.33V242.135H1432.33V244.135ZM1408.79 244.135H1406.79V246.135H1408.79V244.135ZM1408.79 220.59V218.59H1406.79V220.59H1408.79ZM1526.51 220.59H1528.51V218.59H1526.51V220.59ZM1526.51 244.135V246.135H1528.51V244.135H1526.51ZM1479.42 220.59V218.59H1477.42V220.59H1479.42ZM1568.52 220.59V218.59H1566.52V220.59H1568.52ZM1592.06 220.59H1594.06V218.59H1592.06V220.59ZM1592.06 244.135H1590.06V246.135H1592.06V244.135ZM1615.61 267.68V269.68H1617.61V267.68H1615.61ZM1592.06 267.68V265.68H1590.06V267.68H1592.06ZM1592.06 361.861V363.861H1594.06V361.861H1592.06ZM1568.52 361.861H1566.52V363.861H1568.52V361.861ZM1615.61 220.59V218.59H1613.61V220.59H1615.61ZM1662.7 220.59H1664.7V218.59H1662.7V220.59ZM1686.24 244.135H1688.24V242.135H1686.24V244.135ZM1686.24 361.861V363.861H1688.24V361.861H1686.24ZM1662.7 361.861H1660.7V363.861H1662.7V361.861ZM1743.15 116V114H1741.15V116H1743.15ZM1766.69 116H1768.69V114H1766.69V116ZM1766.69 198.089H1764.69V200.089H1766.69V198.089ZM1790.24 198.089H1792.24V196.089H1790.24V198.089ZM1766.69 221.634V219.634H1764.69V221.634H1766.69ZM1766.69 362V364H1768.69V362H1766.69ZM1743.15 362H1741.15V364H1743.15V362ZM1837.33 221.634H1839.33V219.634H1837.33V221.634ZM1813.78 198.089V196.089H1811.78V198.089H1813.78ZM1837.33 198.089V200.089H1839.33V198.089H1837.33ZM1837.33 116V114H1835.33V116H1837.33ZM1860.88 116H1862.88V114H1860.88V116ZM1860.88 362V364H1862.88V362H1860.88ZM1837.33 362H1835.33V364H1837.33V362ZM1813.78 268.724V270.724H1815.78V268.724H1813.78ZM1790.24 268.724H1788.24V270.724H1790.24V268.724ZM1902.88 291.365V289.365H1900.88V291.365H1902.88ZM1902.88 338.455H1900.88V340.455H1902.88V338.455ZM1973.51 362V364H1975.51V362H1973.51ZM1926.42 362H1924.42V364H1926.42V362ZM1973.51 314.91V312.91H1971.51V314.91H1973.51ZM1997.06 314.91V316.91H1999.06V314.91H1997.06ZM1997.06 291.365H1999.06V289.365H1997.06V291.365ZM1926.42 267.82V265.82H1924.42V267.82H1926.42ZM1997.06 267.82V269.82H1999.06V267.82H1997.06ZM2020.6 244.275H2022.6V242.275H2020.6V244.275ZM2020.6 362V364H2022.6V362H2020.6ZM1997.06 362H1995.06V364H1997.06V362ZM1997.06 338.455H1999.06V336.455H1997.06V338.455ZM1926.42 220.729V218.729H1924.42V220.729H1926.42ZM1997.06 220.729H1999.06V218.729H1997.06V220.729ZM1926.42 244.275H1924.42V246.275H1926.42V244.275ZM2086.15 244.275H2088.15V242.275H2086.15V244.275ZM2062.6 244.275H2060.6V246.275H2062.6V244.275ZM2062.6 220.729V218.729H2060.6V220.729H2062.6ZM2086.15 220.729V222.729H2088.15V220.729H2086.15ZM2086.15 197.184V195.184H2084.15V197.184H2086.15ZM2109.69 220.729H2107.69V222.729H2109.69V220.729ZM2180.33 220.729H2182.33V218.729H2180.33V220.729ZM2180.33 244.275V246.275H2182.33V244.275H2180.33ZM2109.69 244.275V242.275H2107.69V244.275H2109.69ZM2109.69 338.455H2107.69V340.455H2109.69V338.455ZM2156.79 338.455H2158.79V336.455H2156.79V338.455ZM2156.79 362V364H2158.79V362H2156.79ZM2062.6 362H2060.6V364H2062.6V362ZM2062.6 338.455V336.455H2060.6V338.455H2062.6ZM2086.15 338.455V340.455H2088.15V338.455H2086.15ZM2109.69 173.639V171.639H2107.69V173.639H2109.69ZM2180.33 173.639H2182.33V171.639H2180.33V173.639ZM2180.33 197.184V199.184H2182.33V197.184H2180.33ZM2269.42 244.275H2271.42V242.275H2269.42V244.275ZM2222.33 244.275H2220.33V246.275H2222.33V244.275ZM2222.33 220.729V218.729H2220.33V220.729H2222.33ZM2292.97 220.729H2294.97V218.729H2292.97V220.729ZM2292.97 338.455H2290.97V340.455H2292.97V338.455ZM2340.06 338.455H2342.06V336.455H2340.06V338.455ZM2340.06 362V364H2342.06V362H2340.06ZM2222.33 362H2220.33V364H2222.33V362ZM2222.33 338.455V336.455H2220.33V338.455H2222.33ZM2269.42 338.455V340.455H2271.42V338.455H2269.42ZM2269.42 173.639V171.639H2267.42V173.639H2269.42ZM2292.97 173.639H2294.97V171.639H2292.97V173.639ZM2292.97 197.184V199.184H2294.97V197.184H2292.97ZM2269.42 197.184H2267.42V199.184H2269.42V197.184ZM2382.06 291.365V289.365H2380.06V291.365H2382.06ZM2382.06 338.455H2380.06V340.455H2382.06V338.455ZM2452.7 362V364H2454.7V362H2452.7ZM2405.6 362H2403.6V364H2405.6V362ZM2452.7 314.91V312.91H2450.7V314.91H2452.7ZM2476.24 314.91V316.91H2478.24V314.91H2476.24ZM2476.24 291.365H2478.24V289.365H2476.24V291.365ZM2405.6 267.82V265.82H2403.6V267.82H2405.6ZM2476.24 267.82V269.82H2478.24V267.82H2476.24ZM2499.79 244.275H2501.79V242.275H2499.79V244.275ZM2499.79 362V364H2501.79V362H2499.79ZM2476.24 362H2474.24V364H2476.24V362ZM2476.24 338.455H2478.24V336.455H2476.24V338.455ZM2405.6 220.729V218.729H2403.6V220.729H2405.6ZM2476.24 220.729H2478.24V218.729H2476.24V220.729ZM2405.6 244.275H2403.6V246.275H2405.6V244.275ZM610 116V118H633.545V116V114H610V116ZM633.545 116L631.545 116.001L631.695 338.456L633.695 338.455L635.695 338.454L635.545 115.999L633.545 116ZM633.695 338.455V336.455H610.15V338.455V340.455H633.695V338.455ZM610.15 338.455L612.15 338.454L612 115.999L610 116L608 116.001L608.15 338.456L610.15 338.455ZM633.695 338.455V340.455H704.33V338.455V336.455H633.695V338.455ZM704.33 338.455H702.33V362H704.33H706.33V338.455H704.33ZM704.33 362V360H633.695V362V364H704.33V362ZM633.695 362H635.695V338.455H633.695H631.695V362H633.695ZM704.18 116V118H727.725V116V114H704.18V116ZM727.725 116L725.725 116.001L725.875 338.456L727.875 338.455L729.875 338.454L729.725 115.999L727.725 116ZM727.875 338.455V336.455H704.33V338.455V340.455H727.875V338.455ZM704.33 338.455L706.33 338.454L706.18 115.999L704.18 116L702.18 116.001L702.33 338.456L704.33 338.455ZM769.878 220.59V222.59H793.423V220.59V218.59H769.878V220.59ZM793.423 220.59H791.423V244.135H793.423H795.423V220.59H793.423ZM793.423 244.135V246.135H816.968V244.135V242.135H793.423V244.135ZM816.968 244.135H814.968V267.68H816.968H818.968V244.135H816.968ZM816.968 267.68V265.68H793.423V267.68V269.68H816.968V267.68ZM793.423 267.68H791.423V361.861H793.423H795.423V267.68H793.423ZM793.423 361.861V359.861H769.878V361.861V363.861H793.423V361.861ZM769.878 361.861H771.878V220.59H769.878H767.878V361.861H769.878ZM816.968 220.59V222.59H864.058V220.59V218.59H816.968V220.59ZM864.058 220.59H862.058V244.135H864.058H866.058V220.59H864.058ZM864.058 244.135V242.135H816.968V244.135V246.135H864.058V244.135ZM816.968 244.135H818.968V220.59H816.968H814.968V244.135H816.968ZM864.058 244.135V246.135H887.603V244.135V242.135H864.058V244.135ZM887.603 244.135H885.603V361.861H887.603H889.603V244.135H887.603ZM887.603 361.861V359.861H864.058V361.861V363.861H887.603V361.861ZM864.058 361.861H866.058V244.135H864.058H862.058V361.861H864.058ZM976.695 244.135V242.135H929.605V244.135V246.135H976.695V244.135ZM929.605 244.135H931.605V220.59H929.605H927.605V244.135H929.605ZM929.605 220.59V222.59H1000.24V220.59V218.59H929.605V220.59ZM1000.24 220.59H998.241V338.316H1000.24H1002.24V220.59H1000.24ZM1000.24 338.316V340.316H1047.33V338.316V336.316H1000.24V338.316ZM1047.33 338.316H1045.33V361.861H1047.33H1049.33V338.316H1047.33ZM1047.33 361.861V359.861H929.605V361.861V363.861H1047.33V361.861ZM929.605 361.861H931.605V338.316H929.605H927.605V361.861H929.605ZM929.605 338.316V340.316H976.695V338.316V336.316H929.605V338.316ZM976.695 338.316H978.695V244.135H976.695H974.695V338.316H976.695ZM976.695 173.5V175.5H1000.24V173.5V171.5H976.695V173.5ZM1000.24 173.5H998.241V197.045H1000.24H1002.24V173.5H1000.24ZM1000.24 197.045V195.045H976.695V197.045V199.045H1000.24V197.045ZM976.695 197.045H978.695V173.5H976.695H974.695V197.045H976.695ZM1112.88 220.59V222.59H1183.51V220.59V218.59H1112.88V220.59ZM1183.51 220.59H1181.51V244.135H1183.51H1185.51V220.59H1183.51ZM1183.51 244.135V242.135H1112.88V244.135V246.135H1183.51V244.135ZM1112.88 244.135H1114.88V220.59H1112.88H1110.88V244.135H1112.88ZM1089.33 244.135V246.135H1112.88V244.135V242.135H1089.33V244.135ZM1112.88 244.135H1110.88V338.316H1112.88H1114.88V244.135H1112.88ZM1112.88 338.316V336.316H1089.33V338.316V340.316H1112.88V338.316ZM1089.33 338.316H1091.33V244.135H1089.33H1087.33V338.316H1089.33ZM1112.88 338.316V340.316H1183.51V338.316V336.316H1112.88V338.316ZM1183.51 338.316H1181.51V361.861H1183.51H1185.51V338.316H1183.51ZM1183.51 361.861V359.861H1112.88V361.861V363.861H1183.51V361.861ZM1112.88 361.861H1114.88V338.316H1112.88H1110.88V361.861H1112.88ZM1183.51 244.135V246.135H1207.06V244.135V242.135H1183.51V244.135ZM1207.06 244.135H1205.06V267.68H1207.06H1209.06V244.135H1207.06ZM1207.06 267.68V265.68H1183.51V267.68V269.68H1207.06V267.68ZM1183.51 267.68H1185.51V244.135H1183.51H1181.51V267.68H1183.51ZM1183.51 314.77V316.77H1207.06V314.77V312.77H1183.51V314.77ZM1207.06 314.77H1205.06V338.316H1207.06H1209.06V314.77H1207.06ZM1207.06 338.316V336.316H1183.51V338.316V340.316H1207.06V338.316ZM1183.51 338.316H1185.51V314.77H1183.51H1181.51V338.316H1183.51ZM1272.61 220.59V222.59H1343.24V220.59V218.59H1272.61V220.59ZM1343.24 220.59H1341.24V244.135H1343.24H1345.24V220.59H1343.24ZM1343.24 244.135V242.135H1272.61V244.135V246.135H1343.24V244.135ZM1272.61 244.135H1274.61V220.59H1272.61H1270.61V244.135H1272.61ZM1343.24 244.135V246.135H1366.79V244.135V242.135H1343.24V244.135ZM1366.79 244.135H1364.79V338.316H1366.79H1368.79V244.135H1366.79ZM1366.79 338.316V336.316H1343.24V338.316V340.316H1366.79V338.316ZM1343.24 338.316H1345.24V244.135H1343.24H1341.24V338.316H1343.24ZM1249.06 244.135V246.135H1272.61V244.135V242.135H1249.06V244.135ZM1272.61 244.135H1270.61V338.316H1272.61H1274.61V244.135H1272.61ZM1272.61 338.316V336.316H1249.06V338.316V340.316H1272.61V338.316ZM1249.06 338.316H1251.06V244.135H1249.06H1247.06V338.316H1249.06ZM1272.61 338.316V340.316H1343.24V338.316V336.316H1272.61V338.316ZM1343.24 338.316H1341.24V361.861H1343.24H1345.24V338.316H1343.24ZM1343.24 361.861V359.861H1272.61V361.861V363.861H1343.24V361.861ZM1272.61 361.861H1274.61V338.316H1272.61H1270.61V361.861H1272.61ZM1455.88 220.59H1453.88V244.135H1455.88H1457.88V220.59H1455.88ZM1455.88 244.135V246.135H1479.42V244.135V242.135H1455.88V244.135ZM1479.42 244.135H1477.42V267.68H1479.42H1481.42V244.135H1479.42ZM1479.42 267.68V265.68H1455.88V267.68V269.68H1479.42V267.68ZM1455.88 267.68H1453.88V338.316H1455.88H1457.88V267.68H1455.88ZM1455.88 338.316V340.316H1502.97V338.316V336.316H1455.88V338.316ZM1502.97 338.316H1500.97V361.861H1502.97H1504.97V338.316H1502.97ZM1502.97 361.861V359.861H1408.79V361.861V363.861H1502.97V361.861ZM1408.79 361.861H1410.79V338.316H1408.79H1406.79V361.861H1408.79ZM1408.79 338.316V340.316H1432.33V338.316V336.316H1408.79V338.316ZM1432.33 338.316H1434.33V244.135H1432.33H1430.33V338.316H1432.33ZM1432.33 244.135V242.135H1408.79V244.135V246.135H1432.33V244.135ZM1408.79 244.135H1410.79V220.59H1408.79H1406.79V244.135H1408.79ZM1408.79 220.59V222.59H1455.88V220.59V218.59H1408.79V220.59ZM1526.51 220.59H1524.51V244.135H1526.51H1528.51V220.59H1526.51ZM1526.51 244.135V242.135H1479.42V244.135V246.135H1526.51V244.135ZM1479.42 244.135H1481.42V220.59H1479.42H1477.42V244.135H1479.42ZM1479.42 220.59V222.59H1526.51V220.59V218.59H1479.42V220.59ZM1568.52 220.59V222.59H1592.06V220.59V218.59H1568.52V220.59ZM1592.06 220.59H1590.06V244.135H1592.06H1594.06V220.59H1592.06ZM1592.06 244.135V246.135H1615.61V244.135V242.135H1592.06V244.135ZM1615.61 244.135H1613.61V267.68H1615.61H1617.61V244.135H1615.61ZM1615.61 267.68V265.68H1592.06V267.68V269.68H1615.61V267.68ZM1592.06 267.68H1590.06V361.861H1592.06H1594.06V267.68H1592.06ZM1592.06 361.861V359.861H1568.52V361.861V363.861H1592.06V361.861ZM1568.52 361.861H1570.52V220.59H1568.52H1566.52V361.861H1568.52ZM1615.61 220.59V222.59H1662.7V220.59V218.59H1615.61V220.59ZM1662.7 220.59H1660.7V244.135H1662.7H1664.7V220.59H1662.7ZM1662.7 244.135V242.135H1615.61V244.135V246.135H1662.7V244.135ZM1615.61 244.135H1617.61V220.59H1615.61H1613.61V244.135H1615.61ZM1662.7 244.135V246.135H1686.24V244.135V242.135H1662.7V244.135ZM1686.24 244.135H1684.24V361.861H1686.24H1688.24V244.135H1686.24ZM1686.24 361.861V359.861H1662.7V361.861V363.861H1686.24V361.861ZM1662.7 361.861H1664.7V244.135H1662.7H1660.7V361.861H1662.7ZM1743.15 116V118H1766.69V116V114H1743.15V116ZM1766.69 116H1764.69V198.089H1766.69H1768.69V116H1766.69ZM1766.69 198.089V200.089H1790.24V198.089V196.089H1766.69V198.089ZM1790.24 198.089H1788.24V221.634H1790.24H1792.24V198.089H1790.24ZM1790.24 221.634V219.634H1766.69V221.634V223.634H1790.24V221.634ZM1766.69 221.634H1764.69V362H1766.69H1768.69V221.634H1766.69ZM1766.69 362V360H1743.15V362V364H1766.69V362ZM1743.15 362H1745.15V116H1743.15H1741.15V362H1743.15ZM1837.33 221.634V219.634H1813.78V221.634V223.634H1837.33V221.634ZM1813.78 221.634H1815.78V198.089H1813.78H1811.78V221.634H1813.78ZM1813.78 198.089V200.089H1837.33V198.089V196.089H1813.78V198.089ZM1837.33 198.089H1839.33V116H1837.33H1835.33V198.089H1837.33ZM1837.33 116V118H1860.88V116V114H1837.33V116ZM1860.88 116H1858.88V362H1860.88H1862.88V116H1860.88ZM1860.88 362V360H1837.33V362V364H1860.88V362ZM1837.33 362H1839.33V221.634H1837.33H1835.33V362H1837.33ZM1790.24 221.634V223.634H1813.78V221.634V219.634H1790.24V221.634ZM1813.78 221.634H1811.78V268.724H1813.78H1815.78V221.634H1813.78ZM1813.78 268.724V266.724H1790.24V268.724V270.724H1813.78V268.724ZM1790.24 268.724H1792.24V221.634H1790.24H1788.24V268.724H1790.24ZM1902.88 291.365V293.365H1926.42V291.365V289.365H1902.88V291.365ZM1926.42 291.365H1924.42V338.455H1926.42H1928.42V291.365H1926.42ZM1926.42 338.455V336.455H1902.88V338.455V340.455H1926.42V338.455ZM1902.88 338.455H1904.88V291.365H1902.88H1900.88V338.455H1902.88ZM1926.42 338.455V340.455H1973.51V338.455V336.455H1926.42V338.455ZM1973.51 338.455H1971.51V362H1973.51H1975.51V338.455H1973.51ZM1973.51 362V360H1926.42V362V364H1973.51V362ZM1926.42 362H1928.42V338.455H1926.42H1924.42V362H1926.42ZM1973.51 314.91V316.91H1997.06V314.91V312.91H1973.51V314.91ZM1997.06 314.91H1999.06V291.365H1997.06H1995.06V314.91H1997.06ZM1997.06 291.365V289.365H1926.42V291.365V293.365H1997.06V291.365ZM1926.42 291.365H1928.42V267.82H1926.42H1924.42V291.365H1926.42ZM1926.42 267.82V269.82H1997.06V267.82V265.82H1926.42V267.82ZM1997.06 267.82H1999.06V244.275H1997.06H1995.06V267.82H1997.06ZM1997.06 244.275V246.275H2020.6V244.275V242.275H1997.06V244.275ZM2020.6 244.275H2018.6V362H2020.6H2022.6V244.275H2020.6ZM2020.6 362V360H1997.06V362V364H2020.6V362ZM1997.06 362H1999.06V338.455H1997.06H1995.06V362H1997.06ZM1997.06 338.455V336.455H1973.51V338.455V340.455H1997.06V338.455ZM1973.51 338.455H1975.51V314.91H1973.51H1971.51V338.455H1973.51ZM1926.42 220.729V222.729H1997.06V220.729V218.729H1926.42V220.729ZM1997.06 220.729H1995.06V244.275H1997.06H1999.06V220.729H1997.06ZM1997.06 244.275V242.275H1926.42V244.275V246.275H1997.06V244.275ZM1926.42 244.275H1928.42V220.729H1926.42H1924.42V244.275H1926.42ZM2086.15 244.275V242.275H2062.6V244.275V246.275H2086.15V244.275ZM2062.6 244.275H2064.6V220.729H2062.6H2060.6V244.275H2062.6ZM2062.6 220.729V222.729H2086.15V220.729V218.729H2062.6V220.729ZM2086.15 220.729H2088.15V197.184H2086.15H2084.15V220.729H2086.15ZM2086.15 197.184V199.184H2109.69V197.184V195.184H2086.15V197.184ZM2109.69 197.184H2107.69V220.729H2109.69H2111.69V197.184H2109.69ZM2109.69 220.729V222.729H2180.33V220.729V218.729H2109.69V220.729ZM2180.33 220.729H2178.33V244.275H2180.33H2182.33V220.729H2180.33ZM2180.33 244.275V242.275H2109.69V244.275V246.275H2180.33V244.275ZM2109.69 244.275H2107.69V338.455H2109.69H2111.69V244.275H2109.69ZM2109.69 338.455V340.455H2156.79V338.455V336.455H2109.69V338.455ZM2156.79 338.455H2154.79V362H2156.79H2158.79V338.455H2156.79ZM2156.79 362V360H2062.6V362V364H2156.79V362ZM2062.6 362H2064.6V338.455H2062.6H2060.6V362H2062.6ZM2062.6 338.455V340.455H2086.15V338.455V336.455H2062.6V338.455ZM2086.15 338.455H2088.15V244.275H2086.15H2084.15V338.455H2086.15ZM2109.69 173.639V175.639H2180.33V173.639V171.639H2109.69V173.639ZM2180.33 173.639H2178.33V197.184H2180.33H2182.33V173.639H2180.33ZM2180.33 197.184V195.184H2109.69V197.184V199.184H2180.33V197.184ZM2109.69 197.184H2111.69V173.639H2109.69H2107.69V197.184H2109.69ZM2269.42 244.275V242.275H2222.33V244.275V246.275H2269.42V244.275ZM2222.33 244.275H2224.33V220.729H2222.33H2220.33V244.275H2222.33ZM2222.33 220.729V222.729H2292.97V220.729V218.729H2222.33V220.729ZM2292.97 220.729H2290.97V338.455H2292.97H2294.97V220.729H2292.97ZM2292.97 338.455V340.455H2340.06V338.455V336.455H2292.97V338.455ZM2340.06 338.455H2338.06V362H2340.06H2342.06V338.455H2340.06ZM2340.06 362V360H2222.33V362V364H2340.06V362ZM2222.33 362H2224.33V338.455H2222.33H2220.33V362H2222.33ZM2222.33 338.455V340.455H2269.42V338.455V336.455H2222.33V338.455ZM2269.42 338.455H2271.42V244.275H2269.42H2267.42V338.455H2269.42ZM2269.42 173.639V175.639H2292.97V173.639V171.639H2269.42V173.639ZM2292.97 173.639H2290.97V197.184H2292.97H2294.97V173.639H2292.97ZM2292.97 197.184V195.184H2269.42V197.184V199.184H2292.97V197.184ZM2269.42 197.184H2271.42V173.639H2269.42H2267.42V197.184H2269.42ZM2382.06 291.365V293.365H2405.6V291.365V289.365H2382.06V291.365ZM2405.6 291.365H2403.6V338.455H2405.6H2407.6V291.365H2405.6ZM2405.6 338.455V336.455H2382.06V338.455V340.455H2405.6V338.455ZM2382.06 338.455H2384.06V291.365H2382.06H2380.06V338.455H2382.06ZM2405.6 338.455V340.455H2452.7V338.455V336.455H2405.6V338.455ZM2452.7 338.455H2450.7V362H2452.7H2454.7V338.455H2452.7ZM2452.7 362V360H2405.6V362V364H2452.7V362ZM2405.6 362H2407.6V338.455H2405.6H2403.6V362H2405.6ZM2452.7 314.91V316.91H2476.24V314.91V312.91H2452.7V314.91ZM2476.24 314.91H2478.24V291.365H2476.24H2474.24V314.91H2476.24ZM2476.24 291.365V289.365H2405.6V291.365V293.365H2476.24V291.365ZM2405.6 291.365H2407.6V267.82H2405.6H2403.6V291.365H2405.6ZM2405.6 267.82V269.82H2476.24V267.82V265.82H2405.6V267.82ZM2476.24 267.82H2478.24V244.275H2476.24H2474.24V267.82H2476.24ZM2476.24 244.275V246.275H2499.79V244.275V242.275H2476.24V244.275ZM2499.79 244.275H2497.79V362H2499.79H2501.79V244.275H2499.79ZM2499.79 362V360H2476.24V362V364H2499.79V362ZM2476.24 362H2478.24V338.455H2476.24H2474.24V362H2476.24ZM2476.24 338.455V336.455H2452.7V338.455V340.455H2476.24V338.455ZM2452.7 338.455H2454.7V314.91H2452.7H2450.7V338.455H2452.7ZM2405.6 220.729V222.729H2476.24V220.729V218.729H2405.6V220.729ZM2476.24 220.729H2474.24V244.275H2476.24H2478.24V220.729H2476.24ZM2476.24 244.275V242.275H2405.6V244.275V246.275H2476.24V244.275ZM2405.6 244.275H2407.6V220.729H2405.6H2403.6V244.275H2405.6Z" fill="#D3D3D5" mask="url(#path-272-outside-1_594_530)"/>
</svg>
