<svg width="3008" height="480" viewBox="0 0 3008 480" fill="none" xmlns="http://www.w3.org/2000/svg">
<line x1="8.74228e-08" y1="45" x2="3008" y2="45.0003" stroke="#EDEDED" stroke-width="2"/>
<line x1="8.74228e-08" y1="115" x2="3008" y2="115" stroke="#EDEDED" stroke-width="2"/>
<line x1="8.74228e-08" y1="363" x2="3008" y2="363" stroke="#EDEDED" stroke-width="2"/>
<line x1="8.74228e-08" y1="435" x2="3008" y2="435" stroke="#EDEDED" stroke-width="2"/>
<line x1="278" y1="480" x2="278" y2="4.37114e-08" stroke="#EAEAEA" stroke-width="2"/>
<line x1="345" y1="480" x2="345" y2="4.37114e-08" stroke="#EAEAEA" stroke-width="2"/>
<mask id="mask0_738_17620" style="mask-type:alpha" maskUnits="userSpaceOnUse" x="277" y="45" width="68" height="390">
<rect x="277" y="45" width="68" height="390" fill="#D9D9D9"/>
</mask>
<g mask="url(#mask0_738_17620)">
<line x1="-298.449" y1="276.553" x2="278.55" y2="-300.447" stroke="#F0F0F0" stroke-width="2"/>
<line x1="-284.305" y1="290.693" x2="292.694" y2="-286.306" stroke="#F0F0F0" stroke-width="2"/>
<line x1="-270.164" y1="304.836" x2="306.835" y2="-272.163" stroke="#F0F0F0" stroke-width="2"/>
<line x1="-256.022" y1="318.978" x2="320.978" y2="-258.021" stroke="#F0F0F0" stroke-width="2"/>
<line x1="-241.879" y1="333.121" x2="335.12" y2="-243.878" stroke="#F0F0F0" stroke-width="2"/>
<line x1="-227.738" y1="347.262" x2="349.261" y2="-229.738" stroke="#F0F0F0" stroke-width="2"/>
<line x1="-213.596" y1="361.404" x2="363.403" y2="-215.595" stroke="#F0F0F0" stroke-width="2"/>
<line x1="-199.453" y1="375.547" x2="377.546" y2="-201.452" stroke="#F0F0F0" stroke-width="2"/>
<line x1="-185.311" y1="389.689" x2="391.689" y2="-187.31" stroke="#F0F0F0" stroke-width="2"/>
<line x1="-171.168" y1="403.832" x2="405.831" y2="-173.167" stroke="#F0F0F0" stroke-width="2"/>
<line x1="-157.027" y1="417.973" x2="419.972" y2="-159.027" stroke="#F0F0F0" stroke-width="2"/>
<line x1="-142.885" y1="432.115" x2="434.114" y2="-144.884" stroke="#F0F0F0" stroke-width="2"/>
<line x1="-128.742" y1="446.258" x2="448.257" y2="-130.741" stroke="#F0F0F0" stroke-width="2"/>
<line x1="-114.602" y1="460.4" x2="462.398" y2="-116.599" stroke="#F0F0F0" stroke-width="2"/>
<line x1="-100.457" y1="474.541" x2="476.542" y2="-102.458" stroke="#F0F0F0" stroke-width="2"/>
<line x1="-86.3165" y1="488.684" x2="490.683" y2="-88.3157" stroke="#F0F0F0" stroke-width="2"/>
<line x1="-72.1739" y1="502.826" x2="504.825" y2="-74.1731" stroke="#F0F0F0" stroke-width="2"/>
<line x1="-58.0313" y1="516.969" x2="518.968" y2="-60.0305" stroke="#F0F0F0" stroke-width="2"/>
<line x1="-43.8907" y1="531.111" x2="533.108" y2="-45.8879" stroke="#F0F0F0" stroke-width="2"/>
<line x1="-29.7462" y1="545.252" x2="547.253" y2="-31.7473" stroke="#F0F0F0" stroke-width="2"/>
<line x1="-15.6055" y1="559.394" x2="561.394" y2="-17.6047" stroke="#F0F0F0" stroke-width="2"/>
<line x1="-1.46297" y1="573.537" x2="575.536" y2="-3.46214" stroke="#F0F0F0" stroke-width="2"/>
<line x1="12.6796" y1="587.68" x2="589.679" y2="10.6804" stroke="#F0F0F0" stroke-width="2"/>
<line x1="26.8202" y1="601.82" x2="603.819" y2="24.8211" stroke="#F0F0F0" stroke-width="2"/>
<line x1="40.9628" y1="615.963" x2="617.962" y2="38.9636" stroke="#F0F0F0" stroke-width="2"/>
<line x1="55.1054" y1="630.105" x2="632.105" y2="53.1062" stroke="#F0F0F0" stroke-width="2"/>
<line x1="69.246" y1="644.248" x2="646.245" y2="67.2488" stroke="#F0F0F0" stroke-width="2"/>
<line x1="83.3905" y1="658.391" x2="660.39" y2="81.3914" stroke="#F0F0F0" stroke-width="2"/>
<line x1="97.5312" y1="672.531" x2="674.53" y2="95.532" stroke="#F0F0F0" stroke-width="2"/>
<line x1="111.674" y1="686.674" x2="688.673" y2="109.675" stroke="#F0F0F0" stroke-width="2"/>
<line x1="125.816" y1="700.816" x2="702.815" y2="123.817" stroke="#F0F0F0" stroke-width="2"/>
<line x1="139.957" y1="714.959" x2="716.956" y2="137.96" stroke="#F0F0F0" stroke-width="2"/>
<line x1="154.101" y1="729.1" x2="731.101" y2="152.1" stroke="#F0F0F0" stroke-width="2"/>
<line x1="168.242" y1="743.242" x2="745.241" y2="166.243" stroke="#F0F0F0" stroke-width="2"/>
<line x1="182.385" y1="757.385" x2="759.384" y2="180.386" stroke="#F0F0F0" stroke-width="2"/>
<line x1="196.527" y1="771.527" x2="773.526" y2="194.528" stroke="#F0F0F0" stroke-width="2"/>
<line x1="210.668" y1="785.668" x2="787.667" y2="208.669" stroke="#F0F0F0" stroke-width="2"/>
<line x1="224.81" y1="799.81" x2="801.81" y2="222.811" stroke="#F0F0F0" stroke-width="2"/>
<line x1="238.953" y1="813.953" x2="815.952" y2="236.954" stroke="#F0F0F0" stroke-width="2"/>
<line x1="253.096" y1="828.096" x2="830.095" y2="251.096" stroke="#F0F0F0" stroke-width="2"/>
<line x1="267.238" y1="842.238" x2="844.237" y2="265.239" stroke="#F0F0F0" stroke-width="2"/>
<line x1="281.379" y1="856.379" x2="858.378" y2="279.38" stroke="#F0F0F0" stroke-width="2"/>
<line x1="295.521" y1="870.521" x2="872.521" y2="293.522" stroke="#F0F0F0" stroke-width="2"/>
<line x1="309.664" y1="884.664" x2="886.663" y2="307.665" stroke="#F0F0F0" stroke-width="2"/>
<line x1="323.805" y1="898.807" x2="900.804" y2="321.807" stroke="#F0F0F0" stroke-width="2"/>
<line x1="337.949" y1="912.947" x2="914.948" y2="335.948" stroke="#F0F0F0" stroke-width="2"/>
</g>
<line x1="211" y1="480" x2="211" y2="4.37114e-08" stroke="#EAEAEA" stroke-width="2"/>
<line x1="278" y1="480" x2="278" y2="4.37114e-08" stroke="#EAEAEA" stroke-width="2"/>
<mask id="mask1_738_17620" style="mask-type:alpha" maskUnits="userSpaceOnUse" x="211" y="45" width="68" height="390">
<rect x="211" y="45" width="68" height="390" fill="#D9D9D9"/>
</mask>
<g mask="url(#mask1_738_17620)">
<line x1="-364.449" y1="276.553" x2="212.55" y2="-300.447" stroke="#F0F0F0" stroke-width="2"/>
<line x1="-350.305" y1="290.693" x2="226.694" y2="-286.306" stroke="#F0F0F0" stroke-width="2"/>
<line x1="-336.164" y1="304.836" x2="240.835" y2="-272.163" stroke="#F0F0F0" stroke-width="2"/>
<line x1="-322.022" y1="318.978" x2="254.978" y2="-258.021" stroke="#F0F0F0" stroke-width="2"/>
<line x1="-307.879" y1="333.121" x2="269.12" y2="-243.878" stroke="#F0F0F0" stroke-width="2"/>
<line x1="-293.738" y1="347.262" x2="283.261" y2="-229.738" stroke="#F0F0F0" stroke-width="2"/>
<line x1="-279.596" y1="361.404" x2="297.403" y2="-215.595" stroke="#F0F0F0" stroke-width="2"/>
<line x1="-265.453" y1="375.547" x2="311.546" y2="-201.452" stroke="#F0F0F0" stroke-width="2"/>
<line x1="-251.311" y1="389.689" x2="325.689" y2="-187.31" stroke="#F0F0F0" stroke-width="2"/>
<line x1="-237.168" y1="403.832" x2="339.831" y2="-173.167" stroke="#F0F0F0" stroke-width="2"/>
<line x1="-223.027" y1="417.973" x2="353.972" y2="-159.027" stroke="#F0F0F0" stroke-width="2"/>
<line x1="-208.885" y1="432.115" x2="368.114" y2="-144.884" stroke="#F0F0F0" stroke-width="2"/>
<line x1="-194.742" y1="446.258" x2="382.257" y2="-130.741" stroke="#F0F0F0" stroke-width="2"/>
<line x1="-180.602" y1="460.4" x2="396.398" y2="-116.599" stroke="#F0F0F0" stroke-width="2"/>
<line x1="-166.457" y1="474.541" x2="410.542" y2="-102.458" stroke="#F0F0F0" stroke-width="2"/>
<line x1="-152.316" y1="488.684" x2="424.683" y2="-88.3157" stroke="#F0F0F0" stroke-width="2"/>
<line x1="-138.174" y1="502.826" x2="438.825" y2="-74.1731" stroke="#F0F0F0" stroke-width="2"/>
<line x1="-124.031" y1="516.969" x2="452.968" y2="-60.0305" stroke="#F0F0F0" stroke-width="2"/>
<line x1="-109.891" y1="531.111" x2="467.108" y2="-45.8879" stroke="#F0F0F0" stroke-width="2"/>
<line x1="-95.7462" y1="545.252" x2="481.253" y2="-31.7473" stroke="#F0F0F0" stroke-width="2"/>
<line x1="-81.6055" y1="559.394" x2="495.394" y2="-17.6047" stroke="#F0F0F0" stroke-width="2"/>
<line x1="-67.463" y1="573.537" x2="509.536" y2="-3.46214" stroke="#F0F0F0" stroke-width="2"/>
<line x1="-53.3204" y1="587.68" x2="523.679" y2="10.6804" stroke="#F0F0F0" stroke-width="2"/>
<line x1="-39.1798" y1="601.82" x2="537.819" y2="24.8211" stroke="#F0F0F0" stroke-width="2"/>
<line x1="-25.0372" y1="615.963" x2="551.962" y2="38.9636" stroke="#F0F0F0" stroke-width="2"/>
<line x1="-10.8946" y1="630.105" x2="566.105" y2="53.1062" stroke="#F0F0F0" stroke-width="2"/>
<line x1="3.24602" y1="644.248" x2="580.245" y2="67.2488" stroke="#F0F0F0" stroke-width="2"/>
<line x1="17.3905" y1="658.391" x2="594.39" y2="81.3914" stroke="#F0F0F0" stroke-width="2"/>
<line x1="31.5312" y1="672.531" x2="608.53" y2="95.532" stroke="#F0F0F0" stroke-width="2"/>
<line x1="45.6738" y1="686.674" x2="622.673" y2="109.675" stroke="#F0F0F0" stroke-width="2"/>
<line x1="59.8163" y1="700.816" x2="636.815" y2="123.817" stroke="#F0F0F0" stroke-width="2"/>
<line x1="73.957" y1="714.959" x2="650.956" y2="137.96" stroke="#F0F0F0" stroke-width="2"/>
<line x1="88.1015" y1="729.1" x2="665.101" y2="152.1" stroke="#F0F0F0" stroke-width="2"/>
<line x1="102.242" y1="743.242" x2="679.241" y2="166.243" stroke="#F0F0F0" stroke-width="2"/>
<line x1="116.385" y1="757.385" x2="693.384" y2="180.386" stroke="#F0F0F0" stroke-width="2"/>
<line x1="130.527" y1="771.527" x2="707.526" y2="194.528" stroke="#F0F0F0" stroke-width="2"/>
<line x1="144.668" y1="785.668" x2="721.667" y2="208.669" stroke="#F0F0F0" stroke-width="2"/>
<line x1="158.81" y1="799.81" x2="735.81" y2="222.811" stroke="#F0F0F0" stroke-width="2"/>
<line x1="172.953" y1="813.953" x2="749.952" y2="236.954" stroke="#F0F0F0" stroke-width="2"/>
<line x1="187.096" y1="828.096" x2="764.095" y2="251.096" stroke="#F0F0F0" stroke-width="2"/>
<line x1="201.238" y1="842.238" x2="778.237" y2="265.239" stroke="#F0F0F0" stroke-width="2"/>
<line x1="215.379" y1="856.379" x2="792.378" y2="279.38" stroke="#F0F0F0" stroke-width="2"/>
<line x1="229.521" y1="870.521" x2="806.521" y2="293.522" stroke="#F0F0F0" stroke-width="2"/>
<line x1="243.664" y1="884.664" x2="820.663" y2="307.665" stroke="#F0F0F0" stroke-width="2"/>
<line x1="257.805" y1="898.807" x2="834.804" y2="321.807" stroke="#F0F0F0" stroke-width="2"/>
<line x1="271.949" y1="912.947" x2="848.948" y2="335.948" stroke="#F0F0F0" stroke-width="2"/>
</g>
<line x1="769" y1="480" x2="769" y2="4.37114e-08" stroke="#EAEAEA" stroke-width="2"/>
<line x1="837" y1="480" x2="837" y2="4.37114e-08" stroke="#EAEAEA" stroke-width="2"/>
<mask id="mask2_738_17620" style="mask-type:alpha" maskUnits="userSpaceOnUse" x="769" y="45" width="68" height="390">
<rect x="769" y="45" width="68" height="390" fill="#D9D9D9"/>
</mask>
<g mask="url(#mask2_738_17620)">
<line x1="193.551" y1="276.553" x2="770.55" y2="-300.447" stroke="#F0F0F0" stroke-width="2"/>
<line x1="207.695" y1="290.693" x2="784.694" y2="-286.306" stroke="#F0F0F0" stroke-width="2"/>
<line x1="221.836" y1="304.836" x2="798.835" y2="-272.163" stroke="#F0F0F0" stroke-width="2"/>
<line x1="235.978" y1="318.978" x2="812.978" y2="-258.021" stroke="#F0F0F0" stroke-width="2"/>
<line x1="250.121" y1="333.121" x2="827.12" y2="-243.878" stroke="#F0F0F0" stroke-width="2"/>
<line x1="264.262" y1="347.262" x2="841.261" y2="-229.738" stroke="#F0F0F0" stroke-width="2"/>
<line x1="278.404" y1="361.404" x2="855.403" y2="-215.595" stroke="#F0F0F0" stroke-width="2"/>
<line x1="292.547" y1="375.547" x2="869.546" y2="-201.452" stroke="#F0F0F0" stroke-width="2"/>
<line x1="306.689" y1="389.689" x2="883.689" y2="-187.31" stroke="#F0F0F0" stroke-width="2"/>
<line x1="320.832" y1="403.832" x2="897.831" y2="-173.167" stroke="#F0F0F0" stroke-width="2"/>
<line x1="334.973" y1="417.973" x2="911.972" y2="-159.027" stroke="#F0F0F0" stroke-width="2"/>
<line x1="349.115" y1="432.115" x2="926.114" y2="-144.884" stroke="#F0F0F0" stroke-width="2"/>
<line x1="363.258" y1="446.258" x2="940.257" y2="-130.741" stroke="#F0F0F0" stroke-width="2"/>
<line x1="377.398" y1="460.4" x2="954.398" y2="-116.599" stroke="#F0F0F0" stroke-width="2"/>
<line x1="391.543" y1="474.541" x2="968.542" y2="-102.458" stroke="#F0F0F0" stroke-width="2"/>
<line x1="405.684" y1="488.684" x2="982.683" y2="-88.3157" stroke="#F0F0F0" stroke-width="2"/>
<line x1="419.826" y1="502.826" x2="996.825" y2="-74.1731" stroke="#F0F0F0" stroke-width="2"/>
<line x1="433.969" y1="516.969" x2="1010.97" y2="-60.0305" stroke="#F0F0F0" stroke-width="2"/>
<line x1="448.109" y1="531.111" x2="1025.11" y2="-45.8879" stroke="#F0F0F0" stroke-width="2"/>
<line x1="462.254" y1="545.252" x2="1039.25" y2="-31.7473" stroke="#F0F0F0" stroke-width="2"/>
<line x1="476.394" y1="559.394" x2="1053.39" y2="-17.6047" stroke="#F0F0F0" stroke-width="2"/>
<line x1="490.537" y1="573.537" x2="1067.54" y2="-3.46214" stroke="#F0F0F0" stroke-width="2"/>
<line x1="504.68" y1="587.68" x2="1081.68" y2="10.6804" stroke="#F0F0F0" stroke-width="2"/>
<line x1="518.82" y1="601.82" x2="1095.82" y2="24.8211" stroke="#F0F0F0" stroke-width="2"/>
<line x1="532.963" y1="615.963" x2="1109.96" y2="38.9636" stroke="#F0F0F0" stroke-width="2"/>
<line x1="547.105" y1="630.105" x2="1124.1" y2="53.1062" stroke="#F0F0F0" stroke-width="2"/>
<line x1="561.246" y1="644.248" x2="1138.25" y2="67.2488" stroke="#F0F0F0" stroke-width="2"/>
<line x1="575.391" y1="658.391" x2="1152.39" y2="81.3914" stroke="#F0F0F0" stroke-width="2"/>
<line x1="589.531" y1="672.531" x2="1166.53" y2="95.532" stroke="#F0F0F0" stroke-width="2"/>
<line x1="603.674" y1="686.674" x2="1180.67" y2="109.675" stroke="#F0F0F0" stroke-width="2"/>
<line x1="617.816" y1="700.816" x2="1194.82" y2="123.817" stroke="#F0F0F0" stroke-width="2"/>
<line x1="631.957" y1="714.959" x2="1208.96" y2="137.96" stroke="#F0F0F0" stroke-width="2"/>
<line x1="646.101" y1="729.1" x2="1223.1" y2="152.1" stroke="#F0F0F0" stroke-width="2"/>
<line x1="660.242" y1="743.242" x2="1237.24" y2="166.243" stroke="#F0F0F0" stroke-width="2"/>
<line x1="674.385" y1="757.385" x2="1251.38" y2="180.386" stroke="#F0F0F0" stroke-width="2"/>
<line x1="688.527" y1="771.527" x2="1265.53" y2="194.528" stroke="#F0F0F0" stroke-width="2"/>
<line x1="702.668" y1="785.668" x2="1279.67" y2="208.669" stroke="#F0F0F0" stroke-width="2"/>
<line x1="716.81" y1="799.81" x2="1293.81" y2="222.811" stroke="#F0F0F0" stroke-width="2"/>
<line x1="730.953" y1="813.953" x2="1307.95" y2="236.954" stroke="#F0F0F0" stroke-width="2"/>
<line x1="745.096" y1="828.096" x2="1322.09" y2="251.096" stroke="#F0F0F0" stroke-width="2"/>
<line x1="759.238" y1="842.238" x2="1336.24" y2="265.239" stroke="#F0F0F0" stroke-width="2"/>
<line x1="773.379" y1="856.379" x2="1350.38" y2="279.38" stroke="#F0F0F0" stroke-width="2"/>
<line x1="787.521" y1="870.521" x2="1364.52" y2="293.522" stroke="#F0F0F0" stroke-width="2"/>
<line x1="801.664" y1="884.664" x2="1378.66" y2="307.665" stroke="#F0F0F0" stroke-width="2"/>
<line x1="815.805" y1="898.807" x2="1392.8" y2="321.807" stroke="#F0F0F0" stroke-width="2"/>
<line x1="829.949" y1="912.947" x2="1406.95" y2="335.948" stroke="#F0F0F0" stroke-width="2"/>
</g>
<line x1="701" y1="480" x2="701" y2="4.37114e-08" stroke="#EAEAEA" stroke-width="2"/>
<line x1="769" y1="480" x2="769" y2="4.37114e-08" stroke="#EAEAEA" stroke-width="2"/>
<mask id="mask3_738_17620" style="mask-type:alpha" maskUnits="userSpaceOnUse" x="701" y="45" width="68" height="390">
<rect x="701" y="45" width="68" height="390" fill="#D9D9D9"/>
</mask>
<g mask="url(#mask3_738_17620)">
<line x1="125.551" y1="276.553" x2="702.55" y2="-300.447" stroke="#F0F0F0" stroke-width="2"/>
<line x1="139.695" y1="290.693" x2="716.694" y2="-286.306" stroke="#F0F0F0" stroke-width="2"/>
<line x1="153.836" y1="304.836" x2="730.835" y2="-272.163" stroke="#F0F0F0" stroke-width="2"/>
<line x1="167.978" y1="318.978" x2="744.978" y2="-258.021" stroke="#F0F0F0" stroke-width="2"/>
<line x1="182.121" y1="333.121" x2="759.12" y2="-243.878" stroke="#F0F0F0" stroke-width="2"/>
<line x1="196.262" y1="347.262" x2="773.261" y2="-229.738" stroke="#F0F0F0" stroke-width="2"/>
<line x1="210.404" y1="361.404" x2="787.403" y2="-215.595" stroke="#F0F0F0" stroke-width="2"/>
<line x1="224.547" y1="375.547" x2="801.546" y2="-201.452" stroke="#F0F0F0" stroke-width="2"/>
<line x1="238.689" y1="389.689" x2="815.689" y2="-187.31" stroke="#F0F0F0" stroke-width="2"/>
<line x1="252.832" y1="403.832" x2="829.831" y2="-173.167" stroke="#F0F0F0" stroke-width="2"/>
<line x1="266.973" y1="417.973" x2="843.972" y2="-159.027" stroke="#F0F0F0" stroke-width="2"/>
<line x1="281.115" y1="432.115" x2="858.114" y2="-144.884" stroke="#F0F0F0" stroke-width="2"/>
<line x1="295.258" y1="446.258" x2="872.257" y2="-130.741" stroke="#F0F0F0" stroke-width="2"/>
<line x1="309.398" y1="460.4" x2="886.398" y2="-116.599" stroke="#F0F0F0" stroke-width="2"/>
<line x1="323.543" y1="474.541" x2="900.542" y2="-102.458" stroke="#F0F0F0" stroke-width="2"/>
<line x1="337.684" y1="488.684" x2="914.683" y2="-88.3157" stroke="#F0F0F0" stroke-width="2"/>
<line x1="351.826" y1="502.826" x2="928.825" y2="-74.1731" stroke="#F0F0F0" stroke-width="2"/>
<line x1="365.969" y1="516.969" x2="942.968" y2="-60.0305" stroke="#F0F0F0" stroke-width="2"/>
<line x1="380.109" y1="531.111" x2="957.108" y2="-45.8879" stroke="#F0F0F0" stroke-width="2"/>
<line x1="394.254" y1="545.252" x2="971.253" y2="-31.7473" stroke="#F0F0F0" stroke-width="2"/>
<line x1="408.394" y1="559.394" x2="985.394" y2="-17.6047" stroke="#F0F0F0" stroke-width="2"/>
<line x1="422.537" y1="573.537" x2="999.536" y2="-3.46214" stroke="#F0F0F0" stroke-width="2"/>
<line x1="436.68" y1="587.68" x2="1013.68" y2="10.6804" stroke="#F0F0F0" stroke-width="2"/>
<line x1="450.82" y1="601.82" x2="1027.82" y2="24.8211" stroke="#F0F0F0" stroke-width="2"/>
<line x1="464.963" y1="615.963" x2="1041.96" y2="38.9636" stroke="#F0F0F0" stroke-width="2"/>
<line x1="479.105" y1="630.105" x2="1056.1" y2="53.1062" stroke="#F0F0F0" stroke-width="2"/>
<line x1="493.246" y1="644.248" x2="1070.25" y2="67.2488" stroke="#F0F0F0" stroke-width="2"/>
<line x1="507.391" y1="658.391" x2="1084.39" y2="81.3914" stroke="#F0F0F0" stroke-width="2"/>
<line x1="521.531" y1="672.531" x2="1098.53" y2="95.532" stroke="#F0F0F0" stroke-width="2"/>
<line x1="535.674" y1="686.674" x2="1112.67" y2="109.675" stroke="#F0F0F0" stroke-width="2"/>
<line x1="549.816" y1="700.816" x2="1126.82" y2="123.817" stroke="#F0F0F0" stroke-width="2"/>
<line x1="563.957" y1="714.959" x2="1140.96" y2="137.96" stroke="#F0F0F0" stroke-width="2"/>
<line x1="578.101" y1="729.1" x2="1155.1" y2="152.1" stroke="#F0F0F0" stroke-width="2"/>
<line x1="592.242" y1="743.242" x2="1169.24" y2="166.243" stroke="#F0F0F0" stroke-width="2"/>
<line x1="606.385" y1="757.385" x2="1183.38" y2="180.386" stroke="#F0F0F0" stroke-width="2"/>
<line x1="620.527" y1="771.527" x2="1197.53" y2="194.528" stroke="#F0F0F0" stroke-width="2"/>
<line x1="634.668" y1="785.668" x2="1211.67" y2="208.669" stroke="#F0F0F0" stroke-width="2"/>
<line x1="648.81" y1="799.81" x2="1225.81" y2="222.811" stroke="#F0F0F0" stroke-width="2"/>
<line x1="662.953" y1="813.953" x2="1239.95" y2="236.954" stroke="#F0F0F0" stroke-width="2"/>
<line x1="677.096" y1="828.096" x2="1254.09" y2="251.096" stroke="#F0F0F0" stroke-width="2"/>
<line x1="691.238" y1="842.238" x2="1268.24" y2="265.239" stroke="#F0F0F0" stroke-width="2"/>
<line x1="705.379" y1="856.379" x2="1282.38" y2="279.38" stroke="#F0F0F0" stroke-width="2"/>
<line x1="719.521" y1="870.521" x2="1296.52" y2="293.522" stroke="#F0F0F0" stroke-width="2"/>
<line x1="733.664" y1="884.664" x2="1310.66" y2="307.665" stroke="#F0F0F0" stroke-width="2"/>
<line x1="747.805" y1="898.807" x2="1324.8" y2="321.807" stroke="#F0F0F0" stroke-width="2"/>
<line x1="761.949" y1="912.947" x2="1338.95" y2="335.948" stroke="#F0F0F0" stroke-width="2"/>
</g>
<line x1="2728" y1="480" x2="2728" y2="4.37114e-08" stroke="#EAEAEA" stroke-width="2"/>
<line x1="2796" y1="480" x2="2796" y2="4.37114e-08" stroke="#EAEAEA" stroke-width="2"/>
<mask id="mask4_738_17620" style="mask-type:alpha" maskUnits="userSpaceOnUse" x="2728" y="45" width="68" height="390">
<rect x="2728" y="45" width="68" height="390" fill="#D9D9D9"/>
</mask>
<g mask="url(#mask4_738_17620)">
<line x1="2152.55" y1="276.553" x2="2729.55" y2="-300.447" stroke="#F0F0F0" stroke-width="2"/>
<line x1="2166.7" y1="290.693" x2="2743.69" y2="-286.306" stroke="#F0F0F0" stroke-width="2"/>
<line x1="2180.84" y1="304.836" x2="2757.83" y2="-272.163" stroke="#F0F0F0" stroke-width="2"/>
<line x1="2194.98" y1="318.978" x2="2771.98" y2="-258.021" stroke="#F0F0F0" stroke-width="2"/>
<line x1="2209.12" y1="333.121" x2="2786.12" y2="-243.878" stroke="#F0F0F0" stroke-width="2"/>
<line x1="2223.26" y1="347.262" x2="2800.26" y2="-229.738" stroke="#F0F0F0" stroke-width="2"/>
<line x1="2237.4" y1="361.404" x2="2814.4" y2="-215.595" stroke="#F0F0F0" stroke-width="2"/>
<line x1="2251.55" y1="375.547" x2="2828.55" y2="-201.452" stroke="#F0F0F0" stroke-width="2"/>
<line x1="2265.69" y1="389.689" x2="2842.69" y2="-187.31" stroke="#F0F0F0" stroke-width="2"/>
<line x1="2279.83" y1="403.832" x2="2856.83" y2="-173.167" stroke="#F0F0F0" stroke-width="2"/>
<line x1="2293.97" y1="417.973" x2="2870.97" y2="-159.027" stroke="#F0F0F0" stroke-width="2"/>
<line x1="2308.12" y1="432.115" x2="2885.11" y2="-144.884" stroke="#F0F0F0" stroke-width="2"/>
<line x1="2322.26" y1="446.258" x2="2899.26" y2="-130.741" stroke="#F0F0F0" stroke-width="2"/>
<line x1="2336.4" y1="460.4" x2="2913.4" y2="-116.599" stroke="#F0F0F0" stroke-width="2"/>
<line x1="2350.54" y1="474.541" x2="2927.54" y2="-102.458" stroke="#F0F0F0" stroke-width="2"/>
<line x1="2364.68" y1="488.684" x2="2941.68" y2="-88.3157" stroke="#F0F0F0" stroke-width="2"/>
<line x1="2378.83" y1="502.826" x2="2955.83" y2="-74.1731" stroke="#F0F0F0" stroke-width="2"/>
<line x1="2392.97" y1="516.969" x2="2969.97" y2="-60.0305" stroke="#F0F0F0" stroke-width="2"/>
<line x1="2407.11" y1="531.111" x2="2984.11" y2="-45.8879" stroke="#F0F0F0" stroke-width="2"/>
<line x1="2421.25" y1="545.252" x2="2998.25" y2="-31.7473" stroke="#F0F0F0" stroke-width="2"/>
<line x1="2435.39" y1="559.394" x2="3012.39" y2="-17.6047" stroke="#F0F0F0" stroke-width="2"/>
<line x1="2449.54" y1="573.537" x2="3026.54" y2="-3.46214" stroke="#F0F0F0" stroke-width="2"/>
<line x1="2463.68" y1="587.68" x2="3040.68" y2="10.6804" stroke="#F0F0F0" stroke-width="2"/>
<line x1="2477.82" y1="601.82" x2="3054.82" y2="24.8211" stroke="#F0F0F0" stroke-width="2"/>
<line x1="2491.96" y1="615.963" x2="3068.96" y2="38.9636" stroke="#F0F0F0" stroke-width="2"/>
<line x1="2506.11" y1="630.105" x2="3083.1" y2="53.1062" stroke="#F0F0F0" stroke-width="2"/>
<line x1="2520.25" y1="644.248" x2="3097.25" y2="67.2488" stroke="#F0F0F0" stroke-width="2"/>
<line x1="2534.39" y1="658.391" x2="3111.39" y2="81.3914" stroke="#F0F0F0" stroke-width="2"/>
<line x1="2548.53" y1="672.531" x2="3125.53" y2="95.532" stroke="#F0F0F0" stroke-width="2"/>
<line x1="2562.67" y1="686.674" x2="3139.67" y2="109.675" stroke="#F0F0F0" stroke-width="2"/>
<line x1="2576.82" y1="700.816" x2="3153.82" y2="123.817" stroke="#F0F0F0" stroke-width="2"/>
<line x1="2590.96" y1="714.959" x2="3167.96" y2="137.96" stroke="#F0F0F0" stroke-width="2"/>
<line x1="2605.1" y1="729.1" x2="3182.1" y2="152.1" stroke="#F0F0F0" stroke-width="2"/>
<line x1="2619.24" y1="743.242" x2="3196.24" y2="166.243" stroke="#F0F0F0" stroke-width="2"/>
<line x1="2633.38" y1="757.385" x2="3210.38" y2="180.386" stroke="#F0F0F0" stroke-width="2"/>
<line x1="2647.53" y1="771.527" x2="3224.53" y2="194.528" stroke="#F0F0F0" stroke-width="2"/>
<line x1="2661.67" y1="785.668" x2="3238.67" y2="208.669" stroke="#F0F0F0" stroke-width="2"/>
<line x1="2675.81" y1="799.81" x2="3252.81" y2="222.811" stroke="#F0F0F0" stroke-width="2"/>
<line x1="2689.95" y1="813.953" x2="3266.95" y2="236.954" stroke="#F0F0F0" stroke-width="2"/>
<line x1="2704.1" y1="828.096" x2="3281.09" y2="251.096" stroke="#F0F0F0" stroke-width="2"/>
<line x1="2718.24" y1="842.238" x2="3295.24" y2="265.239" stroke="#F0F0F0" stroke-width="2"/>
<line x1="2732.38" y1="856.379" x2="3309.38" y2="279.38" stroke="#F0F0F0" stroke-width="2"/>
<line x1="2746.52" y1="870.521" x2="3323.52" y2="293.522" stroke="#F0F0F0" stroke-width="2"/>
<line x1="2760.66" y1="884.664" x2="3337.66" y2="307.665" stroke="#F0F0F0" stroke-width="2"/>
<line x1="2774.8" y1="898.807" x2="3351.8" y2="321.807" stroke="#F0F0F0" stroke-width="2"/>
<line x1="2788.95" y1="912.947" x2="3365.95" y2="335.948" stroke="#F0F0F0" stroke-width="2"/>
</g>
<line x1="2796" y1="480" x2="2796" y2="4.37114e-08" stroke="#EAEAEA" stroke-width="2"/>
<line x1="2864" y1="480" x2="2864" y2="4.37114e-08" stroke="#EAEAEA" stroke-width="2"/>
<mask id="mask5_738_17620" style="mask-type:alpha" maskUnits="userSpaceOnUse" x="2796" y="45" width="68" height="390">
<rect x="2796" y="45" width="68" height="390" fill="#D9D9D9"/>
</mask>
<g mask="url(#mask5_738_17620)">
<line x1="2220.55" y1="276.553" x2="2797.55" y2="-300.447" stroke="#F0F0F0" stroke-width="2"/>
<line x1="2234.7" y1="290.693" x2="2811.69" y2="-286.306" stroke="#F0F0F0" stroke-width="2"/>
<line x1="2248.84" y1="304.836" x2="2825.83" y2="-272.163" stroke="#F0F0F0" stroke-width="2"/>
<line x1="2262.98" y1="318.978" x2="2839.98" y2="-258.021" stroke="#F0F0F0" stroke-width="2"/>
<line x1="2277.12" y1="333.121" x2="2854.12" y2="-243.878" stroke="#F0F0F0" stroke-width="2"/>
<line x1="2291.26" y1="347.262" x2="2868.26" y2="-229.738" stroke="#F0F0F0" stroke-width="2"/>
<line x1="2305.4" y1="361.404" x2="2882.4" y2="-215.595" stroke="#F0F0F0" stroke-width="2"/>
<line x1="2319.55" y1="375.547" x2="2896.55" y2="-201.452" stroke="#F0F0F0" stroke-width="2"/>
<line x1="2333.69" y1="389.689" x2="2910.69" y2="-187.31" stroke="#F0F0F0" stroke-width="2"/>
<line x1="2347.83" y1="403.832" x2="2924.83" y2="-173.167" stroke="#F0F0F0" stroke-width="2"/>
<line x1="2361.97" y1="417.973" x2="2938.97" y2="-159.027" stroke="#F0F0F0" stroke-width="2"/>
<line x1="2376.12" y1="432.115" x2="2953.11" y2="-144.884" stroke="#F0F0F0" stroke-width="2"/>
<line x1="2390.26" y1="446.258" x2="2967.26" y2="-130.741" stroke="#F0F0F0" stroke-width="2"/>
<line x1="2404.4" y1="460.4" x2="2981.4" y2="-116.599" stroke="#F0F0F0" stroke-width="2"/>
<line x1="2418.54" y1="474.541" x2="2995.54" y2="-102.458" stroke="#F0F0F0" stroke-width="2"/>
<line x1="2432.68" y1="488.684" x2="3009.68" y2="-88.3157" stroke="#F0F0F0" stroke-width="2"/>
<line x1="2446.83" y1="502.826" x2="3023.83" y2="-74.1731" stroke="#F0F0F0" stroke-width="2"/>
<line x1="2460.97" y1="516.969" x2="3037.97" y2="-60.0305" stroke="#F0F0F0" stroke-width="2"/>
<line x1="2475.11" y1="531.111" x2="3052.11" y2="-45.8879" stroke="#F0F0F0" stroke-width="2"/>
<line x1="2489.25" y1="545.252" x2="3066.25" y2="-31.7473" stroke="#F0F0F0" stroke-width="2"/>
<line x1="2503.39" y1="559.394" x2="3080.39" y2="-17.6047" stroke="#F0F0F0" stroke-width="2"/>
<line x1="2517.54" y1="573.537" x2="3094.54" y2="-3.46214" stroke="#F0F0F0" stroke-width="2"/>
<line x1="2531.68" y1="587.68" x2="3108.68" y2="10.6804" stroke="#F0F0F0" stroke-width="2"/>
<line x1="2545.82" y1="601.82" x2="3122.82" y2="24.8211" stroke="#F0F0F0" stroke-width="2"/>
<line x1="2559.96" y1="615.963" x2="3136.96" y2="38.9636" stroke="#F0F0F0" stroke-width="2"/>
<line x1="2574.11" y1="630.105" x2="3151.1" y2="53.1062" stroke="#F0F0F0" stroke-width="2"/>
<line x1="2588.25" y1="644.248" x2="3165.25" y2="67.2488" stroke="#F0F0F0" stroke-width="2"/>
<line x1="2602.39" y1="658.391" x2="3179.39" y2="81.3914" stroke="#F0F0F0" stroke-width="2"/>
<line x1="2616.53" y1="672.531" x2="3193.53" y2="95.532" stroke="#F0F0F0" stroke-width="2"/>
<line x1="2630.67" y1="686.674" x2="3207.67" y2="109.675" stroke="#F0F0F0" stroke-width="2"/>
<line x1="2644.82" y1="700.816" x2="3221.82" y2="123.817" stroke="#F0F0F0" stroke-width="2"/>
<line x1="2658.96" y1="714.959" x2="3235.96" y2="137.96" stroke="#F0F0F0" stroke-width="2"/>
<line x1="2673.1" y1="729.1" x2="3250.1" y2="152.1" stroke="#F0F0F0" stroke-width="2"/>
<line x1="2687.24" y1="743.242" x2="3264.24" y2="166.243" stroke="#F0F0F0" stroke-width="2"/>
<line x1="2701.38" y1="757.385" x2="3278.38" y2="180.386" stroke="#F0F0F0" stroke-width="2"/>
<line x1="2715.53" y1="771.527" x2="3292.53" y2="194.528" stroke="#F0F0F0" stroke-width="2"/>
<line x1="2729.67" y1="785.668" x2="3306.67" y2="208.669" stroke="#F0F0F0" stroke-width="2"/>
<line x1="2743.81" y1="799.81" x2="3320.81" y2="222.811" stroke="#F0F0F0" stroke-width="2"/>
<line x1="2757.95" y1="813.953" x2="3334.95" y2="236.954" stroke="#F0F0F0" stroke-width="2"/>
<line x1="2772.1" y1="828.096" x2="3349.1" y2="251.096" stroke="#F0F0F0" stroke-width="2"/>
<line x1="2786.24" y1="842.238" x2="3363.24" y2="265.239" stroke="#F0F0F0" stroke-width="2"/>
<line x1="2800.38" y1="856.379" x2="3377.38" y2="279.38" stroke="#F0F0F0" stroke-width="2"/>
<line x1="2814.52" y1="870.521" x2="3391.52" y2="293.522" stroke="#F0F0F0" stroke-width="2"/>
<line x1="2828.66" y1="884.664" x2="3405.66" y2="307.665" stroke="#F0F0F0" stroke-width="2"/>
<line x1="2842.8" y1="898.807" x2="3419.8" y2="321.807" stroke="#F0F0F0" stroke-width="2"/>
<line x1="2856.95" y1="912.947" x2="3433.95" y2="335.948" stroke="#F0F0F0" stroke-width="2"/>
</g>
<mask id="mask6_738_17620" style="mask-type:alpha" maskUnits="userSpaceOnUse" x="594" y="115" width="36" height="37">
<rect x="594.459" y="116.185" width="34.9005" height="34.9005" fill="#D9D9D9" stroke="#B307EB" stroke-width="0.553977"/>
</mask>
<g mask="url(#mask6_738_17620)">
<line x1="547.567" y1="119.432" x2="647.848" y2="19.152" stroke="#B307EB" stroke-width="1.10795"/>
<line x1="551.485" y1="123.35" x2="651.766" y2="23.0699" stroke="#B307EB" stroke-width="1.10795"/>
<line x1="555.403" y1="127.266" x2="655.684" y2="26.9859" stroke="#B307EB" stroke-width="1.10795"/>
<line x1="559.319" y1="131.186" x2="659.6" y2="30.9059" stroke="#B307EB" stroke-width="1.10795"/>
<line x1="563.237" y1="135.102" x2="663.518" y2="34.8219" stroke="#B307EB" stroke-width="1.10795"/>
<line x1="567.155" y1="139.018" x2="667.436" y2="38.7379" stroke="#B307EB" stroke-width="1.10795"/>
<line x1="571.071" y1="142.936" x2="671.352" y2="42.6559" stroke="#B307EB" stroke-width="1.10795"/>
<line x1="574.989" y1="146.852" x2="675.27" y2="46.5719" stroke="#B307EB" stroke-width="1.10795"/>
<line x1="578.905" y1="150.768" x2="679.186" y2="50.4879" stroke="#B307EB" stroke-width="1.10795"/>
<line x1="582.823" y1="154.688" x2="683.104" y2="54.4078" stroke="#B307EB" stroke-width="1.10795"/>
<line x1="586.741" y1="158.604" x2="687.022" y2="58.3238" stroke="#B307EB" stroke-width="1.10795"/>
<line x1="590.657" y1="162.522" x2="690.938" y2="62.2418" stroke="#B307EB" stroke-width="1.10795"/>
<line x1="594.575" y1="166.438" x2="694.856" y2="66.1578" stroke="#B307EB" stroke-width="1.10795"/>
<line x1="598.491" y1="170.354" x2="698.772" y2="70.0738" stroke="#B307EB" stroke-width="1.10795"/>
<line x1="602.409" y1="174.274" x2="702.69" y2="73.9938" stroke="#B307EB" stroke-width="1.10795"/>
<line x1="606.327" y1="178.19" x2="706.608" y2="77.9098" stroke="#B307EB" stroke-width="1.10795"/>
<line x1="610.243" y1="182.108" x2="710.524" y2="81.8277" stroke="#B307EB" stroke-width="1.10795"/>
<line x1="614.161" y1="186.026" x2="714.442" y2="85.7457" stroke="#B307EB" stroke-width="1.10795"/>
<line x1="618.077" y1="189.944" x2="718.358" y2="89.6637" stroke="#B307EB" stroke-width="1.10795"/>
</g>
<mask id="mask7_738_17620" style="mask-type:alpha" maskUnits="userSpaceOnUse" x="629" y="115" width="37" height="37">
<rect x="629.912" y="116.185" width="34.9005" height="34.9005" fill="#D9D9D9" stroke="#3198F1" stroke-width="0.553977"/>
</mask>
<g mask="url(#mask7_738_17620)">
<line x1="587.694" y1="118.85" x2="687.975" y2="18.5699" stroke="#3198F1" stroke-width="1.10795"/>
<line x1="591.612" y1="122.766" x2="691.893" y2="22.4859" stroke="#3198F1" stroke-width="1.10795"/>
<line x1="595.528" y1="126.684" x2="695.809" y2="26.4039" stroke="#3198F1" stroke-width="1.10795"/>
<line x1="599.446" y1="130.6" x2="699.727" y2="30.3199" stroke="#3198F1" stroke-width="1.10795"/>
<line x1="603.364" y1="134.52" x2="703.645" y2="34.2398" stroke="#3198F1" stroke-width="1.10795"/>
<line x1="607.28" y1="138.436" x2="707.561" y2="38.1559" stroke="#3198F1" stroke-width="1.10795"/>
<line x1="611.198" y1="142.352" x2="711.479" y2="42.0719" stroke="#3198F1" stroke-width="1.10795"/>
<line x1="615.114" y1="146.272" x2="715.395" y2="45.9918" stroke="#3198F1" stroke-width="1.10795"/>
<line x1="619.032" y1="150.188" x2="719.313" y2="49.9078" stroke="#3198F1" stroke-width="1.10795"/>
<line x1="622.95" y1="154.106" x2="723.231" y2="53.8258" stroke="#3198F1" stroke-width="1.10795"/>
<line x1="626.866" y1="158.022" x2="727.147" y2="57.7418" stroke="#3198F1" stroke-width="1.10795"/>
<line x1="630.784" y1="161.938" x2="731.065" y2="61.6578" stroke="#3198F1" stroke-width="1.10795"/>
<line x1="634.7" y1="165.858" x2="734.981" y2="65.5777" stroke="#3198F1" stroke-width="1.10795"/>
<line x1="638.618" y1="169.774" x2="738.899" y2="69.4938" stroke="#3198F1" stroke-width="1.10795"/>
<line x1="642.536" y1="173.692" x2="742.817" y2="73.4117" stroke="#3198F1" stroke-width="1.10795"/>
<line x1="646.454" y1="177.608" x2="746.735" y2="77.3277" stroke="#3198F1" stroke-width="1.10795"/>
<line x1="650.37" y1="181.524" x2="750.651" y2="81.2438" stroke="#3198F1" stroke-width="1.10795"/>
<line x1="654.286" y1="185.444" x2="754.567" y2="85.1637" stroke="#3198F1" stroke-width="1.10795"/>
<line x1="658.204" y1="189.36" x2="758.485" y2="89.0797" stroke="#3198F1" stroke-width="1.10795"/>
<line x1="662.122" y1="193.278" x2="762.403" y2="92.9977" stroke="#3198F1" stroke-width="1.10795"/>
</g>
<mask id="mask8_738_17620" style="mask-type:alpha" maskUnits="userSpaceOnUse" x="629" y="80" width="37" height="36">
<rect x="629.912" y="80.7301" width="34.9005" height="34.9005" fill="#D9D9D9" stroke="#4EF9BD" stroke-width="0.553977"/>
</mask>
<g mask="url(#mask8_738_17620)">
<line x1="579.104" y1="80.0634" x2="679.385" y2="-20.2172" stroke="#4EF9BD" stroke-width="1.10795"/>
<line x1="583.02" y1="83.9794" x2="683.301" y2="-16.3012" stroke="#4EF9BD" stroke-width="1.10795"/>
<line x1="586.938" y1="87.8973" x2="687.219" y2="-12.3832" stroke="#4EF9BD" stroke-width="1.10795"/>
<line x1="590.856" y1="91.8134" x2="691.137" y2="-8.46719" stroke="#4EF9BD" stroke-width="1.10795"/>
<line x1="594.772" y1="95.7333" x2="695.053" y2="-4.54727" stroke="#4EF9BD" stroke-width="1.10795"/>
<line x1="598.69" y1="99.6493" x2="698.971" y2="-0.631252" stroke="#4EF9BD" stroke-width="1.10795"/>
<line x1="602.606" y1="103.565" x2="702.887" y2="3.28476" stroke="#4EF9BD" stroke-width="1.10795"/>
<line x1="606.524" y1="107.483" x2="706.805" y2="7.20273" stroke="#4EF9BD" stroke-width="1.10795"/>
<line x1="610.442" y1="111.399" x2="710.723" y2="11.1187" stroke="#4EF9BD" stroke-width="1.10795"/>
<line x1="614.358" y1="115.315" x2="714.639" y2="15.0348" stroke="#4EF9BD" stroke-width="1.10795"/>
<line x1="618.276" y1="119.235" x2="718.557" y2="18.9547" stroke="#4EF9BD" stroke-width="1.10795"/>
<line x1="622.192" y1="123.151" x2="722.473" y2="22.8707" stroke="#4EF9BD" stroke-width="1.10795"/>
<line x1="626.11" y1="127.069" x2="726.391" y2="26.7887" stroke="#4EF9BD" stroke-width="1.10795"/>
<line x1="630.028" y1="130.985" x2="730.309" y2="30.7047" stroke="#4EF9BD" stroke-width="1.10795"/>
<line x1="633.946" y1="134.901" x2="734.227" y2="34.6207" stroke="#4EF9BD" stroke-width="1.10795"/>
<line x1="637.862" y1="138.821" x2="738.143" y2="38.5406" stroke="#4EF9BD" stroke-width="1.10795"/>
<line x1="641.778" y1="142.737" x2="742.059" y2="42.4566" stroke="#4EF9BD" stroke-width="1.10795"/>
<line x1="645.696" y1="146.655" x2="745.977" y2="46.3746" stroke="#4EF9BD" stroke-width="1.10795"/>
<line x1="649.614" y1="150.571" x2="749.895" y2="50.2906" stroke="#4EF9BD" stroke-width="1.10795"/>
<line x1="653.532" y1="154.487" x2="753.813" y2="54.2066" stroke="#4EF9BD" stroke-width="1.10795"/>
</g>
<mask id="mask9_738_17620" style="mask-type:alpha" maskUnits="userSpaceOnUse" x="665" y="45" width="36" height="36">
<rect x="665.367" y="45.277" width="34.9005" height="34.9005" fill="#D9D9D9" stroke="#EE1701" stroke-width="0.553977"/>
</mask>
<g mask="url(#mask9_738_17620)">
<line x1="614.557" y1="44.6102" x2="714.838" y2="-55.6703" stroke="#EE1701" stroke-width="1.10795"/>
<line x1="618.474" y1="48.5262" x2="718.754" y2="-51.7543" stroke="#EE1701" stroke-width="1.10795"/>
<line x1="622.391" y1="52.4442" x2="722.672" y2="-47.8363" stroke="#EE1701" stroke-width="1.10795"/>
<line x1="626.309" y1="56.3602" x2="726.59" y2="-43.9203" stroke="#EE1701" stroke-width="1.10795"/>
<line x1="630.227" y1="60.2802" x2="730.508" y2="-40.0004" stroke="#EE1701" stroke-width="1.10795"/>
<line x1="634.143" y1="64.1962" x2="734.424" y2="-36.0844" stroke="#EE1701" stroke-width="1.10795"/>
<line x1="638.061" y1="68.1122" x2="738.342" y2="-32.1684" stroke="#EE1701" stroke-width="1.10795"/>
<line x1="641.977" y1="72.0302" x2="742.258" y2="-28.2504" stroke="#EE1701" stroke-width="1.10795"/>
<line x1="645.895" y1="75.9462" x2="746.176" y2="-24.3344" stroke="#EE1701" stroke-width="1.10795"/>
<line x1="649.813" y1="79.8622" x2="750.094" y2="-20.4184" stroke="#EE1701" stroke-width="1.10795"/>
<line x1="653.729" y1="83.7821" x2="754.01" y2="-16.4984" stroke="#EE1701" stroke-width="1.10795"/>
<line x1="657.647" y1="87.6981" x2="757.928" y2="-12.5824" stroke="#EE1701" stroke-width="1.10795"/>
<line x1="661.563" y1="91.6161" x2="761.844" y2="-8.66446" stroke="#EE1701" stroke-width="1.10795"/>
<line x1="665.481" y1="95.5321" x2="765.762" y2="-4.74844" stroke="#EE1701" stroke-width="1.10795"/>
<line x1="669.399" y1="99.4481" x2="769.68" y2="-0.832424" stroke="#EE1701" stroke-width="1.10795"/>
<line x1="673.315" y1="103.368" x2="773.596" y2="3.0875" stroke="#EE1701" stroke-width="1.10795"/>
<line x1="677.233" y1="107.284" x2="777.514" y2="7.00351" stroke="#EE1701" stroke-width="1.10795"/>
<line x1="681.149" y1="111.202" x2="781.43" y2="10.9215" stroke="#EE1701" stroke-width="1.10795"/>
<line x1="685.067" y1="115.118" x2="785.348" y2="14.8375" stroke="#EE1701" stroke-width="1.10795"/>
<line x1="688.985" y1="119.034" x2="789.266" y2="18.7535" stroke="#EE1701" stroke-width="1.10795"/>
</g>
<path d="M416.91 222.271H381.455V257.726H416.91V222.271Z" stroke="#D3D3D5" stroke-width="2"/>
<path d="M416.91 186.816H381.455V222.271H416.91V186.816Z" stroke="#D3D3D5" stroke-width="2"/>
<path d="M416.91 151.363H381.455V186.818H416.91V151.363Z" stroke="#D3D3D5" stroke-width="2"/>
<path d="M452.198 151.748H416.799V187.147H452.198V151.748Z" stroke="#D3D3D5" stroke-width="2"/>
<path d="M452.363 151.363H416.908V186.818H452.363V151.363Z" stroke="#D3D3D5" stroke-width="2"/>
<path d="M452.363 115.908H416.908V151.363H452.363V115.908Z" stroke="#D3D3D5" stroke-width="2"/>
<path d="M487.818 115.908H452.363V151.363H487.818V115.908Z" stroke="#D3D3D5" stroke-width="2"/>
<path d="M487.818 80.4551H452.363V115.91H487.818V80.4551Z" stroke="#D3D3D5" stroke-width="2"/>
<path d="M523.273 80.4551H487.818V115.91H523.273V80.4551Z" stroke="#D3D3D5" stroke-width="2"/>
<path d="M558.728 115.908H523.273V151.363H558.728V115.908Z" stroke="#D3D3D5" stroke-width="2"/>
<path d="M558.728 151.363H523.273V186.818H558.728V151.363Z" stroke="#D3D3D5" stroke-width="2"/>
<path d="M594.181 151.363H558.727V186.818H594.181V151.363Z" stroke="#D3D3D5" stroke-width="2"/>
<path d="M629.636 151.363H594.182V186.818H629.636V151.363Z" stroke="#D3D3D5" stroke-width="2"/>
<path d="M629.636 186.816H594.182V222.271H629.636V186.816Z" stroke="#D3D3D5" stroke-width="2"/>
<path d="M665.089 222.271H629.635V257.726H665.089V222.271Z" stroke="#D3D3D5" stroke-width="2"/>
<path d="M700.546 257.729H665.092V293.183H700.546V257.729Z" stroke="#D3D3D5" stroke-width="2"/>
<path d="M700.546 293.182H665.092V328.636H700.546V293.182Z" stroke="#D3D3D5" stroke-width="2"/>
<path d="M700.546 328.637H665.092V364.091H700.546V328.637Z" stroke="#D3D3D5" stroke-width="2"/>
<path d="M665.089 364.092H629.635V399.546H665.089V364.092Z" stroke="#D3D3D5" stroke-width="2"/>
<path d="M629.636 364.092H594.182V399.546H629.636V364.092Z" stroke="#D3D3D5" stroke-width="2"/>
<path d="M594.181 328.637H558.727V364.091H594.181V328.637Z" stroke="#D3D3D5" stroke-width="2"/>
<path d="M558.728 328.637H523.273V364.091H558.728V328.637Z" stroke="#D3D3D5" stroke-width="2"/>
<path d="M558.728 364.092H523.273V399.546H558.728V364.092Z" stroke="#D3D3D5" stroke-width="2"/>
<path d="M558.728 399.545H523.273V434.999H558.728V399.545Z" stroke="#D3D3D5" stroke-width="2"/>
<path d="M558.728 222.271H523.273V257.726H558.728V222.271Z" stroke="#D3D3D5" stroke-width="2"/>
<path d="M381.399 257.947H346V293.346H381.399V257.947Z" stroke="#D3D3D5" stroke-width="2"/>
<path d="M416.91 257.729H381.455V293.183H416.91V257.729Z" stroke="#D3D3D5" stroke-width="2"/>
<path d="M381.455 293.182H346V328.636H381.455V293.182Z" stroke="#D3D3D5" stroke-width="2"/>
<path d="M416.91 293.182H381.455V328.636H416.91V293.182Z" stroke="#D3D3D5" stroke-width="2"/>
<path d="M381.455 328.637H346V364.091H381.455V328.637Z" stroke="#D3D3D5" stroke-width="2"/>
<path d="M381.455 364.092H346V399.546H381.455V364.092Z" stroke="#D3D3D5" stroke-width="2"/>
<path d="M416.91 328.637H381.455V364.091H416.91V328.637Z" stroke="#D3D3D5" stroke-width="2"/>
<path d="M629.636 115.908H594.182V151.363H629.636V115.908Z" stroke="#D3D3D5" stroke-width="2"/>
<path d="M665.089 80.4551H629.635V115.91H665.089V80.4551Z" stroke="#D3D3D5" stroke-width="2"/>
<path d="M700.546 45H665.092V80.4545H700.546V45Z" stroke="#D3D3D5" stroke-width="2"/>
<path d="M381.455 222.271H346V257.726H381.455V222.271Z" stroke="#D3D3D5" stroke-width="2"/>
<path d="M665.089 115.908H629.635V151.363H665.089V115.908Z" stroke="#D3D3D5" stroke-width="2"/>
<mask id="path-419-outside-1_738_17620" maskUnits="userSpaceOnUse" x="834.867" y="114" width="1895" height="250" fill="black">
<rect fill="white" x="834.867" y="114" width="1895" height="250"/>
<path d="M837.867 116H861.412L861.562 338.455H838.017L837.867 116ZM861.562 338.455H932.197V362H861.562V338.455ZM932.048 116H955.593L955.742 338.455H932.197L932.048 116Z"/>
<path d="M997.745 198.089H1021.29V221.634H1044.83V245.179H1021.29V339.359H997.745V198.089ZM1044.83 198.089H1091.93V221.634H1044.83V198.089ZM1091.93 221.634H1115.47V339.359H1091.93V221.634Z"/>
<path d="M1204.56 221.634H1157.47V198.089H1228.11V315.814H1275.2V339.359H1157.47V315.814H1204.56V221.634ZM1204.56 150.999H1228.11V174.544H1204.56V150.999Z"/>
<path d="M1340.75 198.089H1411.38V221.634H1340.75V198.089ZM1317.2 221.634H1340.75V315.814H1317.2V221.634ZM1340.75 315.814H1411.38V339.359H1340.75V315.814ZM1411.38 221.634H1434.93V245.179H1411.38V221.634ZM1411.38 292.269H1434.93V315.814H1411.38V292.269Z"/>
<path d="M1500.47 198.089H1571.11V221.634H1500.47V198.089ZM1571.11 221.634H1594.65V315.814H1571.11V221.634ZM1476.93 221.634H1500.47V315.814H1476.93V221.634ZM1500.47 315.814H1571.11V339.359H1500.47V315.814Z"/>
<path d="M1683.75 198.089V221.634H1707.29V245.179H1683.75V315.814H1730.84V339.359H1636.66V315.814H1660.2V221.634H1636.66V198.089H1683.75ZM1754.38 198.089V221.634H1707.29V198.089H1754.38Z"/>
<path d="M1796.38 198.089H1819.93V221.634H1843.47V245.179H1819.93V339.359H1796.38V198.089ZM1843.47 198.089H1890.56V221.634H1843.47V198.089ZM1890.56 221.634H1914.11V339.359H1890.56V221.634Z"/>
<path d="M1971.02 116H1994.56V198.089H2018.11V221.634H1994.56V362H1971.02V116ZM2065.2 221.634H2041.65V198.089H2065.2V116H2088.74V362H2065.2V221.634ZM2018.11 221.634H2041.65V268.724H2018.11V221.634Z"/>
<path d="M2130.74 268.724H2154.29V315.814H2130.74V268.724ZM2154.29 315.814H2201.38V339.359H2154.29V315.814ZM2201.38 292.269H2224.92V268.724H2154.29V245.179H2224.92V221.634H2248.47V339.359H2224.92V315.814H2201.38V292.269ZM2154.29 198.089H2224.92V221.634H2154.29V198.089Z"/>
<path d="M2314.02 221.634H2290.47V198.089H2314.02V174.544H2337.56V198.089H2408.2V221.634H2337.56V315.814H2384.65V339.359H2290.47V315.814H2314.02V221.634ZM2337.56 150.999H2408.2V174.544H2337.56V150.999Z"/>
<path d="M2497.29 221.634H2450.2V198.089H2520.83V315.814H2567.93V339.359H2450.2V315.814H2497.29V221.634ZM2497.29 150.999H2520.83V174.544H2497.29V150.999Z"/>
<path d="M2609.93 268.724H2633.47V315.814H2609.93V268.724ZM2633.47 315.814H2680.56V339.359H2633.47V315.814ZM2680.56 292.269H2704.11V268.724H2633.47V245.179H2704.11V221.634H2727.65V339.359H2704.11V315.814H2680.56V292.269ZM2633.47 198.089H2704.11V221.634H2633.47V198.089Z"/>
</mask>
<path d="M837.867 116V114H835.866L835.867 116.001L837.867 116ZM861.412 116L863.412 115.999L863.411 114H861.412V116ZM838.017 338.455L836.017 338.456L836.018 340.455H838.017V338.455ZM932.197 362V364H934.197V362H932.197ZM861.562 362H859.562V364H861.562V362ZM932.048 116V114H930.046L930.048 116.001L932.048 116ZM955.593 116L957.593 115.999L957.591 114H955.593V116ZM955.742 338.455V340.455H957.744L957.742 338.454L955.742 338.455ZM997.745 198.089V196.089H995.745V198.089H997.745ZM1021.29 198.089H1023.29V196.089H1021.29V198.089ZM1021.29 221.634H1019.29V223.634H1021.29V221.634ZM1044.83 245.179V247.179H1046.83V245.179H1044.83ZM1021.29 245.179V243.179H1019.29V245.179H1021.29ZM1021.29 339.359V341.359H1023.29V339.359H1021.29ZM997.745 339.359H995.745V341.359H997.745V339.359ZM1044.83 198.089V196.089H1042.83V198.089H1044.83ZM1091.93 198.089H1093.93V196.089H1091.93V198.089ZM1115.47 221.634H1117.47V219.634H1115.47V221.634ZM1115.47 339.359V341.359H1117.47V339.359H1115.47ZM1091.93 339.359H1089.93V341.359H1091.93V339.359ZM1204.56 221.634H1206.56V219.634H1204.56V221.634ZM1157.47 221.634H1155.47V223.634H1157.47V221.634ZM1157.47 198.089V196.089H1155.47V198.089H1157.47ZM1228.11 198.089H1230.11V196.089H1228.11V198.089ZM1228.11 315.814H1226.11V317.814H1228.11V315.814ZM1275.2 315.814H1277.2V313.814H1275.2V315.814ZM1275.2 339.359V341.359H1277.2V339.359H1275.2ZM1157.47 339.359H1155.47V341.359H1157.47V339.359ZM1157.47 315.814V313.814H1155.47V315.814H1157.47ZM1204.56 315.814V317.814H1206.56V315.814H1204.56ZM1204.56 150.999V148.999H1202.56V150.999H1204.56ZM1228.11 150.999H1230.11V148.999H1228.11V150.999ZM1228.11 174.544V176.544H1230.11V174.544H1228.11ZM1204.56 174.544H1202.56V176.544H1204.56V174.544ZM1340.75 198.089V196.089H1338.75V198.089H1340.75ZM1411.38 198.089H1413.38V196.089H1411.38V198.089ZM1317.2 221.634V219.634H1315.2V221.634H1317.2ZM1317.2 315.814H1315.2V317.814H1317.2V315.814ZM1411.38 339.359V341.359H1413.38V339.359H1411.38ZM1340.75 339.359H1338.75V341.359H1340.75V339.359ZM1434.93 221.634H1436.93V219.634H1434.93V221.634ZM1434.93 245.179V247.179H1436.93V245.179H1434.93ZM1411.38 245.179H1409.38V247.179H1411.38V245.179ZM1411.38 292.269V290.269H1409.38V292.269H1411.38ZM1434.93 292.269H1436.93V290.269H1434.93V292.269ZM1434.93 315.814V317.814H1436.93V315.814H1434.93ZM1500.47 198.089V196.089H1498.47V198.089H1500.47ZM1571.11 198.089H1573.11V196.089H1571.11V198.089ZM1594.65 221.634H1596.65V219.634H1594.65V221.634ZM1594.65 315.814V317.814H1596.65V315.814H1594.65ZM1476.93 221.634V219.634H1474.93V221.634H1476.93ZM1476.93 315.814H1474.93V317.814H1476.93V315.814ZM1571.11 339.359V341.359H1573.11V339.359H1571.11ZM1500.47 339.359H1498.47V341.359H1500.47V339.359ZM1683.75 198.089H1685.75V196.089H1683.75V198.089ZM1683.75 221.634H1681.75V223.634H1683.75V221.634ZM1707.29 245.179V247.179H1709.29V245.179H1707.29ZM1683.75 245.179V243.179H1681.75V245.179H1683.75ZM1683.75 315.814H1681.75V317.814H1683.75V315.814ZM1730.84 315.814H1732.84V313.814H1730.84V315.814ZM1730.84 339.359V341.359H1732.84V339.359H1730.84ZM1636.66 339.359H1634.66V341.359H1636.66V339.359ZM1636.66 315.814V313.814H1634.66V315.814H1636.66ZM1660.2 315.814V317.814H1662.2V315.814H1660.2ZM1660.2 221.634H1662.2V219.634H1660.2V221.634ZM1636.66 221.634H1634.66V223.634H1636.66V221.634ZM1636.66 198.089V196.089H1634.66V198.089H1636.66ZM1754.38 198.089H1756.38V196.089H1754.38V198.089ZM1754.38 221.634V223.634H1756.38V221.634H1754.38ZM1707.29 198.089V196.089H1705.29V198.089H1707.29ZM1796.38 198.089V196.089H1794.38V198.089H1796.38ZM1819.93 198.089H1821.93V196.089H1819.93V198.089ZM1819.93 221.634H1817.93V223.634H1819.93V221.634ZM1843.47 245.179V247.179H1845.47V245.179H1843.47ZM1819.93 245.179V243.179H1817.93V245.179H1819.93ZM1819.93 339.359V341.359H1821.93V339.359H1819.93ZM1796.38 339.359H1794.38V341.359H1796.38V339.359ZM1843.47 198.089V196.089H1841.47V198.089H1843.47ZM1890.56 198.089H1892.56V196.089H1890.56V198.089ZM1914.11 221.634H1916.11V219.634H1914.11V221.634ZM1914.11 339.359V341.359H1916.11V339.359H1914.11ZM1890.56 339.359H1888.56V341.359H1890.56V339.359ZM1971.02 116V114H1969.02V116H1971.02ZM1994.56 116H1996.56V114H1994.56V116ZM1994.56 198.089H1992.56V200.089H1994.56V198.089ZM2018.11 198.089H2020.11V196.089H2018.11V198.089ZM1994.56 221.634V219.634H1992.56V221.634H1994.56ZM1994.56 362V364H1996.56V362H1994.56ZM1971.02 362H1969.02V364H1971.02V362ZM2065.2 221.634H2067.2V219.634H2065.2V221.634ZM2041.65 198.089V196.089H2039.65V198.089H2041.65ZM2065.2 198.089V200.089H2067.2V198.089H2065.2ZM2065.2 116V114H2063.2V116H2065.2ZM2088.74 116H2090.74V114H2088.74V116ZM2088.74 362V364H2090.74V362H2088.74ZM2065.2 362H2063.2V364H2065.2V362ZM2041.65 268.724V270.724H2043.65V268.724H2041.65ZM2018.11 268.724H2016.11V270.724H2018.11V268.724ZM2130.74 268.724V266.724H2128.74V268.724H2130.74ZM2130.74 315.814H2128.74V317.814H2130.74V315.814ZM2201.38 339.359V341.359H2203.38V339.359H2201.38ZM2154.29 339.359H2152.29V341.359H2154.29V339.359ZM2201.38 292.269V290.269H2199.38V292.269H2201.38ZM2224.92 292.269V294.269H2226.92V292.269H2224.92ZM2224.92 268.724H2226.92V266.724H2224.92V268.724ZM2154.29 245.179V243.179H2152.29V245.179H2154.29ZM2224.92 245.179V247.179H2226.92V245.179H2224.92ZM2248.47 221.634H2250.47V219.634H2248.47V221.634ZM2248.47 339.359V341.359H2250.47V339.359H2248.47ZM2224.92 339.359H2222.92V341.359H2224.92V339.359ZM2224.92 315.814H2226.92V313.814H2224.92V315.814ZM2154.29 198.089V196.089H2152.29V198.089H2154.29ZM2224.92 198.089H2226.92V196.089H2224.92V198.089ZM2154.29 221.634H2152.29V223.634H2154.29V221.634ZM2314.02 221.634H2316.02V219.634H2314.02V221.634ZM2290.47 221.634H2288.47V223.634H2290.47V221.634ZM2290.47 198.089V196.089H2288.47V198.089H2290.47ZM2314.02 198.089V200.089H2316.02V198.089H2314.02ZM2314.02 174.544V172.544H2312.02V174.544H2314.02ZM2337.56 198.089H2335.56V200.089H2337.56V198.089ZM2408.2 198.089H2410.2V196.089H2408.2V198.089ZM2408.2 221.634V223.634H2410.2V221.634H2408.2ZM2337.56 221.634V219.634H2335.56V221.634H2337.56ZM2337.56 315.814H2335.56V317.814H2337.56V315.814ZM2384.65 315.814H2386.65V313.814H2384.65V315.814ZM2384.65 339.359V341.359H2386.65V339.359H2384.65ZM2290.47 339.359H2288.47V341.359H2290.47V339.359ZM2290.47 315.814V313.814H2288.47V315.814H2290.47ZM2314.02 315.814V317.814H2316.02V315.814H2314.02ZM2337.56 150.999V148.999H2335.56V150.999H2337.56ZM2408.2 150.999H2410.2V148.999H2408.2V150.999ZM2408.2 174.544V176.544H2410.2V174.544H2408.2ZM2497.29 221.634H2499.29V219.634H2497.29V221.634ZM2450.2 221.634H2448.2V223.634H2450.2V221.634ZM2450.2 198.089V196.089H2448.2V198.089H2450.2ZM2520.83 198.089H2522.83V196.089H2520.83V198.089ZM2520.83 315.814H2518.83V317.814H2520.83V315.814ZM2567.93 315.814H2569.93V313.814H2567.93V315.814ZM2567.93 339.359V341.359H2569.93V339.359H2567.93ZM2450.2 339.359H2448.2V341.359H2450.2V339.359ZM2450.2 315.814V313.814H2448.2V315.814H2450.2ZM2497.29 315.814V317.814H2499.29V315.814H2497.29ZM2497.29 150.999V148.999H2495.29V150.999H2497.29ZM2520.83 150.999H2522.83V148.999H2520.83V150.999ZM2520.83 174.544V176.544H2522.83V174.544H2520.83ZM2497.29 174.544H2495.29V176.544H2497.29V174.544ZM2609.93 268.724V266.724H2607.93V268.724H2609.93ZM2609.93 315.814H2607.93V317.814H2609.93V315.814ZM2680.56 339.359V341.359H2682.56V339.359H2680.56ZM2633.47 339.359H2631.47V341.359H2633.47V339.359ZM2680.56 292.269V290.269H2678.56V292.269H2680.56ZM2704.11 292.269V294.269H2706.11V292.269H2704.11ZM2704.11 268.724H2706.11V266.724H2704.11V268.724ZM2633.47 245.179V243.179H2631.47V245.179H2633.47ZM2704.11 245.179V247.179H2706.11V245.179H2704.11ZM2727.65 221.634H2729.65V219.634H2727.65V221.634ZM2727.65 339.359V341.359H2729.65V339.359H2727.65ZM2704.11 339.359H2702.11V341.359H2704.11V339.359ZM2704.11 315.814H2706.11V313.814H2704.11V315.814ZM2633.47 198.089V196.089H2631.47V198.089H2633.47ZM2704.11 198.089H2706.11V196.089H2704.11V198.089ZM2633.47 221.634H2631.47V223.634H2633.47V221.634ZM837.867 116V118H861.412V116V114H837.867V116ZM861.412 116L859.412 116.001L859.562 338.456L861.562 338.455L863.562 338.454L863.412 115.999L861.412 116ZM861.562 338.455V336.455H838.017V338.455V340.455H861.562V338.455ZM838.017 338.455L840.017 338.454L839.867 115.999L837.867 116L835.867 116.001L836.017 338.456L838.017 338.455ZM861.562 338.455V340.455H932.197V338.455V336.455H861.562V338.455ZM932.197 338.455H930.197V362H932.197H934.197V338.455H932.197ZM932.197 362V360H861.562V362V364H932.197V362ZM861.562 362H863.562V338.455H861.562H859.562V362H861.562ZM932.048 116V118H955.593V116V114H932.048V116ZM955.593 116L953.593 116.001L953.742 338.456L955.742 338.455L957.742 338.454L957.593 115.999L955.593 116ZM955.742 338.455V336.455H932.197V338.455V340.455H955.742V338.455ZM932.197 338.455L934.197 338.454L934.048 115.999L932.048 116L930.048 116.001L930.197 338.456L932.197 338.455ZM997.745 198.089V200.089H1021.29V198.089V196.089H997.745V198.089ZM1021.29 198.089H1019.29V221.634H1021.29H1023.29V198.089H1021.29ZM1021.29 221.634V223.634H1044.83V221.634V219.634H1021.29V221.634ZM1044.83 221.634H1042.83V245.179H1044.83H1046.83V221.634H1044.83ZM1044.83 245.179V243.179H1021.29V245.179V247.179H1044.83V245.179ZM1021.29 245.179H1019.29V339.359H1021.29H1023.29V245.179H1021.29ZM1021.29 339.359V337.359H997.745V339.359V341.359H1021.29V339.359ZM997.745 339.359H999.745V198.089H997.745H995.745V339.359H997.745ZM1044.83 198.089V200.089H1091.93V198.089V196.089H1044.83V198.089ZM1091.93 198.089H1089.93V221.634H1091.93H1093.93V198.089H1091.93ZM1091.93 221.634V219.634H1044.83V221.634V223.634H1091.93V221.634ZM1044.83 221.634H1046.83V198.089H1044.83H1042.83V221.634H1044.83ZM1091.93 221.634V223.634H1115.47V221.634V219.634H1091.93V221.634ZM1115.47 221.634H1113.47V339.359H1115.47H1117.47V221.634H1115.47ZM1115.47 339.359V337.359H1091.93V339.359V341.359H1115.47V339.359ZM1091.93 339.359H1093.93V221.634H1091.93H1089.93V339.359H1091.93ZM1204.56 221.634V219.634H1157.47V221.634V223.634H1204.56V221.634ZM1157.47 221.634H1159.47V198.089H1157.47H1155.47V221.634H1157.47ZM1157.47 198.089V200.089H1228.11V198.089V196.089H1157.47V198.089ZM1228.11 198.089H1226.11V315.814H1228.11H1230.11V198.089H1228.11ZM1228.11 315.814V317.814H1275.2V315.814V313.814H1228.11V315.814ZM1275.2 315.814H1273.2V339.359H1275.2H1277.2V315.814H1275.2ZM1275.2 339.359V337.359H1157.47V339.359V341.359H1275.2V339.359ZM1157.47 339.359H1159.47V315.814H1157.47H1155.47V339.359H1157.47ZM1157.47 315.814V317.814H1204.56V315.814V313.814H1157.47V315.814ZM1204.56 315.814H1206.56V221.634H1204.56H1202.56V315.814H1204.56ZM1204.56 150.999V152.999H1228.11V150.999V148.999H1204.56V150.999ZM1228.11 150.999H1226.11V174.544H1228.11H1230.11V150.999H1228.11ZM1228.11 174.544V172.544H1204.56V174.544V176.544H1228.11V174.544ZM1204.56 174.544H1206.56V150.999H1204.56H1202.56V174.544H1204.56ZM1340.75 198.089V200.089H1411.38V198.089V196.089H1340.75V198.089ZM1411.38 198.089H1409.38V221.634H1411.38H1413.38V198.089H1411.38ZM1411.38 221.634V219.634H1340.75V221.634V223.634H1411.38V221.634ZM1340.75 221.634H1342.75V198.089H1340.75H1338.75V221.634H1340.75ZM1317.2 221.634V223.634H1340.75V221.634V219.634H1317.2V221.634ZM1340.75 221.634H1338.75V315.814H1340.75H1342.75V221.634H1340.75ZM1340.75 315.814V313.814H1317.2V315.814V317.814H1340.75V315.814ZM1317.2 315.814H1319.2V221.634H1317.2H1315.2V315.814H1317.2ZM1340.75 315.814V317.814H1411.38V315.814V313.814H1340.75V315.814ZM1411.38 315.814H1409.38V339.359H1411.38H1413.38V315.814H1411.38ZM1411.38 339.359V337.359H1340.75V339.359V341.359H1411.38V339.359ZM1340.75 339.359H1342.75V315.814H1340.75H1338.75V339.359H1340.75ZM1411.38 221.634V223.634H1434.93V221.634V219.634H1411.38V221.634ZM1434.93 221.634H1432.93V245.179H1434.93H1436.93V221.634H1434.93ZM1434.93 245.179V243.179H1411.38V245.179V247.179H1434.93V245.179ZM1411.38 245.179H1413.38V221.634H1411.38H1409.38V245.179H1411.38ZM1411.38 292.269V294.269H1434.93V292.269V290.269H1411.38V292.269ZM1434.93 292.269H1432.93V315.814H1434.93H1436.93V292.269H1434.93ZM1434.93 315.814V313.814H1411.38V315.814V317.814H1434.93V315.814ZM1411.38 315.814H1413.38V292.269H1411.38H1409.38V315.814H1411.38ZM1500.47 198.089V200.089H1571.11V198.089V196.089H1500.47V198.089ZM1571.11 198.089H1569.11V221.634H1571.11H1573.11V198.089H1571.11ZM1571.11 221.634V219.634H1500.47V221.634V223.634H1571.11V221.634ZM1500.47 221.634H1502.47V198.089H1500.47H1498.47V221.634H1500.47ZM1571.11 221.634V223.634H1594.65V221.634V219.634H1571.11V221.634ZM1594.65 221.634H1592.65V315.814H1594.65H1596.65V221.634H1594.65ZM1594.65 315.814V313.814H1571.11V315.814V317.814H1594.65V315.814ZM1571.11 315.814H1573.11V221.634H1571.11H1569.11V315.814H1571.11ZM1476.93 221.634V223.634H1500.47V221.634V219.634H1476.93V221.634ZM1500.47 221.634H1498.47V315.814H1500.47H1502.47V221.634H1500.47ZM1500.47 315.814V313.814H1476.93V315.814V317.814H1500.47V315.814ZM1476.93 315.814H1478.93V221.634H1476.93H1474.93V315.814H1476.93ZM1500.47 315.814V317.814H1571.11V315.814V313.814H1500.47V315.814ZM1571.11 315.814H1569.11V339.359H1571.11H1573.11V315.814H1571.11ZM1571.11 339.359V337.359H1500.47V339.359V341.359H1571.11V339.359ZM1500.47 339.359H1502.47V315.814H1500.47H1498.47V339.359H1500.47ZM1683.75 198.089H1681.75V221.634H1683.75H1685.75V198.089H1683.75ZM1683.75 221.634V223.634H1707.29V221.634V219.634H1683.75V221.634ZM1707.29 221.634H1705.29V245.179H1707.29H1709.29V221.634H1707.29ZM1707.29 245.179V243.179H1683.75V245.179V247.179H1707.29V245.179ZM1683.75 245.179H1681.75V315.814H1683.75H1685.75V245.179H1683.75ZM1683.75 315.814V317.814H1730.84V315.814V313.814H1683.75V315.814ZM1730.84 315.814H1728.84V339.359H1730.84H1732.84V315.814H1730.84ZM1730.84 339.359V337.359H1636.66V339.359V341.359H1730.84V339.359ZM1636.66 339.359H1638.66V315.814H1636.66H1634.66V339.359H1636.66ZM1636.66 315.814V317.814H1660.2V315.814V313.814H1636.66V315.814ZM1660.2 315.814H1662.2V221.634H1660.2H1658.2V315.814H1660.2ZM1660.2 221.634V219.634H1636.66V221.634V223.634H1660.2V221.634ZM1636.66 221.634H1638.66V198.089H1636.66H1634.66V221.634H1636.66ZM1636.66 198.089V200.089H1683.75V198.089V196.089H1636.66V198.089ZM1754.38 198.089H1752.38V221.634H1754.38H1756.38V198.089H1754.38ZM1754.38 221.634V219.634H1707.29V221.634V223.634H1754.38V221.634ZM1707.29 221.634H1709.29V198.089H1707.29H1705.29V221.634H1707.29ZM1707.29 198.089V200.089H1754.38V198.089V196.089H1707.29V198.089ZM1796.38 198.089V200.089H1819.93V198.089V196.089H1796.38V198.089ZM1819.93 198.089H1817.93V221.634H1819.93H1821.93V198.089H1819.93ZM1819.93 221.634V223.634H1843.47V221.634V219.634H1819.93V221.634ZM1843.47 221.634H1841.47V245.179H1843.47H1845.47V221.634H1843.47ZM1843.47 245.179V243.179H1819.93V245.179V247.179H1843.47V245.179ZM1819.93 245.179H1817.93V339.359H1819.93H1821.93V245.179H1819.93ZM1819.93 339.359V337.359H1796.38V339.359V341.359H1819.93V339.359ZM1796.38 339.359H1798.38V198.089H1796.38H1794.38V339.359H1796.38ZM1843.47 198.089V200.089H1890.56V198.089V196.089H1843.47V198.089ZM1890.56 198.089H1888.56V221.634H1890.56H1892.56V198.089H1890.56ZM1890.56 221.634V219.634H1843.47V221.634V223.634H1890.56V221.634ZM1843.47 221.634H1845.47V198.089H1843.47H1841.47V221.634H1843.47ZM1890.56 221.634V223.634H1914.11V221.634V219.634H1890.56V221.634ZM1914.11 221.634H1912.11V339.359H1914.11H1916.11V221.634H1914.11ZM1914.11 339.359V337.359H1890.56V339.359V341.359H1914.11V339.359ZM1890.56 339.359H1892.56V221.634H1890.56H1888.56V339.359H1890.56ZM1971.02 116V118H1994.56V116V114H1971.02V116ZM1994.56 116H1992.56V198.089H1994.56H1996.56V116H1994.56ZM1994.56 198.089V200.089H2018.11V198.089V196.089H1994.56V198.089ZM2018.11 198.089H2016.11V221.634H2018.11H2020.11V198.089H2018.11ZM2018.11 221.634V219.634H1994.56V221.634V223.634H2018.11V221.634ZM1994.56 221.634H1992.56V362H1994.56H1996.56V221.634H1994.56ZM1994.56 362V360H1971.02V362V364H1994.56V362ZM1971.02 362H1973.02V116H1971.02H1969.02V362H1971.02ZM2065.2 221.634V219.634H2041.65V221.634V223.634H2065.2V221.634ZM2041.65 221.634H2043.65V198.089H2041.65H2039.65V221.634H2041.65ZM2041.65 198.089V200.089H2065.2V198.089V196.089H2041.65V198.089ZM2065.2 198.089H2067.2V116H2065.2H2063.2V198.089H2065.2ZM2065.2 116V118H2088.74V116V114H2065.2V116ZM2088.74 116H2086.74V362H2088.74H2090.74V116H2088.74ZM2088.74 362V360H2065.2V362V364H2088.74V362ZM2065.2 362H2067.2V221.634H2065.2H2063.2V362H2065.2ZM2018.11 221.634V223.634H2041.65V221.634V219.634H2018.11V221.634ZM2041.65 221.634H2039.65V268.724H2041.65H2043.65V221.634H2041.65ZM2041.65 268.724V266.724H2018.11V268.724V270.724H2041.65V268.724ZM2018.11 268.724H2020.11V221.634H2018.11H2016.11V268.724H2018.11ZM2130.74 268.724V270.724H2154.29V268.724V266.724H2130.74V268.724ZM2154.29 268.724H2152.29V315.814H2154.29H2156.29V268.724H2154.29ZM2154.29 315.814V313.814H2130.74V315.814V317.814H2154.29V315.814ZM2130.74 315.814H2132.74V268.724H2130.74H2128.74V315.814H2130.74ZM2154.29 315.814V317.814H2201.38V315.814V313.814H2154.29V315.814ZM2201.38 315.814H2199.38V339.359H2201.38H2203.38V315.814H2201.38ZM2201.38 339.359V337.359H2154.29V339.359V341.359H2201.38V339.359ZM2154.29 339.359H2156.29V315.814H2154.29H2152.29V339.359H2154.29ZM2201.38 292.269V294.269H2224.92V292.269V290.269H2201.38V292.269ZM2224.92 292.269H2226.92V268.724H2224.92H2222.92V292.269H2224.92ZM2224.92 268.724V266.724H2154.29V268.724V270.724H2224.92V268.724ZM2154.29 268.724H2156.29V245.179H2154.29H2152.29V268.724H2154.29ZM2154.29 245.179V247.179H2224.92V245.179V243.179H2154.29V245.179ZM2224.92 245.179H2226.92V221.634H2224.92H2222.92V245.179H2224.92ZM2224.92 221.634V223.634H2248.47V221.634V219.634H2224.92V221.634ZM2248.47 221.634H2246.47V339.359H2248.47H2250.47V221.634H2248.47ZM2248.47 339.359V337.359H2224.92V339.359V341.359H2248.47V339.359ZM2224.92 339.359H2226.92V315.814H2224.92H2222.92V339.359H2224.92ZM2224.92 315.814V313.814H2201.38V315.814V317.814H2224.92V315.814ZM2201.38 315.814H2203.38V292.269H2201.38H2199.38V315.814H2201.38ZM2154.29 198.089V200.089H2224.92V198.089V196.089H2154.29V198.089ZM2224.92 198.089H2222.92V221.634H2224.92H2226.92V198.089H2224.92ZM2224.92 221.634V219.634H2154.29V221.634V223.634H2224.92V221.634ZM2154.29 221.634H2156.29V198.089H2154.29H2152.29V221.634H2154.29ZM2314.02 221.634V219.634H2290.47V221.634V223.634H2314.02V221.634ZM2290.47 221.634H2292.47V198.089H2290.47H2288.47V221.634H2290.47ZM2290.47 198.089V200.089H2314.02V198.089V196.089H2290.47V198.089ZM2314.02 198.089H2316.02V174.544H2314.02H2312.02V198.089H2314.02ZM2314.02 174.544V176.544H2337.56V174.544V172.544H2314.02V174.544ZM2337.56 174.544H2335.56V198.089H2337.56H2339.56V174.544H2337.56ZM2337.56 198.089V200.089H2408.2V198.089V196.089H2337.56V198.089ZM2408.2 198.089H2406.2V221.634H2408.2H2410.2V198.089H2408.2ZM2408.2 221.634V219.634H2337.56V221.634V223.634H2408.2V221.634ZM2337.56 221.634H2335.56V315.814H2337.56H2339.56V221.634H2337.56ZM2337.56 315.814V317.814H2384.65V315.814V313.814H2337.56V315.814ZM2384.65 315.814H2382.65V339.359H2384.65H2386.65V315.814H2384.65ZM2384.65 339.359V337.359H2290.47V339.359V341.359H2384.65V339.359ZM2290.47 339.359H2292.47V315.814H2290.47H2288.47V339.359H2290.47ZM2290.47 315.814V317.814H2314.02V315.814V313.814H2290.47V315.814ZM2314.02 315.814H2316.02V221.634H2314.02H2312.02V315.814H2314.02ZM2337.56 150.999V152.999H2408.2V150.999V148.999H2337.56V150.999ZM2408.2 150.999H2406.2V174.544H2408.2H2410.2V150.999H2408.2ZM2408.2 174.544V172.544H2337.56V174.544V176.544H2408.2V174.544ZM2337.56 174.544H2339.56V150.999H2337.56H2335.56V174.544H2337.56ZM2497.29 221.634V219.634H2450.2V221.634V223.634H2497.29V221.634ZM2450.2 221.634H2452.2V198.089H2450.2H2448.2V221.634H2450.2ZM2450.2 198.089V200.089H2520.83V198.089V196.089H2450.2V198.089ZM2520.83 198.089H2518.83V315.814H2520.83H2522.83V198.089H2520.83ZM2520.83 315.814V317.814H2567.93V315.814V313.814H2520.83V315.814ZM2567.93 315.814H2565.93V339.359H2567.93H2569.93V315.814H2567.93ZM2567.93 339.359V337.359H2450.2V339.359V341.359H2567.93V339.359ZM2450.2 339.359H2452.2V315.814H2450.2H2448.2V339.359H2450.2ZM2450.2 315.814V317.814H2497.29V315.814V313.814H2450.2V315.814ZM2497.29 315.814H2499.29V221.634H2497.29H2495.29V315.814H2497.29ZM2497.29 150.999V152.999H2520.83V150.999V148.999H2497.29V150.999ZM2520.83 150.999H2518.83V174.544H2520.83H2522.83V150.999H2520.83ZM2520.83 174.544V172.544H2497.29V174.544V176.544H2520.83V174.544ZM2497.29 174.544H2499.29V150.999H2497.29H2495.29V174.544H2497.29ZM2609.93 268.724V270.724H2633.47V268.724V266.724H2609.93V268.724ZM2633.47 268.724H2631.47V315.814H2633.47H2635.47V268.724H2633.47ZM2633.47 315.814V313.814H2609.93V315.814V317.814H2633.47V315.814ZM2609.93 315.814H2611.93V268.724H2609.93H2607.93V315.814H2609.93ZM2633.47 315.814V317.814H2680.56V315.814V313.814H2633.47V315.814ZM2680.56 315.814H2678.56V339.359H2680.56H2682.56V315.814H2680.56ZM2680.56 339.359V337.359H2633.47V339.359V341.359H2680.56V339.359ZM2633.47 339.359H2635.47V315.814H2633.47H2631.47V339.359H2633.47ZM2680.56 292.269V294.269H2704.11V292.269V290.269H2680.56V292.269ZM2704.11 292.269H2706.11V268.724H2704.11H2702.11V292.269H2704.11ZM2704.11 268.724V266.724H2633.47V268.724V270.724H2704.11V268.724ZM2633.47 268.724H2635.47V245.179H2633.47H2631.47V268.724H2633.47ZM2633.47 245.179V247.179H2704.11V245.179V243.179H2633.47V245.179ZM2704.11 245.179H2706.11V221.634H2704.11H2702.11V245.179H2704.11ZM2704.11 221.634V223.634H2727.65V221.634V219.634H2704.11V221.634ZM2727.65 221.634H2725.65V339.359H2727.65H2729.65V221.634H2727.65ZM2727.65 339.359V337.359H2704.11V339.359V341.359H2727.65V339.359ZM2704.11 339.359H2706.11V315.814H2704.11H2702.11V339.359H2704.11ZM2704.11 315.814V313.814H2680.56V315.814V317.814H2704.11V315.814ZM2680.56 315.814H2682.56V292.269H2680.56H2678.56V315.814H2680.56ZM2633.47 198.089V200.089H2704.11V198.089V196.089H2633.47V198.089ZM2704.11 198.089H2702.11V221.634H2704.11H2706.11V198.089H2704.11ZM2704.11 221.634V219.634H2633.47V221.634V223.634H2704.11V221.634ZM2633.47 221.634H2635.47V198.089H2633.47H2631.47V221.634H2633.47Z" fill="#D3D3D5" mask="url(#path-419-outside-1_738_17620)"/>
</svg>
