<svg width="1024" height="1024" viewBox="0 0 1024 1024" fill="none" xmlns="http://www.w3.org/2000/svg">
<rect x="255.273" y="480.364" width="64.2727" height="64.2727" fill="black"/>
<rect x="255.273" y="416.091" width="64.2727" height="64.2727" fill="black"/>
<rect x="255.273" y="351.818" width="64.2727" height="64.2727" fill="black"/>
<rect x="319.545" y="351.818" width="64.2727" height="64.2727" fill="black"/>
<rect x="319.545" y="287.545" width="64.2727" height="64.2727" fill="black"/>
<rect x="383.818" y="287.545" width="64.2727" height="64.2727" fill="black"/>
<rect x="383.818" y="223.273" width="64.2727" height="64.2727" fill="black"/>
<rect x="448.091" y="223.273" width="64.2727" height="64.2727" fill="black"/>
<rect x="512.364" y="287.545" width="64.2727" height="64.2727" fill="black"/>
<rect x="512.364" y="351.818" width="64.2727" height="64.2727" fill="black"/>
<rect x="576.636" y="351.818" width="64.2727" height="64.2727" fill="black"/>
<rect x="640.909" y="351.818" width="64.2727" height="64.2727" fill="black"/>
<rect x="640.909" y="416.091" width="64.2727" height="64.2727" fill="black"/>
<rect x="705.182" y="480.364" width="64.2727" height="64.2727" fill="black"/>
<rect x="769.455" y="544.636" width="64.2727" height="64.2727" fill="black"/>
<rect x="769.455" y="608.909" width="64.2727" height="64.2727" fill="black"/>
<rect x="769.455" y="673.182" width="64.2727" height="64.2727" fill="black"/>
<rect x="705.182" y="737.455" width="64.2727" height="64.2727" fill="black"/>
<rect x="640.909" y="737.455" width="64.2727" height="64.2727" fill="black"/>
<rect x="576.636" y="673.182" width="64.2727" height="64.2727" fill="black"/>
<rect x="512.364" y="673.182" width="64.2727" height="64.2727" fill="black"/>
<rect x="512.364" y="737.455" width="64.2727" height="64.2727" fill="black"/>
<rect x="512.364" y="801.727" width="64.2727" height="64.2727" fill="black"/>
<rect x="512.364" y="801.727" width="64.2727" height="64.2727" fill="black"/>
<rect x="520.747" y="480.364" width="64.2727" height="64.2727" fill="black"/>
<rect x="191" y="544.636" width="64.2727" height="64.2727" fill="black"/>
<rect x="255.273" y="480.364" width="64.2727" height="64.2727" fill="black"/>
<rect x="191" y="544.636" width="64.2727" height="64.2727" fill="black"/>
<rect x="255.273" y="544.636" width="64.2727" height="64.2727" fill="black"/>
<rect x="191" y="608.909" width="64.2727" height="64.2727" fill="black"/>
<rect x="255.273" y="608.909" width="64.2727" height="64.2727" fill="black"/>
<rect x="191" y="673.182" width="64.2727" height="64.2727" fill="black"/>
<rect x="191" y="737.455" width="64.2727" height="64.2727" fill="black"/>
<rect x="255.273" y="673.182" width="64.2727" height="64.2727" fill="black"/>
<rect x="640.909" y="287.545" width="64.2727" height="64.2727" fill="#B307EB"/>
<rect x="705.182" y="287.545" width="64.2727" height="64.2727" fill="#3198F1"/>
<rect x="705.182" y="223.273" width="64.2727" height="64.2727" fill="#4EF9BD"/>
<rect x="769.455" y="159" width="64.2727" height="64.2727" fill="#EE1701"/>
<rect x="191" y="480.364" width="64.2727" height="64.2727" fill="black"/>
</svg>
