<svg width="1458" height="294" viewBox="0 0 1458 294" fill="none" xmlns="http://www.w3.org/2000/svg" shape-rendering="geometricPrecision">
<g transform="translate(-2.8, -61.8)">
<path d="M453 355.8C447.133 355.8 440.333 355 432.6 353.4C425.133 352.067 417.8 349.4 410.6 345.4C403.667 341.4 397.933 335.533 393.4 327.8C388.867 319.8 386.6 309.4 386.6 296.6C386.6 282.2 389.8 270.333 396.2 261C402.6 251.4 411.533 243.933 423 238.6C434.733 233 448.6 229.133 464.6 227C480.867 224.6 498.6 223.4 517.8 223.4V206.2C517.8 200.067 516.867 194.6 515 189.8C513.133 185 509.667 181.267 504.6 178.6C499.8 175.667 492.467 174.2 482.6 174.2C472.733 174.2 465 175.4 459.4 177.8C453.8 180.2 449.933 183.133 447.8 186.6C445.667 190.067 444.6 193.667 444.6 197.4V203H397.4C397.133 201.667 397 200.333 397 199C397 197.667 397 196.067 397 194.2C397 182.2 400.6 171.8 407.8 163C415 154.2 425 147.533 437.8 143C450.6 138.2 465.4 135.8 482.2 135.8C501.4 135.8 517.133 138.467 529.4 143.8C541.933 149.133 551.267 156.733 557.4 166.6C563.533 176.467 566.6 188.467 566.6 202.6V301.8C566.6 306.867 568.067 310.467 571 312.6C573.933 314.733 577.133 315.8 580.6 315.8H593.4V349.4C590.733 350.467 586.867 351.667 581.8 353C576.733 354.6 570.467 355.4 563 355.4C556.067 355.4 549.8 354.2 544.2 351.8C538.867 349.667 534.333 346.467 530.6 342.2C526.867 337.933 524.2 332.867 522.6 327H520.2C515.667 332.6 510.2 337.667 503.8 342.2C497.667 346.467 490.333 349.8 481.8 352.2C473.533 354.6 463.933 355.8 453 355.8ZM467.8 315.8C475.8 315.8 482.867 314.6 489 312.2C495.4 309.8 500.6 306.467 504.6 302.2C508.867 297.933 512.067 292.733 514.2 286.6C516.6 280.467 517.8 273.8 517.8 266.6V257C503.133 257 489.533 257.933 477 259.8C464.733 261.667 454.867 265.133 447.4 270.2C440.2 275.267 436.6 282.467 436.6 291.8C436.6 296.6 437.667 300.867 439.8 304.6C442.2 308.067 445.667 310.867 450.2 313C455 314.867 460.867 315.8 467.8 315.8ZM703.266 355.8C688.066 355.8 674.732 354.2 663.266 351C651.799 347.533 642.199 342.867 634.466 337C626.732 331.133 620.866 324.333 616.866 316.6C613.132 308.6 611.266 299.933 611.266 290.6C611.266 289.267 611.266 288.067 611.266 287C611.532 285.933 611.666 285.133 611.666 284.6H659.666C659.666 285.133 659.666 285.667 659.666 286.2C659.666 286.733 659.666 287.267 659.666 287.8C659.932 295 662.199 300.867 666.466 305.4C670.732 309.667 676.332 312.733 683.266 314.6C690.199 316.467 697.532 317.4 705.266 317.4C712.199 317.4 718.732 316.733 724.866 315.4C731.266 313.8 736.466 311.4 740.466 308.2C744.732 304.733 746.866 300.333 746.866 295C746.866 288.067 744.199 282.733 738.866 279C733.532 275.267 726.466 272.2 717.666 269.8C709.132 267.4 699.932 264.867 690.066 262.2C681.266 259.8 672.466 257.133 663.666 254.2C654.866 251.267 646.866 247.533 639.666 243C632.732 238.467 626.999 232.6 622.466 225.4C618.199 218.2 616.066 209.267 616.066 198.6C616.066 188.2 618.332 179.133 622.866 171.4C627.399 163.667 633.666 157.267 641.666 152.2C649.666 146.867 659.132 142.867 670.066 140.2C680.999 137.533 692.866 136.2 705.666 136.2C718.199 136.2 729.532 137.533 739.666 140.2C750.066 142.867 758.999 146.733 766.466 151.8C774.199 156.6 780.066 162.6 784.066 169.8C788.332 176.733 790.466 184.467 790.466 193C790.466 194.867 790.332 196.733 790.066 198.6C790.066 200.467 790.066 201.533 790.066 201.8H742.466V199C742.466 193.933 740.866 189.667 737.666 186.2C734.732 182.467 730.332 179.533 724.466 177.4C718.866 175.267 711.799 174.2 703.266 174.2C696.866 174.2 691.266 174.733 686.466 175.8C681.666 176.867 677.666 178.333 674.466 180.2C671.532 182.067 669.266 184.2 667.666 186.6C666.066 189 665.266 191.667 665.266 194.6C665.266 199.667 667.266 203.667 671.266 206.6C675.266 209.533 680.599 212.067 687.266 214.2C694.199 216.333 701.666 218.6 709.666 221C719.266 223.667 729.132 226.467 739.266 229.4C749.399 232.067 758.732 235.533 767.266 239.8C776.066 244.067 783.132 250.067 788.466 257.8C793.799 265.533 796.466 275.8 796.466 288.6C796.466 300.867 794.066 311.4 789.266 320.2C784.732 328.733 778.199 335.667 769.666 341C761.399 346.067 751.532 349.8 740.066 352.2C728.866 354.6 716.599 355.8 703.266 355.8ZM919.672 355.8C904.472 355.8 891.139 354.2 879.672 351C868.205 347.533 858.605 342.867 850.872 337C843.139 331.133 837.272 324.333 833.272 316.6C829.539 308.6 827.672 299.933 827.672 290.6C827.672 289.267 827.672 288.067 827.672 287C827.939 285.933 828.072 285.133 828.072 284.6H876.072C876.072 285.133 876.072 285.667 876.072 286.2C876.072 286.733 876.072 287.267 876.072 287.8C876.339 295 878.605 300.867 882.872 305.4C887.139 309.667 892.739 312.733 899.672 314.6C906.605 316.467 913.939 317.4 921.672 317.4C928.605 317.4 935.139 316.733 941.272 315.4C947.672 313.8 952.872 311.4 956.872 308.2C961.139 304.733 963.272 300.333 963.272 295C963.272 288.067 960.605 282.733 955.272 279C949.939 275.267 942.872 272.2 934.072 269.8C925.539 267.4 916.339 264.867 906.472 262.2C897.672 259.8 888.872 257.133 880.072 254.2C871.272 251.267 863.272 247.533 856.072 243C849.139 238.467 843.405 232.6 838.872 225.4C834.605 218.2 832.472 209.267 832.472 198.6C832.472 188.2 834.739 179.133 839.272 171.4C843.805 163.667 850.072 157.267 858.072 152.2C866.072 146.867 875.539 142.867 886.472 140.2C897.405 137.533 909.272 136.2 922.072 136.2C934.605 136.2 945.939 137.533 956.072 140.2C966.472 142.867 975.405 146.733 982.872 151.8C990.605 156.6 996.472 162.6 1000.47 169.8C1004.74 176.733 1006.87 184.467 1006.87 193C1006.87 194.867 1006.74 196.733 1006.47 198.6C1006.47 200.467 1006.47 201.533 1006.47 201.8H958.872V199C958.872 193.933 957.272 189.667 954.072 186.2C951.139 182.467 946.739 179.533 940.872 177.4C935.272 175.267 928.205 174.2 919.672 174.2C913.272 174.2 907.672 174.733 902.872 175.8C898.072 176.867 894.072 178.333 890.872 180.2C887.939 182.067 885.672 184.2 884.072 186.6C882.472 189 881.672 191.667 881.672 194.6C881.672 199.667 883.672 203.667 887.672 206.6C891.672 209.533 897.005 212.067 903.672 214.2C910.605 216.333 918.072 218.6 926.072 221C935.672 223.667 945.539 226.467 955.672 229.4C965.805 232.067 975.139 235.533 983.672 239.8C992.472 244.067 999.539 250.067 1004.87 257.8C1010.21 265.533 1012.87 275.8 1012.87 288.6C1012.87 300.867 1010.47 311.4 1005.67 320.2C1001.14 328.733 994.605 335.667 986.072 341C977.805 346.067 967.939 349.8 956.472 352.2C945.272 354.6 933.005 355.8 919.672 355.8ZM1054.08 108.2V61.8H1102.88V108.2H1054.08ZM1054.08 351V140.6H1102.88V351H1054.08ZM1236.86 355.8C1221.66 355.8 1208.33 354.2 1196.86 351C1185.39 347.533 1175.79 342.867 1168.06 337C1160.33 331.133 1154.46 324.333 1150.46 316.6C1146.73 308.6 1144.86 299.933 1144.86 290.6C1144.86 289.267 1144.86 288.067 1144.86 287C1145.13 285.933 1145.26 285.133 1145.26 284.6H1193.26C1193.26 285.133 1193.26 285.667 1193.26 286.2C1193.26 286.733 1193.26 287.267 1193.26 287.8C1193.53 295 1195.79 300.867 1200.06 305.4C1204.33 309.667 1209.93 312.733 1216.86 314.6C1223.79 316.467 1231.13 317.4 1238.86 317.4C1245.79 317.4 1252.33 316.733 1258.46 315.4C1264.86 313.8 1270.06 311.4 1274.06 308.2C1278.33 304.733 1280.46 300.333 1280.46 295C1280.46 288.067 1277.79 282.733 1272.46 279C1267.13 275.267 1260.06 272.2 1251.26 269.8C1242.73 267.4 1233.53 264.867 1223.66 262.2C1214.86 259.8 1206.06 257.133 1197.26 254.2C1188.46 251.267 1180.46 247.533 1173.26 243C1166.33 238.467 1160.59 232.6 1156.06 225.4C1151.79 218.2 1149.66 209.267 1149.66 198.6C1149.66 188.2 1151.93 179.133 1156.46 171.4C1160.99 163.667 1167.26 157.267 1175.26 152.2C1183.26 146.867 1192.73 142.867 1203.66 140.2C1214.59 137.533 1226.46 136.2 1239.26 136.2C1251.79 136.2 1263.13 137.533 1273.26 140.2C1283.66 142.867 1292.59 146.733 1300.06 151.8C1307.79 156.6 1313.66 162.6 1317.66 169.8C1321.93 176.733 1324.06 184.467 1324.06 193C1324.06 194.867 1323.93 196.733 1323.66 198.6C1323.66 200.467 1323.66 201.533 1323.66 201.8H1276.06V199C1276.06 193.933 1274.46 189.667 1271.26 186.2C1268.33 182.467 1263.93 179.533 1258.06 177.4C1252.46 175.267 1245.39 174.2 1236.86 174.2C1230.46 174.2 1224.86 174.733 1220.06 175.8C1215.26 176.867 1211.26 178.333 1208.06 180.2C1205.13 182.067 1202.86 184.2 1201.26 186.6C1199.66 189 1198.86 191.667 1198.86 194.6C1198.86 199.667 1200.86 203.667 1204.86 206.6C1208.86 209.533 1214.19 212.067 1220.86 214.2C1227.79 216.333 1235.26 218.6 1243.26 221C1252.86 223.667 1262.73 226.467 1272.86 229.4C1282.99 232.067 1292.33 235.533 1300.86 239.8C1309.66 244.067 1316.73 250.067 1322.06 257.8C1327.39 265.533 1330.06 275.8 1330.06 288.6C1330.06 300.867 1327.66 311.4 1322.86 320.2C1318.33 328.733 1311.79 335.667 1303.26 341C1294.99 346.067 1285.13 349.8 1273.66 352.2C1262.46 354.6 1250.19 355.8 1236.86 355.8ZM1426.87 355.8C1413.8 355.8 1403.53 353.267 1396.07 348.2C1388.6 342.867 1383.27 336.2 1380.07 328.2C1377.13 319.933 1375.67 311.533 1375.67 303V180.6H1350.47V140.6H1376.87L1385.67 81.8H1424.47V140.6H1460.87V180.6H1424.47V298.2C1424.47 303.8 1425.93 308.2 1428.87 311.4C1431.8 314.333 1436.2 315.8 1442.07 315.8H1460.87V349.4C1458.2 350.467 1454.87 351.4 1450.87 352.2C1447.13 353.267 1443.13 354.067 1438.87 354.6C1434.6 355.4 1430.6 355.8 1426.87 355.8Z" fill="black"/>
<mask id="mask0_8_83" style="mask-type:luminance" maskUnits="userSpaceOnUse" x="0" y="0" width="398" height="542">
<path d="M398 0H0V542H398V0Z" fill="white"/>
<path d="M320 74L256 359H240L303.5 74H320Z" fill="black"/>
<path d="M313 74L249 359H233L296.5 74H313Z" fill="black"/>
<path d="M121 257L58 542H41L104.5 257H121Z" fill="black"/>
<path d="M122 218L59 503H42L105.5 218H122Z" fill="black"/>
<path d="M122 243L59 528H42L105.5 243H122Z" fill="black"/>
<path d="M148 71L85 356H68L131.5 71H148Z" fill="black"/>
<path d="M283 210L220 495H203L266.5 210H283Z" fill="black"/>
<path d="M283 235L220 520H203L266.5 235H283Z" fill="black"/>
<path d="M309.5 60L246.5 345H229.5L293 60H309.5Z" fill="black"/>
</mask>
<g mask="url(#mask0_8_83)">
<path d="M72 351L2.79999 76.2H78L111.6 220.6C112.133 223 112.8 226.467 113.6 231C114.4 235.533 115.2 240.333 116 245.4C117.067 250.467 118 255.133 118.8 259.4H120.4C120.933 256.733 121.467 253.667 122 250.2C122.533 246.467 123.067 242.867 123.6 239.4C124.4 235.667 125.067 232.2 125.6 229C126.4 225.8 126.933 223 127.2 220.6L158.8 76.2H236.8L269.2 220.6C270 223.267 270.8 226.867 271.6 231.4C272.4 235.933 273.2 240.733 274 245.8C275.067 250.867 276 255.4 276.8 259.4H278.4C278.933 256.467 279.467 253.4 280 250.2C280.8 246.733 281.467 243.267 282 239.8C282.8 236.067 283.467 232.6 284 229.4C284.8 226.2 285.467 223.267 286 220.6L318.4 76.2H388.8L319.6 351H239.6L204.4 199C203.867 195.267 203.067 191 202 186.2C200.933 181.4 199.867 176.6 198.8 171.8C198 167 197.333 162.733 196.8 159H195.2C194.667 162.733 194 167 193.2 171.8C192.4 176.6 191.467 181.4 190.4 186.2C189.6 191 188.8 195.267 188 199L153.2 351H72Z" fill="#25D366"/>
</g>
</g>
</svg>
